<?xml version="1.0" standalone="no"?>
<!DOCTYPE svg PUBLIC "-//W3C//DTD SVG 1.1//EN" "http://www.w3.org/Graphics/SVG/1.1/DTD/svg11.dtd">
<svg xmlns="http://www.w3.org/2000/svg"><metadata>This SVG WebFont was generated by YouWorkForThem.
Copyright (c) Mark Simonson, 2005. All rights reserved.</metadata><defs><font horiz-adv-x="1169" id="ywftsvg"><font-face ascent="1618" bbox="-461 -530 2351 1815" cap-height="1366" descent="-430" font-family="" font-stretch="normal" font-weight="300" panose-1="2 0 5 6 3 0 0 2 0 4" underline-position="0" underline-thickness="0" unicode-range="U+000D-FB04" units-per-em="2048" x-height="989"/><missing-glyph d="M930 -184h-719v1724h719v-1724zM864 -123v1602h-590v-1602h590z" horiz-adv-x="1058"/><glyph d="M1178 1386q92 0 155 -43l-45 -77q-38 28 -114 28t-123 -54t-72 -161l-21 -90h201l-20 -94h-201l-199 -895h-106l198 895h-163l20 94h164l18 90q68 307 308 307zM919 -401q-132 0 -204 86l57 77q53 -72 148 -71q150 0 192 182l248 1116h106l-247 -1116 q-31 -139 -99.5 -206.5t-200.5 -67.5zM1456 1145q-33 0 -54.5 21.5t-21.5 55.5t29 59.5t62 25.5t54 -20.5t21 -55.5t-28.5 -60.5t-61.5 -25.5zM637 1386q119 0 194 -75l-61 -68q-47 51 -131 51t-131 -53t-72 -162l-20 -90h202l-22 -94h-201l-196 -895h-109l199 895h-164 l20 94h164l19 90q72 307 309 307z" glyph-name="uniE004" horiz-adv-x="1521" unicode="ffj"/><glyph d="M635 1386q90 0 156 -43l-46 -77q-39 28 -115 28t-122.5 -54t-71.5 -161l-20 -90h200l-20 -94h-201l-198 -895h-107l199 895h-164l20 94h164l19 90q68 307 307 307zM374 -401q-134 0 -202 86l57 77q53 -72 148 -71q150 0 192 182l248 1116h107l-248 -1116 q-31 -139 -99.5 -206.5t-202.5 -67.5zM913 1145q-33 0 -54 21.5t-21 55.5t28.5 59.5t62.5 25.5t54.5 -20.5t20.5 -55.5t-29 -60.5t-62 -25.5z" glyph-name="uniE005" horiz-adv-x="978" unicode="fj"/><glyph d="M637 1386q119 0 194 -75l-61 -68q-47 51 -131 51t-131 -53t-72 -162l-20 -90h202l-22 -94h-201l-196 -895h-109l199 895h-164l20 94h164l19 90q72 307 309 307zM1180 1386q119 0 194 -75l-61 -68q-47 51 -131 51t-131 -53t-72 -162l-21 -90h203l-22 -94h-201l-197 -895 h-108l198 895h-163l20 94h164l18 90q72 307 310 307z" glyph-name="uniFB00" horiz-adv-x="1085" unicode="ff"/><glyph d="M635 1386q90 0 156 -43l-46 -77q-39 28 -115 28t-122.5 -54t-71.5 -161l-20 -90h200l-20 -94h-201l-198 -895h-107l199 895h-164l20 94h164l19 90q68 307 307 307zM913 1145q-33 0 -54 21.5t-21 55.5t28.5 59.5t62.5 25.5t54.5 -20.5t20.5 -55.5t-29 -60.5t-62 -25.5z M705 0h-107l219 989h107z" glyph-name="uniFB01" horiz-adv-x="978" unicode="fi"/><glyph d="M635 1386q90 0 156 -43l-46 -77q-39 28 -115 28t-122.5 -54t-71.5 -161l-20 -90h200l-20 -94h-201l-198 -895h-107l199 895h-164l20 94h164l19 90q68 307 307 307zM705 0h-107l301 1366h107z" glyph-name="uniFB02" horiz-adv-x="978" unicode="fl"/><glyph d="M1178 1386q92 0 155 -43l-45 -77q-38 28 -114 28t-123 -54t-72 -161l-21 -90h201l-20 -94h-201l-199 -895h-106l198 895h-163l20 94h164l18 90q68 307 308 307zM1456 1145q-33 0 -54.5 21.5t-21.5 55.5t29 59.5t62 25.5t54 -20.5t21 -55.5t-28.5 -60.5t-61.5 -25.5z M1247 0h-106l219 989h106zM637 1386q119 0 194 -75l-61 -68q-47 51 -131 51t-131 -53t-72 -162l-20 -90h202l-22 -94h-201l-196 -895h-109l199 895h-164l20 94h164l19 90q72 307 309 307z" glyph-name="uniFB03" horiz-adv-x="1521" unicode="ffi"/><glyph d="M1178 1386q92 0 155 -43l-45 -77q-38 28 -114 28t-123 -54t-72 -161l-21 -90h201l-20 -94h-201l-199 -895h-106l198 895h-163l20 94h164l18 90q68 307 308 307zM1247 0h-106l301 1366h106zM637 1386q119 0 194 -75l-61 -68q-47 51 -131 51t-131 -53t-72 -162l-20 -90h202 l-22 -94h-201l-196 -895h-109l199 895h-164l20 94h164l19 90q72 307 309 307z" glyph-name="uniFB04" horiz-adv-x="1521" unicode="ffl"/><glyph d="M635 1386q90 0 156 -43l-46 -77q-39 28 -115 28t-122.5 -54t-71.5 -161l-20 -90h200l-20 -94h-201l-198 -895h-107l199 895h-164l20 94h164l19 90q68 307 307 307zM1098 -25q-119 0 -211 52.5t-146 140.5l-36 -168h-107l301 1366h107l-115 -526q133 174 340 174 q172 0 278.5 -109.5t106.5 -298.5q0 -256 -145.5 -443.5t-372.5 -187.5zM1087 72q180 0 296 155.5t116 360.5q0 152 -82 241t-217 89q-100 0 -190 -54.5t-146 -136.5l-104 -475q39 -78 125.5 -129t201.5 -51z" glyph-name="f_b.liga" horiz-adv-x="1710" unicode="fb"/><glyph d="M635 1386q90 0 156 -43l-46 -77q-39 28 -115 28t-122.5 -54t-71.5 -161l-20 -90h200l-20 -94h-201l-198 -895h-107l199 895h-164l20 94h164l19 90q68 307 307 307zM1425 743q0 88 -60 131.5t-161 43.5q-166 0 -336 -175l-163 -743h-107l301 1366h107l-115 -526 q178 174 356 174q131 0 210 -62.5t79 -179.5q0 -39 -12 -84l-152 -688h-106l147 672q12 55 12 71z" glyph-name="f_h.liga" horiz-adv-x="1648" unicode="fh"/><glyph d="M635 1386q90 0 156 -43l-46 -77q-39 28 -115 28t-122.5 -54t-71.5 -161l-20 -90h200l-20 -94h-201l-198 -895h-107l199 895h-164l20 94h164l19 90q68 307 307 307zM1427 0h-131l-297 477l-229 -180l-65 -297h-107l301 1366h107l-207 -934l700 557h150l-562 -446z" glyph-name="f_k.liga" horiz-adv-x="1576" unicode="fk"/><glyph d="M930 -184h-719v1724h719v-1724zM864 -123v1602h-590v-1602h590z" glyph-name=".notdef" horiz-adv-x="1058"/><glyph glyph-name="glyph1" horiz-adv-x="0"/><glyph glyph-name="glyph1" horiz-adv-x="0"/><glyph glyph-name="glyph2" horiz-adv-x="681"/><glyph glyph-name="space" horiz-adv-x="530" unicode=" "/><glyph d="M233 356h-83l196 1010h137zM124 -20q-38 0 -61.5 24t-23.5 62t28.5 66t66.5 28t61.5 -24.5t23.5 -61.5t-28.5 -65.5t-66.5 -28.5z" glyph-name="exclam" horiz-adv-x="448" unicode="!"/><glyph d="M374 1386q32 0 51 -19t19 -48l-10 -41l-133 -404h-59q47 393 51 428t26.5 59.5t54.5 24.5zM643 1386q33 0 51.5 -19t18.5 -43t-11 -46l-133 -404h-59q47 393 51 428t26.5 59.5t55.5 24.5z" glyph-name="quotedbl" horiz-adv-x="649" unicode="&quot;"/><glyph d="M471 0h-98l213 381h-242l-211 -381h-96l213 381h-227l43 84h229l244 436h-230l41 84h236l209 381h96l-209 -381h240l208 381h99l-213 -381h227l-41 -84h-231l-246 -436h238l-43 -84h-238zM629 465l245 436h-239l-244 -436h238z" glyph-name="numbersign" horiz-adv-x="1185" unicode="#"/><glyph d="M248 1008q0 156 134 268.5t327 112.5q31 0 47 -3l41 187h94l-45 -199q229 -45 334 -198l-88 -82q-92 133 -269 174l-114 -516q264 -109 307 -199t43 -160q0 -166 -129 -292t-355 -126q-27 0 -40 2l-39 -182h-95l43 193q-133 20 -236.5 81.5t-154.5 145.5l86 84 q117 -166 328 -207l127 567q-207 89 -276.5 165.5t-69.5 183.5zM930 364q0 100 -63.5 153.5t-186.5 107.5l-121 -543h27q168 0 256 91t88 191zM375 1033q0 -89 62.5 -140t185.5 -105l108 492q-10 2 -33 2q-133 0 -228 -80t-95 -169z" glyph-name="dollar" horiz-adv-x="1196" unicode="$"/><glyph d="M244 0h-92l1173 1366h94zM1021 -25q-136 0 -221 77t-85 198q0 172 106.5 284.5t242.5 112.5t221 -76.5t85 -197.5q0 -172 -106.5 -285t-242.5 -113zM1022 55q96 0 174 89t78 221q0 86 -57.5 144t-153.5 58t-174 -90t-78 -219q0 -88 57.5 -145.5t153.5 -57.5zM489 717 q-135 0 -220 75.5t-85 196.5q0 174 106 285.5t242 111.5t221 -76.5t85 -195.5q0 -174 -107 -285.5t-242 -111.5zM491 795q96 0 174 90t78 219q0 88 -58 145.5t-154 57.5t-174 -89.5t-78 -220.5q0 -88 58 -145t154 -57z" glyph-name="percent" horiz-adv-x="1474" unicode="%"/><glyph d="M456 -25q-188 0 -300.5 88.5t-112.5 245.5q0 193 112.5 291.5t293.5 175.5q-51 131 -52 244q0 150 108.5 258t242.5 108t212 -60t78 -158t-36 -164t-115 -120.5t-295 -144.5q49 -104 119 -215q49 -88 143 -231q143 154 231 321l89 -51q-141 -227 -263 -352 q70 -94 166 -211h-147q-27 31 -103 133q-183 -158 -371 -158zM166 331q0 -128 82 -194.5t203 -66.5q152 0 319 143q-183 264 -287 481q-152 -70 -234.5 -152.5t-82.5 -210.5zM512 1040q0 -108 45 -221q283 108 327 185t44 145t-48 107.5t-130 39.5t-160 -74t-78 -182z" glyph-name="ampersand" horiz-adv-x="1308" unicode="&amp;"/><glyph d="M374 1386q32 0 51 -19t19 -48l-10 -41l-133 -404h-59q47 393 51 428t26.5 59.5t54.5 24.5z" glyph-name="quotesingle" horiz-adv-x="382" unicode="'"/><glyph d="M51 172q0 647 514 1231l53 -53q-453 -610 -452 -1227q0 -214 74 -490l-74 -41q-115 270 -115 580z" glyph-name="parenleft" horiz-adv-x="464" unicode="("/><glyph d="M412 823q0 -647 -514 -1231l-54 54q453 608 453 1226q0 214 -74 490l72 41q117 -266 117 -580z" glyph-name="parenright" horiz-adv-x="464" unicode=")"/><glyph d="M451 817h-80l67 244l-229 -107l-23 70l236 84l-186 129l51 61l172 -149l41 237h78l-66 -241l229 104l23 -69l-236 -84l187 -129l-53 -62l-170 150z" glyph-name="asterisk" horiz-adv-x="686" unicode="*"/><glyph d="M989 647h-403l-99 -444h-90l99 444h-404l19 86h403l94 432h92l-94 -432h404z" glyph-name="plus" horiz-adv-x="1015" unicode="+"/><glyph d="M223 61q0 -84 -62.5 -170t-148.5 -131l-49 56q57 29 101.5 77t58.5 95h-14q-29 0 -49.5 21t-20.5 57t28.5 65t67.5 29t63.5 -26t24.5 -73z" glyph-name="comma" horiz-adv-x="448" unicode=","/><glyph d="M541 446h-492l21 99h491z" glyph-name="hyphen" horiz-adv-x="614" unicode="-"/><glyph d="M124 -20q-38 0 -61.5 24t-23.5 62t28.5 66t66.5 28t61.5 -24.5t23.5 -61.5t-28.5 -65.5t-66.5 -28.5z" glyph-name="period" horiz-adv-x="448" unicode="."/><glyph d="M-27 -41h-94l805 1448h96z" glyph-name="slash" horiz-adv-x="577" unicode="/"/><glyph d="M554 -25q-198 0 -309.5 141.5t-111.5 365.5t73 424t221 340t346 140t307.5 -140t109.5 -364t-71.5 -424t-219 -341.5t-345.5 -141.5zM573 82q111 0 207.5 74.5t192.5 260t96 455.5q0 186 -77 297t-240 111q-111 0 -207 -75t-192.5 -258t-96.5 -455q0 -186 76.5 -298 t240.5 -112z" glyph-name="zero" horiz-adv-x="1245" unicode="0"/><glyph d="M350 0h-117l265 1206l-269 -233l-55 76l371 317h106z" glyph-name="one" horiz-adv-x="630" unicode="1"/><glyph d="M1006 1042q0 111 -86 174.5t-228 63.5q-217 0 -354 -137l-64 82q74 74 186.5 117.5t235.5 43.5q182 0 309.5 -87t127.5 -252q0 -94 -53.5 -195.5t-185 -247t-685.5 -498.5h719l-23 -106h-901l29 123q193 123 311.5 201.5t258.5 185t218 186.5t131.5 172.5t53.5 173.5z " glyph-name="two" horiz-adv-x="1191" unicode="2"/><glyph d="M492 -25q-166 0 -304.5 80t-185.5 205l94 62q45 -111 153.5 -175.5t257.5 -64.5t247 92t98 236q0 109 -89 174t-237 65q-94 0 -116 -2l26 111q18 -2 174 -2t259.5 72.5t103.5 207.5q0 104 -91 174t-241 70q-195 0 -350 -143l-58 82q78 78 188.5 122.5t225.5 44.5 q197 0 321 -90t124 -246t-114 -252t-257 -106q106 -25 177 -100.5t71 -188.5q0 -178 -133 -303t-344 -125z" glyph-name="three" horiz-adv-x="1114" unicode="3"/><glyph d="M725 0h-117l82 373h-647l27 112l790 881h166l-197 -887h201l-22 -106h-201zM713 479l170 770l-697 -770h527z" glyph-name="four" horiz-adv-x="1107" unicode="4"/><glyph d="M555 -25q-340 0 -469 277l94 67q104 -238 385 -237q156 0 266.5 107t110.5 255t-92 224.5t-244 76.5t-293 -104l-77 47l149 678h789l-23 -106h-672l-112 -506q123 94 292.5 94t287.5 -102t118 -292t-144.5 -334.5t-365.5 -144.5z" glyph-name="five" horiz-adv-x="1191" unicode="5"/><glyph d="M565 -25q-213 0 -326.5 128t-113.5 369t74.5 419t147.5 275.5t183.5 158.5t241.5 61q283 0 393 -212l-88 -76q-82 182 -311 182q-104 0 -192.5 -52t-173.5 -183t-134 -353q-2 -6 -10 -39q66 72 178.5 131.5t231.5 59.5q182 0 294.5 -95.5t112.5 -259.5 q0 -209 -147.5 -361.5t-360.5 -152.5zM569 82q160 0 270.5 117t110.5 257t-88 212.5t-233 72.5q-211 0 -387 -196q-4 -37 -4 -109q0 -160 85.5 -257t245.5 -97z" glyph-name="six" horiz-adv-x="1196" unicode="6"/><glyph d="M272 0h-135l848 1260h-749l22 106h895l-18 -82z" glyph-name="seven" horiz-adv-x="1028" unicode="7"/><glyph d="M541 -25q-203 0 -334 90.5t-131 248.5t117.5 264t310.5 141q-104 39 -177 114.5t-73 178.5q0 178 140.5 276t321.5 98t310 -89t129 -239t-110.5 -245.5t-290.5 -120.5q106 -45 187 -127t81 -200q0 -168 -139 -279t-342 -111zM1030 1044q0 98 -93 166t-229 68t-235.5 -74 t-99.5 -198q0 -88 85 -158.5t183 -93.5q176 14 282.5 89t106.5 201zM543 82q143 0 251.5 80t108.5 211q0 102 -90 177t-195 103q-182 -12 -300.5 -99t-118.5 -213t100.5 -192.5t243.5 -66.5z" glyph-name="eight" unicode="8"/><glyph d="M709 1389q213 0 326.5 -128t113.5 -370t-105 -493t-258 -336t-284 -85q-283 0 -391 213l86 76q82 -182 313 -182q104 0 191 52t174 185.5t115 258.5t28 129q-66 -72 -178.5 -130.5t-231.5 -58.5q-182 0 -294.5 95.5t-112.5 258.5q0 209 147.5 362t360.5 153zM705 1282 q-160 0 -270.5 -117t-110.5 -257t88 -212.5t233 -72.5q215 0 387 196q4 37 4 109q0 160 -85.5 257t-245.5 97z" glyph-name="nine" horiz-adv-x="1196" unicode="9"/><glyph d="M124 -20q-38 0 -61.5 24t-23.5 62t28.5 66t66.5 28t61.5 -24.5t23.5 -61.5t-28.5 -65.5t-66.5 -28.5zM310 825q-38 0 -61.5 23.5t-23.5 60.5t29 66t67 29t61.5 -24t23.5 -62t-29 -65.5t-67 -27.5z" glyph-name="colon" horiz-adv-x="448" unicode=":"/><glyph d="M223 61q0 -84 -62.5 -170t-148.5 -131l-49 56q57 29 101.5 77t58.5 95h-14q-29 0 -49.5 21t-20.5 57t28.5 65t67.5 29t63.5 -26t24.5 -73zM310 825q-38 0 -61.5 23.5t-23.5 60.5t29 66t67 29t61.5 -24t23.5 -62t-29 -65.5t-67 -27.5z" glyph-name="semicolon" horiz-adv-x="448" unicode=";"/><glyph d="M885 184l-795 463l19 76l999 465l-25 -107l-878 -403l700 -397z" glyph-name="less" horiz-adv-x="1015" unicode="&lt;"/><glyph d="M1032 842h-897l19 86h897zM944 442h-899l21 84h897z" glyph-name="equal" horiz-adv-x="1015" unicode="="/><glyph d="M989 647l-1001 -463l24 107l881 397l-703 404l21 96l795 -465z" glyph-name="greater" horiz-adv-x="1015" unicode=">"/><glyph d="M877 1079q0 88 -76 144.5t-207 56.5q-201 0 -344 -147l-57 79q176 174 409 174q180 0 292 -82.5t112 -216.5q0 -100 -56.5 -175.5t-136.5 -121t-216 -111t-136 -177.5q0 -51 39 -90l-92 -52q-54 68 -54 149t54.5 141.5t130 100.5t152.5 78.5t131.5 100t54.5 149.5z M355 -20q-38 0 -61.5 25t-23.5 61t29 65t67 29t61.5 -24.5t23.5 -62.5t-29 -65.5t-67 -27.5z" glyph-name="question" horiz-adv-x="950" unicode="?"/><glyph d="M762 -143q-279 0 -464 185t-185 458q0 217 113.5 404.5t301 295t398.5 107.5q285 0 465 -189.5t180 -470.5q0 -221 -98.5 -347t-233.5 -126q-80 0 -129 51t-51 123l-2 12q-57 -80 -147.5 -133t-188.5 -53q-141 0 -227 89t-86 239q0 213 150.5 366.5t338.5 153.5 q96 0 166 -47t100 -121l27 133h100l-121 -577q-4 -25 -4 -39q0 -51 30 -82t73 -31q82 0 159.5 95.5t77.5 295.5q0 256 -163.5 424t-421.5 168q-297 0 -519.5 -224t-222.5 -515q0 -248 168 -415t424 -167q203 0 383 117l35 -51q-201 -129 -426 -129zM741 258q195 0 336 207 l66 303q-23 66 -82.5 118t-151.5 52q-162 0 -278.5 -132t-116.5 -298q0 -111 60.5 -180.5t166.5 -69.5z" glyph-name="at" horiz-adv-x="1603" unicode="@"/><glyph d="M1184 0h-129l-64 336h-721l-209 -336h-141l860 1366h146zM979 442l-148 799l-499 -799h647z" glyph-name="A" horiz-adv-x="1325" unicode="A"/><glyph d="M643 0h-584l301 1366h527q141 0 239.5 -86t98.5 -226t-93.5 -244.5t-224.5 -121.5q86 -20 142.5 -102t56.5 -180q0 -168 -120 -287t-343 -119zM791 754q158 0 231.5 86t73.5 191t-69 167t-167 62h-405l-111 -506h447zM649 106q156 0 246 92t90 204t-67.5 178.5 t-182.5 66.5h-416l-120 -541h450z" glyph-name="B" horiz-adv-x="1257" unicode="B"/><glyph d="M754 -25q-272 0 -444.5 163t-172.5 429q0 180 64.5 337t171 261.5t243 164t298.5 59.5t301 -76t217 -217l-113 -52q-131 238 -432 238q-246 0 -434.5 -198.5t-188.5 -512.5q0 -221 134 -355t352 -134t393 156l84 -70q-201 -193 -473 -193z" glyph-name="C" horiz-adv-x="1376" unicode="C"/><glyph d="M786 1366q231 0 393 -166t162 -413t-186 -517t-661 -270h-435l301 1366h426zM514 106q315 0 510 197t195 477q0 207 -130.5 343.5t-324.5 136.5h-309l-256 -1154h315z" glyph-name="D" horiz-adv-x="1417" unicode="D"/><glyph d="M926 0h-867l301 1366h867l-23 -106h-749l-111 -506h733l-24 -107h-734l-120 -541h747z" glyph-name="E" horiz-adv-x="1155" unicode="E"/><glyph d="M176 0h-117l301 1366h867l-23 -106h-749l-111 -506h733l-24 -107h-734z" glyph-name="F" horiz-adv-x="1110" unicode="F"/><glyph d="M758 -25q-282 0 -451.5 166t-169.5 426q0 352 224.5 587t539.5 235q178 0 313.5 -75t212.5 -206l-104 -53q-61 111 -177 169t-259 58q-248 0 -435.5 -204t-187.5 -507q0 -223 134 -356t358 -133t399 164l72 327h-516l22 105h635l-108 -488q-220 -215 -502 -215z" glyph-name="G" horiz-adv-x="1456" unicode="G"/><glyph d="M1161 0h-119l144 649h-867l-143 -649h-117l301 1366h117l-133 -610h864l135 610h119z" glyph-name="H" horiz-adv-x="1439" unicode="H"/><glyph d="M176 0h-117l301 1366h117z" glyph-name="I" horiz-adv-x="456" unicode="I"/><glyph d="M319 -25q-119 0 -214 46.5t-144 134.5l78 82q84 -156 274 -156q135 0 220 84t118 229l213 971h119l-213 -971q-95 -420 -451 -420z" glyph-name="J" horiz-adv-x="962" unicode="J"/><glyph d="M1040 0h-139l-426 651l-192 -174l-107 -477h-117l301 1366h117l-162 -733l811 733h160l-725 -651z" glyph-name="K" horiz-adv-x="1200" unicode="K"/><glyph d="M838 0h-779l301 1366h117l-278 -1260h661z" glyph-name="L" horiz-adv-x="1058" unicode="L"/><glyph d="M1337 0h-118l268 1219l-766 -1219h-45l-230 1219l-270 -1219h-117l301 1366h168l213 -1139l717 1139h180z" glyph-name="M" horiz-adv-x="1617" unicode="M"/><glyph d="M1151 0h-115l-596 1192l-264 -1192h-117l301 1366h119l594 -1173l262 1173h117z" glyph-name="N" horiz-adv-x="1431" unicode="N"/><glyph d="M752 -25q-264 0 -439.5 158t-175.5 434q0 346 221.5 584t536.5 238q264 0 438 -158t174 -434q0 -346 -221 -584t-534 -238zM758 82q254 0 438 203.5t184 507.5q0 231 -141 360t-354 129q-254 0 -437.5 -202.5t-183.5 -508.5q0 -231 140.5 -360t353.5 -129z" glyph-name="O" horiz-adv-x="1564" unicode="O"/><glyph d="M840 1366q158 0 258 -100.5t100 -258.5t-87 -258t-188.5 -141t-230.5 -41h-389l-127 -567h-117l301 1366h480zM707 674q174 0 270 99t96 243q0 98 -72.5 171t-179.5 73h-366l-129 -586h381z" glyph-name="P" unicode="P"/><glyph d="M752 -25q-264 0 -439.5 158t-175.5 434q0 346 221.5 584t536.5 238q264 0 438 -158t174 -434q0 -207 -85 -382t-230 -288l92 -123l-94 -59l-90 121q-164 -91 -348 -91zM758 82q143 0 274 74l-176 239l94 60l174 -238q119 98 187.5 246.5t68.5 329.5q0 231 -141 360 t-354 129q-254 0 -437.5 -202.5t-183.5 -508.5q0 -231 140.5 -360t353.5 -129z" glyph-name="Q" horiz-adv-x="1564" unicode="Q"/><glyph d="M829 1366q147 0 259 -94t112 -250q0 -193 -128 -318.5t-339 -134.5l268 -569h-133l-258 565h-309l-125 -565h-117l301 1366h469zM707 672q172 0 269 99t97 245q0 104 -77.5 174t-180.5 70h-360l-129 -588h381z" glyph-name="R" horiz-adv-x="1216" unicode="R"/><glyph d="M571 -25q-172 0 -314 68t-208 172l86 84q154 -217 447 -217q168 0 256 91t88 206q0 82 -71 142.5t-170 101.5t-199.5 85t-171 119.5t-70.5 180.5q0 156 134 268.5t308 112.5t300 -58.5t190 -154.5l-89 -82q-61 92 -166.5 140t-232.5 48t-222 -80t-95 -169t70.5 -145.5 t171 -97t200.5 -86t171 -124t71 -187.5q0 -166 -129.5 -292t-354.5 -126z" glyph-name="S" horiz-adv-x="1189" unicode="S"/><glyph d="M526 0h-118l278 1260h-446l22 106h1012l-23 -106h-446z" glyph-name="T" horiz-adv-x="1155" unicode="T"/><glyph d="M678 -25q-242 0 -377 120t-135 325q0 59 10 104l184 842h119l-184 -840q-12 -49 -12 -92q0 -158 103 -255t291 -97t292 112.5t153 331.5l185 840h118l-184 -842q-61 -270 -191 -409.5t-372 -139.5z" glyph-name="U" horiz-adv-x="1404" unicode="U"/><glyph d="M625 0h-146l-258 1366h129l223 -1235l770 1235h142z" glyph-name="V" horiz-adv-x="1325" unicode="V"/><glyph d="M1237 0h-131l-70 1174l-585 -1174h-132l-90 1366h129l62 -1202l602 1202h106l70 -1202l594 1202h135z" glyph-name="W" horiz-adv-x="1775" unicode="W"/><glyph d="M1171 0h-133l-348 618l-604 -618h-160l703 709l-371 657h137l322 -580l565 580h160l-662 -672z" glyph-name="X" horiz-adv-x="1320" unicode="X"/><glyph d="M582 0h-119l129 584l-371 782h131l314 -672l608 672h151l-714 -782z" glyph-name="Y" horiz-adv-x="1265" unicode="Y"/><glyph d="M977 0h-985l22 102l1069 1158h-811l21 106h971l-21 -100l-1071 -1160h827z" glyph-name="Z" horiz-adv-x="1189" unicode="Z"/><glyph d="M233 -389h-354l393 1778h357l-21 -89h-266l-354 -1601h264z" glyph-name="bracketleft" horiz-adv-x="466" unicode="["/><glyph d="M365 -41l-164 1448h92l164 -1448h-92z" glyph-name="backslash" horiz-adv-x="577" unicode="\"/><glyph d="M193 -389h-355l21 88h262l356 1601h-266l20 89h357z" glyph-name="bracketright" horiz-adv-x="466" unicode="]"/><glyph d="M877 682h-93l-170 600l-434 -600h-102l508 684h86z" glyph-name="asciicircum" horiz-adv-x="876" unicode="^"/><glyph d="M1012 -170h-1166l21 88h1165z" glyph-name="underscore" horiz-adv-x="1155" unicode="_"/><glyph d="M584 1139h-90l-287 295h127z" glyph-name="grave" horiz-adv-x="442" unicode="`"/><glyph d="M612 1014q117 0 210 -52.5t147 -140.5l35 168h108l-219 -989h-109l35 150q-137 -174 -325 -174t-295 108.5t-107 296.5q0 258 145.5 445.5t374.5 187.5zM621 918q-180 0 -296 -157t-116 -362q0 -152 81.5 -239.5t199.5 -87.5t209.5 54t144.5 136l104 475 q-39 78 -125.5 129.5t-201.5 51.5z" glyph-name="a" unicode="a"/><glyph d="M555 -25q-119 0 -211 52.5t-145 140.5l-37 -168h-107l301 1366h107l-115 -526q133 174 340 174q172 0 278.5 -109.5t106.5 -298.5q0 -256 -145.5 -443.5t-372.5 -187.5zM545 72q180 0 295.5 155.5t115.5 360.5q0 152 -81.5 241t-217.5 89q-100 0 -190 -54.5t-145 -136.5 l-105 -475q39 -78 126 -129t202 -51z" glyph-name="b" unicode="b"/><glyph d="M534.5 -25q-196.5 0 -318.5 117t-122 322q0 246 160 423t398 177t345 -180l-82 -62q-85 146 -275 146t-311.5 -151t-121.5 -335t94 -272t250 -88t262 127l61 -74q-143 -150 -339.5 -150z" glyph-name="c" horiz-adv-x="1011" unicode="c"/><glyph d="M612 1014q117 0 210 -52.5t147 -140.5l118 545h109l-303 -1366h-109l35 150q-137 -174 -325 -174t-295 108.5t-107 296.5q0 258 145.5 445.5t374.5 187.5zM621 918q-180 0 -296 -157t-116 -362q0 -152 81.5 -239.5t199.5 -87.5t209.5 54t144.5 136l104 475 q-39 78 -125.5 129.5t-201.5 51.5z" glyph-name="d" unicode="d"/><glyph d="M548 -25q-202 0 -328 120t-126 317q0 248 160 425t389 177q193 0 306.5 -121t113.5 -307q0 -59 -16 -125h-836q-4 -25 -4 -58q0 -145 94 -240t267 -95t300 106l41 -78q-159 -121 -361 -121zM635 922q-151 0 -269 -111.5t-145 -265.5h737q2 10 3 45q0 147 -87.5 239.5 t-238.5 92.5z" glyph-name="e" horiz-adv-x="1161" unicode="e"/><glyph d="M637 1386q119 0 194 -75l-61 -68q-47 51 -131 51t-131 -53t-72 -162l-20 -90h202l-22 -94h-201l-196 -895h-109l199 895h-164l20 94h164l19 90q72 307 309 307z" glyph-name="f" horiz-adv-x="542" unicode="f"/><glyph d="M434 -401q-147 0 -250.5 36.5t-175.5 131.5l76 75q98 -152 348 -151q283 0 354 319l31 148q-135 -174 -350 -174q-166 0 -270.5 105.5t-104.5 305.5q0 250 142.5 434.5t371.5 184.5q104 0 203.5 -54.5t155.5 -138.5l39 168h108l-219 -979q-88 -411 -459 -411zM506 78 q90 0 181 51t153 127l108 479q-45 82 -138 132.5t-200 50.5q-178 0 -291.5 -156t-113.5 -331t82 -264t219 -89z" glyph-name="g" horiz-adv-x="1167" unicode="g"/><glyph d="M662 918q-166 0 -336 -175l-164 -743h-107l301 1366h107l-115 -526q178 174 357 174q131 0 209.5 -62.5t78.5 -179.5q0 -39 -12 -84l-152 -688h-106l147 672q12 55 13 71q0 88 -60.5 131.5t-160.5 43.5z" glyph-name="h" horiz-adv-x="1105" unicode="h"/><glyph d="M371 1145q-33 0 -54.5 21.5t-21.5 55.5t28.5 59.5t61.5 25.5t54.5 -20.5t21.5 -55.5t-28.5 -60.5t-61.5 -25.5zM162 0h-107l219 989h107z" glyph-name="i" horiz-adv-x="438" unicode="i"/><glyph d="M-167 -401q-132 0 -204 86l58 77q53 -72 147 -71q150 0 193 182l247 1116h107l-248 -1116q-31 -139 -99.5 -206.5t-200.5 -67.5zM371 1145q-33 0 -54.5 21.5t-21.5 55.5t28.5 59.5t61.5 25.5t54.5 -20.5t21.5 -55.5t-28.5 -60.5t-61.5 -25.5z" glyph-name="j" horiz-adv-x="438" unicode="j"/><glyph d="M885 0h-131l-297 477l-230 -180l-65 -297h-107l301 1366h107l-207 -934l700 557h150l-561 -446z" glyph-name="k" horiz-adv-x="1034" unicode="k"/><glyph d="M162 0h-107l301 1366h107z" glyph-name="l" horiz-adv-x="438" unicode="l"/><glyph d="M1213 918q-75 0 -155.5 -49.5t-142.5 -123.5l-163 -745h-109l154 688q8 61 8 72q-2 70 -50 114t-134 44q-143 0 -295 -173l-164 -745h-107l219 989h107l-33 -149q152 174 316 174q113 0 180 -63.5t67 -127.5v-4q154 195 342 195q104 0 177 -64.5t73 -177.5q0 -27 -12 -84 l-152 -688h-106l151 688q8 33 9 60q0 78 -52.5 124t-127.5 46z" glyph-name="m" horiz-adv-x="1615" unicode="m"/><glyph d="M668 918q-174 0 -342 -173l-164 -745h-107l219 989h107l-33 -149q178 174 357 174q131 0 209.5 -62.5t78.5 -179.5q0 -39 -12 -84l-152 -688h-106l147 672q12 55 13 71q0 88 -59.5 131.5t-155.5 43.5z" glyph-name="n" horiz-adv-x="1105" unicode="n"/><glyph d="M543 -25q-214 0 -332.5 119t-118.5 316q0 242 158 423t372 181t332.5 -119t118.5 -315q0 -242 -158 -423.5t-372 -181.5zM544 72q166 0 289 152.5t123 350.5q0 158 -85 250.5t-236 92.5q-180 0 -303 -153t-123 -351q0 -158 84.5 -250t250.5 -92z" glyph-name="o" unicode="o"/><glyph d="M555 -25q-119 0 -211 52.5t-145 140.5l-121 -545h-107l303 1366h107l-33 -149q133 174 340 174q172 0 278.5 -109.5t106.5 -298.5q0 -256 -145.5 -443.5t-372.5 -187.5zM545 72q180 0 295.5 155.5t115.5 360.5q0 152 -81.5 241t-217.5 89q-100 0 -190 -54.5t-145 -136.5 l-105 -475q39 -78 126 -129t202 -51z" glyph-name="p" horiz-adv-x="1161" unicode="p"/><glyph d="M612 1014q117 0 210 -52.5t147 -140.5l35 168h108l-303 -1366h-109l119 527q-137 -174 -325 -174t-295 108.5t-107 296.5q0 258 145.5 445.5t374.5 187.5zM621 918q-180 0 -296 -157t-116 -362q0 -152 81.5 -239.5t199.5 -87.5t209.5 54t144.5 136l104 475 q-39 78 -125.5 129.5t-201.5 51.5z" glyph-name="q" horiz-adv-x="1161" unicode="q"/><glyph d="M623 901q-86 0 -167 -53t-134 -127l-160 -721h-107l219 989h107l-37 -160q82 94 165 137.5t210 43.5l-25 -115q-37 6 -71 6z" glyph-name="r" horiz-adv-x="649" unicode="r"/><glyph d="M414 -25q-272 0 -398 175l76 73q41 -66 128 -111.5t201 -45.5t185.5 60t71.5 130t-54.5 115t-132 74.5t-155.5 61.5t-132 86t-54 128q0 125 97 209t263 84q121 0 219 -47t141 -115l-69 -70q-33 59 -118 100.5t-189 41.5t-170 -51t-66 -117t54.5 -107t132 -69.5 t155.5 -61.5t132 -90t54 -135q0 -131 -100 -224.5t-272 -93.5z" glyph-name="s" horiz-adv-x="940" unicode="s"/><glyph d="M309 -25q-197 0 -196 166q0 23 6 54l155 700h-163l20 94h164l59 271h109l-60 -271h201l-22 -94h-201l-152 -686q-4 -20 -4 -43q0 -94 101 -94q55 0 104 37l21 -86q-62 -48 -142 -48z" glyph-name="t" horiz-adv-x="563" unicode="t"/><glyph d="M221 246q0 -88 59.5 -131t159.5 -43q170 0 336 174l166 743h107l-220 -989h-106l33 150q-178 -174 -357 -175q-131 0 -209.5 62.5t-78.5 179.5q0 39 12 84l151 688h107l-148 -670q-12 -61 -12 -73z" glyph-name="u" horiz-adv-x="1105" unicode="u"/><glyph d="M442 0h-120l-199 989h115l165 -864l551 864h125z" glyph-name="v" horiz-adv-x="985" unicode="v"/><glyph d="M1006 0h-103l-90 846l-465 -846h-102l-103 989h109l76 -839l467 839h90l92 -839l450 839h119z" glyph-name="w" horiz-adv-x="1472" unicode="w"/><glyph d="M836 0h-121l-232 436l-424 -436h-135l502 508l-260 481h121l215 -407l395 407h135l-477 -481z" glyph-name="x" horiz-adv-x="980" unicode="x"/><glyph d="M43 -297q80 0 156 113l116 178l-192 995h115l165 -864l551 864h125l-780 -1206q-117 -184 -276 -184q-66 0 -117 20l41 102q37 -18 96 -18z" glyph-name="y" horiz-adv-x="985" unicode="y"/><glyph d="M735 0h-731l16 88l760 807h-577l20 94h723l-18 -86l-764 -809h590z" glyph-name="z" horiz-adv-x="960" unicode="z"/><glyph d="M176 -389q-82 0 -144.5 55t-62.5 144q0 31 6 53l103 450q4 25 4 53t-21.5 60.5t-58.5 32.5l18 82q109 0 140 145l100 449q29 125 103.5 189.5t181.5 64.5h127l-21 -89h-127q-68 0 -112.5 -43t-61.5 -122l-104 -465q-31 -141 -131 -178q59 -31 59 -111q0 -37 -8 -70 l-98 -446q-4 -25 -4 -61t33.5 -70.5t84.5 -34.5h115l-21 -88h-100z" glyph-name="braceleft" horiz-adv-x="509" unicode="{"/><glyph d="M299 -41h-88v1448h88v-1448z" glyph-name="bar" horiz-adv-x="425" unicode="|"/><glyph d="M332 1389q82 0 143.5 -55.5t61.5 -143.5q0 -37 -7 -55l-100 -449q-4 -26 -4 -54t21.5 -59.5t58.5 -31.5l-21 -82q-106 0 -137 -146l-100 -448q-29 -125 -102.5 -189.5t-182.5 -64.5h-127l21 88h125q139 0 176 164l104 467q31 141 131 180q-59 29 -59 108q0 37 8 70 l98 447q4 25 4 43q0 53 -33.5 87.5t-84.5 34.5h-115l20 89h101z" glyph-name="braceright" horiz-adv-x="509" unicode="}"/><glyph d="M799 877q-92 0 -136.5 62t-53.5 200.5t-117 138.5q-80 0 -150 -106.5t-115 -297.5l-86 13q49 211 136.5 343t218.5 132q76 0 118.5 -42t55 -101.5t28 -160t107.5 -100.5q80 0 148.5 107.5t115.5 300.5l86 -10q-111 -479 -356 -479z" glyph-name="asciitilde" horiz-adv-x="1021" unicode="~"/><glyph glyph-name="uni00A0" horiz-adv-x="530" unicode=" "/><glyph d="M211 633h84l-197 -1010h-139zM321 1010q38 0 61.5 -24.5t23.5 -61.5t-29 -66t-67 -29t-61.5 23.5t-23.5 61.5t29 67t67 29z" glyph-name="exclamdown" horiz-adv-x="448" unicode="¡"/><glyph d="M94 414q0 246 158 422t387 178l33 143h90l-35 -149q184 -27 270 -174l-82 -62q-68 119 -208 141l-187 -841h25q162 0 268 127l61 -74q-143 -150 -339 -150q-25 0 -35 2l-41 -182h-90l43 195q-145 31 -231.5 141.5t-86.5 282.5zM207 412q0 -131 61.5 -215t165.5 -113 l184 831q-184 -12 -297.5 -159t-113.5 -344z" glyph-name="cent" horiz-adv-x="1011" unicode="¢"/><glyph d="M201 946q0 172 141 306t340 134q137 0 251 -65.5t144 -165.5l-108 -49q-20 78 -99 128t-184 50q-147 0 -252.5 -94t-105.5 -248q0 -101 58 -190.5t73 -118.5h301l-19 -86h-258q4 -29 4 -41q0 -102 -73.5 -198.5t-165.5 -153.5q56 16 112 16t162.5 -45t165.5 -45 q109 0 197 84l33 -96q-116 -96 -222 -96t-224 48t-210 48t-235 -82l-25 98q158 61 265.5 176t107.5 232q0 29 -6 55h-322l19 86h270q-10 20 -72.5 113.5t-62.5 199.5z" glyph-name="sterling" horiz-adv-x="1034" unicode="£"/><glyph d="M608 201q-199 0 -323 116l-209 -167l-62 79l205 166q-57 92 -57 219q0 238 166 398l-117 151l78 64l117 -152q129 84 286 84q199 0 322 -117l209 172l63 -77l-211 -172q59 -96 60 -220q0 -236 -164 -395l114 -145l-79 -62l-113 144q-127 -86 -285 -86zM279 635 q0 -162 93.5 -248t253.5 -86t278 130.5t118 284.5t-88 248.5t-257 94.5t-283.5 -131t-114.5 -293z" glyph-name="currency" horiz-adv-x="1204" unicode="¤"/><glyph d="M588 0h-119l57 258h-536l18 84h537l53 242h-535l17 86h477l-330 696h131l314 -672l608 672h152l-637 -696h465l-19 -86h-524l-53 -242h522l-19 -84h-522z" glyph-name="yen" horiz-adv-x="1265" unicode="¥"/><glyph d="M299 -41h-88v647h88v-647zM299 760h-88v647h88v-647z" glyph-name="brokenbar" horiz-adv-x="425" unicode="¦"/><glyph d="M866 643q0 -90 -65.5 -169t-196.5 -114q150 -78 150 -209t-100.5 -224t-268.5 -93q-281 0 -418 164l78 68q47 -70 138 -109t203 -39t184.5 61.5t72.5 153.5q0 108 -131 156.5t-207 80t-130 88t-54 148.5t82 169t231 95q-203 78 -203 230q0 113 95.5 199.5t257.5 86.5 q260 0 387 -153l-74 -62q-96 131 -307 132q-109 0 -180.5 -54.5t-71.5 -124.5t54 -112.5t132 -70.5t156 -58.5t132 -90t54 -149.5zM756 631q0 72 -55.5 114.5t-159.5 79.5q-156 -18 -234 -76.5t-78 -135.5t64.5 -118.5t216.5 -95.5q127 37 186.5 98.5t59.5 133.5z" glyph-name="section" horiz-adv-x="944" unicode="§"/><glyph d="M715 1236q0 -32 -25.5 -56.5t-57.5 -24.5t-51.5 19.5t-19.5 50.5t25.5 56.5t57.5 25.5t51.5 -19.5t19.5 -51.5zM297 1236q0 -32 -25.5 -56.5t-57.5 -24.5t-51.5 19.5t-19.5 50.5t25.5 56.5t57.5 25.5t51.5 -19.5t19.5 -51.5z" glyph-name="dieresis" horiz-adv-x="536" unicode="¨"/><glyph d="M1544 684q0 -293 -208 -500t-500 -207t-498.5 207t-206.5 500t206 500t498.5 207t500.5 -207t208 -500zM1487 684q0 268 -191.5 458.5t-460 190.5t-458 -190.5t-189.5 -458.5t190 -458.5t458 -190.5t459.5 190.5t191.5 458.5zM780 246q-162 0 -269.5 109.5t-107.5 273.5 q0 207 147.5 351t336.5 144q221 0 317 -163l-55 -41q-76 143 -262 143q-158 0 -287 -126t-129 -308q0 -135 91.5 -228.5t231.5 -93.5t240 96l35 -51q-127 -106 -289 -106z" glyph-name="copyright" horiz-adv-x="1593" unicode="©"/><glyph d="M547 1255q-113 0 -190.5 -94.5t-77.5 -210.5t53 -171.5t139 -55.5q121 0 221 117l70 311q-27 47 -85 75.5t-130 28.5zM458 651q-122 0 -197 72.5t-75 218.5t100.5 265.5t256.5 119.5t231 -117l23 101h88l-144 -643h-88l23 102q-96 -119 -218 -119z" glyph-name="ordfeminine" horiz-adv-x="837" unicode="ª"/><glyph d="M414 129h-109l-246 369l410 362h125l-418 -373zM670 129h-109l-246 369l410 362h125l-418 -373z" glyph-name="guillemotleft" horiz-adv-x="823" unicode="«"/><glyph d="M1051 928l-107 -486h-90l90 400h-809l19 86h897z" glyph-name="logicalnot" horiz-adv-x="1021" unicode="¬"/><glyph d="M541 446h-492l21 99h491z" glyph-name="uni00AD" horiz-adv-x="614" unicode="­"/><glyph d="M1040 953q0 -181 -128 -308t-308 -127t-306 127t-126 307.5t127 307t307 126.5t307 -126t127 -307zM985 953q0 157 -111.5 267.5t-269.5 110.5t-267.5 -110.5t-109.5 -267.5t111 -268.5t266.5 -111.5t268 111.5t112.5 268.5zM682 1200q57 0 99 -35t42 -101t-51 -114.5 t-113 -48.5l91 -199h-74l-86 197h-98l-43 -197h-62l109 498h186zM758 1059q0 41 -24.5 62.5t-61.5 21.5h-127l-41 -185h141q47 0 80 30t33 71z" glyph-name="registered" horiz-adv-x="1011" unicode="®"/><glyph d="M893 1182h-741l16 75h741z" glyph-name="macron" horiz-adv-x="743" unicode="¯"/><glyph d="M670 1147q0 -98 -71 -167t-169 -69t-167.5 69t-69.5 167t69.5 168.5t167.5 70.5t169 -70.5t71 -168.5zM590 1148q0 64 -47 111.5t-111 47.5t-111 -47.5t-47 -113t46 -110.5t110 -45t112 46.5t48 110.5z" glyph-name="degree" horiz-adv-x="577" unicode="°"/><glyph d="M991 662h-401l-101 -447h-90l99 447h-404l19 83h403l96 435h90l-94 -435h404zM846 0h-897l16 84h899z" glyph-name="plusminus" horiz-adv-x="1015" unicode="±"/><glyph d="M799 1485q0 60 -55.5 95.5t-131.5 35.5q-145 0 -231 -96l-47 61q109 113 278 113q113 0 197 -53.5t84 -161.5q0 -161 -186 -296.5t-365 -242.5h436l-16 -78h-576l19 80q387 234 490.5 337.5t103.5 205.5z" glyph-name="uni00B2" horiz-adv-x="786" unicode="²"/><glyph d="M817 1098q0 -98 -81 -174t-212 -76q-225 0 -311 147l66 52q78 -121 243 -121q92 0 146.5 52t54.5 122t-59.5 107.5t-129.5 37.5t-81 -2l16 80q61 -4 137 -4t132.5 42.5t56.5 110.5t-58.5 106t-142.5 38q-121 0 -223 -90l-41 59q121 109 256 109t218 -53.5t83 -148.5 t-64.5 -152.5t-165.5 -65.5q63 -12 111.5 -60t48.5 -116z" glyph-name="uni00B3" horiz-adv-x="786" unicode="³"/><glyph d="M649 1434l-418 -295h-94l381 295h131z" glyph-name="acute" horiz-adv-x="442" unicode="´"/><glyph d="M410 68q98 0 198.5 49t165.5 119l166 753h109l-175 -786q-31 -131 70 -131q27 0 43 4l-12 -94q-25 -6 -66 -7q-170 0 -149 177q-184 -176 -373 -177q-154 0 -207 115l-104 -467h-109l309 1366h109l-152 -670q-29 -125 25 -188t152 -63z" glyph-name="uni00B5" horiz-adv-x="1132" unicode="µ"/><glyph d="M162 988q0 144 115.5 261t281.5 117h385l-348 -1571h-78l332 1495h-191l-331 -1495h-78l192 867q-117 0 -198.5 91t-81.5 235z" glyph-name="paragraph" horiz-adv-x="919" unicode="¶"/><glyph d="M220 412q-38 0 -62.5 23.5t-24.5 61.5t29.5 65.5t67.5 27.5t61.5 -23.5t23.5 -60.5t-28.5 -65.5t-66.5 -28.5z" glyph-name="periodcentered" horiz-adv-x="448" unicode="·"/><glyph d="M12 -387q-114 0 -194 76l47 61q68 -70 170 -69q66 0 100.5 29.5t34.5 74.5q0 68 -82 68q-47 0 -76 -35l-49 32l100 173h78l-84 -140q31 25 77 25t79 -31t33 -97t-60 -116.5t-174 -50.5z" glyph-name="cedilla" horiz-adv-x="405" unicode="¸"/><glyph d="M395 862h-94l152 690l-158 -135l-45 62l244 202h81z" glyph-name="uni00B9" horiz-adv-x="438" unicode="¹"/><glyph d="M494 651q-144 0 -225 79.5t-81 223.5t107 258.5t251 114.5t225 -79.5t81 -223.5t-107 -258.5t-251 -114.5zM500 727q106 0 184 93.5t78 201.5t-59 167.5t-165 59.5t-181.5 -91.5t-75.5 -201.5t56.5 -169.5t162.5 -59.5z" glyph-name="ordmasculine" horiz-adv-x="829" unicode="º"/><glyph d="M158 860h108l246 -368l-410 -363h-125l418 373zM414 860h108l246 -368l-410 -363h-125l418 373z" glyph-name="guillemotright" horiz-adv-x="823" unicode="»"/><glyph d="M326 547h-95l152 690l-158 -135l-45 61l244 203h82zM1374 219h-123l-49 -219h-90l47 219h-401l14 72l485 528h125l-116 -524h123zM1176 295l96 432l-402 -432h306zM1354 1366l-1176 -1366h-92l1174 1366h94z" glyph-name="onequarter" horiz-adv-x="1519" unicode="¼"/><glyph d="M326 547h-95l152 690l-158 -135l-45 61l244 203h82zM1421 622q0 60 -55 96t-131 36q-145 0 -231 -97l-48 62q109 113 279 112q113 0 197 -53t84 -162q0 -160 -188.5 -297.5t-362.5 -240.5h436l-17 -78h-575l18 80q390 236 492 338t102 204zM1354 1366l-1176 -1366h-92 l1174 1366h94z" glyph-name="onehalf" horiz-adv-x="1599" unicode="½"/><glyph d="M1614 219h-123l-49 -219h-90l47 219h-402l15 72l485 528h125l-117 -524h123zM1415 295l96 432l-401 -432h305zM1593 1366l-1175 -1366h-92l1173 1366h94zM748 782q0 -98 -81 -174t-212 -76q-225 0 -312 148l66 51q78 -121 244 -121q92 0 146 52t54 122t-59 108t-129 38 t-82 -2l16 80q61 -4 137 -4t132.5 42t56.5 110t-58.5 106t-142.5 38q-121 0 -223 -90l-41 60q121 108 256 108t218 -53t83 -148t-64.5 -152.5t-164.5 -66.5q63 -12 111.5 -60t48.5 -116z" glyph-name="threequarters" horiz-adv-x="1759" unicode="¾"/><glyph d="M594 480q0 -81 -54.5 -141t-131 -100t-153.5 -80t-131 -101.5t-54 -148.5t75.5 -143.5t208.5 -56.5q201 0 342 146l58 -78q-174 -174 -410 -174q-180 0 -291.5 82t-111.5 215q0 102 56 178t137 121t217 111.5t136 174.5q0 52 -41 93l95 49q53 -66 53 -147zM591 1008 q38 0 61.5 -23.5t23.5 -61.5t-29 -66t-65 -28t-61 23.5t-25 61.5t28.5 66t66.5 28z" glyph-name="questiondown" horiz-adv-x="804" unicode="¿"/><glyph d="M1184 0h-129l-64 336h-721l-209 -336h-141l860 1366h146zM979 442l-148 799l-499 -799h647zM989 1481h-90l-287 295h127z" glyph-name="Agrave" horiz-adv-x="1325" unicode="À"/><glyph d="M1184 0h-129l-64 336h-721l-209 -336h-141l860 1366h146zM979 442l-148 799l-499 -799h647zM1274 1776l-418 -295h-94l381 295h131z" glyph-name="Aacute" horiz-adv-x="1325" unicode="Á"/><glyph d="M1137 1481h-78l-127 231l-223 -231h-84l264 295h110zM1184 0h-129l-64 336h-721l-209 -336h-141l860 1366h146zM979 442l-148 799l-499 -799h647z" glyph-name="Acircumflex" horiz-adv-x="1325" unicode="Â"/><glyph d="M1184 0h-129l-64 336h-721l-209 -336h-141l860 1366h146zM979 442l-148 799l-499 -799h647zM1022 1477q-51 0 -85 32.5t-47 72.5t-40 73t-68 33q-94 0 -141 -199h-74q25 123 83.5 198.5t146.5 75.5q51 0 84.5 -32.5t48 -71.5t41 -72t65.5 -33q94 0 142 197h75 q-27 -123 -85 -198.5t-146 -75.5z" glyph-name="Atilde" horiz-adv-x="1325" unicode="Ã"/><glyph d="M1184 1578q0 -32 -25.5 -56.5t-57.5 -24.5t-51.5 19.5t-19.5 50.5t25.5 56.5t57.5 25.5t51.5 -19.5t19.5 -51.5zM766 1578q0 -32 -25.5 -56.5t-57.5 -24.5t-51.5 19.5t-19.5 50.5t26 56.5t58 25.5t51 -19.5t19 -51.5zM1184 0h-129l-64 336h-721l-209 -336h-141l860 1366 h146zM979 442l-148 799l-499 -799h647z" glyph-name="Adieresis" horiz-adv-x="1325" unicode="Ä"/><glyph d="M1184 0h-129l-64 336h-721l-209 -336h-141l860 1366h146zM979 442l-148 799l-499 -799h647zM894 1415q-83 0 -133 50.5t-50 132.5t64.5 146t146.5 64t132 -50t50 -133t-63.5 -146.5t-146.5 -63.5zM895 1481q55 0 99 42t44 98t-31.5 89t-86.5 33t-98.5 -42.5t-43.5 -98.5 t31 -88.5t86 -32.5z" glyph-name="Aring" horiz-adv-x="1325" unicode="Å"/><glyph d="M1690 0h-867l74 336h-555l-283 -336h-141l1163 1366h910l-23 -106h-747l-113 -506h733l-24 -107h-734l-118 -541h747zM922 442l174 789l-670 -789h496z" glyph-name="AE" horiz-adv-x="1923" unicode="Æ"/><glyph d="M612 -387q-114 0 -194 76l47 61q68 -70 170 -69q66 0 100.5 29.5t34.5 74.5q0 68 -82 68q-47 0 -76 -35l-49 32l78 134q-227 33 -365.5 189.5t-138.5 393.5q0 180 64.5 337t171 261.5t243 164t298.5 59.5t301 -76t217 -217l-113 -52q-131 238 -432 238 q-246 0 -434.5 -198.5t-188.5 -512.5q0 -221 134 -355t352 -134t393 156l84 -70q-201 -193 -475 -193q-27 0 -39 2l-56 -94q31 25 77 25t79 -31t33 -97t-60 -116.5t-174 -50.5z" glyph-name="Ccedilla" horiz-adv-x="1376" unicode="Ç"/><glyph d="M926 0h-867l301 1366h867l-23 -106h-749l-111 -506h733l-24 -107h-734l-120 -541h747zM932 1481h-90l-287 295h127z" glyph-name="Egrave" horiz-adv-x="1155" unicode="È"/><glyph d="M1214 1776l-417 -295h-95l381 295h131zM926 0h-867l301 1366h867l-23 -106h-749l-111 -506h733l-24 -107h-734l-120 -541h747z" glyph-name="Eacute" horiz-adv-x="1155" unicode="É"/><glyph d="M1073 1481h-78l-127 231l-223 -231h-84l264 295h111zM926 0h-867l301 1366h867l-23 -106h-749l-111 -506h733l-24 -107h-734l-120 -541h747z" glyph-name="Ecircumflex" horiz-adv-x="1155" unicode="Ê"/><glyph d="M1124 1578q0 -32 -25.5 -56.5t-57.5 -24.5t-51 19.5t-19 50.5t25.5 56.5t57.5 25.5t51 -19.5t19 -51.5zM707 1578q0 -32 -25.5 -56.5t-57.5 -24.5t-51.5 19.5t-19.5 50.5t25.5 56.5t57.5 25.5t51.5 -19.5t19.5 -51.5zM926 0h-867l301 1366h867l-23 -106h-749l-111 -506 h733l-24 -107h-734l-120 -541h747z" glyph-name="Edieresis" horiz-adv-x="1155" unicode="Ë"/><glyph d="M176 0h-117l301 1366h117zM557 1481h-90l-287 295h127z" glyph-name="Igrave" horiz-adv-x="456" unicode="Ì"/><glyph d="M176 0h-117l301 1366h117zM844 1776l-418 -295h-94l381 295h131z" glyph-name="Iacute" horiz-adv-x="456" unicode="Í"/><glyph d="M702 1481h-77l-127 231l-224 -231h-84l265 295h110zM176 0h-117l301 1366h117z" glyph-name="Icircumflex" horiz-adv-x="456" unicode="Î"/><glyph d="M752 1578q0 -32 -26 -56.5t-58 -24.5t-51 19.5t-19 50.5t25.5 56.5t57.5 25.5t51.5 -19.5t19.5 -51.5zM334 1578q0 -32 -25.5 -56.5t-57.5 -24.5t-51.5 19.5t-19.5 50.5t25.5 56.5t57.5 25.5t51.5 -19.5t19.5 -51.5zM176 0h-117l301 1366h117z" glyph-name="Idieresis" horiz-adv-x="456" unicode="Ï"/><glyph d="M848 1366q231 0 393 -166t162 -412t-186.5 -517t-661.5 -271h-434l139 633h-209l23 102h209l139 631h426zM575 106q315 0 510 197t195 477q0 207 -130 343.5t-325 136.5h-309l-117 -525h365l-23 -102h-364l-117 -527h315z" glyph-name="Eth" horiz-adv-x="1476" unicode="Ð"/><glyph d="M1073 1477q-51 0 -85 32.5t-47 72.5t-41 73t-66 33q-94 0 -142 -199h-74q25 123 83.5 198.5t146.5 75.5q51 0 85 -32.5t48 -71.5t41 -72t65 -33q94 0 142 197h76q-27 -123 -85.5 -198.5t-146.5 -75.5zM1151 0h-115l-596 1192l-264 -1192h-117l301 1366h119l594 -1173 l262 1173h117z" glyph-name="Ntilde" horiz-adv-x="1431" unicode="Ñ"/><glyph d="M1112 1481h-90l-287 295h127zM752 -25q-264 0 -439.5 158t-175.5 434q0 346 221.5 584t536.5 238q264 0 438 -158t174 -434q0 -346 -221 -584t-534 -238zM758 82q254 0 438 203.5t184 507.5q0 231 -141 360t-354 129q-254 0 -437.5 -202.5t-183.5 -508.5 q0 -231 140.5 -360t353.5 -129z" glyph-name="Ograve" horiz-adv-x="1564" unicode="Ò"/><glyph d="M1395 1776l-418 -295h-94l381 295h131zM752 -25q-264 0 -439.5 158t-175.5 434q0 346 221.5 584t536.5 238q264 0 438 -158t174 -434q0 -346 -221 -584t-534 -238zM758 82q254 0 438 203.5t184 507.5q0 231 -141 360t-354 129q-254 0 -437.5 -202.5t-183.5 -508.5 q0 -231 140.5 -360t353.5 -129z" glyph-name="Oacute" horiz-adv-x="1564" unicode="Ó"/><glyph d="M1257 1481h-77l-127 231l-224 -231h-84l265 295h110zM752 -25q-264 0 -439.5 158t-175.5 434q0 346 221.5 584t536.5 238q264 0 438 -158t174 -434q0 -346 -221 -584t-534 -238zM758 82q254 0 438 203.5t184 507.5q0 231 -141 360t-354 129q-254 0 -437.5 -202.5 t-183.5 -508.5q0 -231 140.5 -360t353.5 -129z" glyph-name="Ocircumflex" horiz-adv-x="1564" unicode="Ô"/><glyph d="M752 -25q-264 0 -439.5 158t-175.5 434q0 346 221.5 584t536.5 238q264 0 438 -158t174 -434q0 -346 -221 -584t-534 -238zM758 82q254 0 438 203.5t184 507.5q0 231 -141 360t-354 129q-254 0 -437.5 -202.5t-183.5 -508.5q0 -231 140.5 -360t353.5 -129zM1143 1477 q-51 0 -85 32.5t-47.5 72.5t-41 73t-66.5 33q-94 0 -141 -199h-74q25 123 83 198.5t147 75.5q51 0 84.5 -32.5t48 -71.5t41 -72t65.5 -33q94 0 141 197h76q-27 -123 -85 -198.5t-146 -75.5z" glyph-name="Otilde" horiz-adv-x="1564" unicode="Õ"/><glyph d="M1307 1578q0 -32 -25.5 -56.5t-57.5 -24.5t-51.5 19.5t-19.5 50.5t25.5 56.5t57.5 25.5t51.5 -19.5t19.5 -51.5zM889 1578q0 -32 -25.5 -56.5t-57.5 -24.5t-51.5 19.5t-19.5 50.5t25.5 56.5t57.5 25.5t51.5 -19.5t19.5 -51.5zM752 -25q-264 0 -439.5 158t-175.5 434 q0 346 221.5 584t536.5 238q264 0 438 -158t174 -434q0 -346 -221 -584t-534 -238zM758 82q254 0 438 203.5t184 507.5q0 231 -141 360t-354 129q-254 0 -437.5 -202.5t-183.5 -508.5q0 -231 140.5 -360t353.5 -129z" glyph-name="Odieresis" horiz-adv-x="1564" unicode="Ö"/><glyph d="M780 317l-239 308l-381 -314l-54 64l383 315l-239 307l67 56l238 -310l385 314l51 -66l-383 -313l238 -307z" glyph-name="multiply" horiz-adv-x="1015" unicode="×"/><glyph d="M752 -25q-229 0 -387 115l-78 -90h-105l121 141q-166 162 -166 426q0 346 221.5 584t536.5 238q217 0 379 -111l76 88h106l-119 -139q170 -164 170 -430q0 -346 -221 -584t-534 -238zM758 82q254 0 438 203.5t184 507.5q0 207 -123 340l-817 -953q130 -98 318 -98z M264 571q0 -209 117 -338l815 955q-131 94 -311 94q-254 0 -437.5 -203t-183.5 -508z" glyph-name="Oslash" horiz-adv-x="1564" unicode="Ø"/><glyph d="M678 -25q-242 0 -377 120t-135 325q0 59 10 104l184 842h119l-184 -840q-12 -49 -12 -92q0 -158 103 -255t291 -97t292 112.5t153 331.5l185 840h118l-184 -842q-61 -270 -191 -409.5t-372 -139.5zM1030 1481h-90l-287 295h127z" glyph-name="Ugrave" horiz-adv-x="1404" unicode="Ù"/><glyph d="M1319 1776l-418 -295h-94l381 295h131zM678 -25q-242 0 -377 120t-135 325q0 59 10 104l184 842h119l-184 -840q-12 -49 -12 -92q0 -158 103 -255t291 -97t292 112.5t153 331.5l185 840h118l-184 -842q-61 -270 -191 -409.5t-372 -139.5z" glyph-name="Uacute" horiz-adv-x="1404" unicode="Ú"/><glyph d="M1176 1481h-78l-127 231l-223 -231h-84l264 295h110zM678 -25q-242 0 -377 120t-135 325q0 59 10 104l184 842h119l-184 -840q-12 -49 -12 -92q0 -158 103 -255t291 -97t292 112.5t153 331.5l185 840h118l-184 -842q-61 -270 -191 -409.5t-372 -139.5z" glyph-name="Ucircumflex" horiz-adv-x="1404" unicode="Û"/><glyph d="M1227 1578q0 -32 -25.5 -56.5t-57.5 -24.5t-51.5 19.5t-19.5 50.5t25.5 56.5t57.5 25.5t51.5 -19.5t19.5 -51.5zM809 1578q0 -32 -25.5 -56.5t-57.5 -24.5t-51.5 19.5t-19.5 50.5t25.5 56.5t57.5 25.5t51.5 -19.5t19.5 -51.5zM678 -25q-242 0 -377 120t-135 325 q0 59 10 104l184 842h119l-184 -840q-12 -49 -12 -92q0 -158 103 -255t291 -97t292 112.5t153 331.5l185 840h118l-184 -842q-61 -270 -191 -409.5t-372 -139.5z" glyph-name="Udieresis" horiz-adv-x="1404" unicode="Ü"/><glyph d="M582 0h-119l129 584l-371 782h131l314 -672l608 672h151l-714 -782zM1245 1776l-418 -295h-94l381 295h131z" glyph-name="Yacute" horiz-adv-x="1265" unicode="Ý"/><glyph d="M793 1112q145 0 246.5 -99.5t101.5 -242.5q0 -180 -128 -318.5t-378 -138.5h-389l-70 -313h-117l301 1366h117l-55 -254h371zM647 420q178 0 273.5 100.5t95.5 241.5q0 102 -74 173t-178 71h-365l-129 -586h377z" glyph-name="Thorn" unicode="Þ"/><glyph d="M1100 289q0 -125 -98 -219.5t-254 -94.5t-250.5 43t-173.5 142l75 67q123 -162 334 -161q121 0 189.5 63.5t68.5 132.5t-53 110.5t-129 68t-150.5 55t-128 83t-53.5 130t43 132t103.5 88.5t165 78.5t104.5 131.5q0 68 -67.5 109.5t-158.5 41.5t-169 -66.5t-105 -181.5 l-231 -1042h-107l230 1042q35 152 137 248t244 96t240 -64.5t98 -166.5q0 -74 -43 -126t-104.5 -81.5t-166 -77t-104.5 -147.5q0 -94 129 -139t203.5 -76t128 -86t53.5 -133z" glyph-name="germandbls" horiz-adv-x="1183" unicode="ß"/><glyph d="M612 1014q117 0 210 -52.5t147 -140.5l35 168h108l-219 -989h-109l35 150q-137 -174 -325 -174t-295 108.5t-107 296.5q0 258 145.5 445.5t374.5 187.5zM621 918q-180 0 -296 -157t-116 -362q0 -152 81.5 -239.5t199.5 -87.5t209.5 54t144.5 136l104 475 q-39 78 -125.5 129.5t-201.5 51.5zM823 1139h-90l-287 295h127z" glyph-name="agrave" unicode="à"/><glyph d="M612 1014q117 0 210 -52.5t147 -140.5l35 168h108l-219 -989h-109l35 150q-137 -174 -325 -174t-295 108.5t-107 296.5q0 258 145.5 445.5t374.5 187.5zM621 918q-180 0 -296 -157t-116 -362q0 -152 81.5 -239.5t199.5 -87.5t209.5 54t144.5 136l104 475 q-39 78 -125.5 129.5t-201.5 51.5zM1106 1434l-418 -295h-94l381 295h131z" glyph-name="aacute" unicode="á"/><glyph d="M612 1014q117 0 210 -52.5t147 -140.5l35 168h108l-219 -989h-109l35 150q-137 -174 -325 -174t-295 108.5t-107 296.5q0 258 145.5 445.5t374.5 187.5zM621 918q-180 0 -296 -157t-116 -362q0 -152 81.5 -239.5t199.5 -87.5t209.5 54t144.5 136l104 475 q-39 78 -125.5 129.5t-201.5 51.5zM967 1139h-78l-127 231l-223 -231h-84l264 295h110z" glyph-name="acircumflex" unicode="â"/><glyph d="M612 1014q117 0 210 -52.5t147 -140.5l35 168h108l-219 -989h-109l35 150q-137 -174 -325 -174t-295 108.5t-107 296.5q0 258 145.5 445.5t374.5 187.5zM621 918q-180 0 -296 -157t-116 -362q0 -152 81.5 -239.5t199.5 -87.5t209.5 54t144.5 136l104 475 q-39 78 -125.5 129.5t-201.5 51.5zM854 1135q-51 0 -85 32.5t-47 72.5t-40 73t-68 33q-94 0 -141 -199h-74q25 123 83.5 198.5t146.5 75.5q51 0 85 -32.5t48 -71.5t40.5 -72t65.5 -33q94 0 142 197h75q-27 -123 -85 -198.5t-146 -75.5z" glyph-name="atilde" unicode="ã"/><glyph d="M612 1014q117 0 210 -52.5t147 -140.5l35 168h108l-219 -989h-109l35 150q-137 -174 -325 -174t-295 108.5t-107 296.5q0 258 145.5 445.5t374.5 187.5zM621 918q-180 0 -296 -157t-116 -362q0 -152 81.5 -239.5t199.5 -87.5t209.5 54t144.5 136l104 475 q-39 78 -125.5 129.5t-201.5 51.5zM1018 1236q0 -32 -25.5 -56.5t-57.5 -24.5t-51.5 19.5t-19.5 50.5t25.5 56.5t57.5 25.5t51.5 -19.5t19.5 -51.5zM600 1236q0 -32 -25.5 -56.5t-57.5 -24.5t-51.5 19.5t-19.5 50.5t26 56.5t58 25.5t51 -19.5t19 -51.5z" glyph-name="adieresis" unicode="ä"/><glyph d="M612 1014q117 0 210 -52.5t147 -140.5l35 168h108l-219 -989h-109l35 150q-137 -174 -325 -174t-295 108.5t-107 296.5q0 258 145.5 445.5t374.5 187.5zM621 918q-180 0 -296 -157t-116 -362q0 -152 81.5 -239.5t199.5 -87.5t209.5 54t144.5 136l104 475 q-39 78 -125.5 129.5t-201.5 51.5zM734 1112q-83 0 -133 50t-50 132t64.5 146.5t146.5 64.5t132 -50t50 -133t-63.5 -146.5t-146.5 -63.5zM735 1178q55 0 99.5 42t44.5 98t-32 89t-87 33t-98.5 -43t-43.5 -99t31 -88t86 -32z" glyph-name="aring" unicode="å"/><glyph d="M621 918q-180 0 -296 -157t-116 -362q0 -152 81.5 -239.5t199.5 -87.5t209.5 54t144.5 136l104 475q-39 78 -125.5 129.5t-201.5 51.5zM92 381q0 258 145.5 445.5t374.5 187.5q117 0 210 -52.5t147 -140.5l35 168h108l-41 -188q61 88 162.5 150.5t220.5 62.5 q186 0 287.5 -118t101.5 -306q0 -72 -14 -129h-828q-4 -25 -4 -58q0 -143 95.5 -239t260.5 -96t296 108l43 -80q-162 -121 -329 -121t-273.5 82t-135.5 219l-61 -276h-109l35 150q-137 -174 -325 -174t-295 108.5t-107 296.5zM1741 590q0 150 -81.5 241t-233.5 91 t-269.5 -111.5t-144.5 -265.5h727q2 10 2 45z" glyph-name="ae" horiz-adv-x="1941" unicode="æ"/><glyph d="M406 -387q-114 0 -195 76l47 61q68 -70 170 -69q66 0 100.5 29.5t34.5 74.5q0 68 -82 68q-47 0 -75 -35l-50 32l78 134q-156 29 -248 140.5t-92 289.5q0 246 160 423t398 177t345 -180l-82 -62q-85 146 -275 146t-311.5 -151t-121.5 -335t94 -272t250 -88t262 127l61 -74 q-143 -150 -339 -150h-29l-55 -92q31 25 77 25t78.5 -31t32.5 -97t-59.5 -116.5t-173.5 -50.5z" glyph-name="ccedilla" horiz-adv-x="1011" unicode="ç"/><glyph d="M548 -25q-202 0 -328 120t-126 317q0 248 160 425t389 177q193 0 306.5 -121t113.5 -307q0 -59 -16 -125h-836q-4 -25 -4 -58q0 -145 94 -240t267 -95t300 106l41 -78q-159 -121 -361 -121zM635 922q-151 0 -269 -111.5t-145 -265.5h737q2 10 3 45q0 147 -87.5 239.5 t-238.5 92.5zM838 1139h-90l-287 295h127z" glyph-name="egrave" horiz-adv-x="1161" unicode="è"/><glyph d="M1122 1434l-417 -295h-95l381 295h131zM548 -25q-202 0 -328 120t-126 317q0 248 160 425t389 177q193 0 306.5 -121t113.5 -307q0 -59 -16 -125h-836q-4 -25 -4 -58q0 -145 94 -240t267 -95t300 106l41 -78q-159 -121 -361 -121zM635 922q-151 0 -269 -111.5 t-145 -265.5h737q2 10 3 45q0 147 -87.5 239.5t-238.5 92.5z" glyph-name="eacute" horiz-adv-x="1161" unicode="é"/><glyph d="M981 1139h-78l-127 231l-223 -231h-84l264 295h111zM548 -25q-202 0 -328 120t-126 317q0 248 160 425t389 177q193 0 306.5 -121t113.5 -307q0 -59 -16 -125h-836q-4 -25 -4 -58q0 -145 94 -240t267 -95t300 106l41 -78q-159 -121 -361 -121zM635 922 q-151 0 -269 -111.5t-145 -265.5h737q2 10 3 45q0 147 -87.5 239.5t-238.5 92.5z" glyph-name="ecircumflex" horiz-adv-x="1161" unicode="ê"/><glyph d="M1030 1236q0 -32 -25.5 -56.5t-57.5 -24.5t-51 19.5t-19 50.5t25.5 56.5t57.5 25.5t51 -19.5t19 -51.5zM612 1236q0 -32 -25.5 -56.5t-57.5 -24.5t-51 19.5t-19 50.5t25.5 56.5t57.5 25.5t51 -19.5t19 -51.5zM548 -25q-202 0 -328 120t-126 317q0 248 160 425t389 177 q193 0 306.5 -121t113.5 -307q0 -59 -16 -125h-836q-4 -25 -4 -58q0 -145 94 -240t267 -95t300 106l41 -78q-159 -121 -361 -121zM635 922q-151 0 -269 -111.5t-145 -265.5h737q2 10 3 45q0 147 -87.5 239.5t-238.5 92.5z" glyph-name="edieresis" horiz-adv-x="1161" unicode="ë"/><glyph d="M162 0h-107l219 989h107zM473 1139h-90l-287 295h127z" glyph-name="igrave" horiz-adv-x="438" unicode="ì"/><glyph d="M758 1434l-418 -295h-94l381 295h131zM162 0h-107l219 989h107z" glyph-name="iacute" horiz-adv-x="438" unicode="í"/><glyph d="M616 1139h-77l-127 231l-224 -231h-84l265 295h110zM162 0h-107l219 989h107z" glyph-name="icircumflex" horiz-adv-x="438" unicode="î"/><glyph d="M666 1236q0 -32 -26 -56.5t-58 -24.5t-51 19.5t-19 50.5t25.5 56.5t57.5 25.5t51.5 -19.5t19.5 -51.5zM248 1236q0 -32 -25.5 -56.5t-57.5 -24.5t-51.5 19.5t-19.5 50.5t25.5 56.5t57.5 25.5t51.5 -19.5t19.5 -51.5zM162 0h-107l219 989h107z" glyph-name="idieresis" horiz-adv-x="438" unicode="ï"/><glyph d="M1073 616q0 -268 -153.5 -454.5t-384.5 -186.5q-195 0 -318 119t-123 301q0 250 152.5 426t365.5 176q104 0 199.5 -52t144.5 -163q-78 209 -249 383l-320 -94l-18 66l280 84q-66 59 -143 118l80 82q113 -86 188 -164l240 72l18 -65l-205 -62q246 -283 246 -586zM545 72 q162 0 284.5 148.5t122.5 352.5q0 131 -84 229.5t-250 98.5t-287.5 -143.5t-121.5 -347.5q0 -150 87 -244t249 -94z" glyph-name="eth" unicode="ð"/><glyph d="M668 918q-174 0 -342 -173l-164 -745h-107l219 989h107l-33 -149q178 174 357 174q131 0 209.5 -62.5t78.5 -179.5q0 -39 -12 -84l-152 -688h-106l147 672q12 55 13 71q0 88 -59.5 131.5t-155.5 43.5zM840 1135q-51 0 -85 32.5t-47.5 72.5t-41 73t-66.5 33 q-94 0 -141 -199h-74q25 123 83 198.5t146 75.5q51 0 85 -32.5t48.5 -71.5t41 -72t65.5 -33q94 0 141 197h76q-27 -123 -85 -198.5t-146 -75.5z" glyph-name="ntilde" horiz-adv-x="1105" unicode="ñ"/><glyph d="M543 -25q-214 0 -332.5 119t-118.5 316q0 242 158 423t372 181t332.5 -119t118.5 -315q0 -242 -158 -423.5t-372 -181.5zM544 72q166 0 289 152.5t123 350.5q0 158 -85 250.5t-236 92.5q-180 0 -303 -153t-123 -351q0 -158 84.5 -250t250.5 -92zM842 1139h-90l-287 295 h127z" glyph-name="ograve" unicode="ò"/><glyph d="M1122 1434l-417 -295h-95l381 295h131zM543 -25q-214 0 -332.5 119t-118.5 316q0 242 158 423t372 181t332.5 -119t118.5 -315q0 -242 -158 -423.5t-372 -181.5zM544 72q166 0 289 152.5t123 350.5q0 158 -85 250.5t-236 92.5q-180 0 -303 -153t-123 -351 q0 -158 84.5 -250t250.5 -92z" glyph-name="oacute" unicode="ó"/><glyph d="M983 1139h-78l-127 231l-223 -231h-84l264 295h111zM543 -25q-214 0 -332.5 119t-118.5 316q0 242 158 423t372 181t332.5 -119t118.5 -315q0 -242 -158 -423.5t-372 -181.5zM544 72q166 0 289 152.5t123 350.5q0 158 -85 250.5t-236 92.5q-180 0 -303 -153t-123 -351 q0 -158 84.5 -250t250.5 -92z" glyph-name="ocircumflex" unicode="ô"/><glyph d="M543 -25q-214 0 -332.5 119t-118.5 316q0 242 158 423t372 181t332.5 -119t118.5 -315q0 -242 -158 -423.5t-372 -181.5zM544 72q166 0 289 152.5t123 350.5q0 158 -85 250.5t-236 92.5q-180 0 -303 -153t-123 -351q0 -158 84.5 -250t250.5 -92zM870 1135 q-51 0 -84.5 32.5t-47 72.5t-40 73t-67.5 33q-94 0 -142 -199h-73q25 123 83 198.5t146 75.5q51 0 85 -32.5t48.5 -71.5t41 -72t65.5 -33q94 0 141 197h76q-27 -123 -85.5 -198.5t-146.5 -75.5z" glyph-name="otilde" unicode="õ"/><glyph d="M1034 1236q0 -32 -25.5 -56.5t-57.5 -24.5t-51 19.5t-19 50.5t25.5 56.5t57.5 25.5t51 -19.5t19 -51.5zM616 1236q0 -32 -25.5 -56.5t-57.5 -24.5t-51 19.5t-19 50.5t25.5 56.5t57.5 25.5t51 -19.5t19 -51.5zM543 -25q-214 0 -332.5 119t-118.5 316q0 242 158 423 t372 181t332.5 -119t118.5 -315q0 -242 -158 -423.5t-372 -181.5zM544 72q166 0 289 152.5t123 350.5q0 158 -85 250.5t-236 92.5q-180 0 -303 -153t-123 -351q0 -158 84.5 -250t250.5 -92z" glyph-name="odieresis" unicode="ö"/><glyph d="M1020 647h-928l19 86h927zM470 205q-34 0 -54.5 21.5t-20.5 54.5t25.5 58.5t59.5 25.5t55.5 -21.5t21.5 -55.5t-26.5 -58.5t-60.5 -24.5zM648 1008q-34 0 -55.5 22t-21.5 54t27.5 57.5t59.5 25.5t53.5 -21.5t21.5 -55.5t-25.5 -58t-59.5 -24z" glyph-name="divide" horiz-adv-x="1046" unicode="÷"/><glyph d="M92 410q0 242 158 423t387 181q184 0 301 -105l78 80h94l-125 -127q88 -113 88 -282q0 -242 -157.5 -423.5t-387.5 -181.5q-195 0 -311 111l-84 -86h-94l135 135q-82 111 -82 275zM530 72q180 0 303 152.5t123 350.5q0 121 -53 205l-608 -616q85 -92 235 -92zM209 414 q0 -119 45 -197l608 617q-88 84 -227 84q-180 0 -303 -152.5t-123 -351.5z" glyph-name="oslash" unicode="ø"/><glyph d="M221 246q0 -88 59.5 -131t159.5 -43q170 0 336 174l166 743h107l-220 -989h-106l33 150q-178 -174 -357 -175q-131 0 -209.5 62.5t-78.5 179.5q0 39 12 84l151 688h107l-148 -670q-12 -61 -12 -73zM807 1139h-90l-287 295h127z" glyph-name="ugrave" horiz-adv-x="1105" unicode="ù"/><glyph d="M1090 1434l-418 -295h-94l380 295h132zM221 246q0 -88 59.5 -131t159.5 -43q170 0 336 174l166 743h107l-220 -989h-106l33 150q-178 -174 -357 -175q-131 0 -209.5 62.5t-78.5 179.5q0 39 12 84l151 688h107l-148 -670q-12 -61 -12 -73z" glyph-name="uacute" horiz-adv-x="1105" unicode="ú"/><glyph d="M950 1139h-78l-127 231l-223 -231h-84l264 295h111zM221 246q0 -88 59.5 -131t159.5 -43q170 0 336 174l166 743h107l-220 -989h-106l33 150q-178 -174 -357 -175q-131 0 -209.5 62.5t-78.5 179.5q0 39 12 84l151 688h107l-148 -670q-12 -61 -12 -73z" glyph-name="ucircumflex" horiz-adv-x="1105" unicode="û"/><glyph d="M999 1236q0 -32 -25.5 -56.5t-57.5 -24.5t-51 19.5t-19 50.5t25.5 56.5t57.5 25.5t51 -19.5t19 -51.5zM582 1236q0 -32 -26 -56.5t-58 -24.5t-51 19.5t-19 50.5t25.5 56.5t57.5 25.5t51.5 -19.5t19.5 -51.5zM221 246q0 -88 59.5 -131t159.5 -43q170 0 336 174l166 743 h107l-220 -989h-106l33 150q-178 -174 -357 -175q-131 0 -209.5 62.5t-78.5 179.5q0 39 12 84l151 688h107l-148 -670q-12 -61 -12 -73z" glyph-name="udieresis" horiz-adv-x="1105" unicode="ü"/><glyph d="M43 -297q80 0 156 113l116 178l-192 995h115l165 -864l551 864h125l-780 -1206q-117 -184 -276 -184q-66 0 -117 20l41 102q37 -18 96 -18zM1024 1434l-418 -295h-94l381 295h131z" glyph-name="yacute" horiz-adv-x="985" unicode="ý"/><glyph d="M555 -25q-119 0 -211 52.5t-145 140.5l-121 -545h-107l385 1743h107l-115 -526q133 174 340 174q172 0 278.5 -109.5t106.5 -298.5q0 -256 -145.5 -443.5t-372.5 -187.5zM545 72q180 0 295.5 155.5t115.5 360.5q0 152 -81.5 241t-217.5 89q-100 0 -190 -54.5t-145 -136.5 l-105 -475q39 -78 126 -129t202 -51z" glyph-name="thorn" horiz-adv-x="1161" unicode="þ"/><glyph d="M43 -297q80 0 156 113l116 178l-192 995h115l165 -864l551 864h125l-780 -1206q-117 -184 -276 -184q-66 0 -117 20l41 102q37 -18 96 -18zM934 1236q0 -32 -25.5 -56.5t-57.5 -24.5t-51.5 19.5t-19.5 50.5t25.5 56.5t57.5 25.5t51.5 -19.5t19.5 -51.5zM516 1236 q0 -32 -25.5 -56.5t-57.5 -24.5t-51.5 19.5t-19.5 50.5t26 56.5t58 25.5t51 -19.5t19 -51.5z" glyph-name="ydieresis" horiz-adv-x="985" unicode="ÿ"/><glyph d="M1184 0h-129l-64 336h-721l-209 -336h-141l860 1366h146zM979 442l-148 799l-499 -799h647zM1257 1524h-741l16 75h742z" glyph-name="Amacron" horiz-adv-x="1325" unicode="Ā"/><glyph d="M612 1014q117 0 210 -52.5t147 -140.5l35 168h108l-219 -989h-109l35 150q-137 -174 -325 -174t-295 108.5t-107 296.5q0 258 145.5 445.5t374.5 187.5zM621 918q-180 0 -296 -157t-116 -362q0 -152 81.5 -239.5t199.5 -87.5t209.5 54t144.5 136l104 475 q-39 78 -125.5 129.5t-201.5 51.5zM1094 1182h-742l17 75h741z" glyph-name="amacron" unicode="ā"/><glyph d="M1184 0h-129l-64 336h-721l-209 -336h-141l860 1366h146zM979 442l-148 799l-499 -799h647zM860 1450q-109 0 -192.5 48t-128.5 132l67 51q78 -153 267 -153t333 153l51 -51q-174 -180 -397 -180z" glyph-name="Abreve" horiz-adv-x="1325" unicode="Ă"/><glyph d="M612 1014q117 0 210 -52.5t147 -140.5l35 168h108l-219 -989h-109l35 150q-137 -174 -325 -174t-295 108.5t-107 296.5q0 258 145.5 445.5t374.5 187.5zM621 918q-180 0 -296 -157t-116 -362q0 -152 81.5 -239.5t199.5 -87.5t209.5 54t144.5 136l104 475 q-39 78 -125.5 129.5t-201.5 51.5zM694 1108q-109 0 -192.5 48t-128.5 132l67 51q76 -154 266.5 -153.5t333.5 153.5l52 -51q-174 -180 -398 -180z" glyph-name="abreve" unicode="ă"/><glyph d="M1055 -381q-70 0 -114 38t-44 105q0 139 158 238l-64 336h-721l-209 -336h-141l860 1366h146l258 -1366q-215 -94 -215 -225q0 -88 96 -88q74 0 121 88l53 -37q-74 -119 -184 -119zM979 442l-148 799l-499 -799h647z" glyph-name="Aogonek" horiz-adv-x="1325" unicode="Ą"/><glyph d="M764 -381q-70 0 -114 38t-44 105q0 154 180 252l33 136q-137 -174 -325 -174t-295 108.5t-107 296.5q0 258 145.5 445.5t374.5 187.5q117 0 210 -52.5t147 -140.5l35 168h108l-219 -989q-215 -94 -215 -225q0 -88 96 -88q74 0 121 88l53 -37q-74 -119 -184 -119zM621 918 q-180 0 -296 -157t-116 -362q0 -152 81.5 -239.5t199.5 -87.5t209.5 54t144.5 136l104 475q-39 78 -125.5 129.5t-201.5 51.5z" glyph-name="aogonek" unicode="ą"/><glyph d="M1401 1786l-418 -295h-94l381 295h131zM754 -25q-272 0 -444.5 163t-172.5 429q0 180 64.5 337t171 261.5t243 164t298.5 59.5t301 -76t217 -217l-113 -52q-131 238 -432 238q-246 0 -434.5 -198.5t-188.5 -512.5q0 -221 134 -355t352 -134t393 156l84 -70 q-201 -193 -473 -193z" glyph-name="Cacute" horiz-adv-x="1376" unicode="Ć"/><glyph d="M1133 1434l-418 -295h-94l380 295h132zM534.5 -25q-196.5 0 -318.5 117t-122 322q0 246 160 423t398 177t345 -180l-82 -62q-85 146 -275 146t-311.5 -151t-121.5 -335t94 -272t250 -88t262 127l61 -74q-143 -150 -339.5 -150z" glyph-name="cacute" horiz-adv-x="1011" unicode="ć"/><glyph d="M1257 1481h-77l-127 231l-224 -231h-84l265 295h110zM754 -25q-272 0 -444.5 163t-172.5 429q0 180 64.5 337t171 261.5t243 164t298.5 59.5t301 -76t217 -217l-113 -52q-131 238 -432 238q-246 0 -434.5 -198.5t-188.5 -512.5q0 -221 134 -355t352 -134t393 156l84 -70 q-201 -193 -473 -193z" glyph-name="Ccircumflex" horiz-adv-x="1376" unicode="Ĉ"/><glyph d="M991 1139h-78l-127 231l-223 -231h-84l264 295h111zM534.5 -25q-196.5 0 -318.5 117t-122 322q0 246 160 423t398 177t345 -180l-82 -62q-85 146 -275 146t-311.5 -151t-121.5 -335t94 -272t250 -88t262 127l61 -74q-143 -150 -339.5 -150z" glyph-name="ccircumflex" horiz-adv-x="1011" unicode="ĉ"/><glyph d="M754 -25q-272 0 -444.5 163t-172.5 429q0 180 64.5 337t171 261.5t243 164t298.5 59.5t301 -76t217 -217l-113 -52q-131 238 -432 238q-246 0 -434.5 -198.5t-188.5 -512.5q0 -221 134 -355t352 -134t393 156l84 -70q-201 -193 -473 -193zM1096 1573q0 -33 -26 -57.5 t-58 -24.5t-52 19.5t-20 51.5t25.5 58.5t58.5 26.5t52.5 -20.5t19.5 -53.5z" glyph-name="Cdotaccent" horiz-adv-x="1376" unicode="Ċ"/><glyph d="M534.5 -25q-196.5 0 -318.5 117t-122 322q0 246 160 423t398 177t345 -180l-82 -62q-85 146 -275 146t-311.5 -151t-121.5 -335t94 -272t250 -88t262 127l61 -74q-143 -150 -339.5 -150zM834 1231q0 -33 -26 -57.5t-58 -24.5t-52 19.5t-20 51.5t25.5 58.5t58.5 26.5 t52.5 -20.5t19.5 -53.5z" glyph-name="cdotaccent" horiz-adv-x="1011" unicode="ċ"/><glyph d="M1063 1481h-111l-139 295h76l127 -232l223 232h86zM754 -25q-272 0 -444.5 163t-172.5 429q0 180 64.5 337t171 261.5t243 164t298.5 59.5t301 -76t217 -217l-113 -52q-131 238 -432 238q-246 0 -434.5 -198.5t-188.5 -512.5q0 -221 134 -355t352 -134t393 156l84 -70 q-201 -193 -473 -193z" glyph-name="Ccaron" horiz-adv-x="1376" unicode="Č"/><glyph d="M795 1139h-111l-139 295h76l127 -232l223 232h86zM534.5 -25q-196.5 0 -318.5 117t-122 322q0 246 160 423t398 177t345 -180l-82 -62q-85 146 -275 146t-311.5 -151t-121.5 -335t94 -272t250 -88t262 127l61 -74q-143 -150 -339.5 -150z" glyph-name="ccaron" horiz-adv-x="1011" unicode="č"/><glyph d="M997 1481h-110l-139 295h75l127 -232l224 232h86zM786 1366q231 0 393 -166t162 -413t-186 -517t-661 -270h-435l301 1366h426zM514 106q315 0 510 197t195 477q0 207 -130.5 343.5t-324.5 136.5h-309l-256 -1154h315z" glyph-name="Dcaron" horiz-adv-x="1417" unicode="Ď"/><glyph d="M1454 1300q0 -78 -58.5 -158.5t-138.5 -121.5l-45 49q55 27 97.5 73t54.5 93h-14q-25 0 -44.5 20.5t-19.5 52.5t26.5 57.5t61.5 25.5t57.5 -24t22.5 -67zM612 1014q117 0 210 -52.5t147 -140.5l118 545h109l-303 -1366h-109l35 150q-137 -174 -325 -174t-295 108.5 t-107 296.5q0 258 145.5 445.5t374.5 187.5zM621 918q-180 0 -296 -157t-116 -362q0 -152 81.5 -239.5t199.5 -87.5t209.5 54t144.5 136l104 475q-39 78 -125.5 129.5t-201.5 51.5z" glyph-name="dcaron" horiz-adv-x="1280" unicode="ď"/><glyph d="M848 1366q231 0 393 -166t162 -412t-186.5 -517t-661.5 -271h-434l139 633h-209l23 102h209l139 631h426zM575 106q315 0 510 197t195 477q0 207 -130 343.5t-325 136.5h-309l-117 -525h365l-23 -102h-364l-117 -527h315z" glyph-name="Dcroat" horiz-adv-x="1476" unicode="Đ"/><glyph d="M612 1014q117 0 210 -52.5t147 -140.5l61 281h-362l14 76h365l40 188h109l-43 -188h113l-15 -76h-114l-244 -1102h-109l35 150q-137 -174 -325 -174t-295 108.5t-107 296.5q0 258 145.5 445.5t374.5 187.5zM621 918q-180 0 -296 -157t-116 -362q0 -152 81.5 -239.5 t199.5 -87.5t209.5 54t144.5 136l104 475q-39 78 -125.5 129.5t-201.5 51.5z" glyph-name="dcroat" horiz-adv-x="1175" unicode="đ"/><glyph d="M926 0h-867l301 1366h867l-23 -106h-749l-111 -506h733l-24 -107h-734l-120 -541h747zM1196 1524h-741l16 75h741z" glyph-name="Emacron" horiz-adv-x="1155" unicode="Ē"/><glyph d="M548 -25q-202 0 -328 120t-126 317q0 248 160 425t389 177q193 0 306.5 -121t113.5 -307q0 -59 -16 -125h-836q-4 -25 -4 -58q0 -145 94 -240t267 -95t300 106l41 -78q-159 -121 -361 -121zM635 922q-151 0 -269 -111.5t-145 -265.5h737q2 10 3 45q0 147 -87.5 239.5 t-238.5 92.5zM1106 1182h-741l16 75h741z" glyph-name="emacron" horiz-adv-x="1161" unicode="ē"/><glyph d="M926 0h-867l301 1366h867l-23 -106h-749l-111 -506h733l-24 -107h-734l-120 -541h747zM799 1450q-109 0 -193 48t-129 132l68 51q78 -153 267 -153t333 153l51 -51q-174 -180 -397 -180z" glyph-name="Ebreve" horiz-adv-x="1155" unicode="Ĕ"/><glyph d="M548 -25q-202 0 -328 120t-126 317q0 248 160 425t389 177q193 0 306.5 -121t113.5 -307q0 -59 -16 -125h-836q-4 -25 -4 -58q0 -145 94 -240t267 -95t300 106l41 -78q-159 -121 -361 -121zM635 922q-151 0 -269 -111.5t-145 -265.5h737q2 10 3 45q0 147 -87.5 239.5 t-238.5 92.5zM707 1108q-109 0 -193 48t-129 132l68 51q76 -154 266 -153.5t334 153.5l51 -51q-174 -180 -397 -180z" glyph-name="ebreve" horiz-adv-x="1161" unicode="ĕ"/><glyph d="M926 0h-867l301 1366h867l-23 -106h-749l-111 -506h733l-24 -107h-734l-120 -541h747zM915 1575q0 -33 -25.5 -57.5t-58.5 -24.5t-52 19.5t-19 51.5t25.5 58.5t58.5 26.5t52 -20.5t19 -53.5z" glyph-name="Edotaccent" horiz-adv-x="1155" unicode="Ė"/><glyph d="M548 -25q-202 0 -328 120t-126 317q0 248 160 425t389 177q193 0 306.5 -121t113.5 -307q0 -59 -16 -125h-836q-4 -25 -4 -58q0 -145 94 -240t267 -95t300 106l41 -78q-159 -121 -361 -121zM635 922q-151 0 -269 -111.5t-145 -265.5h737q2 10 3 45q0 147 -87.5 239.5 t-238.5 92.5zM823 1231q0 -33 -25.5 -57.5t-58.5 -24.5t-52 19.5t-19 51.5t25.5 58.5t58.5 26.5t52 -20.5t19 -53.5z" glyph-name="edotaccent" horiz-adv-x="1161" unicode="ė"/><glyph d="M709 -225q0 -88 96 -88q74 0 121 88l53 -37q-74 -119 -184 -119q-70 0 -114 38t-44 105q0 139 156 238h-734l301 1366h867l-23 -106h-749l-111 -506h733l-24 -107h-734l-120 -541h747l-20 -106h-2q-215 -94 -215 -225z" glyph-name="Eogonek" horiz-adv-x="1155" unicode="Ę"/><glyph d="M594 -381q-70 0 -114 38t-44 105q0 123 119 213q-215 2 -338 122t-123 315q0 248 160 425t389 177q193 0 306.5 -121t113.5 -307q0 -59 -16 -125h-836q-4 -25 -4 -58q0 -145 94 -240t267 -95t300 106l41 -78q-82 -66 -186 -96q-215 -94 -215 -225q0 -88 96 -88 q74 0 121 88l53 -37q-74 -119 -184 -119zM635 922q-151 0 -269 -111.5t-145 -265.5h737q2 10 3 45q0 147 -87.5 239.5t-238.5 92.5z" glyph-name="eogonek" horiz-adv-x="1161" unicode="ę"/><glyph d="M879 1481h-111l-139 295h76l126 -232l224 232h86zM926 0h-867l301 1366h867l-23 -106h-749l-111 -506h733l-24 -107h-734l-120 -541h747z" glyph-name="Ecaron" horiz-adv-x="1155" unicode="Ě"/><glyph d="M786 1139h-110l-139 295h75l127 -232l224 232h86zM548 -25q-202 0 -328 120t-126 317q0 248 160 425t389 177q193 0 306.5 -121t113.5 -307q0 -59 -16 -125h-836q-4 -25 -4 -58q0 -145 94 -240t267 -95t300 106l41 -78q-159 -121 -361 -121zM635 922q-151 0 -269 -111.5 t-145 -265.5h737q2 10 3 45q0 147 -87.5 239.5t-238.5 92.5z" glyph-name="ecaron" horiz-adv-x="1161" unicode="ě"/><glyph d="M1260 1481h-78l-127 231l-224 -231h-83l264 295h110zM758 -25q-282 0 -451.5 166t-169.5 426q0 352 224.5 587t539.5 235q178 0 313.5 -75t212.5 -206l-104 -53q-61 111 -177 169t-259 58q-248 0 -435.5 -204t-187.5 -507q0 -223 134 -356t358 -133t399 164l72 327h-516 l22 105h635l-108 -488q-220 -215 -502 -215z" glyph-name="Gcircumflex" horiz-adv-x="1456" unicode="Ĝ"/><glyph d="M954 1126h-77l-127 232l-224 -232h-84l265 295h110zM434 -401q-147 0 -250.5 36.5t-175.5 131.5l76 75q98 -152 348 -151q283 0 354 319l31 148q-135 -174 -350 -174q-166 0 -270.5 105.5t-104.5 305.5q0 250 142.5 434.5t371.5 184.5q104 0 203.5 -54.5t155.5 -138.5 l39 168h108l-219 -979q-88 -411 -459 -411zM506 78q90 0 181 51t153 127l108 479q-45 82 -138 132.5t-200 50.5q-178 0 -291.5 -156t-113.5 -331t82 -264t219 -89z" glyph-name="gcircumflex" horiz-adv-x="1167" unicode="ĝ"/><glyph d="M758 -25q-282 0 -451.5 166t-169.5 426q0 352 224.5 587t539.5 235q178 0 313.5 -75t212.5 -206l-104 -53q-61 111 -177 169t-259 58q-248 0 -435.5 -204t-187.5 -507q0 -223 134 -356t358 -133t399 164l72 327h-516l22 105h635l-108 -488q-220 -215 -502 -215zM987 1450 q-109 0 -192.5 48t-128.5 132l67 51q78 -153 267 -153t333 153l51 -51q-174 -180 -397 -180z" glyph-name="Gbreve" horiz-adv-x="1456" unicode="Ğ"/><glyph d="M434 -401q-147 0 -250.5 36.5t-175.5 131.5l76 75q98 -152 348 -151q283 0 354 319l31 148q-135 -174 -350 -174q-166 0 -270.5 105.5t-104.5 305.5q0 250 142.5 434.5t371.5 184.5q104 0 203.5 -54.5t155.5 -138.5l39 168h108l-219 -979q-88 -411 -459 -411zM506 78 q90 0 181 51t153 127l108 479q-45 82 -138 132.5t-200 50.5q-178 0 -291.5 -156t-113.5 -331t82 -264t219 -89zM684 1108q-109 0 -192.5 48t-129.5 132l68 51q78 -153 267 -153t333 153l51 -51q-174 -180 -397 -180z" glyph-name="gbreve" horiz-adv-x="1167" unicode="ğ"/><glyph d="M758 -25q-282 0 -451.5 166t-169.5 426q0 352 224.5 587t539.5 235q178 0 313.5 -75t212.5 -206l-104 -53q-61 111 -177 169t-259 58q-248 0 -435.5 -204t-187.5 -507q0 -223 134 -356t358 -133t399 164l72 327h-516l22 105h635l-108 -488q-220 -215 -502 -215z M1100 1573q0 -33 -25.5 -57.5t-58.5 -24.5t-52.5 19.5t-19.5 51.5t25.5 58.5t58.5 26.5t52.5 -20.5t19.5 -53.5z" glyph-name="Gdotaccent" horiz-adv-x="1456" unicode="Ġ"/><glyph d="M434 -401q-147 0 -250.5 36.5t-175.5 131.5l76 75q98 -152 348 -151q283 0 354 319l31 148q-135 -174 -350 -174q-166 0 -270.5 105.5t-104.5 305.5q0 250 142.5 434.5t371.5 184.5q104 0 203.5 -54.5t155.5 -138.5l39 168h108l-219 -979q-88 -411 -459 -411zM506 78 q90 0 181 51t153 127l108 479q-45 82 -138 132.5t-200 50.5q-178 0 -291.5 -156t-113.5 -331t82 -264t219 -89zM799 1231q0 -33 -25.5 -57.5t-58.5 -24.5t-52.5 19.5t-19.5 51.5t25.5 58.5t58.5 26.5t52.5 -20.5t19.5 -53.5z" glyph-name="gdotaccent" horiz-adv-x="1167" unicode="ġ"/><glyph d="M705 -250q0 -78 -58.5 -158.5t-138.5 -121.5l-45 49q55 27 97 73t54 93h-14q-25 0 -44 20.5t-19 52.5t26.5 57t61 25t57.5 -23.5t23 -66.5zM758 -25q-282 0 -451.5 166t-169.5 426q0 352 224.5 587t539.5 235q178 0 313.5 -75t212.5 -206l-104 -53q-61 111 -177 169 t-259 58q-248 0 -435.5 -204t-187.5 -507q0 -223 134 -356t358 -133t399 164l72 327h-516l22 105h635l-108 -488q-220 -215 -502 -215z" glyph-name="Gcommaaccent" horiz-adv-x="1456" unicode="Ģ"/><glyph d="M649 1237q0 80 58.5 161t136.5 122l47 -50q-55 -29 -97 -74.5t-55 -90.5h13q27 0 46 -20.5t19 -53.5t-26.5 -58.5t-62.5 -25.5t-57.5 23.5t-21.5 66.5zM434 -401q-147 0 -250.5 36.5t-175.5 131.5l76 75q98 -152 348 -151q283 0 354 319l31 148q-135 -174 -350 -174 q-166 0 -270.5 105.5t-104.5 305.5q0 250 142.5 434.5t371.5 184.5q104 0 203.5 -54.5t155.5 -138.5l39 168h108l-219 -979q-88 -411 -459 -411zM506 78q90 0 181 51t153 127l108 479q-45 82 -138 132.5t-200 50.5q-178 0 -291.5 -156t-113.5 -331t82 -264t219 -89z" glyph-name="gcommaaccent" horiz-adv-x="1167" unicode="ģ"/><glyph d="M1192 1481h-78l-127 231l-223 -231h-84l264 295h111zM1161 0h-119l144 649h-867l-143 -649h-117l301 1366h117l-133 -610h864l135 610h119z" glyph-name="Hcircumflex" horiz-adv-x="1439" unicode="Ĥ"/><glyph d="M1032 1481h-78l-127 231l-223 -231h-84l264 295h111zM662 918q-166 0 -336 -175l-164 -743h-107l301 1366h107l-115 -526q178 174 357 174q131 0 209.5 -62.5t78.5 -179.5q0 -39 -12 -84l-152 -688h-106l147 672q12 55 13 71q0 88 -60.5 131.5t-160.5 43.5z" glyph-name="hcircumflex" horiz-adv-x="1105" unicode="ĥ"/><glyph d="M1184 0h-119l143 649h-866l-143 -649h-117l225 1026h-168l19 78h168l57 262h117l-58 -262h865l59 262h119l-58 -262h162l-16 -78h-164zM367 756h864l59 270h-864z" glyph-name="Hbar" horiz-adv-x="1482" unicode="Ħ"/><glyph d="M664 918q-166 0 -336 -175l-164 -743h-107l242 1102h-145l16 78h147l41 186h107l-41 -186h332l-19 -78h-329l-58 -262q178 174 357 174q131 0 209.5 -62.5t78.5 -179.5q0 -39 -12 -84l-152 -688h-106l147 672q12 55 13 71q0 88 -60.5 131.5t-160.5 43.5z" glyph-name="hbar" horiz-adv-x="1107" unicode="ħ"/><glyph d="M176 0h-117l301 1366h117zM588 1477q-51 0 -85 32.5t-47.5 72.5t-40 73t-67.5 33q-94 0 -141 -199h-74q25 123 83 198.5t146 75.5q51 0 85 -32.5t48.5 -71.5t41 -72t65.5 -33q94 0 141 197h76q-27 -123 -85 -198.5t-146 -75.5z" glyph-name="Itilde" horiz-adv-x="456" unicode="Ĩ"/><glyph d="M162 0h-107l219 989h107zM504 1135q-51 0 -85 32.5t-47.5 72.5t-41 73t-66.5 33q-94 0 -141 -199h-74q25 123 83 198.5t147 75.5q51 0 84.5 -32.5t48 -71.5t41 -72t65.5 -33q94 0 141 197h76q-27 -123 -85 -198.5t-146 -75.5z" glyph-name="itilde" horiz-adv-x="438" unicode="ĩ"/><glyph d="M176 0h-117l301 1366h117zM825 1524h-741l16 75h742z" glyph-name="Imacron" horiz-adv-x="456" unicode="Ī"/><glyph d="M162 0h-107l219 989h107zM741 1182h-741l16 75h742z" glyph-name="imacron" horiz-adv-x="438" unicode="ī"/><glyph d="M176 0h-117l301 1366h117zM426 1450q-109 0 -192.5 48t-129.5 132l68 51q78 -153 267 -153t333 153l51 -51q-174 -180 -397 -180z" glyph-name="Ibreve" horiz-adv-x="456" unicode="Ĭ"/><glyph d="M162 0h-107l219 989h107zM344 1108q-109 0 -192.5 48t-128.5 132l67 51q78 -153 267 -153t333 153l51 -51q-174 -180 -397 -180z" glyph-name="ibreve" horiz-adv-x="438" unicode="ĭ"/><glyph d="M176 0l301 1366h-117l-301 -1366h117zM47 -381q-70 0 -114 38t-44 105q0 174 236 279l51 -41q-215 -94 -215 -225q0 -88 96 -88q74 0 121 88l53 -37q-74 -119 -184 -119z" glyph-name="Iogonek" horiz-adv-x="456" unicode="Į"/><glyph d="M33 -381q-70 0 -114 38t-44 105q0 152 182 252l217 975h107l-219 -989q-215 -94 -215 -225q0 -88 96 -88q74 0 121 88l53 -37q-74 -119 -184 -119zM371 1145q-33 0 -54.5 21.5t-21.5 55.5t28.5 59.5t61.5 25.5t54.5 -20.5t21.5 -55.5t-28.5 -60.5t-61.5 -25.5z" glyph-name="iogonek" horiz-adv-x="438" unicode="į"/><glyph d="M176 0h-117l301 1366h117zM543 1573q0 -33 -25.5 -57.5t-58.5 -24.5t-52.5 19.5t-19.5 51.5t25.5 58.5t58.5 26.5t52.5 -20.5t19.5 -53.5z" glyph-name="Idotaccent" horiz-adv-x="456" unicode="İ"/><glyph d="M162 0h-107l219 989h107z" glyph-name="dotlessi" horiz-adv-x="438" unicode="ı"/><glyph d="M176 0h-117l301 1366h117zM776 -25q-119 0 -214 46.5t-144 134.5l78 82q84 -156 274 -156q135 0 220 84t118 229l213 971h119l-213 -971q-95 -420 -451 -420z" glyph-name="IJ" horiz-adv-x="1419" unicode="Ĳ"/><glyph d="M371 1145q-33 0 -54.5 21.5t-21.5 55.5t28.5 59.5t61.5 25.5t54.5 -20.5t21.5 -55.5t-28.5 -60.5t-61.5 -25.5zM162 0h-107l219 989h107zM272 -401q-132 0 -204 86l57 77q53 -72 147 -71q150 0 193 182l248 1116h106l-248 -1116q-31 -139 -99 -206.5t-200 -67.5z M809 1145q-33 0 -54.5 21.5t-21.5 55.5t29.5 59.5t61.5 25.5t53.5 -20.5t21.5 -55.5t-28.5 -60.5t-61.5 -25.5z" glyph-name="ij" horiz-adv-x="874" unicode="ĳ"/><glyph d="M1210 1481h-77l-127 231l-224 -231h-84l265 295h110zM319 -25q-119 0 -214 46.5t-144 134.5l78 82q84 -156 274 -156q135 0 220 84t118 229l213 971h119l-213 -971q-95 -420 -451 -420z" glyph-name="Jcircumflex" horiz-adv-x="962" unicode="Ĵ"/><glyph d="M618 1139h-77l-127 231l-224 -231h-84l265 295h110zM-167 -401q-132 0 -204 86l58 77q53 -72 147 -71q150 0 193 182l247 1116h107l-248 -1116q-31 -139 -99.5 -206.5t-200.5 -67.5z" glyph-name="jcircumflex" horiz-adv-x="438" unicode="ĵ"/><glyph d="M543 -250q0 -78 -58.5 -158.5t-138.5 -121.5l-45 49q55 27 97 73t55 93h-15q-25 0 -44 20.5t-19 52.5t26.5 57t61.5 25t57.5 -23.5t22.5 -66.5zM1040 0h-139l-426 651l-192 -174l-107 -477h-117l301 1366h117l-162 -733l811 733h160l-725 -651z" glyph-name="Kcommaaccent" horiz-adv-x="1200" unicode="Ķ"/><glyph d="M465 -250q0 -78 -58.5 -158.5t-138.5 -121.5l-45 49q55 27 97 73t55 93h-15q-25 0 -44 20.5t-19 52.5t26.5 57t61.5 25t57.5 -23.5t22.5 -66.5zM885 0h-131l-297 477l-230 -180l-65 -297h-107l301 1366h107l-207 -934l700 557h150l-561 -446z" glyph-name="kcommaaccent" horiz-adv-x="1034" unicode="ķ"/><glyph d="M885 0h-131l-297 477l-230 -180l-65 -297h-107l219 989h107l-125 -557l700 557h150l-561 -446z" glyph-name="kgreenlandic" horiz-adv-x="1034" unicode="ĸ"/><glyph d="M1174 1776l-418 -295h-94l380 295h132zM838 0h-779l301 1366h117l-278 -1260h661z" glyph-name="Lacute" horiz-adv-x="1058" unicode="Ĺ"/><glyph d="M834 1776l-418 -295h-94l380 295h132zM162 0h-107l301 1366h107z" glyph-name="lacute" horiz-adv-x="438" unicode="ĺ"/><glyph d="M463 -250q0 -78 -58.5 -158.5t-138.5 -121.5l-45 49q55 27 97 73t55 93h-15q-25 0 -44 20.5t-19 52.5t26.5 57t61.5 25t57.5 -23.5t22.5 -66.5zM838 0h-779l301 1366h117l-278 -1260h661z" glyph-name="Lcommaaccent" horiz-adv-x="1058" unicode="Ļ"/><glyph d="M137 -250q0 -78 -58.5 -158.5t-137.5 -121.5l-45 49q55 27 97 73t54 93h-14q-25 0 -44.5 20.5t-19.5 52.5t27 57t61.5 25t57 -23.5t22.5 -66.5zM162 0h-107l301 1366h107z" glyph-name="lcommaaccent" horiz-adv-x="438" unicode="ļ"/><glyph d="M836 1300q0 -78 -58.5 -158.5t-138.5 -121.5l-45 49q55 27 97 73t54 93h-14q-25 0 -44 20.5t-19 52.5t26.5 57.5t61.5 25.5t57.5 -24t22.5 -67zM838 0h-779l301 1366h117l-278 -1260h661z" glyph-name="Lcaron" horiz-adv-x="1058" unicode="Ľ"/><glyph d="M752 1300q0 -78 -58.5 -158.5t-138.5 -121.5l-45 49q55 27 97 73t55 93h-15q-25 0 -44 20.5t-19 52.5t26.5 57.5t61.5 25.5t57.5 -24t22.5 -67zM162 0h-107l301 1366h107z" glyph-name="lcaron" horiz-adv-x="540" unicode="ľ"/><glyph d="M838 0h-779l301 1366h117l-278 -1260h661zM773 610q-38 0 -62.5 23.5t-24.5 61.5t29.5 65.5t67.5 27.5t61.5 -24t23.5 -60t-28.5 -65t-66.5 -29z" glyph-name="Ldot" horiz-adv-x="1058" unicode="Ŀ"/><glyph d="M162 0h-107l301 1366h107zM495 412q-38 0 -62.5 23.5t-24.5 61.5t29.5 65.5t67.5 27.5t61.5 -23.5t23.5 -60.5t-28.5 -65.5t-66.5 -28.5z" glyph-name="ldot" horiz-adv-x="559" unicode="ŀ"/><glyph d="M45 477l25 109l215 110l147 670h117l-133 -602l246 127l-25 -109l-246 -127l-121 -549h662l-23 -106h-778l129 588z" glyph-name="Lslash" horiz-adv-x="1130" unicode="Ł"/><glyph d="M18 487l23 95l233 118l148 666h106l-133 -604l234 119l-21 -95l-233 -118l-148 -668h-106l133 606z" glyph-name="lslash" horiz-adv-x="567" unicode="ł"/><glyph d="M1329 1776l-418 -295h-94l381 295h131zM1151 0h-115l-596 1192l-264 -1192h-117l301 1366h119l594 -1173l262 1173h117z" glyph-name="Nacute" horiz-adv-x="1431" unicode="Ń"/><glyph d="M1092 1434l-418 -295h-94l381 295h131zM668 918q-174 0 -342 -173l-164 -745h-107l219 989h107l-33 -149q178 174 357 174q131 0 209.5 -62.5t78.5 -179.5q0 -39 -12 -84l-152 -688h-106l147 672q12 55 13 71q0 88 -59.5 131.5t-155.5 43.5z" glyph-name="nacute" horiz-adv-x="1105" unicode="ń"/><glyph d="M631 -250q0 -78 -58.5 -158.5t-138.5 -121.5l-45 49q55 27 97 73t55 93h-15q-25 0 -44 20.5t-19 52.5t26.5 57t61.5 25t57.5 -23.5t22.5 -66.5zM1151 0h-115l-596 1192l-264 -1192h-117l301 1366h119l594 -1173l262 1173h117z" glyph-name="Ncommaaccent" horiz-adv-x="1431" unicode="Ņ"/><glyph d="M473 -250q0 -78 -58.5 -158.5t-138.5 -121.5l-45 49q55 27 97.5 73t54.5 93h-14q-25 0 -44.5 20.5t-19.5 52.5t26.5 57t61.5 25t57.5 -23.5t22.5 -66.5zM668 918q-174 0 -342 -173l-164 -745h-107l219 989h107l-33 -149q178 174 357 174q131 0 209.5 -62.5t78.5 -179.5 q0 -39 -12 -84l-152 -688h-106l147 672q12 55 13 71q0 88 -59.5 131.5t-155.5 43.5z" glyph-name="ncommaaccent" horiz-adv-x="1105" unicode="ņ"/><glyph d="M993 1481h-110l-140 295h76l127 -232l223 232h86zM1151 0h-115l-596 1192l-264 -1192h-117l301 1366h119l594 -1173l262 1173h117z" glyph-name="Ncaron" horiz-adv-x="1431" unicode="Ň"/><glyph d="M754 1139h-111l-139 295h76l127 -232l223 232h86zM668 918q-174 0 -342 -173l-164 -745h-107l219 989h107l-33 -149q178 174 357 174q131 0 209.5 -62.5t78.5 -179.5q0 -39 -12 -84l-152 -688h-106l147 672q12 55 13 71q0 88 -59.5 131.5t-155.5 43.5z" glyph-name="ncaron" horiz-adv-x="1105" unicode="ň"/><glyph d="M510 1413q0 -78 -58.5 -158.5t-138.5 -121.5l-45 49q55 27 97.5 72.5t54.5 93.5h-14q-25 0 -44.5 20t-19.5 52t26.5 57.5t61.5 25.5t57.5 -23.5t22.5 -66.5zM668 918q-174 0 -342 -173l-164 -745h-107l219 989h107l-33 -149q178 174 357 174q131 0 209.5 -62.5 t78.5 -179.5q0 -39 -12 -84l-152 -688h-106l147 672q12 55 13 71q0 88 -59.5 131.5t-155.5 43.5z" glyph-name="napostrophe" horiz-adv-x="1105" unicode="ŉ"/><glyph d="M705 -401q-254 0 -359 180l78 76q78 -156 274 -156q258 0 336 305l-594 1188l-264 -1192h-117l301 1366h119l594 -1173l262 1173h117l-299 -1356q-100 -411 -448 -411z" glyph-name="Eng" horiz-adv-x="1431" unicode="Ŋ"/><glyph d="M516 -401q-147 0 -219 86l63 84q55 -74 144 -74q150 0 190 178l176 799q12 53 13 73q0 88 -60.5 130.5t-154.5 42.5q-174 0 -342 -173l-164 -745h-107l219 989h107l-33 -149q178 174 357 174q127 0 207.5 -60.5t80.5 -181.5q0 -23 -12 -84l-180 -815q-61 -274 -285 -274z " glyph-name="eng" horiz-adv-x="1105" unicode="ŋ"/><glyph d="M1380 1524h-741l16 75h742zM752 -25q-264 0 -439.5 158t-175.5 434q0 346 221.5 584t536.5 238q264 0 438 -158t174 -434q0 -346 -221 -584t-534 -238zM758 82q254 0 438 203.5t184 507.5q0 231 -141 360t-354 129q-254 0 -437.5 -202.5t-183.5 -508.5q0 -231 140.5 -360 t353.5 -129z" glyph-name="Omacron" horiz-adv-x="1564" unicode="Ō"/><glyph d="M1108 1182h-741l16 75h741zM543 -25q-214 0 -332.5 119t-118.5 316q0 242 158 423t372 181t332.5 -119t118.5 -315q0 -242 -158 -423.5t-372 -181.5zM544 72q166 0 289 152.5t123 350.5q0 158 -85 250.5t-236 92.5q-180 0 -303 -153t-123 -351q0 -158 84.5 -250 t250.5 -92z" glyph-name="omacron" unicode="ō"/><glyph d="M752 -25q-264 0 -439.5 158t-175.5 434q0 346 221.5 584t536.5 238q264 0 438 -158t174 -434q0 -346 -221 -584t-534 -238zM758 82q254 0 438 203.5t184 507.5q0 231 -141 360t-354 129q-254 0 -437.5 -202.5t-183.5 -508.5q0 -231 140.5 -360t353.5 -129zM981 1450 q-109 0 -192.5 48t-129.5 132l68 51q76 -154 266.5 -153.5t333.5 153.5l51 -51q-174 -180 -397 -180z" glyph-name="Obreve" horiz-adv-x="1564" unicode="Ŏ"/><glyph d="M543 -25q-214 0 -332.5 119t-118.5 316q0 242 158 423t372 181t332.5 -119t118.5 -315q0 -242 -158 -423.5t-372 -181.5zM544 72q166 0 289 152.5t123 350.5q0 158 -85 250.5t-236 92.5q-180 0 -303 -153t-123 -351q0 -158 84.5 -250t250.5 -92zM711 1108q-109 0 -193 48 t-129 132l68 51q76 -154 266 -153.5t334 153.5l51 -51q-174 -180 -397 -180z" glyph-name="obreve" unicode="ŏ"/><glyph d="M1163 1776l-301 -295h-80l265 295h116zM1448 1776l-301 -295h-80l264 295h117zM752 -25q-264 0 -439.5 158t-175.5 434q0 346 221.5 584t536.5 238q264 0 438 -158t174 -434q0 -346 -221 -584t-534 -238zM758 82q254 0 438 203.5t184 507.5q0 231 -141 360t-354 129 q-254 0 -437.5 -202.5t-183.5 -508.5q0 -231 140.5 -360t353.5 -129z" glyph-name="Ohungarumlaut" horiz-adv-x="1564" unicode="Ő"/><glyph d="M889 1434l-301 -295h-80l264 295h117zM1174 1434l-302 -295h-79l264 295h117zM543 -25q-214 0 -332.5 119t-118.5 316q0 242 158 423t372 181t332.5 -119t118.5 -315q0 -242 -158 -423.5t-372 -181.5zM544 72q166 0 289 152.5t123 350.5q0 158 -85 250.5t-236 92.5 q-180 0 -303 -153t-123 -351q0 -158 84.5 -250t250.5 -92z" glyph-name="ohungarumlaut" unicode="ő"/><glyph d="M713 -25q-256 0 -416 166t-160 426q0 354 226.5 586.5t541.5 232.5q180 0 315.5 -83.5t192.5 -268.5l72 332h866l-22 -106h-748l-113 -506h734l-25 -107h-733l-119 -541h748l-23 -106h-866l51 233q-188 -258 -522 -258zM899 1280q-262 0 -448.5 -204t-186.5 -505 q0 -223 133 -356t348 -133q158 0 299.5 84t227.5 231l104 473q-27 195 -154.5 302.5t-322.5 107.5z" glyph-name="OE" horiz-adv-x="2283" unicode="Œ"/><glyph d="M1053 403q0 -143 94 -239t263 -96t296 106l43 -78q-152 -121 -339 -121t-304 100.5t-129 209.5q-29 -47 -48.5 -77t-110.5 -131.5t-290 -101.5t-317.5 117t-118.5 318q0 242 155.5 423t385.5 181q176 0 279.5 -102.5t115.5 -206.5q174 309 457 309q184 0 300 -116 t116 -312q-1 -59 -17 -125h-827q-4 -20 -4 -58zM1800 590q0 145 -86 238.5t-240 93.5t-271.5 -120t-135.5 -257h729q4 25 4 45zM948 558q0 188 -91 274t-226 86q-176 0 -299 -150t-123 -354q0 -156 84 -249t233 -93q178 0 300 149t122 337z" glyph-name="oe" horiz-adv-x="1996" unicode="œ"/><glyph d="M1237 1776l-418 -295h-94l381 295h131zM829 1366q147 0 259 -94t112 -250q0 -193 -128 -318.5t-339 -134.5l268 -569h-133l-258 565h-309l-125 -565h-117l301 1366h469zM707 672q172 0 269 99t97 245q0 104 -77.5 174t-180.5 70h-360l-129 -588h381z" glyph-name="Racute" horiz-adv-x="1216" unicode="Ŕ"/><glyph d="M922 1434l-418 -295h-94l381 295h131zM623 901q-86 0 -167 -53t-134 -127l-160 -721h-107l219 989h107l-37 -160q82 94 165 137.5t210 43.5l-25 -115q-37 6 -71 6z" glyph-name="racute" horiz-adv-x="649" unicode="ŕ"/><glyph d="M543 -250q0 -78 -58.5 -158.5t-138.5 -121.5l-45 49q55 27 97 73t55 93h-15q-25 0 -44 20.5t-19 52.5t26.5 57t61.5 25t57.5 -23.5t22.5 -66.5zM829 1366q147 0 259 -94t112 -250q0 -193 -128 -318.5t-339 -134.5l268 -569h-133l-258 565h-309l-125 -565h-117l301 1366 h469zM707 672q172 0 269 99t97 245q0 104 -77.5 174t-180.5 70h-360l-129 -588h381z" glyph-name="Rcommaaccent" horiz-adv-x="1216" unicode="Ŗ"/><glyph d="M303 -250q0 -78 -58.5 -158.5t-138.5 -121.5l-45 49q55 27 97.5 73t54.5 93h-14q-25 0 -44.5 20.5t-19.5 52.5t26.5 57t61.5 25t57.5 -23.5t22.5 -66.5zM623 901q-86 0 -167 -53t-134 -127l-160 -721h-107l219 989h107l-37 -160q82 94 165 137.5t210 43.5l-25 -115 q-37 6 -71 6z" glyph-name="rcommaaccent" horiz-adv-x="649" unicode="ŗ"/><glyph d="M901 1481h-110l-140 295h76l127 -232l223 232h86zM829 1366q147 0 259 -94t112 -250q0 -193 -128 -318.5t-339 -134.5l268 -569h-133l-258 565h-309l-125 -565h-117l301 1366h469zM707 672q172 0 269 99t97 245q0 104 -77.5 174t-180.5 70h-360l-129 -588h381z" glyph-name="Rcaron" horiz-adv-x="1216" unicode="Ř"/><glyph d="M586 1139h-111l-139 295h76l127 -232l223 232h86zM623 901q-86 0 -167 -53t-134 -127l-160 -721h-107l219 989h107l-37 -160q82 94 165 137.5t210 43.5l-25 -115q-37 6 -71 6z" glyph-name="rcaron" horiz-adv-x="649" unicode="ř"/><glyph d="M1214 1776l-417 -295h-95l381 295h131zM571 -25q-172 0 -314 68t-208 172l86 84q154 -217 447 -217q168 0 256 91t88 206q0 82 -71 142.5t-170 101.5t-199.5 85t-171 119.5t-70.5 180.5q0 156 134 268.5t308 112.5t300 -58.5t190 -154.5l-89 -82q-61 92 -166.5 140 t-232.5 48t-222 -80t-95 -169t70.5 -145.5t171 -97t200.5 -86t171 -124t71 -187.5q0 -166 -129.5 -292t-354.5 -126z" glyph-name="Sacute" horiz-adv-x="1189" unicode="Ś"/><glyph d="M999 1434l-417 -295h-95l381 295h131zM414 -25q-272 0 -398 175l76 73q41 -66 128 -111.5t201 -45.5t185.5 60t71.5 130t-54.5 115t-132 74.5t-155.5 61.5t-132 86t-54 128q0 125 97 209t263 84q121 0 219 -47t141 -115l-69 -70q-33 59 -118 100.5t-189 41.5t-170 -51 t-66 -117t54.5 -107t132 -69.5t155.5 -61.5t132 -90t54 -135q0 -131 -100 -224.5t-272 -93.5z" glyph-name="sacute" horiz-adv-x="940" unicode="ś"/><glyph d="M1073 1481h-78l-127 231l-223 -231h-84l264 295h111zM571 -25q-172 0 -314 68t-208 172l86 84q154 -217 447 -217q168 0 256 91t88 206q0 82 -71 142.5t-170 101.5t-199.5 85t-171 119.5t-70.5 180.5q0 156 134 268.5t308 112.5t300 -58.5t190 -154.5l-89 -82 q-61 92 -166.5 140t-232.5 48t-222 -80t-95 -169t70.5 -145.5t171 -97t200.5 -86t171 -124t71 -187.5q0 -166 -129.5 -292t-354.5 -126z" glyph-name="Scircumflex" horiz-adv-x="1189" unicode="Ŝ"/><glyph d="M860 1139h-78l-127 231l-223 -231h-84l264 295h111zM414 -25q-272 0 -398 175l76 73q41 -66 128 -111.5t201 -45.5t185.5 60t71.5 130t-54.5 115t-132 74.5t-155.5 61.5t-132 86t-54 128q0 125 97 209t263 84q121 0 219 -47t141 -115l-69 -70q-33 59 -118 100.5 t-189 41.5t-170 -51t-66 -117t54.5 -107t132 -69.5t155.5 -61.5t132 -90t54 -135q0 -131 -100 -224.5t-272 -93.5z" glyph-name="scircumflex" horiz-adv-x="940" unicode="ŝ"/><glyph d="M400 -387q-114 0 -195 76l47 61q68 -70 170 -69q66 0 100.5 29.5t34.5 74.5q0 68 -82 68q-47 0 -76 -35l-49 32l80 140q-129 23 -230.5 83t-150.5 142l86 84q154 -217 447 -217q168 0 256 91t88 206q0 82 -71 142.5t-170 101.5t-199.5 85t-171 119.5t-70.5 180.5 q0 156 134 268.5t308 112.5t300 -58.5t190 -154.5l-89 -82q-61 92 -166.5 140t-232.5 48t-222 -80t-95 -169t70.5 -145.5t171 -97t200.5 -86t171 -124t71 -187.5q0 -166 -129 -292t-355 -126q-25 0 -69 5l-58 -97q31 25 77 25t79 -31t33 -97t-59.5 -116.5t-173.5 -50.5z" glyph-name="Scedilla" horiz-adv-x="1189" unicode="Ş"/><glyph d="M272 -387q-114 0 -194 76l47 61q68 -70 170 -69q66 0 100.5 29.5t34.5 74.5q0 68 -82 68q-47 0 -76 -35l-49 32l78 136q-188 29 -285 164l76 73q41 -66 128 -111.5t201 -45.5t185.5 60t71.5 130t-54.5 115t-132 74.5t-155.5 61.5t-132 86t-54 128q0 125 97 209t263 84 q121 0 219 -47t141 -115l-69 -70q-33 59 -118 100.5t-189 41.5t-170 -51t-66 -117t54.5 -107t132 -69.5t155.5 -61.5t132 -90t54 -135q0 -131 -100 -224.5t-272 -93.5q-27 0 -41 2l-56 -94q31 25 77 25t79 -31t33 -97t-60 -116.5t-174 -50.5z" glyph-name="scedilla" horiz-adv-x="940" unicode="ş"/><glyph d="M879 1481h-111l-139 295h76l126 -232l224 232h86zM571 -25q-172 0 -314 68t-208 172l86 84q154 -217 447 -217q168 0 256 91t88 206q0 82 -71 142.5t-170 101.5t-199.5 85t-171 119.5t-70.5 180.5q0 156 134 268.5t308 112.5t300 -58.5t190 -154.5l-89 -82 q-61 92 -166.5 140t-232.5 48t-222 -80t-95 -169t70.5 -145.5t171 -97t200.5 -86t171 -124t71 -187.5q0 -166 -129.5 -292t-354.5 -126z" glyph-name="Scaron" horiz-adv-x="1189" unicode="Š"/><glyph d="M664 1139h-111l-139 295h75l127 -232l224 232h86zM414 -25q-272 0 -398 175l76 73q41 -66 128 -111.5t201 -45.5t185.5 60t71.5 130t-54.5 115t-132 74.5t-155.5 61.5t-132 86t-54 128q0 125 97 209t263 84q121 0 219 -47t141 -115l-69 -70q-33 59 -118 100.5t-189 41.5 t-170 -51t-66 -117t54.5 -107t132 -69.5t155.5 -61.5t132 -90t54 -135q0 -131 -100 -224.5t-272 -93.5z" glyph-name="scaron" horiz-adv-x="940" unicode="š"/><glyph d="M496 -250q0 -78 -58.5 -158.5t-138.5 -121.5l-45 49q55 27 97 73t55 93h-15q-25 0 -44 20.5t-19 52.5t26.5 57t61.5 25t57.5 -23.5t22.5 -66.5zM526 0h-118l278 1260h-446l22 106h1012l-23 -106h-446z" glyph-name="Tcommaaccent" horiz-adv-x="1155" unicode="Ţ"/><glyph d="M178 -250q0 -78 -58.5 -158.5t-137.5 -121.5l-45 49q55 27 97 73t54 93h-14q-25 0 -44.5 20.5t-19.5 52.5t26.5 57t61.5 25t57.5 -23.5t22.5 -66.5zM309 -25q-197 0 -196 166q0 23 6 54l155 700h-163l20 94h164l59 271h109l-60 -271h201l-22 -94h-201l-152 -686 q-4 -20 -4 -43q0 -94 101 -94q55 0 104 37l21 -86q-62 -48 -142 -48z" glyph-name="tcommaaccent" horiz-adv-x="563" unicode="ţ"/><glyph d="M838 1481h-111l-139 295h76l127 -232l223 232h86zM526 0h-118l278 1260h-446l22 106h1012l-23 -106h-446z" glyph-name="Tcaron" horiz-adv-x="1155" unicode="Ť"/><glyph d="M793 1413q0 -78 -58.5 -158.5t-138.5 -121.5l-45 49q55 27 97 72.5t54 93.5h-14q-25 0 -44 20t-19 52t26.5 57.5t61.5 25.5t57.5 -23.5t22.5 -66.5zM309 -25q-197 0 -196 166q0 23 6 54l155 700h-163l20 94h164l59 271h109l-60 -271h201l-22 -94h-201l-152 -686 q-4 -20 -4 -43q0 -94 101 -94q55 0 104 37l21 -86q-62 -48 -142 -48z" glyph-name="tcaron" horiz-adv-x="583" unicode="ť"/><glyph d="M526 0h-118l139 631h-324l19 76h321l123 553h-446l22 106h1012l-23 -106h-446l-123 -553h324l-19 -76h-321z" glyph-name="Tbar" horiz-adv-x="1155" unicode="Ŧ"/><glyph d="M309 -25q-197 0 -196 166q0 23 6 54l63 286h-164l17 76h164l75 338h-163l20 94h164l59 271h109l-60 -271h201l-22 -94h-201l-76 -338h146l-17 -76h-145l-60 -272q-4 -20 -4 -43q0 -94 101 -94q55 0 104 37l21 -86q-62 -48 -142 -48z" glyph-name="tbar" horiz-adv-x="563" unicode="ŧ"/><glyph d="M678 -25q-242 0 -377 120t-135 325q0 59 10 104l184 842h119l-184 -840q-12 -49 -12 -92q0 -158 103 -255t291 -97t292 112.5t153 331.5l185 840h118l-184 -842q-61 -270 -191 -409.5t-372 -139.5zM1063 1477q-51 0 -85 32.5t-47 72.5t-40 73t-68 33q-94 0 -141 -199h-74 q25 123 83.5 198.5t146.5 75.5q51 0 84.5 -32.5t48 -71.5t41 -72t65.5 -33q94 0 142 197h75q-27 -123 -85 -198.5t-146 -75.5z" glyph-name="Utilde" horiz-adv-x="1404" unicode="Ũ"/><glyph d="M221 246q0 -88 59.5 -131t159.5 -43q170 0 336 174l166 743h107l-220 -989h-106l33 150q-178 -174 -357 -175q-131 0 -209.5 62.5t-78.5 179.5q0 39 12 84l151 688h107l-148 -670q-12 -61 -12 -73zM836 1135q-51 0 -85 32.5t-47.5 72.5t-41 73t-66.5 33q-94 0 -141 -199 h-74q25 123 83 198.5t146 75.5q51 0 85 -32.5t48.5 -71.5t41 -72t65.5 -33q94 0 141 197h76q-27 -123 -85 -198.5t-146 -75.5z" glyph-name="utilde" horiz-adv-x="1105" unicode="ũ"/><glyph d="M678 -25q-242 0 -377 120t-135 325q0 59 10 104l184 842h119l-184 -840q-12 -49 -12 -92q0 -158 103 -255t291 -97t292 112.5t153 331.5l185 840h118l-184 -842q-61 -270 -191 -409.5t-372 -139.5zM1298 1524h-741l16 75h742z" glyph-name="Umacron" horiz-adv-x="1404" unicode="Ū"/><glyph d="M221 246q0 -88 59.5 -131t159.5 -43q170 0 336 174l166 743h107l-220 -989h-106l33 150q-178 -174 -357 -175q-131 0 -209.5 62.5t-78.5 179.5q0 39 12 84l151 688h107l-148 -670q-12 -61 -12 -73zM1073 1182h-741l16 75h742z" glyph-name="umacron" horiz-adv-x="1105" unicode="ū"/><glyph d="M678 -25q-242 0 -377 120t-135 325q0 59 10 104l184 842h119l-184 -840q-12 -49 -12 -92q0 -158 103 -255t291 -97t292 112.5t153 331.5l185 840h118l-184 -842q-61 -270 -191 -409.5t-372 -139.5zM903 1450q-109 0 -192.5 48t-128.5 132l67 51q76 -154 266.5 -153.5 t333.5 153.5l51 -51q-174 -180 -397 -180z" glyph-name="Ubreve" horiz-adv-x="1404" unicode="Ŭ"/><glyph d="M221 246q0 -88 59.5 -131t159.5 -43q170 0 336 174l166 743h107l-220 -989h-106l33 150q-178 -174 -357 -175q-131 0 -209.5 62.5t-78.5 179.5q0 39 12 84l151 688h107l-148 -670q-12 -61 -12 -73zM674 1108q-109 0 -193 48t-129 132l68 51q76 -154 266.5 -153.5 t333.5 153.5l51 -51q-174 -180 -397 -180z" glyph-name="ubreve" horiz-adv-x="1105" unicode="ŭ"/><glyph d="M933 1415q-83 0 -133 50.5t-50 132.5t64.5 146t146.5 64t132 -50t50 -133t-63.5 -146.5t-146.5 -63.5zM934 1481q55 0 99 42t44 98t-31.5 89t-86.5 33t-98.5 -42.5t-43.5 -98.5t31 -88.5t86 -32.5zM678 -25q-242 0 -377 120t-135 325q0 59 10 104l184 842h119l-184 -840 q-12 -49 -12 -92q0 -158 103 -255t291 -97t292 112.5t153 331.5l185 840h118l-184 -842q-61 -270 -191 -409.5t-372 -139.5z" glyph-name="Uring" horiz-adv-x="1404" unicode="Ů"/><glyph d="M718 1122q-83 0 -133 50t-50 132t64.5 147t146.5 65t132 -50.5t50 -133.5t-63.5 -146.5t-146.5 -63.5zM719 1188q55 0 99 42t44 98t-31.5 89t-86.5 33t-98.5 -43t-43.5 -98t31 -88t86 -33zM221 246q0 -88 59.5 -131t159.5 -43q170 0 336 174l166 743h107l-220 -989h-106 l33 150q-178 -174 -357 -175q-131 0 -209.5 62.5t-78.5 179.5q0 39 12 84l151 688h107l-148 -670q-12 -61 -12 -73z" glyph-name="uring" horiz-adv-x="1105" unicode="ů"/><glyph d="M678 -25q-242 0 -377 120t-135 325q0 59 10 104l184 842h119l-184 -840q-12 -49 -12 -92q0 -158 103 -255t291 -97t292 112.5t153 331.5l185 840h118l-184 -842q-61 -270 -191 -409.5t-372 -139.5zM1083 1776l-301 -295h-80l265 295h116zM1368 1776l-301 -295h-80 l264 295h117z" glyph-name="Uhungarumlaut" horiz-adv-x="1404" unicode="Ű"/><glyph d="M221 246q0 -88 59.5 -131t159.5 -43q170 0 336 174l166 743h107l-220 -989h-106l33 150q-178 -174 -357 -175q-131 0 -209.5 62.5t-78.5 179.5q0 39 12 84l151 688h107l-148 -670q-12 -61 -12 -73zM856 1434l-301 -295h-80l264 295h117zM1141 1434l-301 -295h-80l264 295 h117z" glyph-name="uhungarumlaut" horiz-adv-x="1105" unicode="ű"/><glyph d="M670 -25q-233 0 -368.5 120t-135.5 325q0 59 10 104l184 842h119l-184 -840q-12 -49 -12 -92q0 -158 103 -255t291 -97t292 112.5t153 331.5l185 840h118l-184 -842q-49 -215 -139 -346t-246 -178q-215 -94 -215 -225q0 -88 96 -88q74 0 121 88l53 -37 q-74 -119 -184 -119q-70 0 -114 38t-44 105q0 123 119 213h-18z" glyph-name="Uogonek" horiz-adv-x="1404" unicode="Ų"/><glyph d="M221 246q0 -88 59.5 -131t159.5 -43q170 0 336 174l166 743h107l-220 -989q-215 -94 -215 -225q0 -88 97 -88q74 0 120 88l54 -37q-74 -119 -185 -119q-70 0 -113.5 38t-43.5 105q0 154 182 252l31 136q-178 -174 -357 -175q-131 0 -209.5 62.5t-78.5 179.5q0 39 12 84 l151 688h107l-148 -670q-12 -61 -12 -73z" glyph-name="uogonek" horiz-adv-x="1105" unicode="ų"/><glyph d="M1358 1481h-78l-127 231l-223 -231h-84l264 295h111zM1237 0h-131l-70 1174l-585 -1174h-132l-90 1366h129l62 -1202l602 1202h106l70 -1202l594 1202h135z" glyph-name="Wcircumflex" horiz-adv-x="1775" unicode="Ŵ"/><glyph d="M1133 1139h-78l-127 231l-223 -231h-84l264 295h110zM1006 0h-103l-90 846l-465 -846h-102l-103 989h109l76 -839l467 839h90l92 -839l450 839h119z" glyph-name="wcircumflex" horiz-adv-x="1472" unicode="ŵ"/><glyph d="M1106 1481h-78l-127 231l-223 -231h-84l264 295h111zM582 0h-119l129 584l-371 782h131l314 -672l608 672h151l-714 -782z" glyph-name="Ycircumflex" horiz-adv-x="1265" unicode="Ŷ"/><glyph d="M43 -297q80 0 156 113l116 178l-192 995h115l165 -864l551 864h125l-780 -1206q-117 -184 -276 -184q-66 0 -117 20l41 102q37 -18 96 -18zM887 1139h-78l-127 231l-223 -231h-84l264 295h111z" glyph-name="ycircumflex" horiz-adv-x="985" unicode="ŷ"/><glyph d="M1157 1578q0 -32 -25.5 -56.5t-57.5 -24.5t-51 19.5t-19 50.5t25.5 56.5t57.5 25.5t51 -19.5t19 -51.5zM739 1578q0 -32 -25.5 -56.5t-57.5 -24.5t-51 19.5t-19 50.5t25.5 56.5t57.5 25.5t51 -19.5t19 -51.5zM582 0h-119l129 584l-371 782h131l314 -672l608 672h151 l-714 -782z" glyph-name="Ydieresis" horiz-adv-x="1265" unicode="Ÿ"/><glyph d="M1202 1776l-418 -295h-94l381 295h131zM977 0h-985l22 102l1069 1158h-811l21 106h971l-21 -100l-1071 -1160h827z" glyph-name="Zacute" horiz-adv-x="1189" unicode="Ź"/><glyph d="M1012 1434l-418 -295h-94l381 295h131zM735 0h-731l16 88l760 807h-577l20 94h723l-18 -86l-764 -809h590z" glyph-name="zacute" horiz-adv-x="960" unicode="ź"/><glyph d="M977 0h-985l22 102l1069 1158h-811l21 106h971l-21 -100l-1071 -1160h827zM903 1573q0 -33 -25.5 -57.5t-58.5 -24.5t-52 19.5t-19 51.5t25.5 58.5t58.5 26.5t52 -20.5t19 -53.5z" glyph-name="Zdotaccent" horiz-adv-x="1189" unicode="Ż"/><glyph d="M735 0h-731l16 88l760 807h-577l20 94h723l-18 -86l-764 -809h590zM713 1231q0 -33 -25.5 -57.5t-58.5 -24.5t-52.5 19.5t-19.5 51.5t25.5 58.5t58.5 26.5t52.5 -20.5t19.5 -53.5z" glyph-name="zdotaccent" horiz-adv-x="960" unicode="ż"/><glyph d="M868 1481h-110l-140 295h76l127 -232l223 232h86zM977 0h-985l22 102l1069 1158h-811l21 106h971l-21 -100l-1071 -1160h827z" glyph-name="Zcaron" horiz-adv-x="1189" unicode="Ž"/><glyph d="M672 1139h-111l-139 295h76l127 -232l223 232h86zM735 0h-731l16 88l760 807h-577l20 94h723l-18 -86l-764 -809h590z" glyph-name="zcaron" horiz-adv-x="960" unicode="ž"/><glyph d="M637 1386q119 0 194 -75l-61 -68q-47 51 -131 51t-131 -53t-72 -162l-237 -1079h-109l199 895h-164l20 94h164l19 90q68 307 309 307z" glyph-name="longs" horiz-adv-x="542" unicode="ſ"/><glyph d="M-4 532v101h172l100 452q70 301 305 301q125 0 203 -77l-59 -82q-45 53 -125 53q-160 0 -207 -209l-98 -438h309v-101h-330l-190 -862h-121l192 862h-151z" glyph-name="florin" horiz-adv-x="864" unicode="ƒ"/><glyph d="M752 -25q-264 0 -439.5 158t-175.5 434q0 346 221.5 584t541.5 238t489 -220q111 59 137 158h-13q-27 0 -44 18.5t-17 50.5t24.5 56.5t58.5 24.5t55.5 -22.5t21.5 -63.5q0 -78 -55.5 -155t-133.5 -118q84 -139 84 -321q0 -346 -221 -584t-534 -238zM758 82 q254 0 438 203.5t184 507.5q0 231 -141 360t-354 129q-254 0 -437.5 -202.5t-183.5 -508.5q0 -231 140.5 -360t353.5 -129z" glyph-name="Ohorn" horiz-adv-x="1564" unicode="Ơ"/><glyph d="M1079 1202q76 0 76 -102q0 -56 -48 -128.5t-118 -115.5q84 -117 84 -276q0 -242 -157.5 -423.5t-387.5 -181.5q-199 0 -317.5 119t-118.5 316q0 242 158 423t387 181q188 0 309 -111q100 66 123 150h-14q-25 0 -43.5 19.5t-18.5 49.5t25.5 55t60.5 25zM544 72 q166 0 289 152.5t123 350.5q0 158 -85 250.5t-236 92.5q-180 0 -303 -153t-123 -351q0 -158 84.5 -250t250.5 -92z" glyph-name="ohorn" unicode="ơ"/><glyph d="M1692 1524q0 -100 -86 -189.5t-220 -140.5l-145 -670q-61 -270 -191 -409.5t-372 -139.5t-377 120t-135 325q0 47 10 104l184 842h119l-184 -840q-12 -49 -12 -92q0 -158 103 -255t291 -97t292 112.5t153 331.5l185 840h118l-22 -100q174 86 203 194h-15q-25 0 -43 19.5 t-18 51.5t25.5 56.5t59.5 24.5t55.5 -23.5t21.5 -64.5z" glyph-name="Uhorn" horiz-adv-x="1404" unicode="Ư"/><glyph d="M1288 1120q0 -98 -79 -184t-203 -137l-177 -799h-106l33 150q-178 -174 -357 -175q-131 0 -209.5 62.5t-78.5 179.5q0 39 12 84l149 688h109l-150 -670q-10 -51 -10 -73q0 -88 59.5 -131t159.5 -43q172 0 336 172l166 745h107l-27 -117q154 78 180 185h-12 q-25 0 -43.5 19.5t-18.5 49.5t25 56t59 26t55 -23.5t21 -64.5z" glyph-name="uhorn" horiz-adv-x="1105" unicode="ư"/><glyph d="M1606 1776l-418 -295h-94l381 295h131zM1690 0h-867l74 336h-555l-283 -336h-141l1163 1366h910l-23 -106h-747l-113 -506h733l-24 -107h-734l-118 -541h747zM922 442l174 789l-670 -789h496z" glyph-name="AEacute" horiz-adv-x="1923" unicode="Ǽ"/><glyph d="M1487 1434l-418 -295h-94l381 295h131zM621 918q-180 0 -296 -157t-116 -362q0 -152 81.5 -239.5t199.5 -87.5t209.5 54t144.5 136l104 475q-39 78 -125.5 129.5t-201.5 51.5zM92 381q0 258 145.5 445.5t374.5 187.5q117 0 210 -52.5t147 -140.5l35 168h108l-41 -188 q61 88 162.5 150.5t220.5 62.5q186 0 287.5 -118t101.5 -306q0 -72 -14 -129h-828q-4 -25 -4 -58q0 -143 95.5 -239t260.5 -96t296 108l43 -80q-162 -121 -329 -121t-273.5 82t-135.5 219l-61 -276h-109l35 150q-137 -174 -325 -174t-295 108.5t-107 296.5zM1741 590 q0 150 -81.5 241t-233.5 91t-269.5 -111.5t-144.5 -265.5h727q2 10 2 45z" glyph-name="aeacute" horiz-adv-x="1941" unicode="ǽ"/><glyph d="M1397 1776l-418 -295h-94l381 295h131zM752 -25q-229 0 -387 115l-78 -90h-105l121 141q-166 162 -166 426q0 346 221.5 584t536.5 238q217 0 379 -111l76 88h106l-119 -139q170 -164 170 -430q0 -346 -221 -584t-534 -238zM758 82q254 0 438 203.5t184 507.5 q0 207 -123 340l-817 -953q130 -98 318 -98zM264 571q0 -209 117 -338l815 955q-131 94 -311 94q-254 0 -437.5 -203t-183.5 -508z" glyph-name="Oslashacute" horiz-adv-x="1564" unicode="Ǿ"/><glyph d="M1122 1434l-417 -295h-95l381 295h131zM92 410q0 242 158 423t387 181q184 0 301 -105l78 80h94l-125 -127q88 -113 88 -282q0 -242 -157.5 -423.5t-387.5 -181.5q-195 0 -311 111l-84 -86h-94l135 135q-82 111 -82 275zM530 72q180 0 303 152.5t123 350.5q0 121 -53 205 l-608 -616q85 -92 235 -92zM209 414q0 -119 45 -197l608 617q-88 84 -227 84q-180 0 -303 -152.5t-123 -351.5z" glyph-name="oslashacute" unicode="ǿ"/><glyph d="M518 -250q0 -78 -58.5 -158.5t-137.5 -121.5l-46 49q55 27 97.5 73t54.5 93h-14q-25 0 -44.5 20.5t-19.5 52.5t26.5 57t61.5 25t57.5 -23.5t22.5 -66.5zM571 -25q-172 0 -314 68t-208 172l86 84q154 -217 447 -217q168 0 256 91t88 206q0 82 -71 142.5t-170 101.5 t-199.5 85t-171 119.5t-70.5 180.5q0 156 134 268.5t308 112.5t300 -58.5t190 -154.5l-89 -82q-61 92 -166.5 140t-232.5 48t-222 -80t-95 -169t70.5 -145.5t171 -97t200.5 -86t171 -124t71 -187.5q0 -166 -129.5 -292t-354.5 -126z" glyph-name="Scommaaccent" horiz-adv-x="1189" unicode="Ș"/><glyph d="M379 -250q0 -78 -58.5 -158.5t-138.5 -121.5l-45 49q55 27 97 73t55 93h-15q-25 0 -44 20.5t-19 52.5t26.5 57t61.5 25t57.5 -23.5t22.5 -66.5zM414 -25q-272 0 -398 175l76 73q41 -66 128 -111.5t201 -45.5t185.5 60t71.5 130t-54.5 115t-132 74.5t-155.5 61.5t-132 86 t-54 128q0 125 97 209t263 84q121 0 219 -47t141 -115l-69 -70q-33 59 -118 100.5t-189 41.5t-170 -51t-66 -117t54.5 -107t132 -69.5t155.5 -61.5t132 -90t54 -135q0 -131 -100 -224.5t-272 -93.5z" glyph-name="scommaaccent" horiz-adv-x="940" unicode="ș"/><glyph d="M496 -250q0 -78 -58.5 -158.5t-138.5 -121.5l-45 49q55 27 97 73t55 93h-15q-25 0 -44 20.5t-19 52.5t26.5 57t61.5 25t57.5 -23.5t22.5 -66.5zM526 0h-118l278 1260h-446l22 106h1012l-23 -106h-446z" glyph-name="uni021A" horiz-adv-x="1155" unicode="Ț"/><glyph d="M164 -250q0 -78 -58.5 -158.5t-138.5 -121.5l-45 49q55 27 97 73t55 93h-15q-25 0 -44 20.5t-19 52.5t26.5 57t61.5 25t57.5 -23.5t22.5 -66.5zM309 -25q-197 0 -196 166q0 23 6 54l155 700h-163l20 94h164l59 271h109l-60 -271h201l-22 -94h-201l-152 -686 q-4 -20 -4 -43q0 -94 101 -94q55 0 104 37l21 -86q-62 -48 -142 -48z" glyph-name="uni021B" horiz-adv-x="563" unicode="ț"/><glyph d="M-167 -401q-132 0 -204 86l58 77q53 -72 147 -71q150 0 193 182l247 1116h107l-248 -1116q-31 -139 -99.5 -206.5t-200.5 -67.5z" glyph-name="uni0237" horiz-adv-x="438" unicode="ȷ"/><glyph d="M715 1133q0 121 -146 120q-98 0 -213 -110l-102 -475h-88l196 888h89l-76 -342q104 113 235 113q94 0 146.5 -42t52.5 -118q0 -25 -8 -65l-96 -434h-89l95 424q4 20 4 41z" glyph-name="uni02B0" horiz-adv-x="802" unicode="ʰ"/><glyph d="M496 1288q0 -84 -62.5 -169t-148.5 -130l-49 53q57 29 101 77t58 95h-14q-29 0 -49.5 21.5t-20.5 57.5t29 64.5t67.5 28.5t63.5 -25.5t25 -72.5z" glyph-name="afii57929" horiz-adv-x="448" unicode="ʼ"/><glyph d="M653 1139h-78l-126 231l-224 -231h-84l265 295h110z" glyph-name="circumflex" horiz-adv-x="512" unicode="ˆ"/><glyph d="M457 1139h-111l-139 295h76l127 -232l223 232h86z" glyph-name="caron" horiz-adv-x="512" unicode="ˇ"/><glyph d="M899 1210h-741l16 78h741z" glyph-name="uni02C9" horiz-adv-x="743" unicode="ˉ"/><glyph d="M584 1139h-90l-287 295h127z" glyph-name="uni02CB" horiz-adv-x="442" unicode="ˋ"/><glyph d="M494 1108q-109 0 -193 48t-129 132l68 51q76 -154 266 -153.5t334 153.5l51 -51q-174 -180 -397 -180z" glyph-name="breve" horiz-adv-x="718" unicode="˘"/><glyph d="M326 1231q0 -33 -26 -57.5t-58 -24.5t-52 19.5t-20 51.5t25.5 58.5t58.5 26.5t52.5 -20.5t19.5 -53.5z" glyph-name="dotaccent" horiz-adv-x="174" unicode="˙"/><glyph d="M359 1122q-83 0 -133 50t-50 132t64.5 147t146.5 65t132 -50.5t50 -133.5t-63.5 -146.5t-146.5 -63.5zM360 1188q55 0 99.5 42t44.5 98t-32 89t-87 33t-98 -43t-43 -98t30.5 -88t85.5 -33z" glyph-name="ring" horiz-adv-x="389" unicode="˚"/><glyph d="M-2 -381q-70 0 -114 38t-44 105q0 174 236 279l51 -41q-215 -94 -215 -225q0 -88 96 -88q74 0 121 88l53 -37q-74 -119 -184 -119z" glyph-name="ogonek" horiz-adv-x="350" unicode="˛"/><glyph d="M598 1135q-51 0 -85 32.5t-47 72.5t-41 73t-67 33q-94 0 -141 -199h-74q25 123 83.5 198.5t146.5 75.5q51 0 85 -32.5t48 -71.5t40.5 -72t65.5 -33q94 0 142 197h75q-27 -123 -85 -198.5t-146 -75.5z" glyph-name="tilde" horiz-adv-x="628" unicode="˜"/><glyph d="M518 1434l-301 -295h-80l264 295h117zM803 1434l-301 -295h-80l264 295h117z" glyph-name="hungarumlaut" horiz-adv-x="595" unicode="˝"/><glyph d="M522 1618q53 0 92 -32t39 -98t-63 -122h-74q74 63 74 129q0 33 -20.5 50.5t-49.5 17.5q-59 0 -94 -66l-49 27q49 94 145 94z" glyph-name="hookabovecomb" horiz-adv-x="350" unicode="̉"/><glyph d="M223 61q0 -84 -62.5 -170t-148.5 -131l-49 56q57 29 101.5 77t58.5 95h-14q-29 0 -49.5 21t-20.5 57t28.5 65t67.5 29t63.5 -26t24.5 -73zM310 825q-38 0 -61.5 23.5t-23.5 60.5t29 66t67 29t61.5 -24t23.5 -62t-29 -65.5t-67 -27.5z" glyph-name="uni037E" horiz-adv-x="448" unicode=";"/><glyph d="M412 1167h-62l127 400h131z" glyph-name="tonos" horiz-adv-x="1105" unicode="΄"/><glyph d="M713 1167h-62l127 400h131zM1059 1237q0 -31 -25.5 -56.5t-57.5 -25.5t-51.5 19.5t-19.5 51.5t24.5 56.5t56.5 24.5t52.5 -19.5t20.5 -50.5zM537 1236q0 -32 -24.5 -56.5t-56.5 -24.5t-52.5 19.5t-20.5 50.5t25.5 56.5t57.5 25.5t51.5 -19.5t19.5 -51.5z" glyph-name="dieresistonos" horiz-adv-x="1105" unicode="΅"/><glyph d="M426 1167h-61l127 400h131zM1184 0h-129l-64 336h-721l-209 -336h-141l860 1366h146zM979 442l-148 799l-499 -799h647z" glyph-name="Alphatonos" horiz-adv-x="1325" unicode="Ά"/><glyph d="M193 1167h-62l127 400h131zM942 0h-866l301 1366h866l-22 -106h-750l-111 -506h734l-25 -107h-733l-121 -541h748z" glyph-name="Epsilontonos" horiz-adv-x="1171" unicode="Έ"/><glyph d="M193 1167h-62l127 400h131zM1178 0h-119l143 649h-866l-143 -649h-117l301 1366h117l-134 -610h865l135 610h119z" glyph-name="Etatonos" horiz-adv-x="1458" unicode="Ή"/><glyph d="M193 1167h-62l127 400h131zM193 0h-117l301 1366h117z" glyph-name="Iotatonos" horiz-adv-x="475" unicode="Ί"/><glyph d="M279 1167h-62l127 400h131zM752 -25q-264 0 -439.5 158t-175.5 434q0 346 221.5 584t536.5 238q264 0 438 -158t174 -434q0 -346 -221 -584t-534 -238zM758 82q254 0 438 203.5t184 507.5q0 231 -141 360t-354 129q-254 0 -437.5 -202.5t-183.5 -508.5q0 -231 140.5 -360 t353.5 -129z" glyph-name="Omicrontonos" horiz-adv-x="1564" unicode="Ό"/><glyph d="M193 1167h-62l127 400h131zM676 0h-119l129 584l-371 782h131l314 -672l608 672h152l-715 -782z" glyph-name="Upsilontonos" horiz-adv-x="1361" unicode="Ύ"/><glyph d="M279 1167h-62l127 400h131zM899 1389q274 0 441 -160t167 -421t-127 -435t-319 -267h264l-20 -106h-467l22 106q219 45 369.5 235.5t150.5 431.5t-133 374t-350 133q-270 0 -449.5 -208t-179.5 -501q0 -166 76 -283.5t195 -181.5l-23 -106h-465l23 106h321 q-246 180 -245 486q0 207 92 388t267 295t390 114z" glyph-name="Omegatonos" horiz-adv-x="1568" unicode="Ώ"/><glyph d="M395 1167h-61l127 400h131zM741 1237q0 -31 -25.5 -56.5t-57.5 -25.5t-51 19.5t-19 51.5t25.5 56.5t56.5 24.5t51 -19.5t20 -50.5zM219 1236q0 -32 -25.5 -56.5t-56.5 -24.5t-51 19.5t-20 50.5t25.5 56.5t57.5 25.5t51 -19.5t19 -51.5zM242 -25q-195 0 -146 215l178 799 h107l-174 -786q-31 -131 69 -131q27 0 43 4l-12 -94q-24 -7 -65 -7z" glyph-name="iotadieresistonos" horiz-adv-x="464" unicode="ΐ"/><glyph d="M1184 0h-129l-64 336h-721l-209 -336h-141l860 1366h146zM979 442l-148 799l-499 -799h647z" glyph-name="Alpha" horiz-adv-x="1325" unicode="Α"/><glyph d="M643 0h-584l301 1366h527q141 0 239.5 -86t98.5 -226t-93.5 -244.5t-224.5 -121.5q86 -20 142.5 -102t56.5 -180q0 -168 -120 -287t-343 -119zM791 754q158 0 231.5 86t73.5 191t-69 167t-167 62h-405l-111 -506h447zM649 106q156 0 246 92t90 204t-67.5 178.5 t-182.5 66.5h-416l-120 -541h450z" glyph-name="Beta" horiz-adv-x="1257" unicode="Β"/><glyph d="M176 0h-117l301 1366h867l-23 -106h-749z" glyph-name="Gamma" horiz-adv-x="1110" unicode="Γ"/><glyph d="M1184 0h-1264l860 1366h146zM1040 106l-209 1135l-710 -1135h919z" glyph-name="Delta" horiz-adv-x="1325" unicode="Δ"/><glyph d="M926 0h-867l301 1366h867l-23 -106h-749l-111 -506h733l-24 -107h-734l-120 -541h747z" glyph-name="Epsilon" horiz-adv-x="1155" unicode="Ε"/><glyph d="M977 0h-985l22 102l1069 1158h-811l21 106h971l-21 -100l-1071 -1160h827z" glyph-name="Zeta" horiz-adv-x="1189" unicode="Ζ"/><glyph d="M1161 0h-119l144 649h-867l-143 -649h-117l301 1366h117l-133 -610h864l135 610h119z" glyph-name="Eta" horiz-adv-x="1439" unicode="Η"/><glyph d="M1217 647h-822l23 107h821zM752 -25q-264 0 -439.5 158t-175.5 434q0 346 221.5 584t536.5 238q264 0 438 -158t174 -434q0 -346 -221 -584t-534 -238zM758 82q254 0 438 203.5t184 507.5q0 231 -141 360t-354 129q-254 0 -437.5 -202.5t-183.5 -508.5q0 -231 140.5 -360 t353.5 -129z" glyph-name="Theta" horiz-adv-x="1564" unicode="Θ"/><glyph d="M176 0h-117l301 1366h117z" glyph-name="Iota" horiz-adv-x="456" unicode="Ι"/><glyph d="M1040 0h-139l-426 651l-192 -174l-107 -477h-117l301 1366h117l-162 -733l811 733h160l-725 -651z" glyph-name="Kappa" horiz-adv-x="1200" unicode="Κ"/><glyph d="M1184 0h-129l-224 1241l-770 -1241h-141l860 1366h146z" glyph-name="Lambda" horiz-adv-x="1325" unicode="Λ"/><glyph d="M1337 0h-118l268 1219l-766 -1219h-45l-230 1219l-270 -1219h-117l301 1366h168l213 -1139l717 1139h180z" glyph-name="Mu" horiz-adv-x="1617" unicode="Μ"/><glyph d="M1151 0h-115l-596 1192l-264 -1192h-117l301 1366h119l594 -1173l262 1173h117z" glyph-name="Nu" horiz-adv-x="1431" unicode="Ν"/><glyph d="M1300 1260h-1011l22 106h1012zM1022 0h-1012l23 106h1011zM1151 647h-985l22 107h988z" glyph-name="Xi" horiz-adv-x="1251" unicode="Ξ"/><glyph d="M752 -25q-264 0 -439.5 158t-175.5 434q0 346 221.5 584t536.5 238q264 0 438 -158t174 -434q0 -346 -221 -584t-534 -238zM758 82q254 0 438 203.5t184 507.5q0 231 -141 360t-354 129q-254 0 -437.5 -202.5t-183.5 -508.5q0 -231 140.5 -360t353.5 -129z" glyph-name="Omicron" horiz-adv-x="1564" unicode="Ο"/><glyph d="M1161 0h-119l277 1260h-864l-279 -1260h-117l301 1366h1102z" glyph-name="Pi" horiz-adv-x="1439" unicode="Π"/><glyph d="M840 1366q158 0 258 -100.5t100 -258.5t-87 -258t-188.5 -141t-230.5 -41h-389l-127 -567h-117l301 1366h480zM707 674q174 0 270 99t96 243q0 98 -72.5 171t-179.5 73h-366l-129 -586h381z" glyph-name="Rho" unicode="Ρ"/><glyph d="M430 1260l377 -568l-621 -586h717l-20 -106h-869l23 113l631 596l-371 557l20 100h867l-25 -106h-729z" glyph-name="Sigma" horiz-adv-x="1093" unicode="Σ"/><glyph d="M526 0h-118l278 1260h-446l22 106h1012l-23 -106h-446z" glyph-name="Tau" horiz-adv-x="1155" unicode="Τ"/><glyph d="M582 0h-119l129 584l-371 782h131l314 -672l608 672h151l-714 -782z" glyph-name="Upsilon" horiz-adv-x="1265" unicode="Υ"/><glyph d="M150 602q0 256 219 438.5t546 190.5l31 135h117l-31 -137q248 -18 381 -143t133 -324q0 -254 -219 -437.5t-547 -193.5l-28 -131h-117l31 133q-250 18 -383 143t-133 326zM274 602q0 -152 109 -250t305 -112l203 884q-274 -14 -445.5 -161.5t-171.5 -360.5zM1421 762 q0 154 -109.5 251t-303.5 111l-203 -884q270 14 443 161.5t173 360.5z" glyph-name="Phi" horiz-adv-x="1607" unicode="Φ"/><glyph d="M1171 0h-133l-348 618l-604 -618h-160l703 709l-371 657h137l322 -580l565 580h160l-662 -672z" glyph-name="Chi" horiz-adv-x="1320" unicode="Χ"/><glyph d="M346 672q0 -133 86 -215t264 -95l230 1004h118l-229 -1004q217 14 355.5 129t181.5 314l129 561h118l-135 -590q-51 -229 -229 -371.5t-444 -150.5l-58 -254h-119l58 256q-446 31 -447 408q0 74 21 161l125 541h118l-129 -561q-14 -53 -14 -133z" glyph-name="Psi" horiz-adv-x="1568" unicode="Ψ"/><glyph d="M145 592q0 207 92.5 388t267.5 295t390 114q274 0 441 -160t167 -421t-127 -435t-319 -267h264l-21 -106h-466l22 106q219 45 369.5 235.5t150.5 431.5t-133 374t-350 133q-270 0 -449.5 -208t-179.5 -501q0 -166 76 -283.5t195 -181.5l-23 -106h-465l23 106h321 q-246 180 -246 486z" glyph-name="Omega" horiz-adv-x="1564" unicode="Ω"/><glyph d="M176 0h-117l301 1366h117zM758 1613q0 -32 -25.5 -56.5t-57.5 -24.5t-51.5 20t-19.5 50t25.5 55.5t57.5 25.5t51.5 -19t19.5 -51zM340 1613q0 -32 -25.5 -56.5t-57.5 -24.5t-51.5 20t-19.5 50t26 55.5t58 25.5t51 -19t19 -51z" glyph-name="Iotadieresis" horiz-adv-x="456" unicode="Ϊ"/><glyph d="M582 0h-119l129 584l-371 782h131l314 -672l608 672h151l-714 -782zM1163 1613q0 -32 -25.5 -56.5t-57.5 -24.5t-51 20t-19 50t25.5 55.5t57.5 25.5t51 -19t19 -51zM745 1613q0 -32 -25.5 -56.5t-57.5 -24.5t-51 20t-19 50t25.5 55.5t57.5 25.5t51 -19t19 -51z" glyph-name="Upsilondieresis" horiz-adv-x="1265" unicode="Ϋ"/><glyph d="M750 1167h-62l127 400h131zM92 381q0 258 145.5 445.5t374.5 187.5q117 0 210 -52.5t147 -140.5l35 168h108l-174 -786q-27 -131 72 -131q25 0 41 4l-13 -94q-25 -6 -65 -7q-174 0 -148 187q-141 -186 -346 -187q-174 0 -280.5 109t-106.5 297zM490 72q118 0 209.5 55 t144.5 135l104 475q-39 78 -126 129.5t-201 51.5q-180 0 -296 -157t-116 -362q0 -152 81.5 -239.5t199.5 -87.5z" glyph-name="alphatonos" horiz-adv-x="1198" unicode="ά"/><glyph d="M719 1167h-62l127 400h131zM463 -25q-205 0 -307.5 69t-102.5 185q0 88 88.5 178.5t264.5 100.5q-88 10 -155 63.5t-67 145.5q0 133 143.5 215t336.5 82q266 0 393 -158l-72 -61q-92 127 -321 127q-152 0 -259.5 -59.5t-107.5 -144.5t82 -128t209 -43h229l-20 -90h-230 q-176 0 -286.5 -52.5t-110.5 -164.5q0 -80 79 -126t218 -46q229 0 401 143l47 -72q-200 -164 -452 -164z" glyph-name="epsilontonos" horiz-adv-x="1062" unicode="έ"/><glyph d="M727 1167h-61l127 400h131zM662 918q-168 0 -336 -173l-164 -745h-107l219 989h107l-33 -149q178 174 357 174q131 0 209.5 -62.5t78.5 -179.5q0 -39 -12 -84l-238 -1065h-106l233 1049q12 55 13 71q0 88 -60.5 131.5t-160.5 43.5z" glyph-name="etatonos" horiz-adv-x="1105" unicode="ή"/><glyph d="M397 1167h-61l127 400h131zM242 -25q-195 0 -146 215l178 799h107l-174 -786q-31 -131 69 -131q27 0 43 4l-12 -94q-24 -7 -65 -7z" glyph-name="iotatonos" horiz-adv-x="464" unicode="ί"/><glyph d="M764 1167h-62l127 400h132zM1110 1237q0 -31 -25.5 -56.5t-57.5 -25.5t-51.5 19.5t-19.5 51.5t26 56.5t56 24.5t51 -19.5t21 -50.5zM588 1236q0 -32 -25.5 -56.5t-56.5 -24.5t-51.5 19.5t-20.5 50.5t25.5 56.5t57.5 25.5t51.5 -19.5t19.5 -51.5zM479 -25q-207 0 -290 127 t-35 336l127 551h106l-127 -559q-39 -170 16.5 -264t202.5 -94q197 0 331 172t134 411q0 190 -80 314l99 45q90 -139 90 -359q0 -281 -165 -480.5t-409 -199.5z" glyph-name="upsilondieresistonos" horiz-adv-x="1136" unicode="ΰ"/><glyph d="M92 381q0 258 145.5 445.5t374.5 187.5q117 0 210 -52.5t147 -140.5l35 168h108l-174 -786q-27 -131 72 -131q25 0 41 4l-13 -94q-25 -6 -65 -7q-174 0 -148 187q-141 -186 -346 -187q-174 0 -280.5 109t-106.5 297zM490 72q118 0 209.5 55t144.5 135l104 475 q-39 78 -126 129.5t-201 51.5q-180 0 -296 -157t-116 -362q0 -152 81.5 -239.5t199.5 -87.5z" glyph-name="alpha" horiz-adv-x="1198" unicode="α"/><glyph d="M532 -25q-125 0 -210.5 49.5t-124.5 131.5l-121 -533h-107l299 1315q51 225 198.5 336.5t321.5 111.5t273.5 -78.5t99.5 -224.5q0 -86 -37 -157.5t-119.5 -134t-209.5 -84.5q92 -10 168.5 -82t76.5 -201q0 -193 -149.5 -321t-358.5 -128zM522 72q182 0 294 100t112 254 q0 113 -84 171t-219 58h-66l21 95h65q164 0 280.5 84t116.5 237q0 100 -70.5 159.5t-196.5 59.5t-243.5 -91t-156.5 -261l-158 -690q31 -76 112 -126t193 -50z" glyph-name="beta" unicode="β"/><glyph d="M350 -377h-108l69 301q66 322 7.5 600.5t-209.5 464.5h131q113 -141 172 -386t30 -460q168 174 302.5 402.5t183.5 443.5h106q-55 -236 -215 -498t-381 -483z" glyph-name="gamma" horiz-adv-x="985" unicode="γ"/><glyph d="M538 -25q-224 0 -337 116t-113 286t117 307t305 205q-143 78 -143 200t116.5 212t288.5 90q242 0 336 -146l-72 -63q-74 119 -268 118q-127 0 -210 -60t-83 -144q0 -59 60.5 -102.5t147.5 -78t174 -78.5t147.5 -129t60.5 -206q0 -205 -151.5 -366t-375.5 -161zM205 398 q0 -142 83.5 -234t251.5 -92t292 129t124 284t-93.5 224t-227.5 122l-21 9q-195 -55 -302 -177.5t-107 -264.5z" glyph-name="delta" unicode="δ"/><glyph d="M463 -25q-205 0 -307.5 69t-102.5 185q0 88 88.5 178.5t264.5 100.5q-88 10 -155 63.5t-67 145.5q0 133 143.5 215t336.5 82q266 0 393 -158l-72 -61q-92 127 -321 127q-152 0 -259.5 -59.5t-107.5 -144.5t82 -128t209 -43h229l-20 -90h-230q-176 0 -286.5 -52.5 t-110.5 -164.5q0 -80 79 -126t218 -46q229 0 401 143l47 -72q-200 -164 -452 -164z" glyph-name="epsilon" horiz-adv-x="1062" unicode="ε"/><glyph d="M668 -90q0 37 -29 51t-92 14q-213 0 -338 99.5t-125 271.5q0 502 860 926h-625l23 94h768l-20 -86q-442 -227 -664.5 -447.5t-222.5 -465.5q0 -139 100 -217t277 -78q109 0 157.5 -29t48.5 -96q0 -96 -137 -269h-129q148 158 148 232z" glyph-name="zeta" horiz-adv-x="1005" unicode="ζ"/><glyph d="M662 918q-168 0 -336 -173l-164 -745h-107l219 989h107l-33 -149q178 174 357 174q131 0 209.5 -62.5t78.5 -179.5q0 -39 -12 -84l-238 -1065h-106l233 1049q12 55 13 71q0 88 -60.5 131.5t-160.5 43.5z" glyph-name="eta" horiz-adv-x="1105" unicode="η"/><glyph d="M522 -25q-192 0 -296.5 140.5t-104.5 366.5t70.5 426t215.5 341.5t337 141.5t294.5 -141.5t102.5 -367.5t-70 -425t-213.5 -340.5t-335.5 -141.5zM540 72q161 0 284.5 165.5t174.5 401.5h-755q-10 -88 -11 -154q0 -188 73 -300.5t234 -112.5zM723 1294 q-160 0 -284 -163.5t-175 -395.5h754q10 82 10 144q0 188 -72.5 301.5t-232.5 113.5z" glyph-name="theta" unicode="θ"/><glyph d="M242 -25q-195 0 -146 215l178 799h107l-174 -786q-31 -131 69 -131q27 0 43 4l-12 -94q-24 -7 -65 -7z" glyph-name="iota" horiz-adv-x="464" unicode="ι"/><glyph d="M885 0h-131l-297 477l-230 -180l-65 -297h-107l219 989h107l-125 -557l700 557h150l-561 -446z" glyph-name="kappa" horiz-adv-x="1034" unicode="κ"/><glyph d="M388 1294q-50 0 -89 -16l4 98q49 14 107 15q178 -4 213 -185l237 -1206h-115l-165 864l-551 -864h-125l645 997l-37 177q-14 68 -44 94t-80 26z" glyph-name="lambda" horiz-adv-x="985" unicode="λ"/><glyph d="M410 68q98 0 198.5 49t165.5 119l166 753h109l-175 -786q-31 -131 70 -131q27 0 43 4l-12 -94q-25 -6 -66 -7q-170 0 -149 177q-184 -176 -373 -177q-154 0 -207 115l-104 -467h-109l309 1366h109l-152 -670q-29 -125 25 -188t152 -63z" glyph-name="mu" horiz-adv-x="1132" unicode="μ"/><glyph d="M430 0h-108l-193 989h119l164 -878q190 199 328.5 430t187.5 448h106q-55 -238 -218 -503t-386 -486z" glyph-name="nu" horiz-adv-x="985" unicode="ν"/><glyph d="M561 -25q-242 0 -366.5 84t-124.5 242q0 90 36.5 164t124.5 143.5t224 85.5q-84 14 -151.5 75t-67.5 165t91 200.5t212 137.5h-217l24 94h744l-25 -94h-383q-131 -29 -229.5 -122.5t-98.5 -193.5t83 -152t210 -52h289l-23 -95h-276q-193 0 -321 -88t-128 -254 q0 -117 101.5 -180t290.5 -63q109 0 157.5 -29t48.5 -96q0 -96 -137 -269h-119q137 164 138 232q-1 65 -107 65z" glyph-name="xi" horiz-adv-x="1005" unicode="ξ"/><glyph d="M543 -25q-214 0 -332.5 119t-118.5 316q0 242 158 423t372 181t332.5 -119t118.5 -315q0 -242 -158 -423.5t-372 -181.5zM544 72q166 0 289 152.5t123 350.5q0 158 -85 250.5t-236 92.5q-180 0 -303 -153t-123 -351q0 -158 84.5 -250t250.5 -92z" glyph-name="omicron" unicode="ο"/><glyph d="M852 0h-109l205 895h-561l-203 -895h-108l205 895h-164l20 94h1104l-22 -94h-164z" glyph-name="pi" horiz-adv-x="1148" unicode="π"/><glyph d="M555 -25q-117 0 -210 52.5t-146 140.5l-123 -545h-107l197 873q51 236 192.5 377t331.5 141t286.5 -116t96.5 -298q0 -252 -146.5 -438.5t-371.5 -186.5zM545 72q180 0 295.5 155.5t115.5 360.5q0 141 -67 235.5t-211 94.5t-253.5 -118t-152.5 -304l-55 -244 q39 -78 126 -129t202 -51z" glyph-name="rho" horiz-adv-x="1161" unicode="ρ"/><glyph d="M543 -25q-209 0 -329 114.5t-120 342.5t160 405t398 177t345 -180l-82 -62q-85 146 -275 146t-311.5 -151t-121.5 -336q0 -359 375 -359q201 0 200 -127q0 -94 -137 -267h-121q147 160 148 230q0 67 -129 67z" glyph-name="sigma1" horiz-adv-x="980" unicode="ς"/><glyph d="M1069 554q0 -220 -155.5 -399.5t-385.5 -179.5q-199 0 -315.5 119t-116.5 316q0 238 175 408.5t456 170.5h500l-21 -96h-264q127 -119 127 -339zM958 571q0 113 -40.5 198t-110.5 124h-96q-227 0 -363.5 -145.5t-136.5 -318.5t85 -265t234 -92q180 0 304 152t124 347z " glyph-name="sigma" unicode="σ"/><glyph d="M536 -25q-91 0 -147.5 53.5t-32.5 164.5l156 702h-360l22 94h830l-21 -94h-362l-156 -692q-14 -66 15.5 -98.5t83.5 -32.5t104 37l20 -86q-61 -48 -152 -48z" glyph-name="tau" horiz-adv-x="948" unicode="τ"/><glyph d="M479 -25q-207 0 -290 127t-35 336l127 551h106l-127 -559q-39 -170 16.5 -264t202.5 -94q197 0 331 172t134 411q0 190 -80 314l99 45q90 -139 90 -359q0 -281 -165 -480.5t-409 -199.5z" glyph-name="upsilon" horiz-adv-x="1136" unicode="υ"/><glyph d="M1386 569q0 -242 -191 -418t-515 -176h-4l-80 -352h-107l80 359q-238 20 -353.5 138t-115.5 316t134.5 347t353.5 231l33 -88q-406 -166 -406 -493t377 -359l213 940h53q258 0 393 -120t135 -325zM1270 569q0 336 -381 346l-193 -843q279 4 426.5 153.5t147.5 343.5z" glyph-name="phi" horiz-adv-x="1478" unicode="φ"/><glyph d="M750 -377h-115l-197 602l-473 -602h-127l551 703l-217 663h115l182 -563l442 563h127l-520 -663z" glyph-name="chi" horiz-adv-x="980" unicode="χ"/><glyph d="M141 330q0 57 21 145l119 514h106l-121 -530q-16 -70 -16 -121q0 -109 84 -179.5t258 -84.5l295 1292h106l-297 -1294q193 4 327 102t173 266l125 549h106l-129 -571q-47 -203 -212.5 -323t-409.5 -120l-80 -352h-107l80 357q-428 33 -428 350z" glyph-name="psi" horiz-adv-x="1478" unicode="ψ"/><glyph d="M1536 676q0 -289 -139.5 -495t-329.5 -206q-160 0 -226.5 90.5t-70.5 219.5q-53 -131 -147.5 -220.5t-234.5 -89.5t-219 105.5t-79 275.5t85 359.5t247 298.5l65 -76q-133 -94 -207.5 -250t-74.5 -321q0 -295 213 -295q121 0 209 119.5t129 304.5l57 252h107l-56 -252 q-41 -180 6.5 -302t195.5 -122t253.5 181t105.5 421q0 184 -79 278l86 62q104 -117 104 -338z" glyph-name="omega" horiz-adv-x="1615" unicode="ω"/><glyph d="M668 1236q0 -32 -26 -56.5t-58 -24.5t-51 19.5t-19 50.5t25.5 56.5t57.5 25.5t51.5 -19.5t19.5 -51.5zM250 1236q0 -32 -25.5 -56.5t-57.5 -24.5t-51.5 19.5t-19.5 50.5t25.5 56.5t57.5 25.5t51.5 -19.5t19.5 -51.5zM242 -25q-195 0 -146 215l178 799h107l-174 -786 q-31 -131 69 -131q27 0 43 4l-12 -94q-24 -7 -65 -7z" glyph-name="iotadieresis" horiz-adv-x="464" unicode="ϊ"/><glyph d="M1038 1236q0 -32 -25.5 -56.5t-57.5 -24.5t-51 19.5t-19 50.5t25.5 56.5t57.5 25.5t51 -19.5t19 -51.5zM621 1236q0 -32 -25.5 -56.5t-57.5 -24.5t-51.5 19.5t-19.5 50.5t25.5 56.5t57.5 25.5t51.5 -19.5t19.5 -51.5zM479 -25q-207 0 -290 127t-35 336l127 551h106 l-127 -559q-39 -170 16.5 -264t202.5 -94q197 0 331 172t134 411q0 190 -80 314l99 45q90 -139 90 -359q0 -281 -165 -480.5t-409 -199.5z" glyph-name="upsilondieresis" horiz-adv-x="1136" unicode="ϋ"/><glyph d="M760 1167h-62l127 400h131zM543 -25q-214 0 -332.5 119t-118.5 316q0 242 158 423t372 181t332.5 -119t118.5 -315q0 -242 -158 -423.5t-372 -181.5zM544 72q166 0 289 152.5t123 350.5q0 158 -85 250.5t-236 92.5q-180 0 -303 -153t-123 -351q0 -158 84.5 -250 t250.5 -92z" glyph-name="omicrontonos" unicode="ό"/><glyph d="M764 1167h-62l127 400h132zM479 -25q-207 0 -290 127t-35 336l127 551h106l-127 -559q-39 -170 16.5 -264t202.5 -94q197 0 331 172t134 411q0 190 -80 314l99 45q90 -139 90 -359q0 -281 -165 -480.5t-409 -199.5z" glyph-name="upsilontonos" horiz-adv-x="1136" unicode="ύ"/><glyph d="M983 1167h-61l127 400h131zM1536 676q0 -289 -139.5 -495t-329.5 -206q-160 0 -226.5 90.5t-70.5 219.5q-53 -131 -147.5 -220.5t-234.5 -89.5t-219 105.5t-79 275.5t85 359.5t247 298.5l65 -76q-133 -94 -207.5 -250t-74.5 -321q0 -295 213 -295q121 0 209 119.5 t129 304.5l57 252h107l-56 -252q-41 -180 6.5 -302t195.5 -122t253.5 181t105.5 421q0 184 -79 278l86 62q104 -117 104 -338z" glyph-name="omegatonos" horiz-adv-x="1615" unicode="ώ"/><glyph d="M1124 1578q0 -32 -25.5 -56.5t-57.5 -24.5t-51 19.5t-19 50.5t25.5 56.5t57.5 25.5t51 -19.5t19 -51.5zM707 1578q0 -32 -25.5 -56.5t-57.5 -24.5t-51.5 19.5t-19.5 50.5t25.5 56.5t57.5 25.5t51.5 -19.5t19.5 -51.5zM926 0h-867l301 1366h867l-23 -106h-749l-111 -506 h733l-24 -107h-734l-120 -541h747z" glyph-name="afii10023" horiz-adv-x="1155" unicode="Ё"/><glyph d="M1037 788q-169 0 -349 -43l-162 -745h-118l276 1260h-446l22 106h1012l-21 -106h-448l-90 -410q184 45 352 45q225 0 315 -125t45 -338l-4 -12q-49 -221 -191.5 -333t-324.5 -112l23 107q139 0 240.5 90t134.5 248l4 12q39 176 -31 266t-239 90z" glyph-name="afii10051" horiz-adv-x="1583" unicode="Ђ"/><glyph d="M1231 1776l-418 -295h-94l381 295h131zM176 0h-117l301 1366h867l-23 -106h-749z" glyph-name="afii10052" horiz-adv-x="1110" unicode="Ѓ"/><glyph d="M754 -25q-272 0 -444.5 163t-172.5 429q0 180 64.5 337t171 261.5t243 164t298.5 59.5t301 -76t217 -217l-113 -52q-131 238 -432 238q-207 0 -379 -144.5t-225 -383.5h794l-24 -107h-787q-2 -25 -2 -76q0 -221 134 -355t352 -134t393 156l84 -70q-201 -193 -473 -193z " glyph-name="afii10053" horiz-adv-x="1376" unicode="Є"/><glyph d="M571 -25q-172 0 -314 68t-208 172l86 84q154 -217 447 -217q168 0 256 91t88 206q0 82 -71 142.5t-170 101.5t-199.5 85t-171 119.5t-70.5 180.5q0 156 134 268.5t308 112.5t300 -58.5t190 -154.5l-89 -82q-61 92 -166.5 140t-232.5 48t-222 -80t-95 -169t70.5 -145.5 t171 -97t200.5 -86t171 -124t71 -187.5q0 -166 -129.5 -292t-354.5 -126z" glyph-name="afii10054" horiz-adv-x="1189" unicode="Ѕ"/><glyph d="M176 0h-117l301 1366h117z" glyph-name="afii10055" horiz-adv-x="456" unicode="І"/><glyph d="M752 1578q0 -32 -26 -56.5t-58 -24.5t-51 19.5t-19 50.5t25.5 56.5t57.5 25.5t51.5 -19.5t19.5 -51.5zM334 1578q0 -32 -25.5 -56.5t-57.5 -24.5t-51.5 19.5t-19.5 50.5t25.5 56.5t57.5 25.5t51.5 -19.5t19.5 -51.5zM176 0h-117l301 1366h117z" glyph-name="afii10056" horiz-adv-x="456" unicode="Ї"/><glyph d="M319 -25q-119 0 -214 46.5t-144 134.5l78 82q84 -156 274 -156q135 0 220 84t118 229l213 971h119l-213 -971q-95 -420 -451 -420z" glyph-name="afii10057" horiz-adv-x="962" unicode="Ј"/><glyph d="M1714 799q184 0 274.5 -109.5t65.5 -276.5t-157 -290t-345 -123h-510l277 1260h-545l-203 -578q-156 -446 -268.5 -550.5t-183 -130.5t-162.5 -26l23 107q70 0 124 24.5t137.5 118.5t215.5 467l235 674h768l-125 -567h379zM1692 692h-381l-129 -586h381q143 0 244 86.5 t123 214.5t-43.5 206.5t-194.5 78.5z" glyph-name="afii10058" horiz-adv-x="2152" unicode="Љ"/><glyph d="M1575 0h-533l142 649h-865l-143 -649h-117l299 1366h117l-133 -610h864l135 610h119l-135 -610h401q174 0 261.5 -104.5t62.5 -262.5t-149.5 -273.5t-325.5 -115.5zM1706 649h-403l-121 -543h405q133 0 225.5 79t113.5 198t-40 192.5t-180 73.5z" glyph-name="afii10059" horiz-adv-x="2152" unicode="Њ"/><glyph d="M1036 788q-168 0 -348 -43l-162 -745h-118l276 1260h-446l22 106h1012l-21 -106h-448l-90 -410q184 45 352 45q225 0 316.5 -122t45.5 -327l-96 -446h-119l97 446q37 166 -34 254t-239 88z" glyph-name="afii10060" horiz-adv-x="1599" unicode="Ћ"/><glyph d="M1229 1776l-418 -295h-94l381 295h131zM1040 0h-139l-426 651l-192 -174l-107 -477h-117l301 1366h117l-162 -733l811 733h160l-725 -651z" glyph-name="afii10061" horiz-adv-x="1200" unicode="Ќ"/><glyph d="M172 -25q-170 0 -229 121l82 88q57 -102 165 -102q74 0 125.5 41t143.5 162l73 96l-313 985h127l272 -883l662 883h143l-864 -1135q-100 -133 -185 -194.5t-202 -61.5zM821 1450q-109 0 -192.5 48t-128.5 132l67 51q76 -154 266.5 -153.5t333.5 153.5l52 -51 q-174 -180 -398 -180z" glyph-name="afii10062" horiz-adv-x="1265" unicode="Ў"/><glyph d="M494 -260l55 260h-490l299 1366h117l-276 -1260h866l276 1260h119l-299 -1366h-493l-56 -260h-118z" glyph-name="afii10145" horiz-adv-x="1439" unicode="Џ"/><glyph d="M1184 0h-129l-64 336h-721l-209 -336h-141l860 1366h146zM979 442l-148 799l-499 -799h647z" glyph-name="afii10017" horiz-adv-x="1325" unicode="А"/><glyph d="M715 799q156 0 257 -100.5t101 -241.5q0 -180 -127 -318.5t-375 -138.5h-512l299 1366h852l-22 -106h-733l-103 -461h363zM696 692h-368l-129 -586h383q174 0 270 99.5t96 243.5q0 98 -73 170.5t-179 72.5z" glyph-name="afii10018" unicode="Б"/><glyph d="M643 0h-584l301 1366h527q141 0 239.5 -86t98.5 -226t-93.5 -244.5t-224.5 -121.5q86 -20 142.5 -102t56.5 -180q0 -168 -120 -287t-343 -119zM791 754q158 0 231.5 86t73.5 191t-69 167t-167 62h-405l-111 -506h447zM649 106q156 0 246 92t90 204t-67.5 178.5 t-182.5 66.5h-416l-120 -541h450z" glyph-name="afii10019" horiz-adv-x="1257" unicode="В"/><glyph d="M176 0h-117l301 1366h867l-23 -106h-749z" glyph-name="afii10020" horiz-adv-x="1110" unicode="Г"/><glyph d="M-94 -252l76 352q74 4 126 27t134.5 108.5t214.5 456.5l235 674h768l-278 -1260h123l-78 -358h-117l55 252h-1087l-55 -252h-117zM774 1260l-203 -578q-162 -463 -358 -576h852l254 1154h-545z" glyph-name="afii10021" horiz-adv-x="1468" unicode="Д"/><glyph d="M926 0h-867l301 1366h867l-23 -106h-749l-111 -506h733l-24 -107h-734l-120 -541h747z" glyph-name="afii10022" horiz-adv-x="1155" unicode="Е"/><glyph d="M98 0h-159l792 715l-438 651h139l459 -694l151 694h119l-147 -668l735 668h162l-725 -651l481 -715h-139l-426 649l-121 -106l-119 -543h-119l117 539l-63 98z" glyph-name="afii10024" horiz-adv-x="1826" unicode="Ж"/><glyph d="M542 -25q-200 0 -342.5 79t-189.5 206l94 62q47 -111 159.5 -175.5t272.5 -64.5t263.5 92t103.5 236q0 109 -94 174t-256 65h-244l25 107h311q152 0 265.5 73.5t113.5 206.5q0 104 -96.5 174t-255.5 70q-219 0 -371 -143l-57 82q78 78 193.5 122.5t240.5 44.5 q207 0 336 -90t129 -246t-123 -252t-268 -104q111 -18 189.5 -97t78.5 -194q0 -178 -139 -303t-339 -125z" glyph-name="afii10025" horiz-adv-x="1173" unicode="З"/><glyph d="M174 0h-115l301 1366h119l-260 -1173l1114 1173h119l-301 -1366h-119l264 1192z" glyph-name="afii10026" horiz-adv-x="1431" unicode="И"/><glyph d="M174 0h-115l301 1366h119l-260 -1173l1114 1173h119l-301 -1366h-119l264 1192zM913 1450q-109 0 -192.5 48t-128.5 132l67 51q77 -153 267 -153t334 153l51 -51q-174 -180 -398 -180z" glyph-name="afii10027" horiz-adv-x="1431" unicode="Й"/><glyph d="M1040 0h-139l-426 651l-192 -174l-107 -477h-117l301 1366h117l-162 -733l811 733h160l-725 -651z" glyph-name="afii10028" horiz-adv-x="1200" unicode="К"/><glyph d="M-45 -25l22 107q141 0 248 125t232 485l235 674h768l-299 -1366h-119l277 1260h-545l-203 -578q-122 -349 -235.5 -503.5t-210 -179t-170.5 -24.5z" glyph-name="afii10029" horiz-adv-x="1439" unicode="Л"/><glyph d="M1337 0h-118l268 1219l-766 -1219h-45l-230 1219l-270 -1219h-117l301 1366h168l213 -1139l717 1139h180z" glyph-name="afii10030" horiz-adv-x="1617" unicode="М"/><glyph d="M1161 0h-119l144 649h-867l-143 -649h-117l301 1366h117l-133 -610h864l135 610h119z" glyph-name="afii10031" horiz-adv-x="1439" unicode="Н"/><glyph d="M752 -25q-264 0 -439.5 158t-175.5 434q0 346 221.5 584t536.5 238q264 0 438 -158t174 -434q0 -346 -221 -584t-534 -238zM758 82q254 0 438 203.5t184 507.5q0 231 -141 360t-354 129q-254 0 -437.5 -202.5t-183.5 -508.5q0 -231 140.5 -360t353.5 -129z" glyph-name="afii10032" horiz-adv-x="1564" unicode="О"/><glyph d="M1161 0h-119l277 1260h-864l-279 -1260h-117l301 1366h1102z" glyph-name="afii10033" horiz-adv-x="1439" unicode="П"/><glyph d="M840 1366q158 0 258 -100.5t100 -258.5t-87 -258t-188.5 -141t-230.5 -41h-389l-127 -567h-117l301 1366h480zM707 674q174 0 270 99t96 243q0 98 -72.5 171t-179.5 73h-366l-129 -586h381z" glyph-name="afii10034" unicode="Р"/><glyph d="M754 -25q-272 0 -444.5 163t-172.5 429q0 180 64.5 337t171 261.5t243 164t298.5 59.5t301 -76t217 -217l-113 -52q-131 238 -432 238q-246 0 -434.5 -198.5t-188.5 -512.5q0 -221 134 -355t352 -134t393 156l84 -70q-201 -193 -473 -193z" glyph-name="afii10035" horiz-adv-x="1376" unicode="С"/><glyph d="M526 0h-118l278 1260h-446l22 106h1012l-23 -106h-446z" glyph-name="afii10036" horiz-adv-x="1155" unicode="Т"/><glyph d="M172 -25q-170 0 -229 121l82 88q57 -102 165 -102q74 0 125.5 41t143.5 162l73 96l-313 985h127l272 -883l662 883h143l-864 -1135q-100 -133 -185 -194.5t-202 -61.5z" glyph-name="afii10037" horiz-adv-x="1265" unicode="У"/><glyph d="M150 602q0 256 219 438.5t546 190.5l31 135h117l-31 -137q248 -18 381 -143t133 -324q0 -254 -219 -437.5t-547 -193.5l-28 -131h-117l31 133q-250 18 -383 143t-133 326zM274 602q0 -152 109 -250t305 -112l203 884q-274 -14 -445.5 -161.5t-171.5 -360.5zM1421 762 q0 154 -109.5 251t-303.5 111l-203 -884q270 14 443 161.5t173 360.5z" glyph-name="afii10038" horiz-adv-x="1607" unicode="Ф"/><glyph d="M1171 0h-133l-348 618l-604 -618h-160l703 709l-371 657h137l322 -580l565 580h160l-662 -672z" glyph-name="afii10039" horiz-adv-x="1320" unicode="Х"/><glyph d="M1110 -252l55 252h-1106l299 1366h117l-276 -1260h866l276 1260h119l-278 -1260h123l-78 -358h-117z" glyph-name="afii10040" horiz-adv-x="1468" unicode="Ц"/><glyph d="M631 674q168 0 346 43l143 649h117l-299 -1366h-117l133 612q-188 -45 -354 -45q-225 0 -316 122t-46 327l77 350h117l-76 -350q-37 -166 35 -254t240 -88z" glyph-name="afii10041" horiz-adv-x="1218" unicode="Ч"/><glyph d="M1872 1366h117l-299 -1366h-1631l299 1366h117l-276 -1260h639l276 1260h119l-277 -1260h639z" glyph-name="afii10042" horiz-adv-x="1970" unicode="Ш"/><glyph d="M1872 1366h117l-277 -1260h123l-78 -358h-119l56 252h-1635l299 1366h117l-276 -1260h639l276 1260h119l-277 -1260h639z" glyph-name="afii10043" horiz-adv-x="1996" unicode="Щ"/><glyph d="M918 0h-510l276 1260h-446l22 106h565l-125 -567h363q158 0 258 -100.5t100 -258.5t-87 -258t-187 -141t-229 -41zM1042 692h-364l-131 -586h381q176 0 272 99.5t96 243.5q0 98 -72.5 170.5t-181.5 72.5z" glyph-name="afii10044" horiz-adv-x="1517" unicode="Ъ"/><glyph d="M1264 0h-117l299 1366h117zM713 799q158 0 259 -100.5t101 -258.5t-87 -258t-187.5 -141t-229.5 -41h-510l299 1366h117l-123 -567h361zM692 692h-364l-129 -586h381q176 0 272 99.5t96 243.5q0 98 -72.5 170.5t-183.5 72.5z" glyph-name="afii10045" horiz-adv-x="1544" unicode="Ы"/><glyph d="M713 799q158 0 259 -100.5t101 -258.5t-87 -258t-187.5 -141t-229.5 -41h-510l299 1366h117l-123 -567h361zM692 692h-364l-129 -586h381q176 0 272 99.5t96 243.5q0 98 -72.5 170.5t-183.5 72.5z" glyph-name="afii10046" unicode="Ь"/><glyph d="M703 1389q272 0 443 -164t171 -428q0 -180 -64.5 -337t-170 -261.5t-241.5 -164t-299 -59.5t-302.5 76t-214.5 217l110 51q131 -238 434 -237q213 0 388.5 154.5t220.5 410.5h-775l23 107h762q2 12 2 39q0 221 -134 355t-352 134t-393 -156l-84 72q204 191 476 191z" glyph-name="afii10047" horiz-adv-x="1376" unicode="Э"/><glyph d="M1129 -25q-296 0 -445 189.5t-102 484.5h-263l-143 -649h-117l299 1366h117l-133 -610h260q74 276 288 454.5t496 178.5t431 -190.5t103 -494.5t-270.5 -516.5t-520.5 -212.5zM1141 82q242 0 427 178t228 440t-75.5 422t-360.5 160t-426 -176t-227 -440t74.5 -424 t359.5 -160z" glyph-name="afii10048" horiz-adv-x="1994" unicode="Ю"/><glyph d="M219 909q0 190 135 323.5t375 133.5h508l-303 -1366h-117l125 565h-287l-510 -565h-153l524 573q-115 18 -206 106.5t-91 229.5zM614 672h351l129 588h-381q-172 0 -269.5 -99.5t-97.5 -245.5q0 -104 77.5 -173.5t190.5 -69.5z" glyph-name="afii10049" horiz-adv-x="1216" unicode="Я"/><glyph d="M612 1014q117 0 210 -52.5t147 -140.5l35 168h108l-219 -989h-109l35 150q-137 -174 -325 -174t-295 108.5t-107 296.5q0 258 145.5 445.5t374.5 187.5zM621 918q-180 0 -296 -157t-116 -362q0 -152 81.5 -239.5t199.5 -87.5t209.5 54t144.5 136l104 475 q-39 78 -125.5 129.5t-201.5 51.5z" glyph-name="afii10065" unicode="а"/><glyph d="M544 72q166 0 289 152.5t123 350.5q0 158 -85 250.5t-236 92.5q-180 0 -303 -153t-123 -351q0 -158 84.5 -250t250.5 -92zM543 -25q-214 0 -332.5 119t-118.5 316q0 145 72 327q92 248 249.5 370t407.5 153q160 25 223.5 49t71.5 57h101q-20 -100 -136 -138.5t-272 -62.5 q-242 -37 -359.5 -130t-189.5 -261q156 240 406 240q186 0 296.5 -119t110.5 -315q0 -242 -158 -423.5t-372 -181.5z" glyph-name="afii10066" horiz-adv-x="1181" unicode="б"/><glyph d="M571 0h-516l217 989h447q117 0 193.5 -56.5t76.5 -158.5t-59.5 -176t-163.5 -94q61 -25 101 -82t40 -127q0 -129 -90 -212t-246 -83zM571 96q98 0 162 58.5t64 137.5t-48.5 125t-132.5 46h-354l-80 -367h389zM674 557q94 0 147 57.5t53 132.5t-52 111.5t-136 36.5h-328 l-75 -338h391z" glyph-name="afii10067" horiz-adv-x="1107" unicode="в"/><glyph d="M922 989l-23 -94h-541l-196 -895h-107l217 989h650z" glyph-name="afii10068" horiz-adv-x="870" unicode="г"/><glyph d="M-129 -252l74 340q80 10 148.5 97t148.5 311l174 493h631l-195 -893h117l-76 -348h-109l58 252h-807l-58 -252h-106zM489 895l-145 -412q-111 -311 -235 -387h634l175 799h-429z" glyph-name="afii10069" horiz-adv-x="1132" unicode="д"/><glyph d="M548 -25q-202 0 -328 120t-126 317q0 248 160 425t389 177q193 0 306.5 -121t113.5 -307q0 -59 -16 -125h-836q-4 -25 -4 -58q0 -145 94 -240t267 -95t300 106l41 -78q-159 -121 -361 -121zM635 922q-151 0 -269 -111.5t-145 -265.5h737q2 10 3 45q0 147 -87.5 239.5 t-238.5 92.5z" glyph-name="afii10070" horiz-adv-x="1161" unicode="е"/><glyph d="M80 0h-152l578 543l-363 446h133l383 -477l105 477h108l-100 -459l571 459h150l-559 -446l340 -543h-133l-297 475l-103 -80l-86 -395h-108l86 395l-60 72z" glyph-name="afii10072" horiz-adv-x="1423" unicode="ж"/><glyph d="M625 1014q188 0 285.5 -64.5t97.5 -185.5t-107.5 -190.5t-226.5 -77.5q90 -12 162.5 -68.5t72.5 -153.5q0 -135 -135 -217t-319 -82q-303 0 -432 172l69 64q119 -143 365 -143q141 0 241.5 60t100.5 148t-86 134.5t-213 46.5h-238l21 90h229q168 0 272.5 53t104.5 160 q0 78 -70.5 120t-200.5 42q-227 0 -399 -129l-51 73q195 148 457 148z" glyph-name="afii10073" horiz-adv-x="1062" unicode="з"/><glyph d="M158 0h-103l217 989h107l-182 -823l745 823h105l-218 -989h-106l182 836z" glyph-name="afii10074" horiz-adv-x="1105" unicode="и"/><glyph d="M158 0h-103l217 989h107l-182 -823l745 823h105l-218 -989h-106l182 836zM676 1108q-109 0 -193 48t-129 132l68 51q78 -153 267 -153t333 153l51 -51q-174 -180 -397 -180z" glyph-name="afii10075" horiz-adv-x="1105" unicode="й"/><glyph d="M885 0h-131l-297 477l-230 -180l-65 -297h-107l219 989h107l-125 -557l700 557h150l-561 -446z" glyph-name="afii10076" horiz-adv-x="1034" unicode="к"/><glyph d="M-78 -25l21 93q74 0 145.5 99t153.5 329l174 493h631l-218 -989h-106l195 895h-429l-145 -412q-96 -276 -194.5 -392t-227.5 -116z" glyph-name="afii10077" horiz-adv-x="1105" unicode="л"/><glyph d="M989 0h-108l184 844l-522 -844h-39l-158 844l-184 -844h-107l217 989h140l145 -803l498 803h151z" glyph-name="afii10078" horiz-adv-x="1265" unicode="м"/><glyph d="M162 0h-107l226 989h106l-96 -426h559l98 426h107l-226 -989h-106l106 467h-561z" glyph-name="afii10079" horiz-adv-x="1105" unicode="н"/><glyph d="M543 -25q-214 0 -332.5 119t-118.5 316q0 242 158 423t372 181t332.5 -119t118.5 -315q0 -242 -158 -423.5t-372 -181.5zM544 72q166 0 289 152.5t123 350.5q0 158 -85 250.5t-236 92.5q-180 0 -303 -153t-123 -351q0 -158 84.5 -250t250.5 -92z" glyph-name="afii10080" unicode="о"/><glyph d="M829 0h-106l203 895h-559l-205 -895h-107l226 989h774z" glyph-name="afii10081" horiz-adv-x="1105" unicode="п"/><glyph d="M555 -25q-119 0 -211 52.5t-145 140.5l-121 -545h-107l303 1366h107l-33 -149q133 174 340 174q172 0 278.5 -109.5t106.5 -298.5q0 -256 -145.5 -443.5t-372.5 -187.5zM545 72q180 0 295.5 155.5t115.5 360.5q0 152 -81.5 241t-217.5 89q-100 0 -190 -54.5t-145 -136.5 l-105 -475q39 -78 126 -129t202 -51z" glyph-name="afii10082" horiz-adv-x="1161" unicode="р"/><glyph d="M534.5 -25q-196.5 0 -318.5 117t-122 322q0 246 160 423t398 177t345 -180l-82 -62q-85 146 -275 146t-311.5 -151t-121.5 -335t94 -272t250 -88t262 127l61 -74q-143 -150 -339.5 -150z" glyph-name="afii10083" horiz-adv-x="1011" unicode="с"/><glyph d="M342 0h-106l194 895h-289l21 94h690l-23 -94h-290z" glyph-name="afii10084" horiz-adv-x="800" unicode="т"/><glyph d="M43 -297q80 0 156 113l116 178l-192 995h115l165 -864l551 864h125l-780 -1206q-117 -184 -276 -184q-66 0 -117 20l41 102q37 -18 96 -18z" glyph-name="afii10085" horiz-adv-x="985" unicode="у"/><glyph d="M522 1014q108 0 181 -50.5t104 -134.5l119 537h106l-114 -526q127 174 273 174t218 -104.5t72 -267.5t-55.5 -314.5t-160.5 -252t-213 -100.5t-180.5 50.5t-103.5 134.5l-119 -537h-106l114 527q-121 -174 -270 -174t-221 104t-72 267t55.5 314.5t160 252t212.5 100.5z M546 918q-91 0 -173 -85t-125 -212t-43 -263t55 -211t154 -75q145 0 266 178l108 487q-20 74 -85.5 127.5t-156.5 53.5zM1024 72q145 0 246.5 175t101.5 382q0 137 -56 213t-155 76q-139 0 -266 -177l-107 -489q18 -74 84 -127t152 -53z" glyph-name="afii10086" horiz-adv-x="1581" unicode="ф"/><glyph d="M836 0h-121l-232 436l-424 -436h-135l502 508l-260 481h121l215 -407l395 407h135l-477 -481z" glyph-name="afii10087" horiz-adv-x="980" unicode="х"/><glyph d="M784 -252l58 252h-787l217 989h107l-197 -893h559l199 893h107l-197 -893h119l-76 -348h-109z" glyph-name="afii10088" horiz-adv-x="1132" unicode="ц"/><glyph d="M534 438q156 0 287 68l109 483h106l-217 -989h-106l90 418q-158 -74 -337 -74t-245.5 78t-27.5 256l69 311h107l-64 -287q-33 -150 20 -207t209 -57z" glyph-name="afii10089" horiz-adv-x="1095" unicode="ч"/><glyph d="M1425 989h107l-217 -989h-1260l217 989h107l-197 -893h467l199 893h106l-196 -893h469z" glyph-name="afii10090" horiz-adv-x="1591" unicode="ш"/><glyph d="M1425 989h107l-197 -893h119l-76 -348h-108l57 252h-1272l217 989h107l-197 -893h467l199 893h106l-196 -893h469z" glyph-name="afii10091" horiz-adv-x="1624" unicode="щ"/><glyph d="M733 0h-497l194 895h-289l21 94h397l-90 -403h369q137 0 204.5 -80t49.5 -204t-116 -213t-243 -89zM817 492h-368l-87 -396h379q96 0 160 56.5t79 145.5t-26 141.5t-137 52.5z" glyph-name="afii10092" horiz-adv-x="1222" unicode="ъ"/><glyph d="M1124 0h-108l217 989h108zM633 586q131 0 205.5 -68.5t74.5 -194.5t-96 -224.5t-252 -98.5h-510l217 989h107l-90 -403h344zM612 492h-344l-86 -396h393q100 0 163 67t63 155q0 174 -189 174z" glyph-name="afii10093" horiz-adv-x="1400" unicode="ы"/><glyph d="M633 586q131 0 205.5 -68.5t74.5 -194.5t-96 -224.5t-252 -98.5h-510l217 989h107l-90 -403h344zM612 492h-344l-86 -396h393q100 0 163 67t63 155q0 174 -189 174z" glyph-name="afii10094" horiz-adv-x="1042" unicode="ь"/><glyph d="M534.5 1014q196.5 0 318.5 -117t122 -322q0 -246 -160.5 -423t-398.5 -177t-344 181l78 59q84 -147 261 -147t290.5 109.5t148.5 277.5h-539l21 96h530v24q0 166 -94 256.5t-251 90.5t-263 -127l-59 69q143 150 339.5 150z" glyph-name="afii10095" horiz-adv-x="1011" unicode="э"/><glyph d="M910 -25q-214 0 -332.5 119t-118.5 316q0 37 2 55h-197l-102 -465h-107l217 989h107l-94 -430h190q45 195 190 325t341 130t315 -119t119 -315q0 -242 -158 -423.5t-372 -181.5zM911 72q166 0 289 152.5t123 350.5q0 158 -85 250.5t-251 92.5t-289 -153t-123 -351 q0 -158 85 -250t251 -92z" glyph-name="afii10096" horiz-adv-x="1536" unicode="ю"/><glyph d="M182 653q0 139 95.5 237.5t250.5 98.5h514l-217 -989h-108l88 403h-297l-350 -403h-133l368 412q-96 14 -153.5 76.5t-57.5 164.5zM459 498h366l88 397h-393q-102 0 -164.5 -67.5t-62.5 -155.5t46 -131t120 -43z" glyph-name="afii10097" horiz-adv-x="1099" unicode="я"/><glyph d="M1030 1236q0 -32 -25.5 -56.5t-57.5 -24.5t-51 19.5t-19 50.5t25.5 56.5t57.5 25.5t51 -19.5t19 -51.5zM612 1236q0 -32 -25.5 -56.5t-57.5 -24.5t-51 19.5t-19 50.5t25.5 56.5t57.5 25.5t51 -19.5t19 -51.5zM548 -25q-202 0 -328 120t-126 317q0 248 160 425t389 177 q193 0 306.5 -121t113.5 -307q0 -59 -16 -125h-836q-4 -25 -4 -58q0 -145 94 -240t267 -95t300 106l41 -78q-159 -121 -361 -121zM635 922q-151 0 -269 -111.5t-145 -265.5h737q2 10 3 45q0 147 -87.5 239.5t-238.5 92.5z" glyph-name="afii10071" horiz-adv-x="1161" unicode="ё"/><glyph d="M741 1014q311 0 244 -318l-182 -823q-29 -135 -115 -204.5t-208 -69.5t-191 75l63 84q51 -68 130 -68t136.5 45.5t77.5 137.5l174 801q31 135 -18.5 189.5t-153.5 54.5t-204.5 -49.5t-165.5 -120.5l-164 -748h-107l240 1102h-147l16 78h147l43 186h107l-41 -186h328 l-15 -78h-332l-55 -262q74 70 183.5 122t209.5 52z" glyph-name="afii10099" horiz-adv-x="1107" unicode="ђ"/><glyph d="M1042 1434l-417 -295h-95l381 295h131zM922 989l-23 -94h-541l-196 -895h-107l217 989h650z" glyph-name="afii10100" horiz-adv-x="870" unicode="ѓ"/><glyph d="M534.5 -25q-196.5 0 -318.5 117t-122 322q0 246 160 423t398 177t345 -180l-77 -58q-84 146 -258 146t-289 -104.5t-152 -266.5h539l-21 -96h-532v-41q0 -166 94 -256t250 -90t264 127l59 -70q-143 -150 -339.5 -150z" glyph-name="afii10101" horiz-adv-x="1011" unicode="є"/><glyph d="M414 -25q-272 0 -398 175l76 73q41 -66 128 -111.5t201 -45.5t185.5 60t71.5 130t-54.5 115t-132 74.5t-155.5 61.5t-132 86t-54 128q0 125 97 209t263 84q121 0 219 -47t141 -115l-69 -70q-33 59 -118 100.5t-189 41.5t-170 -51t-66 -117t54.5 -107t132 -69.5 t155.5 -61.5t132 -90t54 -135q0 -131 -100 -224.5t-272 -93.5z" glyph-name="afii10102" horiz-adv-x="940" unicode="ѕ"/><glyph d="M371 1145q-33 0 -54.5 21.5t-21.5 55.5t28.5 59.5t61.5 25.5t54.5 -20.5t21.5 -55.5t-28.5 -60.5t-61.5 -25.5zM162 0h-107l219 989h107z" glyph-name="afii10103" horiz-adv-x="438" unicode="і"/><glyph d="M666 1236q0 -32 -26 -56.5t-58 -24.5t-51 19.5t-19 50.5t25.5 56.5t57.5 25.5t51.5 -19.5t19.5 -51.5zM248 1236q0 -32 -25.5 -56.5t-57.5 -24.5t-51.5 19.5t-19.5 50.5t25.5 56.5t57.5 25.5t51.5 -19.5t19.5 -51.5zM162 0h-107l219 989h107z" glyph-name="afii10104" horiz-adv-x="438" unicode="ї"/><glyph d="M-167 -401q-132 0 -204 86l58 77q53 -72 147 -71q150 0 193 182l247 1116h107l-248 -1116q-31 -139 -99.5 -206.5t-200.5 -67.5zM371 1145q-33 0 -54.5 21.5t-21.5 55.5t28.5 59.5t61.5 25.5t54.5 -20.5t21.5 -55.5t-28.5 -60.5t-61.5 -25.5z" glyph-name="afii10105" horiz-adv-x="438" unicode="ј"/><glyph d="M1300 586q131 0 206 -68.5t75 -194.5t-95 -224.5t-251 -98.5h-512l195 895h-429l-145 -412q-96 -276 -195.5 -392t-228.5 -116l21 93q76 0 147.5 98t153.5 330l174 493h631l-89 -403h342zM1280 492h-344l-86 -396h393q102 0 163.5 67t61.5 155q0 174 -188 174z" glyph-name="afii10106" horiz-adv-x="1712" unicode="љ"/><glyph d="M1313 559q125 0 196.5 -65.5t71.5 -185.5t-91 -214t-241 -94h-526l102 465h-561l-102 -465h-107l217 989h107l-94 -430h561l94 430h107l-95 -430h361zM1292 465h-360l-82 -369h407q94 0 152.5 62.5t58.5 144.5q0 162 -176 162z" glyph-name="afii10107" horiz-adv-x="1712" unicode="њ"/><glyph d="M664 918q-166 0 -336 -175l-164 -743h-107l242 1102h-145l16 78h147l41 186h107l-41 -186h332l-19 -78h-329l-58 -262q178 174 357 174q131 0 209.5 -62.5t78.5 -179.5q0 -39 -12 -84l-152 -688h-106l147 672q12 55 13 71q0 88 -60.5 131.5t-160.5 43.5z" glyph-name="afii10108" horiz-adv-x="1107" unicode="ћ"/><glyph d="M1075 1434l-418 -295h-94l381 295h131zM885 0h-131l-297 477l-230 -180l-65 -297h-107l219 989h107l-125 -557l700 557h150l-561 -446z" glyph-name="afii10109" horiz-adv-x="1034" unicode="ќ"/><glyph d="M43 -297q80 0 156 113l116 178l-192 995h115l165 -864l551 864h125l-780 -1206q-117 -184 -276 -184q-66 0 -117 20l41 102q37 -18 96 -18zM610 1108q-109 0 -192.5 48t-128.5 132l67 51q78 -153 268 -153t332 153l52 -51q-174 -180 -398 -180z" glyph-name="afii10110" horiz-adv-x="985" unicode="ў"/><glyph d="M332 -258l55 258h-332l217 989h107l-197 -893h559l199 893h107l-218 -989h-335l-56 -258h-106z" glyph-name="afii10193" horiz-adv-x="1105" unicode="џ"/><glyph d="M176 0h-117l299 1366h748l55 254h119l-78 -360h-747z" glyph-name="afii10050" horiz-adv-x="1110" unicode="Ґ"/><glyph d="M358 895l-196 -895h-107l217 989h541l55 258h109l-78 -352h-541z" glyph-name="afii10098" horiz-adv-x="870" unicode="ґ"/><glyph d="M643 0h-584l301 1366h527q141 0 239.5 -86t98.5 -226t-93.5 -244.5t-224.5 -121.5q86 -20 142.5 -102t56.5 -180q0 -168 -120 -287t-343 -119zM791 754q158 0 231.5 86t73.5 191t-69 167t-167 62h-405l-111 -506h447zM649 106q156 0 246 92t90 204t-67.5 178.5 t-182.5 66.5h-416l-120 -541h450zM944 1573q0 -33 -25.5 -57.5t-58.5 -24.5t-52.5 19.5t-19.5 51.5t26 58.5t58 26.5t52 -20.5t20 -53.5z" glyph-name="uni1E02" horiz-adv-x="1257" unicode="Ḃ"/><glyph d="M555 -25q-119 0 -211 52.5t-145 140.5l-37 -168h-107l301 1366h107l-115 -526q133 174 340 174q172 0 278.5 -109.5t106.5 -298.5q0 -256 -145.5 -443.5t-372.5 -187.5zM545 72q180 0 295.5 155.5t115.5 360.5q0 152 -81.5 241t-217.5 89q-100 0 -190 -54.5t-145 -136.5 l-105 -475q39 -78 126 -129t202 -51zM920 1573q0 -33 -26 -57.5t-58 -24.5t-52 19.5t-20 51.5t25.5 58.5t58.5 26.5t52.5 -20.5t19.5 -53.5z" glyph-name="uni1E03" unicode="ḃ"/><glyph d="M786 1366q231 0 393 -166t162 -413t-186 -517t-661 -270h-435l301 1366h426zM514 106q315 0 510 197t195 477q0 207 -130.5 343.5t-324.5 136.5h-309l-256 -1154h315zM1034 1573q0 -33 -25.5 -57.5t-58.5 -24.5t-52 19.5t-19 51.5t25.5 58.5t58.5 26.5t52 -20.5t19 -53.5 z" glyph-name="uni1E0A" horiz-adv-x="1417" unicode="Ḋ"/><glyph d="M612 1014q117 0 210 -52.5t147 -140.5l118 545h109l-303 -1366h-109l35 150q-137 -174 -325 -174t-295 108.5t-107 296.5q0 258 145.5 445.5t374.5 187.5zM621 918q-180 0 -296 -157t-116 -362q0 -152 81.5 -239.5t199.5 -87.5t209.5 54t144.5 136l104 475 q-39 78 -125.5 129.5t-201.5 51.5zM883 1573q0 -33 -26.5 -57.5t-58.5 -24.5t-51.5 19.5t-19.5 51.5t25.5 58.5t58.5 26.5t52.5 -20.5t19.5 -53.5z" glyph-name="uni1E0B" unicode="ḋ"/><glyph d="M913 1573q0 -33 -25.5 -57.5t-58.5 -24.5t-52 19.5t-19 51.5t25.5 58.5t58.5 26.5t52 -20.5t19 -53.5zM176 0h-117l301 1366h867l-23 -106h-749l-111 -506h733l-24 -107h-734z" glyph-name="uni1E1E" horiz-adv-x="1110" unicode="Ḟ"/><glyph d="M754 1573q0 -33 -26 -57.5t-58 -24.5t-52 19.5t-20 51.5t25.5 58.5t58.5 26.5t52.5 -20.5t19.5 -53.5zM637 1386q119 0 194 -75l-61 -68q-47 51 -131 51t-131 -53t-72 -162l-20 -90h202l-22 -94h-201l-196 -895h-109l199 895h-164l20 94h164l19 90q72 307 309 307z" glyph-name="uni1E1F" horiz-adv-x="542" unicode="ḟ"/><glyph d="M1161 0h-119l144 649h-867l-143 -649h-117l301 1366h117l-133 -610h864l135 610h119zM1032 1573q0 -33 -25.5 -57.5t-58.5 -24.5t-52 19.5t-19 51.5t25.5 58.5t58.5 26.5t52 -20.5t19 -53.5z" glyph-name="uni1E22" horiz-adv-x="1439" unicode="Ḣ"/><glyph d="M662 918q-166 0 -336 -175l-164 -743h-107l301 1366h107l-115 -526q178 174 357 174q131 0 209.5 -62.5t78.5 -179.5q0 -39 -12 -84l-152 -688h-106l147 672q12 55 13 71q0 88 -60.5 131.5t-160.5 43.5zM872 1573q0 -33 -25.5 -57.5t-58.5 -24.5t-52 19.5t-19 51.5 t25.5 58.5t58.5 26.5t52 -20.5t19 -53.5z" glyph-name="uni1E23" horiz-adv-x="1105" unicode="ḣ"/><glyph d="M840 1366q158 0 258 -100.5t100 -258.5t-87 -258t-188.5 -141t-230.5 -41h-389l-127 -567h-117l301 1366h480zM707 674q174 0 270 99t96 243q0 98 -72.5 171t-179.5 73h-366l-129 -586h381zM926 1573q0 -33 -26 -57.5t-58 -24.5t-52 19.5t-20 51.5t25.5 58.5t58.5 26.5 t52.5 -20.5t19.5 -53.5z" glyph-name="uni1E56" unicode="Ṗ"/><glyph d="M555 -25q-119 0 -211 52.5t-145 140.5l-121 -545h-107l303 1366h107l-33 -149q133 174 340 174q172 0 278.5 -109.5t106.5 -298.5q0 -256 -145.5 -443.5t-372.5 -187.5zM545 72q180 0 295.5 155.5t115.5 360.5q0 152 -81.5 241t-217.5 89q-100 0 -190 -54.5t-145 -136.5 l-105 -475q39 -78 126 -129t202 -51zM844 1231q0 -33 -25.5 -57.5t-58.5 -24.5t-52.5 19.5t-19.5 51.5t25.5 58.5t58.5 26.5t52.5 -20.5t19.5 -53.5z" glyph-name="uni1E57" horiz-adv-x="1161" unicode="ṗ"/><glyph d="M571 -25q-172 0 -314 68t-208 172l86 84q154 -217 447 -217q168 0 256 91t88 206q0 82 -71 142.5t-170 101.5t-199.5 85t-171 119.5t-70.5 180.5q0 156 134 268.5t308 112.5t300 -58.5t190 -154.5l-89 -82q-61 92 -166.5 140t-232.5 48t-222 -80t-95 -169t70.5 -145.5 t171 -97t200.5 -86t171 -124t71 -187.5q0 -166 -129.5 -292t-354.5 -126zM913 1573q0 -33 -25.5 -57.5t-58.5 -24.5t-52 19.5t-19 51.5t25.5 58.5t58.5 26.5t52 -20.5t19 -53.5z" glyph-name="uni1E60" horiz-adv-x="1189" unicode="Ṡ"/><glyph d="M414 -25q-272 0 -398 175l76 73q41 -66 128 -111.5t201 -45.5t185.5 60t71.5 130t-54.5 115t-132 74.5t-155.5 61.5t-132 86t-54 128q0 125 97 209t263 84q121 0 219 -47t141 -115l-69 -70q-33 59 -118 100.5t-189 41.5t-170 -51t-66 -117t54.5 -107t132 -69.5 t155.5 -61.5t132 -90t54 -135q0 -131 -100 -224.5t-272 -93.5zM700 1231q0 -33 -25.5 -57.5t-58.5 -24.5t-52 19.5t-19 51.5t25.5 58.5t58.5 26.5t52 -20.5t19 -53.5z" glyph-name="uni1E61" horiz-adv-x="940" unicode="ṡ"/><glyph d="M526 0h-118l278 1260h-446l22 106h1012l-23 -106h-446zM891 1573q0 -33 -25.5 -57.5t-58.5 -24.5t-52.5 19.5t-19.5 51.5t25.5 58.5t58.5 26.5t52.5 -20.5t19.5 -53.5z" glyph-name="uni1E6A" horiz-adv-x="1155" unicode="Ṫ"/><glyph d="M309 -25q-197 0 -196 166q0 23 6 54l155 700h-163l20 94h164l59 271h109l-60 -271h201l-22 -94h-201l-152 -686q-4 -20 -4 -43q0 -94 101 -94q55 0 104 37l21 -86q-62 -48 -142 -48zM555 1573q0 -33 -25.5 -57.5t-58.5 -24.5t-52.5 19.5t-19.5 51.5t26.5 58.5t58.5 26.5 t51.5 -20.5t19.5 -53.5z" glyph-name="uni1E6B" horiz-adv-x="563" unicode="ṫ"/><glyph d="M1237 0h-131l-70 1174l-585 -1174h-132l-90 1366h129l62 -1202l602 1202h106l70 -1202l594 1202h135zM1212 1481h-90l-286 295h127z" glyph-name="Wgrave" horiz-adv-x="1775" unicode="Ẁ"/><glyph d="M1006 0h-103l-90 846l-465 -846h-102l-103 989h109l76 -839l467 839h90l92 -839l450 839h119zM985 1139h-90l-287 295h127z" glyph-name="wgrave" horiz-adv-x="1472" unicode="ẁ"/><glyph d="M1493 1776l-418 -295h-94l381 295h131zM1237 0h-131l-70 1174l-585 -1174h-132l-90 1366h129l62 -1202l602 1202h106l70 -1202l594 1202h135z" glyph-name="Wacute" horiz-adv-x="1775" unicode="Ẃ"/><glyph d="M1272 1434l-418 -295h-94l381 295h131zM1006 0h-103l-90 846l-465 -846h-102l-103 989h109l76 -839l467 839h90l92 -839l450 839h119z" glyph-name="wacute" horiz-adv-x="1472" unicode="ẃ"/><glyph d="M1405 1578q0 -32 -25.5 -56.5t-57.5 -24.5t-51.5 19.5t-19.5 50.5t25.5 56.5t57.5 25.5t51.5 -19.5t19.5 -51.5zM987 1578q0 -32 -25.5 -56.5t-57.5 -24.5t-51 19.5t-19 50.5t25.5 56.5t57.5 25.5t51 -19.5t19 -51.5zM1237 0h-131l-70 1174l-585 -1174h-132l-90 1366h129 l62 -1202l602 1202h106l70 -1202l594 1202h135z" glyph-name="Wdieresis" horiz-adv-x="1775" unicode="Ẅ"/><glyph d="M1180 1236q0 -32 -26 -56.5t-58 -24.5t-51 19.5t-19 50.5t25.5 56.5t57.5 25.5t51.5 -19.5t19.5 -51.5zM762 1236q0 -32 -25.5 -56.5t-57.5 -24.5t-51.5 19.5t-19.5 50.5t25.5 56.5t57.5 25.5t51.5 -19.5t19.5 -51.5zM1006 0h-103l-90 846l-465 -846h-102l-103 989h109 l76 -839l467 839h90l92 -839l450 839h119z" glyph-name="wdieresis" horiz-adv-x="1472" unicode="ẅ"/><glyph d="M1184 0h-129l-64 336h-721l-209 -336h-141l860 1366h146zM979 442l-148 799l-499 -799h647zM565 -283q0 -33 -25.5 -57.5t-58.5 -24.5t-52 19.5t-19 51.5t25.5 58.5t58.5 26.5t52 -20.5t19 -53.5z" glyph-name="uni1EA0" horiz-adv-x="1325" unicode="Ạ"/><glyph d="M612 1014q117 0 210 -52.5t147 -140.5l35 168h108l-219 -989h-109l35 150q-137 -174 -325 -174t-295 108.5t-107 296.5q0 258 145.5 445.5t374.5 187.5zM621 918q-180 0 -296 -157t-116 -362q0 -152 81.5 -239.5t199.5 -87.5t209.5 54t144.5 136l104 475 q-39 78 -125.5 129.5t-201.5 51.5zM475 -283q0 -33 -25.5 -57.5t-58.5 -24.5t-52.5 19.5t-19.5 51.5t26 58.5t59 26.5t52 -20.5t19 -53.5z" glyph-name="uni1EA1" unicode="ạ"/><glyph d="M1184 0h-129l-64 336h-721l-209 -336h-141l860 1366h146zM979 442l-148 799l-499 -799h647zM903 1679q53 0 92 -31.5t39 -97.5t-63 -123h-74q74 63 74 129q0 33 -20.5 50.5t-49.5 17.5q-59 1 -94 -65l-49 26q49 94 145 94z" glyph-name="uni1EA2" horiz-adv-x="1325" unicode="Ả"/><glyph d="M612 1014q117 0 210 -52.5t147 -140.5l35 168h108l-219 -989h-109l35 150q-137 -174 -325 -174t-295 108.5t-107 296.5q0 258 145.5 445.5t374.5 187.5zM621 918q-180 0 -296 -157t-116 -362q0 -152 81.5 -239.5t199.5 -87.5t209.5 54t144.5 136l104 475 q-39 78 -125.5 129.5t-201.5 51.5zM735 1331q53 0 92 -31.5t39 -97.5t-63 -123h-74q74 63 74 129q0 33 -20.5 50.5t-49.5 17.5q-59 0 -94 -66l-49 27q49 94 145 94z" glyph-name="uni1EA3" unicode="ả"/><glyph d="M1102 1397h-78l-127 174l-223 -174h-84l264 221h111zM1184 0h-129l-64 336h-721l-209 -336h-141l860 1366h146zM979 442l-148 799l-499 -799h647zM1559 1731l-418 -222h-94l380 222h132z" glyph-name="uni1EA4" horiz-adv-x="1325" unicode="Ấ"/><glyph d="M612 1014q117 0 210 -52.5t147 -140.5l35 168h108l-219 -989h-109l35 150q-137 -174 -325 -174t-295 108.5t-107 296.5q0 258 145.5 445.5t374.5 187.5zM621 918q-180 0 -296 -157t-116 -362q0 -152 81.5 -239.5t199.5 -87.5t209.5 54t144.5 136l104 475 q-39 78 -125.5 129.5t-201.5 51.5zM967 1139h-78l-127 231l-223 -231h-84l264 295h110zM1425 1577l-417 -295h-95l381 295h131z" glyph-name="uni1EA5" unicode="ấ"/><glyph d="M1102 1397h-78l-127 174l-223 -174h-84l264 221h111zM1184 0h-129l-64 336h-721l-209 -336h-141l860 1366h146zM979 442l-148 799l-499 -799h647zM700 1509h-90l-286 222h127z" glyph-name="uni1EA6" horiz-adv-x="1325" unicode="Ầ"/><glyph d="M612 1014q117 0 210 -52.5t147 -140.5l35 168h108l-219 -989h-109l35 150q-137 -174 -325 -174t-295 108.5t-107 296.5q0 258 145.5 445.5t374.5 187.5zM621 918q-180 0 -296 -157t-116 -362q0 -152 81.5 -239.5t199.5 -87.5t209.5 54t144.5 136l104 475 q-39 78 -125.5 129.5t-201.5 51.5zM967 1139h-78l-127 231l-223 -231h-84l264 295h110zM567 1282h-90l-287 295h127z" glyph-name="uni1EA7" unicode="ầ"/><glyph d="M1104 1397h-78l-127 174l-223 -174h-84l264 221h111zM1184 0h-129l-64 336h-721l-209 -336h-141l860 1366h146zM979 442l-148 799l-499 -799h647zM1061 1737q53 0 92 -23.5t39 -71.5t-64 -94h-73q74 49 73 97q0 25 -20.5 38t-48.5 13q-59 0 -94 -49l-50 20q49 70 146 70z " glyph-name="uni1EA8" horiz-adv-x="1325" unicode="Ẩ"/><glyph d="M612 1014q117 0 210 -52.5t147 -140.5l35 168h108l-219 -989h-109l35 150q-137 -174 -325 -174t-295 108.5t-107 296.5q0 258 145.5 445.5t374.5 187.5zM621 918q-180 0 -296 -157t-116 -362q0 -152 81.5 -239.5t199.5 -87.5t209.5 54t144.5 136l104 475 q-39 78 -125.5 129.5t-201.5 51.5zM967 1139h-78l-127 231l-223 -231h-84l264 295h110zM909 1618q53 0 92 -32t39 -98t-63 -122h-74q74 63 74 129q0 33 -20.5 50.5t-49.5 17.5q-59 0 -94 -66l-49 27q49 94 145 94z" glyph-name="uni1EA9" unicode="ẩ"/><glyph d="M1096 1386h-78l-127 115l-223 -115h-84l264 148h110zM1184 0h-129l-64 336h-721l-209 -336h-141l860 1366h146zM979 442l-148 799l-499 -799h647zM1022 1550q-80 0 -131 52.5t-109 52.5q-94 0 -141 -99h-74q55 137 230 138q93 0 132.5 -52.5t106.5 -52.5q94 0 142 99h75 q-57 -138 -231 -138z" glyph-name="uni1EAA" horiz-adv-x="1325" unicode="Ẫ"/><glyph d="M612 1014q117 0 210 -52.5t147 -140.5l35 168h108l-219 -989h-109l35 150q-137 -174 -325 -174t-295 108.5t-107 296.5q0 258 145.5 445.5t374.5 187.5zM621 918q-180 0 -296 -157t-116 -362q0 -152 81.5 -239.5t199.5 -87.5t209.5 54t144.5 136l104 475 q-39 78 -125.5 129.5t-201.5 51.5zM950 1071h-78l-127 232l-223 -232h-84l264 295h111zM913 1397q-51 0 -84.5 32.5t-47 72.5t-41 73t-66.5 33q-94 0 -142 -199h-73q25 123 83 198.5t146 75.5q51 0 85 -32.5t48.5 -71.5t41 -71.5t65.5 -32.5q94 0 141 196h76 q-27 -123 -85.5 -198.5t-146.5 -75.5z" glyph-name="uni1EAB" unicode="ẫ"/><glyph d="M1184 0h-129l-64 336h-721l-209 -336h-141l860 1366h146zM979 442l-148 799l-499 -799h647zM1135 1481h-78l-127 231l-223 -231h-84l264 295h110zM565 -283q0 -33 -25.5 -57.5t-58.5 -24.5t-52 19.5t-19 51.5t25.5 58.5t58.5 26.5t52 -20.5t19 -53.5z" glyph-name="uni1EAC" horiz-adv-x="1325" unicode="Ậ"/><glyph d="M612 1014q117 0 210 -52.5t147 -140.5l35 168h108l-219 -989h-109l35 150q-137 -174 -325 -174t-295 108.5t-107 296.5q0 258 145.5 445.5t374.5 187.5zM621 918q-180 0 -296 -157t-116 -362q0 -152 81.5 -239.5t199.5 -87.5t209.5 54t144.5 136l104 475 q-39 78 -125.5 129.5t-201.5 51.5zM967 1139h-78l-127 231l-223 -231h-84l264 295h110zM475 -283q0 -33 -25.5 -57.5t-58.5 -24.5t-52.5 19.5t-19.5 51.5t26 58.5t59 26.5t52 -20.5t19 -53.5z" glyph-name="uni1EAD" unicode="ậ"/><glyph d="M1184 0h-129l-64 336h-721l-209 -336h-141l860 1366h146zM979 442l-148 799l-499 -799h647zM1247 1724l-418 -211h-94l381 211h131zM846 1399q-106 0 -191.5 45t-130.5 123l68 47q76 -141 268 -141t332 141l51 -47q-174 -168 -397 -168z" glyph-name="uni1EAE" horiz-adv-x="1325" unicode="Ắ"/><glyph d="M612 1014q117 0 210 -52.5t147 -140.5l35 168h108l-219 -989h-109l35 150q-137 -174 -325 -174t-295 108.5t-107 296.5q0 258 145.5 445.5t374.5 187.5zM621 918q-180 0 -296 -157t-116 -362q0 -152 81.5 -239.5t199.5 -87.5t209.5 54t144.5 136l104 475 q-39 78 -125.5 129.5t-201.5 51.5zM1081 1559l-417 -295h-95l381 295h131zM682 1063q-109 0 -192.5 48t-129.5 132l68 51q76 -154 266.5 -153.5t333.5 153.5l51 -51q-174 -180 -397 -180z" glyph-name="uni1EAF" unicode="ắ"/><glyph d="M1184 0h-129l-64 336h-721l-209 -336h-141l860 1366h146zM979 442l-148 799l-499 -799h647zM1016 1526h-90l-287 211h127zM848 1399q-106 0 -191.5 45t-130.5 123l68 47q76 -141 268 -141t332 141l51 -47q-174 -168 -397 -168z" glyph-name="uni1EB0" horiz-adv-x="1325" unicode="Ằ"/><glyph d="M612 1014q117 0 210 -52.5t147 -140.5l35 168h108l-219 -989h-109l35 150q-137 -174 -325 -174t-295 108.5t-107 296.5q0 258 145.5 445.5t374.5 187.5zM621 918q-180 0 -296 -157t-116 -362q0 -152 81.5 -239.5t199.5 -87.5t209.5 54t144.5 136l104 475 q-39 78 -125.5 129.5t-201.5 51.5zM885 1264h-90l-287 295h127zM684 1073q-109 0 -192.5 48t-129.5 132l68 52q78 -154 267 -154t333 154l51 -52q-174 -180 -397 -180z" glyph-name="uni1EB1" unicode="ằ"/><glyph d="M1184 0h-129l-64 336h-721l-209 -336h-141l860 1366h146zM979 442l-148 799l-499 -799h647zM915 1700q53 0 92.5 -22.5t39.5 -69.5t-64 -88h-74q74 47 74 92q0 23 -20.5 36t-49.5 13q-57 0 -94 -47l-49 18q49 68 145 68zM848 1399q-106 0 -191.5 45t-130.5 123l68 47 q76 -141 268 -141t332 141l51 -47q-174 -168 -397 -168z" glyph-name="uni1EB2" horiz-adv-x="1325" unicode="Ẳ"/><glyph d="M612 1014q117 0 210 -52.5t147 -140.5l35 168h108l-219 -989h-109l35 150q-137 -174 -325 -174t-295 108.5t-107 296.5q0 258 145.5 445.5t374.5 187.5zM621 918q-180 0 -296 -157t-116 -362q0 -152 81.5 -239.5t199.5 -87.5t209.5 54t144.5 136l104 475 q-39 78 -125.5 129.5t-201.5 51.5zM772 1513q53 0 92 -31.5t39 -97.5t-63 -122h-74q74 66 74 129q0 33 -20.5 50t-49.5 17q-59 1 -94 -65l-49 26q49 94 145 94zM686 1073q-109 0 -192.5 48t-128.5 132l67 52q76 -154 266.5 -154t333.5 154l51 -52q-174 -180 -397 -180z" glyph-name="uni1EB3" unicode="ẳ"/><glyph d="M1184 0h-129l-64 336h-721l-209 -336h-141l860 1366h146zM979 442l-148 799l-499 -799h647zM837 1401q-222 0 -321 115l68 32q78 -98 266 -98t334 98l51 -32q-176 -115 -398 -115zM1024 1561q-51 0 -85 16t-58 52t-97 36q-94 0 -141 -98h-74q55 137 230 137 q66 0 100.5 -26.5t62 -52.5t76.5 -26q94 0 142 99h75q-57 -137 -231 -137z" glyph-name="uni1EB4" horiz-adv-x="1325" unicode="Ẵ"/><glyph d="M612 1014q117 0 210 -52.5t147 -140.5l35 168h108l-219 -989h-109l35 150q-137 -174 -325 -174t-295 108.5t-107 296.5q0 258 145.5 445.5t374.5 187.5zM621 918q-180 0 -296 -157t-116 -362q0 -152 81.5 -239.5t199.5 -87.5t209.5 54t144.5 136l104 475 q-39 78 -125.5 129.5t-201.5 51.5zM702.5 1165q190.5 0 333.5 154l51 -51q-174 -180 -397 -181q-109 0 -192.5 48.5t-128.5 132.5l67 51q76 -154 266.5 -154zM911 1395q-51 0 -84.5 32.5t-47 72.5t-40 73t-67.5 33q-94 0 -142 -199h-73q25 123 83 198.5t146 75.5 q51 0 85 -32.5t48.5 -71.5t41 -71.5t65.5 -32.5q94 0 141 196h76q-27 -123 -85.5 -198.5t-146.5 -75.5z" glyph-name="uni1EB5" unicode="ẵ"/><glyph d="M1184 0h-129l-64 336h-721l-209 -336h-141l860 1366h146zM979 442l-148 799l-499 -799h647zM565 -283q0 -33 -25.5 -57.5t-58.5 -24.5t-52 19.5t-19 51.5t25.5 58.5t58.5 26.5t52 -20.5t19 -53.5zM860 1450q-109 0 -192.5 48t-128.5 132l67 51q78 -153 267 -153t333 153 l51 -51q-174 -180 -397 -180z" glyph-name="uni1EB6" horiz-adv-x="1325" unicode="Ặ"/><glyph d="M612 1014q117 0 210 -52.5t147 -140.5l35 168h108l-219 -989h-109l35 150q-137 -174 -325 -174t-295 108.5t-107 296.5q0 258 145.5 445.5t374.5 187.5zM621 918q-180 0 -296 -157t-116 -362q0 -152 81.5 -239.5t199.5 -87.5t209.5 54t144.5 136l104 475 q-39 78 -125.5 129.5t-201.5 51.5zM475 -283q0 -33 -25.5 -57.5t-58.5 -24.5t-52.5 19.5t-19.5 51.5t26 58.5t59 26.5t52 -20.5t19 -53.5zM694 1108q-109 0 -192.5 48t-128.5 132l67 51q76 -154 266.5 -153.5t333.5 153.5l52 -51q-174 -180 -398 -180z" glyph-name="uni1EB7" unicode="ặ"/><glyph d="M926 0h-867l301 1366h867l-23 -106h-749l-111 -506h733l-24 -107h-734l-120 -541h747zM504 -283q0 -33 -25.5 -57.5t-58.5 -24.5t-52.5 19.5t-19.5 51.5t25.5 58.5t58.5 26.5t52.5 -20.5t19.5 -53.5z" glyph-name="uni1EB8" horiz-adv-x="1155" unicode="Ẹ"/><glyph d="M548 -25q-202 0 -328 120t-126 317q0 248 160 425t389 177q193 0 306.5 -121t113.5 -307q0 -59 -16 -125h-836q-4 -25 -4 -58q0 -145 94 -240t267 -95t300 106l41 -78q-159 -121 -361 -121zM635 922q-151 0 -269 -111.5t-145 -265.5h737q2 10 3 45q0 147 -87.5 239.5 t-238.5 92.5zM487 -283q0 -33 -25.5 -57.5t-58.5 -24.5t-52 19.5t-19 51.5t25.5 58.5t58.5 26.5t52 -20.5t19 -53.5z" glyph-name="uni1EB9" horiz-adv-x="1161" unicode="ẹ"/><glyph d="M926 0h-867l301 1366h867l-23 -106h-749l-111 -506h733l-24 -107h-734l-120 -541h747zM844 1679q53 0 92 -31.5t39 -97.5t-64 -123h-73q74 63 73 129q0 33 -20.5 50.5t-48.5 17.5q-59 1 -94 -65l-50 26q49 94 146 94z" glyph-name="uni1EBA" horiz-adv-x="1155" unicode="Ẻ"/><glyph d="M548 -25q-202 0 -328 120t-126 317q0 248 160 425t389 177q193 0 306.5 -121t113.5 -307q0 -59 -16 -125h-836q-4 -25 -4 -58q0 -145 94 -240t267 -95t300 106l41 -78q-159 -121 -361 -121zM635 922q-151 0 -269 -111.5t-145 -265.5h737q2 10 3 45q0 147 -87.5 239.5 t-238.5 92.5zM748 1331q53 0 92 -31.5t39 -97.5t-64 -123h-74q74 63 74 129q0 33 -20.5 50.5t-49.5 17.5q-59 0 -94 -66l-49 27q49 94 146 94z" glyph-name="uni1EBB" horiz-adv-x="1161" unicode="ẻ"/><glyph d="M926 0h-867l301 1366h867l-23 -106h-749l-111 -506h733l-24 -107h-734l-120 -541h747zM963 1477q-51 0 -85 32.5t-47.5 72.5t-41 73t-66.5 33q-94 0 -141 -199h-74q25 123 83 198.5t146 75.5q51 0 85 -32.5t48.5 -71.5t41 -72t65.5 -33q94 0 141 197h76 q-27 -123 -85 -198.5t-146 -75.5z" glyph-name="uni1EBC" horiz-adv-x="1155" unicode="Ẽ"/><glyph d="M548 -25q-202 0 -328 120t-126 317q0 248 160 425t389 177q193 0 306.5 -121t113.5 -307q0 -59 -16 -125h-836q-4 -25 -4 -58q0 -145 94 -240t267 -95t300 106l41 -78q-159 -121 -361 -121zM635 922q-151 0 -269 -111.5t-145 -265.5h737q2 10 3 45q0 147 -87.5 239.5 t-238.5 92.5zM868 1135q-51 0 -84.5 32.5t-47 72.5t-41 73t-66.5 33q-94 0 -142 -199h-73q25 123 83 198.5t146 75.5q51 0 85 -32.5t48.5 -71.5t41 -72t65.5 -33q94 0 141 197h76q-27 -123 -85.5 -198.5t-146.5 -75.5z" glyph-name="uni1EBD" horiz-adv-x="1161" unicode="ẽ"/><glyph d="M1042 1397h-77l-127 174l-224 -174h-84l265 221h110zM1497 1731l-418 -222h-94l381 222h131zM926 0h-867l301 1366h867l-23 -106h-749l-111 -506h733l-24 -107h-734l-120 -541h747z" glyph-name="uni1EBE" horiz-adv-x="1155" unicode="Ế"/><glyph d="M979 1139h-78l-127 231l-223 -231h-84l264 295h111zM1440 1577l-418 -295h-94l381 295h131zM548 -25q-202 0 -328 120t-126 317q0 248 160 425t389 177q193 0 306.5 -121t113.5 -307q0 -59 -16 -125h-836q-4 -25 -4 -58q0 -145 94 -240t267 -95t300 106l41 -78 q-159 -121 -361 -121zM635 922q-151 0 -269 -111.5t-145 -265.5h737q2 10 3 45q0 147 -87.5 239.5t-238.5 92.5z" glyph-name="uni1EBF" horiz-adv-x="1161" unicode="ế"/><glyph d="M1042 1397h-77l-127 174l-224 -174h-84l265 221h110zM926 0h-867l301 1366h867l-23 -106h-749l-111 -506h733l-24 -107h-734l-120 -541h747zM639 1509h-90l-287 222h127z" glyph-name="uni1EC0" horiz-adv-x="1155" unicode="Ề"/><glyph d="M981 1139h-78l-127 231l-223 -231h-84l264 295h111zM548 -25q-202 0 -328 120t-126 317q0 248 160 425t389 177q193 0 306.5 -121t113.5 -307q0 -59 -16 -125h-836q-4 -25 -4 -58q0 -145 94 -240t267 -95t300 106l41 -78q-159 -121 -361 -121zM635 922 q-151 0 -269 -111.5t-145 -265.5h737q2 10 3 45q0 147 -87.5 239.5t-238.5 92.5zM580 1282h-91l-286 295h127z" glyph-name="uni1EC1" horiz-adv-x="1161" unicode="ề"/><glyph d="M1044 1397h-77l-127 174l-224 -174h-84l265 221h110zM926 0h-867l301 1366h867l-23 -106h-749l-111 -506h733l-24 -107h-734l-120 -541h747zM999 1737q53 0 92 -23.5t39 -71.5t-63 -94h-74q74 49 74 97q0 25 -20.5 38t-49.5 13q-59 0 -94 -49l-49 20q49 70 145 70z" glyph-name="uni1EC2" horiz-adv-x="1155" unicode="Ể"/><glyph d="M981 1139h-78l-127 231l-223 -231h-84l264 295h111zM548 -25q-202 0 -328 120t-126 317q0 248 160 425t389 177q193 0 306.5 -121t113.5 -307q0 -59 -16 -125h-836q-4 -25 -4 -58q0 -145 94 -240t267 -95t300 106l41 -78q-159 -121 -361 -121zM635 922 q-151 0 -269 -111.5t-145 -265.5h737q2 10 3 45q0 147 -87.5 239.5t-238.5 92.5zM924 1618q53 0 92 -32t39 -98t-64 -122h-73q74 63 73 129q0 33 -20.5 50.5t-48.5 17.5q-60 0 -95 -66l-49 27q49 94 146 94z" glyph-name="uni1EC3" horiz-adv-x="1161" unicode="ể"/><glyph d="M1051 1389h-78l-127 114l-223 -114h-84l264 147h110zM926 0h-867l301 1366h867l-23 -106h-749l-111 -506h733l-24 -107h-734l-120 -541h747zM963 1550q-51 0 -85 16.5t-59 52.5t-96 36q-94 0 -141 -99h-74q55 137 229 138q94 0 133.5 -52.5t106.5 -52.5q94 0 141 99h76 q-57 -138 -231 -138z" glyph-name="uni1EC4" horiz-adv-x="1155" unicode="Ễ"/><glyph d="M967 1071h-78l-127 232l-223 -232h-84l264 295h110zM548 -25q-202 0 -328 120t-126 317q0 248 160 425t389 177q193 0 306.5 -121t113.5 -307q0 -59 -16 -125h-836q-4 -25 -4 -58q0 -145 94 -240t267 -95t300 106l41 -78q-159 -121 -361 -121zM635 922 q-151 0 -269 -111.5t-145 -265.5h737q2 10 3 45q0 147 -87.5 239.5t-238.5 92.5zM928 1397q-51 0 -85 32.5t-47.5 72.5t-40 73t-67.5 33q-94 0 -141 -199h-74q25 123 83 198.5t146 75.5q51 0 85 -32.5t48.5 -71.5t41 -71.5t65.5 -32.5q94 0 141 196h76q-27 -123 -85 -198.5 t-146 -75.5z" glyph-name="uni1EC5" horiz-adv-x="1161" unicode="ễ"/><glyph d="M1073 1481h-78l-127 231l-223 -231h-84l264 295h111zM926 0h-867l301 1366h867l-23 -106h-749l-111 -506h733l-24 -107h-734l-120 -541h747zM504 -283q0 -33 -25.5 -57.5t-58.5 -24.5t-52.5 19.5t-19.5 51.5t25.5 58.5t58.5 26.5t52.5 -20.5t19.5 -53.5z" glyph-name="uni1EC6" horiz-adv-x="1155" unicode="Ệ"/><glyph d="M981 1139h-78l-127 231l-223 -231h-84l264 295h111zM548 -25q-202 0 -328 120t-126 317q0 248 160 425t389 177q193 0 306.5 -121t113.5 -307q0 -59 -16 -125h-836q-4 -25 -4 -58q0 -145 94 -240t267 -95t300 106l41 -78q-159 -121 -361 -121zM635 922 q-151 0 -269 -111.5t-145 -265.5h737q2 10 3 45q0 147 -87.5 239.5t-238.5 92.5zM487 -283q0 -33 -25.5 -57.5t-58.5 -24.5t-52 19.5t-19 51.5t25.5 58.5t58.5 26.5t52 -20.5t19 -53.5z" glyph-name="uni1EC7" horiz-adv-x="1161" unicode="ệ"/><glyph d="M176 0h-117l301 1366h117zM469 1679q53 0 92 -31.5t39 -97.5t-63 -123h-74q74 63 74 129q0 33 -20.5 50.5t-49.5 17.5q-59 1 -94 -65l-49 26q49 94 145 94z" glyph-name="uni1EC8" horiz-adv-x="456" unicode="Ỉ"/><glyph d="M162 0h-107l219 989h107zM383 1331q53 0 92 -31.5t39 -97.5t-63 -123h-74q74 63 74 129q0 33 -20.5 50.5t-49.5 17.5q-59 0 -94 -66l-49 27q49 94 145 94z" glyph-name="uni1EC9" horiz-adv-x="438" unicode="ỉ"/><glyph d="M176 0h-117l301 1366h117zM133 -283q0 -33 -25.5 -57.5t-58.5 -24.5t-52.5 19.5t-19.5 51.5t26.5 58.5t58.5 26.5t51.5 -20.5t19.5 -53.5z" glyph-name="uni1ECA" horiz-adv-x="456" unicode="Ị"/><glyph d="M371 1145q-33 0 -54.5 21.5t-21.5 55.5t28.5 59.5t61.5 25.5t54.5 -20.5t21.5 -55.5t-28.5 -60.5t-61.5 -25.5zM162 0h-107l219 989h107zM123 -283q0 -33 -25.5 -57.5t-58.5 -24.5t-52.5 19.5t-19.5 51.5t25.5 58.5t58.5 26.5t52.5 -20.5t19.5 -53.5z" glyph-name="uni1ECB" horiz-adv-x="438" unicode="ị"/><glyph d="M752 -25q-264 0 -439.5 158t-175.5 434q0 346 221.5 584t536.5 238q264 0 438 -158t174 -434q0 -346 -221 -584t-534 -238zM758 82q254 0 438 203.5t184 507.5q0 231 -141 360t-354 129q-254 0 -437.5 -202.5t-183.5 -508.5q0 -231 140.5 -360t353.5 -129zM688 -283 q0 -33 -25.5 -57.5t-58.5 -24.5t-52.5 19.5t-19.5 51.5t26 58.5t58 26.5t52 -20.5t20 -53.5z" glyph-name="uni1ECC" horiz-adv-x="1564" unicode="Ọ"/><glyph d="M543 -25q-214 0 -332.5 119t-118.5 316q0 242 158 423t372 181t332.5 -119t118.5 -315q0 -242 -158 -423.5t-372 -181.5zM544 72q166 0 289 152.5t123 350.5q0 158 -85 250.5t-236 92.5q-180 0 -303 -153t-123 -351q0 -158 84.5 -250t250.5 -92zM489 -283 q0 -33 -25.5 -57.5t-58.5 -24.5t-52 19.5t-19 51.5t25.5 58.5t58.5 26.5t52 -20.5t19 -53.5z" glyph-name="uni1ECD" unicode="ọ"/><glyph d="M752 -25q-264 0 -439.5 158t-175.5 434q0 346 221.5 584t536.5 238q264 0 438 -158t174 -434q0 -346 -221 -584t-534 -238zM758 82q254 0 438 203.5t184 507.5q0 231 -141 360t-354 129q-254 0 -437.5 -202.5t-183.5 -508.5q0 -231 140.5 -360t353.5 -129zM1026 1679 q53 0 92 -31.5t39 -97.5t-63 -123h-74q74 63 74 129q0 33 -20.5 50.5t-49.5 17.5q-59 1 -94 -65l-49 26q49 94 145 94z" glyph-name="uni1ECE" horiz-adv-x="1564" unicode="Ỏ"/><glyph d="M543 -25q-214 0 -332.5 119t-118.5 316q0 242 158 423t372 181t332.5 -119t118.5 -315q0 -242 -158 -423.5t-372 -181.5zM544 72q166 0 289 152.5t123 350.5q0 158 -85 250.5t-236 92.5q-180 0 -303 -153t-123 -351q0 -158 84.5 -250t250.5 -92zM750 1331q53 0 92 -31.5 t39 -97.5t-64 -123h-74q74 63 74 129q0 33 -20.5 50.5t-48.5 17.5q-60 0 -95 -66l-49 27q49 94 146 94z" glyph-name="uni1ECF" unicode="ỏ"/><glyph d="M1225 1397h-78l-127 174l-223 -174h-84l264 221h110zM1681 1731l-417 -222h-95l381 222h131zM752 -25q-264 0 -439.5 158t-175.5 434q0 346 221.5 584t536.5 238q264 0 438 -158t174 -434q0 -346 -221 -584t-534 -238zM758 82q254 0 438 203.5t184 507.5q0 231 -141 360 t-354 129q-254 0 -437.5 -202.5t-183.5 -508.5q0 -231 140.5 -360t353.5 -129z" glyph-name="uni1ED0" horiz-adv-x="1564" unicode="Ố"/><glyph d="M983 1139h-78l-127 231l-223 -231h-84l264 295h111zM1444 1577l-418 -295h-94l381 295h131zM543 -25q-214 0 -332.5 119t-118.5 316q0 242 158 423t372 181t332.5 -119t118.5 -315q0 -242 -158 -423.5t-372 -181.5zM544 72q166 0 289 152.5t123 350.5q0 158 -85 250.5 t-236 92.5q-180 0 -303 -153t-123 -351q0 -158 84.5 -250t250.5 -92z" glyph-name="uni1ED1" unicode="ố"/><glyph d="M1223 1397h-78l-127 174l-223 -174h-84l264 221h110zM752 -25q-264 0 -439.5 158t-175.5 434q0 346 221.5 584t536.5 238q264 0 438 -158t174 -434q0 -346 -221 -584t-534 -238zM758 82q254 0 438 203.5t184 507.5q0 231 -141 360t-354 129q-254 0 -437.5 -202.5 t-183.5 -508.5q0 -231 140.5 -360t353.5 -129zM821 1509h-90l-287 222h127z" glyph-name="uni1ED2" horiz-adv-x="1564" unicode="Ồ"/><glyph d="M983 1139h-78l-127 231l-223 -231h-84l264 295h111zM543 -25q-214 0 -332.5 119t-118.5 316q0 242 158 423t372 181t332.5 -119t118.5 -315q0 -242 -158 -423.5t-372 -181.5zM544 72q166 0 289 152.5t123 350.5q0 158 -85 250.5t-236 92.5q-180 0 -303 -153t-123 -351 q0 -158 84.5 -250t250.5 -92zM582 1282h-90l-287 295h127z" glyph-name="uni1ED3" unicode="ồ"/><glyph d="M1227 1397h-78l-127 174l-223 -174h-84l264 221h111zM752 -25q-264 0 -439.5 158t-175.5 434q0 346 221.5 584t536.5 238q264 0 438 -158t174 -434q0 -346 -221 -584t-534 -238zM758 82q254 0 438 203.5t184 507.5q0 231 -141 360t-354 129q-254 0 -437.5 -202.5 t-183.5 -508.5q0 -231 140.5 -360t353.5 -129zM1182 1737q53 0 92 -23.5t39 -71.5t-64 -94h-73q74 49 73 97q0 25 -20.5 38t-48.5 13q-60 0 -95 -49l-49 20q49 70 146 70z" glyph-name="uni1ED4" horiz-adv-x="1564" unicode="Ổ"/><glyph d="M983 1139h-78l-127 231l-223 -231h-84l264 295h111zM543 -25q-214 0 -332.5 119t-118.5 316q0 242 158 423t372 181t332.5 -119t118.5 -315q0 -242 -158 -423.5t-372 -181.5zM544 72q166 0 289 152.5t123 350.5q0 158 -85 250.5t-236 92.5q-180 0 -303 -153t-123 -351 q0 -158 84.5 -250t250.5 -92zM926 1618q53 0 92 -32t39 -98t-64 -122h-73q74 63 73 129q0 33 -20.5 50.5t-48.5 17.5q-60 0 -95 -66l-49 27q49 94 146 94z" glyph-name="uni1ED5" unicode="ổ"/><glyph d="M1217 1389h-78l-127 114l-224 -114h-83l264 147h110zM752 -25q-264 0 -439.5 158t-175.5 434q0 346 221.5 584t536.5 238q264 0 438 -158t174 -434q0 -346 -221 -584t-534 -238zM758 82q254 0 438 203.5t184 507.5q0 231 -141 360t-354 129q-254 0 -437.5 -202.5 t-183.5 -508.5q0 -231 140.5 -360t353.5 -129zM1145 1550q-80 0 -131 52.5t-109 52.5q-94 0 -141 -99h-74q55 137 230 138q93 0 132.5 -52.5t106.5 -52.5q94 0 141 99h76q-57 -138 -231 -138z" glyph-name="uni1ED6" horiz-adv-x="1564" unicode="Ỗ"/><glyph d="M967 1071h-78l-127 232l-223 -232h-84l264 295h110zM543 -25q-214 0 -332.5 119t-118.5 316q0 242 158 423t372 181t332.5 -119t118.5 -315q0 -242 -158 -423.5t-372 -181.5zM544 72q166 0 289 152.5t123 350.5q0 158 -85 250.5t-236 92.5q-180 0 -303 -153t-123 -351 q0 -158 84.5 -250t250.5 -92zM930 1397q-51 0 -85 32.5t-47.5 72.5t-41 73t-66.5 33q-94 0 -141 -199h-74q25 123 83 198.5t147 75.5q51 0 84.5 -32.5t48 -71.5t41 -71.5t65.5 -32.5q94 0 141 196h76q-27 -123 -85 -198.5t-146 -75.5z" glyph-name="uni1ED7" unicode="ỗ"/><glyph d="M1255 1481h-77l-127 231l-224 -231h-84l265 295h110zM752 -25q-264 0 -439.5 158t-175.5 434q0 346 221.5 584t536.5 238q264 0 438 -158t174 -434q0 -346 -221 -584t-534 -238zM758 82q254 0 438 203.5t184 507.5q0 231 -141 360t-354 129q-254 0 -437.5 -202.5 t-183.5 -508.5q0 -231 140.5 -360t353.5 -129zM688 -283q0 -33 -25.5 -57.5t-58.5 -24.5t-52.5 19.5t-19.5 51.5t26 58.5t58 26.5t52 -20.5t20 -53.5z" glyph-name="uni1ED8" horiz-adv-x="1564" unicode="Ộ"/><glyph d="M981 1139h-78l-127 231l-223 -231h-84l264 295h111zM543 -25q-214 0 -332.5 119t-118.5 316q0 242 158 423t372 181t332.5 -119t118.5 -315q0 -242 -158 -423.5t-372 -181.5zM544 72q166 0 289 152.5t123 350.5q0 158 -85 250.5t-236 92.5q-180 0 -303 -153t-123 -351 q0 -158 84.5 -250t250.5 -92zM489 -283q0 -33 -25.5 -57.5t-58.5 -24.5t-52 19.5t-19 51.5t25.5 58.5t58.5 26.5t52 -20.5t19 -53.5z" glyph-name="uni1ED9" unicode="ộ"/><glyph d="M1395 1776l-418 -295h-94l381 295h131zM752 -25q-264 0 -439.5 158t-175.5 434q0 346 221.5 584t541.5 238t489 -220q111 59 137 158h-13q-27 0 -44 18.5t-17 50.5t24.5 56.5t58.5 24.5t55.5 -22.5t21.5 -63.5q0 -78 -55.5 -155t-133.5 -118q84 -139 84 -321 q0 -346 -221 -584t-534 -238zM758 82q254 0 438 203.5t184 507.5q0 231 -141 360t-354 129q-254 0 -437.5 -202.5t-183.5 -508.5q0 -231 140.5 -360t353.5 -129z" glyph-name="uni1EDA" horiz-adv-x="1564" unicode="Ớ"/><glyph d="M1122 1434l-417 -295h-95l381 295h131zM1079 1202q76 0 76 -102q0 -56 -48 -128.5t-118 -115.5q84 -117 84 -276q0 -242 -157.5 -423.5t-387.5 -181.5q-199 0 -317.5 119t-118.5 316q0 242 158 423t387 181q188 0 309 -111q100 66 123 150h-14q-25 0 -43.5 19.5 t-18.5 49.5t25.5 55t60.5 25zM544 72q166 0 289 152.5t123 350.5q0 158 -85 250.5t-236 92.5q-180 0 -303 -153t-123 -351q0 -158 84.5 -250t250.5 -92z" glyph-name="uni1EDB" unicode="ớ"/><glyph d="M752 -25q-264 0 -439.5 158t-175.5 434q0 346 221.5 584t541.5 238t489 -220q111 59 137 158h-13q-27 0 -44 18.5t-17 50.5t24.5 56.5t58.5 24.5t55.5 -22.5t21.5 -63.5q0 -78 -55.5 -155t-133.5 -118q84 -139 84 -321q0 -346 -221 -584t-534 -238zM758 82 q254 0 438 203.5t184 507.5q0 231 -141 360t-354 129q-254 0 -437.5 -202.5t-183.5 -508.5q0 -231 140.5 -360t353.5 -129zM1112 1481h-90l-287 295h127z" glyph-name="uni1EDC" horiz-adv-x="1564" unicode="Ờ"/><glyph d="M1079 1202q76 0 76 -102q0 -56 -48 -128.5t-118 -115.5q84 -117 84 -276q0 -242 -157.5 -423.5t-387.5 -181.5q-199 0 -317.5 119t-118.5 316q0 242 158 423t387 181q188 0 309 -111q100 66 123 150h-14q-25 0 -43.5 19.5t-18.5 49.5t25.5 55t60.5 25zM544 72 q166 0 289 152.5t123 350.5q0 158 -85 250.5t-236 92.5q-180 0 -303 -153t-123 -351q0 -158 84.5 -250t250.5 -92zM842 1139h-90l-287 295h127z" glyph-name="uni1EDD" unicode="ờ"/><glyph d="M752 -25q-264 0 -439.5 158t-175.5 434q0 346 221.5 584t541.5 238t489 -220q111 59 137 158h-13q-27 0 -44 18.5t-17 50.5t24.5 56.5t58.5 24.5t55.5 -22.5t21.5 -63.5q0 -78 -55.5 -155t-133.5 -118q84 -139 84 -321q0 -346 -221 -584t-534 -238zM758 82 q254 0 438 203.5t184 507.5q0 231 -141 360t-354 129q-254 0 -437.5 -202.5t-183.5 -508.5q0 -231 140.5 -360t353.5 -129zM1026 1679q53 0 92 -31.5t39 -97.5t-63 -123h-74q74 63 74 129q0 33 -20.5 50.5t-49.5 17.5q-59 1 -94 -65l-49 26q49 94 145 94z" glyph-name="uni1EDE" horiz-adv-x="1564" unicode="Ở"/><glyph d="M1079 1202q76 0 76 -102q0 -56 -48 -128.5t-118 -115.5q84 -117 84 -276q0 -242 -157.5 -423.5t-387.5 -181.5q-199 0 -317.5 119t-118.5 316q0 242 158 423t387 181q188 0 309 -111q100 66 123 150h-14q-25 0 -43.5 19.5t-18.5 49.5t25.5 55t60.5 25zM544 72 q166 0 289 152.5t123 350.5q0 158 -85 250.5t-236 92.5q-180 0 -303 -153t-123 -351q0 -158 84.5 -250t250.5 -92zM752 1331q53 0 92 -31.5t39 -97.5t-64 -123h-74q74 63 74 129q0 33 -20.5 50.5t-48.5 17.5q-60 0 -95 -66l-49 27q49 94 146 94z" glyph-name="uni1EDF" unicode="ở"/><glyph d="M752 -25q-264 0 -439.5 158t-175.5 434q0 346 221.5 584t541.5 238t489 -220q111 59 137 158h-13q-27 0 -44 18.5t-17 50.5t24.5 56.5t58.5 24.5t55.5 -22.5t21.5 -63.5q0 -78 -55.5 -155t-133.5 -118q84 -139 84 -321q0 -346 -221 -584t-534 -238zM758 82 q254 0 438 203.5t184 507.5q0 231 -141 360t-354 129q-254 0 -437.5 -202.5t-183.5 -508.5q0 -231 140.5 -360t353.5 -129zM1145 1477q-51 0 -85 32.5t-47.5 72.5t-40 73t-67.5 33q-94 0 -141 -199h-74q25 123 83 198.5t147 75.5q51 0 84.5 -32.5t48 -71.5t41 -72t65.5 -33 q94 0 141 197h76q-27 -123 -85 -198.5t-146 -75.5z" glyph-name="uni1EE0" horiz-adv-x="1564" unicode="Ỡ"/><glyph d="M1079 1202q76 0 76 -102q0 -56 -48 -128.5t-118 -115.5q84 -117 84 -276q0 -242 -157.5 -423.5t-387.5 -181.5q-199 0 -317.5 119t-118.5 316q0 242 158 423t387 181q188 0 309 -111q100 66 123 150h-14q-25 0 -43.5 19.5t-18.5 49.5t25.5 55t60.5 25zM544 72 q166 0 289 152.5t123 350.5q0 158 -85 250.5t-236 92.5q-180 0 -303 -153t-123 -351q0 -158 84.5 -250t250.5 -92zM848 1135q-51 0 -85 32.5t-47.5 72.5t-41 73t-66.5 33q-94 0 -141 -199h-74q25 123 83.5 198.5t146.5 75.5q51 0 84.5 -32.5t48 -71.5t41 -72t65.5 -33 q94 0 142 197h75q-27 -123 -85 -198.5t-146 -75.5z" glyph-name="uni1EE1" unicode="ỡ"/><glyph d="M752 -25q-264 0 -439.5 158t-175.5 434q0 346 221.5 584t541.5 238t489 -220q111 59 137 158h-13q-27 0 -44 18.5t-17 50.5t24.5 56.5t58.5 24.5t55.5 -22.5t21.5 -63.5q0 -78 -55.5 -155t-133.5 -118q84 -139 84 -321q0 -346 -221 -584t-534 -238zM758 82 q254 0 438 203.5t184 507.5q0 231 -141 360t-354 129q-254 0 -437.5 -202.5t-183.5 -508.5q0 -231 140.5 -360t353.5 -129zM688 -283q0 -33 -25.5 -57.5t-58.5 -24.5t-52.5 19.5t-19.5 51.5t26 58.5t58 26.5t52 -20.5t20 -53.5z" glyph-name="uni1EE2" horiz-adv-x="1564" unicode="Ợ"/><glyph d="M1079 1202q76 0 76 -102q0 -56 -48 -128.5t-118 -115.5q84 -117 84 -276q0 -242 -157.5 -423.5t-387.5 -181.5q-199 0 -317.5 119t-118.5 316q0 242 158 423t387 181q188 0 309 -111q100 66 123 150h-14q-25 0 -43.5 19.5t-18.5 49.5t25.5 55t60.5 25zM544 72 q166 0 289 152.5t123 350.5q0 158 -85 250.5t-236 92.5q-180 0 -303 -153t-123 -351q0 -158 84.5 -250t250.5 -92zM489 -283q0 -33 -25.5 -57.5t-58.5 -24.5t-52 19.5t-19 51.5t25.5 58.5t58.5 26.5t52 -20.5t19 -53.5z" glyph-name="uni1EE3" unicode="ợ"/><glyph d="M678 -25q-242 0 -377 120t-135 325q0 59 10 104l184 842h119l-184 -840q-12 -49 -12 -92q0 -158 103 -255t291 -97t292 112.5t153 331.5l185 840h118l-184 -842q-61 -270 -191 -409.5t-372 -139.5zM606 -283q0 -33 -25.5 -57.5t-58.5 -24.5t-52 19.5t-19 51.5t25.5 58.5 t58.5 26.5t52 -20.5t19 -53.5z" glyph-name="uni1EE4" horiz-adv-x="1404" unicode="Ụ"/><glyph d="M221 246q0 -88 59.5 -131t159.5 -43q170 0 336 174l166 743h107l-220 -989h-106l33 150q-178 -174 -357 -175q-131 0 -209.5 62.5t-78.5 179.5q0 39 12 84l151 688h107l-148 -670q-12 -61 -12 -73zM455 -283q0 -33 -26.5 -57.5t-58.5 -24.5t-51.5 19.5t-19.5 51.5 t25.5 58.5t58.5 26.5t52.5 -20.5t19.5 -53.5z" glyph-name="uni1EE5" horiz-adv-x="1105" unicode="ụ"/><glyph d="M678 -25q-242 0 -377 120t-135 325q0 59 10 104l184 842h119l-184 -840q-12 -49 -12 -92q0 -158 103 -255t291 -97t292 112.5t153 331.5l185 840h118l-184 -842q-61 -270 -191 -409.5t-372 -139.5zM946 1679q53 0 92 -31.5t39 -97.5t-63 -123h-74q74 63 74 129 q0 33 -20.5 50.5t-49.5 17.5q-59 1 -94 -65l-49 26q49 94 145 94z" glyph-name="uni1EE6" horiz-adv-x="1404" unicode="Ủ"/><glyph d="M221 246q0 -88 59.5 -131t159.5 -43q170 0 336 174l166 743h107l-220 -989h-106l33 150q-178 -174 -357 -175q-131 0 -209.5 62.5t-78.5 179.5q0 39 12 84l151 688h107l-148 -670q-12 -61 -12 -73zM717 1331q53 0 92 -31.5t39 -97.5t-64 -123h-73q74 63 73 129 q0 33 -20.5 50.5t-48.5 17.5q-59 0 -94 -66l-50 27q49 94 146 94z" glyph-name="uni1EE7" horiz-adv-x="1105" unicode="ủ"/><glyph d="M1319 1776l-418 -295h-94l381 295h131zM1692 1524q0 -100 -86 -189.5t-220 -140.5l-145 -670q-61 -270 -191 -409.5t-372 -139.5t-377 120t-135 325q0 47 10 104l184 842h119l-184 -840q-12 -49 -12 -92q0 -158 103 -255t291 -97t292 112.5t153 331.5l185 840h118 l-22 -100q174 86 203 194h-15q-25 0 -43 19.5t-18 51.5t25.5 56.5t59.5 24.5t55.5 -23.5t21.5 -64.5z" glyph-name="uni1EE8" horiz-adv-x="1404" unicode="Ứ"/><glyph d="M1090 1434l-418 -295h-94l380 295h132zM1288 1120q0 -98 -79 -184t-203 -137l-177 -799h-106l33 150q-178 -174 -357 -175q-131 0 -209.5 62.5t-78.5 179.5q0 39 12 84l149 688h109l-150 -670q-10 -51 -10 -73q0 -88 59.5 -131t159.5 -43q172 0 336 172l166 745h107 l-27 -117q154 78 180 185h-12q-25 0 -43.5 19.5t-18.5 49.5t25 56t59 26t55 -23.5t21 -64.5z" glyph-name="uni1EE9" horiz-adv-x="1105" unicode="ứ"/><glyph d="M1030 1481h-90l-287 295h127zM1692 1524q0 -100 -86 -189.5t-220 -140.5l-145 -670q-61 -270 -191 -409.5t-372 -139.5t-377 120t-135 325q0 47 10 104l184 842h119l-184 -840q-12 -49 -12 -92q0 -158 103 -255t291 -97t292 112.5t153 331.5l185 840h118l-22 -100 q174 86 203 194h-15q-25 0 -43 19.5t-18 51.5t25.5 56.5t59.5 24.5t55.5 -23.5t21.5 -64.5z" glyph-name="uni1EEA" horiz-adv-x="1404" unicode="Ừ"/><glyph d="M807 1139h-90l-287 295h127zM1288 1120q0 -98 -79 -184t-203 -137l-177 -799h-106l33 150q-178 -174 -357 -175q-131 0 -209.5 62.5t-78.5 179.5q0 39 12 84l149 688h109l-150 -670q-10 -51 -10 -73q0 -88 59.5 -131t159.5 -43q172 0 336 172l166 745h107l-27 -117 q154 78 180 185h-12q-25 0 -43.5 19.5t-18.5 49.5t25 56t59 26t55 -23.5t21 -64.5z" glyph-name="uni1EEB" horiz-adv-x="1105" unicode="ừ"/><glyph d="M946 1679q53 0 92 -31.5t39 -97.5t-63 -123h-74q74 63 74 129q0 33 -20.5 50.5t-49.5 17.5q-59 1 -94 -65l-49 26q49 94 145 94zM1692 1524q0 -100 -86 -189.5t-220 -140.5l-145 -670q-61 -270 -191 -409.5t-372 -139.5t-377 120t-135 325q0 47 10 104l184 842h119 l-184 -840q-12 -49 -12 -92q0 -158 103 -255t291 -97t292 112.5t153 331.5l185 840h118l-22 -100q174 86 203 194h-15q-25 0 -43 19.5t-18 51.5t25.5 56.5t59.5 24.5t55.5 -23.5t21.5 -64.5z" glyph-name="uni1EEC" horiz-adv-x="1404" unicode="Ử"/><glyph d="M717 1331q53 0 92 -31.5t39 -97.5t-64 -123h-73q74 63 73 129q0 33 -20.5 50.5t-48.5 17.5q-59 0 -94 -66l-50 27q49 94 146 94zM1288 1120q0 -98 -79 -184t-203 -137l-177 -799h-106l33 150q-178 -174 -357 -175q-131 0 -209.5 62.5t-78.5 179.5q0 39 12 84l149 688h109 l-150 -670q-10 -51 -10 -73q0 -88 59.5 -131t159.5 -43q172 0 336 172l166 745h107l-27 -117q154 78 180 185h-12q-25 0 -43.5 19.5t-18.5 49.5t25 56t59 26t55 -23.5t21 -64.5z" glyph-name="uni1EED" horiz-adv-x="1105" unicode="ử"/><glyph d="M1692 1524q0 -100 -86 -189.5t-220 -140.5l-145 -670q-61 -270 -191 -409.5t-372 -139.5t-377 120t-135 325q0 47 10 104l184 842h119l-184 -840q-12 -49 -12 -92q0 -158 103 -255t291 -97t292 112.5t153 331.5l185 840h118l-22 -100q174 86 203 194h-15q-25 0 -43 19.5 t-18 51.5t25.5 56.5t59.5 24.5t55.5 -23.5t21.5 -64.5zM1063 1477q-51 0 -85 32.5t-47 72.5t-40 73t-68 33q-94 0 -141 -199h-74q25 123 83.5 198.5t146.5 75.5q51 0 84.5 -32.5t48 -71.5t41 -72t65.5 -33q94 0 142 197h75q-27 -123 -85 -198.5t-146 -75.5z" glyph-name="uni1EEE" horiz-adv-x="1404" unicode="Ữ"/><glyph d="M1288 1120q0 -98 -79 -184t-203 -137l-177 -799h-106l33 150q-178 -174 -357 -175q-131 0 -209.5 62.5t-78.5 179.5q0 39 12 84l149 688h109l-150 -670q-10 -51 -10 -73q0 -88 59.5 -131t159.5 -43q172 0 336 172l166 745h107l-27 -117q154 78 180 185h-12 q-25 0 -43.5 19.5t-18.5 49.5t25 56t59 26t55 -23.5t21 -64.5zM836 1135q-51 0 -85 32.5t-47.5 72.5t-41 73t-66.5 33q-94 0 -141 -199h-74q25 123 83 198.5t146 75.5q51 0 85 -32.5t48.5 -71.5t41 -72t65.5 -33q94 0 141 197h76q-27 -123 -85 -198.5t-146 -75.5z" glyph-name="uni1EEF" horiz-adv-x="1105" unicode="ữ"/><glyph d="M606 -283q0 -33 -25.5 -57.5t-58.5 -24.5t-52 19.5t-19 51.5t25.5 58.5t58.5 26.5t52 -20.5t19 -53.5zM1692 1524q0 -100 -86 -189.5t-220 -140.5l-145 -670q-61 -270 -191 -409.5t-372 -139.5t-377 120t-135 325q0 47 10 104l184 842h119l-184 -840q-12 -49 -12 -92 q0 -158 103 -255t291 -97t292 112.5t153 331.5l185 840h118l-22 -100q174 86 203 194h-15q-25 0 -43 19.5t-18 51.5t25.5 56.5t59.5 24.5t55.5 -23.5t21.5 -64.5z" glyph-name="uni1EF0" horiz-adv-x="1404" unicode="Ự"/><glyph d="M455 -283q0 -33 -26.5 -57.5t-58.5 -24.5t-51.5 19.5t-19.5 51.5t25.5 58.5t58.5 26.5t52.5 -20.5t19.5 -53.5zM1288 1120q0 -98 -79 -184t-203 -137l-177 -799h-106l33 150q-178 -174 -357 -175q-131 0 -209.5 62.5t-78.5 179.5q0 39 12 84l149 688h109l-150 -670 q-10 -51 -10 -73q0 -88 59.5 -131t159.5 -43q172 0 336 172l166 745h107l-27 -117q154 78 180 185h-12q-25 0 -43.5 19.5t-18.5 49.5t25 56t59 26t55 -23.5t21 -64.5z" glyph-name="uni1EF1" horiz-adv-x="1105" unicode="ự"/><glyph d="M582 0h-119l129 584l-371 782h131l314 -672l608 672h151l-714 -782zM961 1481h-91l-286 295h127z" glyph-name="Ygrave" horiz-adv-x="1265" unicode="Ỳ"/><glyph d="M43 -297q80 0 156 113l116 178l-192 995h115l165 -864l551 864h125l-780 -1206q-117 -184 -276 -184q-66 0 -117 20l41 102q37 -18 96 -18zM741 1139h-90l-286 295h127z" glyph-name="ygrave" horiz-adv-x="985" unicode="ỳ"/><glyph glyph-name="uni2009" horiz-adv-x="106" unicode=" "/><glyph d="M1141 446h-1092l21 99h1091z" glyph-name="endash" horiz-adv-x="1214" unicode="–"/><glyph d="M1632 446h-1583l21 99h1583z" glyph-name="emdash" horiz-adv-x="1705" unicode="—"/><glyph d="M1141 446h-1092l21 99h1091z" glyph-name="afii00208" horiz-adv-x="1214" unicode="―"/><glyph d="M238 1087q0 84 62 169t149 130l49 -53q-57 -29 -101.5 -77t-58.5 -95h14q29 0 49.5 -21.5t20.5 -57.5t-28.5 -64.5t-67.5 -28.5t-63.5 25.5t-24.5 72.5z" glyph-name="quoteleft" horiz-adv-x="448" unicode="‘"/><glyph d="M496 1288q0 -84 -62.5 -169t-148.5 -130l-49 53q57 29 101 77t58 95h-14q-29 0 -49.5 21.5t-20.5 57.5t29 64.5t67.5 28.5t63.5 -25.5t25 -72.5z" glyph-name="quoteright" horiz-adv-x="448" unicode="’"/><glyph d="M223 61q0 -84 -62.5 -170t-148.5 -131l-49 56q57 29 101.5 77t58.5 95h-14q-29 0 -49.5 21t-20.5 57t28.5 65t67.5 29t63.5 -26t24.5 -73z" glyph-name="quotesinglbase" horiz-adv-x="448" unicode="‚"/><glyph d="M305 1200q0 92 39 139t82 47t66.5 -22t23.5 -58t-28 -62.5t-56 -26.5t-53 6q-8 -47 14.5 -106.5t63.5 -98.5l-58 -41q-94 92 -94 223z" glyph-name="quotereversed" horiz-adv-x="448" unicode="‛"/><glyph d="M547 1087q0 84 61.5 169t147.5 130l49 -53q-57 -31 -101.5 -78t-58.5 -94h14q29 0 50.5 -21.5t21.5 -57.5t-29.5 -64.5t-68.5 -28.5t-62.5 25.5t-23.5 72.5zM258 1087q0 84 61.5 169t147.5 130l51 -53q-57 -29 -101 -77t-59 -95h15q29 0 49 -21.5t20 -57.5t-29.5 -64.5 t-67.5 -28.5t-62.5 25.5t-24.5 72.5z" glyph-name="quotedblleft" horiz-adv-x="737" unicode="“"/><glyph d="M496 1288q0 -84 -62.5 -169t-148.5 -130l-49 53q57 29 101 77t58 95h-14q-29 0 -49.5 21.5t-20.5 57.5t29 64.5t67.5 28.5t63.5 -25.5t25 -72.5zM782 1288q0 -84 -61.5 -169t-147.5 -130l-49 53q57 29 101.5 77t58.5 95h-14q-29 0 -49.5 21.5t-20.5 57.5t28.5 64.5 t67.5 28.5t62.5 -25.5t23.5 -72.5z" glyph-name="quotedblright" horiz-adv-x="737" unicode="”"/><glyph d="M223 61q0 -84 -62.5 -170t-148.5 -131l-49 56q57 29 101.5 77t58.5 95h-14q-29 0 -49.5 21t-20.5 57t28.5 65t67.5 29t63.5 -26t24.5 -73zM510 61q0 -84 -62.5 -170t-146.5 -131l-49 56q57 31 101 78t59 94h-15q-29 0 -50 21t-21 57t29.5 65t68.5 29t62.5 -26t23.5 -73z " glyph-name="quotedblbase" horiz-adv-x="737" unicode="„"/><glyph d="M608 1096l-180 8l-88 -434h-80l105 434l-185 -8l17 71l180 -6l43 225h80l-60 -225l185 6z" glyph-name="dagger" horiz-adv-x="526" unicode="†"/><glyph d="M625 1167l-17 -71l-180 8l-100 -453l184 8l-16 -71l-181 6l-43 -225h-79l59 225l-184 -6l16 71l178 -8l103 453l-185 -8l17 71l180 -6l43 225h80l-60 -225z" glyph-name="daggerdbl" horiz-adv-x="526" unicode="‡"/><glyph d="M580 511q0 -87 -72 -155.5t-159 -68.5t-141 54t-54 141t70.5 156t158.5 69t142.5 -54.5t54.5 -141.5z" glyph-name="bullet" horiz-adv-x="733" unicode="•"/><glyph d="M124 -20q-38 0 -61.5 24t-23.5 62t28.5 66t66.5 28t61.5 -24.5t23.5 -61.5t-28.5 -65.5t-66.5 -28.5zM572 -20q-38 0 -61.5 25t-23.5 61t29 65t67 29t61.5 -24.5t23.5 -61.5t-29 -65.5t-67 -28.5zM1021 -20q-38 0 -61.5 25t-23.5 61t28.5 65t66.5 29t61.5 -24.5 t23.5 -61.5t-28.5 -65.5t-66.5 -28.5z" glyph-name="ellipsis" horiz-adv-x="1345" unicode="…"/><glyph d="M244 0h-92l1173 1366h94zM1021 -25q-136 0 -221 77t-85 198q0 172 106.5 284.5t242.5 112.5t221 -76.5t85 -197.5q0 -172 -106.5 -285t-242.5 -113zM1022 55q96 0 174 89t78 221q0 86 -57.5 144t-153.5 58t-174 -90t-78 -219q0 -88 57.5 -145.5t153.5 -57.5zM489 717 q-135 0 -220 75.5t-85 196.5q0 174 106 285.5t242 111.5t221 -76.5t85 -195.5q0 -174 -107 -285.5t-242 -111.5zM491 795q96 0 174 90t78 219q0 88 -58 145.5t-154 57.5t-174 -89.5t-78 -220.5q0 -88 58 -145t154 -57zM1731 -25q-136 0 -221 77t-85 198q0 172 106.5 284.5 t242.5 112.5t221.5 -76.5t85.5 -197.5q0 -172 -107 -285t-243 -113zM1732 55q96 0 174.5 89t78.5 221q0 86 -57.5 144t-153.5 58t-174 -90t-78 -219q0 -88 57 -145.5t153 -57.5z" glyph-name="perthousand" horiz-adv-x="2185" unicode="‰"/><glyph d="M414 129h-109l-246 369l410 362h125l-418 -373z" glyph-name="guilsinglleft" horiz-adv-x="567" unicode="‹"/><glyph d="M158 860h108l246 -368l-410 -363h-125l418 373z" glyph-name="guilsinglright" horiz-adv-x="567" unicode="›"/><glyph d="M893 1182h-741l16 75h741z" glyph-name="uni203E" horiz-adv-x="743" unicode="‾"/><glyph d="M807 1366l-1176 -1366h-92l1174 1366h94z" glyph-name="fraction" horiz-adv-x="266" unicode="⁄"/><glyph d="M471 848q-119 0 -190.5 87t-71.5 237t64.5 279.5t144.5 186t198 56.5t190.5 -86.5t72.5 -237.5t-64.5 -280t-144.5 -185.5t-199 -56.5zM784 1378q0 238 -186 238q-78 0 -139.5 -47t-108.5 -157.5t-47 -248.5q0 -238 186 -237q78 0 139.5 47t108.5 155t47 250z" glyph-name="uni2070" horiz-adv-x="786" unicode="⁰"/><glyph d="M813 1081h-123l-49 -219h-90l47 219h-401l14 72l485 528h125l-116 -524h122zM614 1157l97 432l-402 -432h305z" glyph-name="uni2074" horiz-adv-x="786" unicode="⁴"/><glyph d="M809 1138q0 -116 -90 -203t-227 -87q-217 0 -295 149l67 52q74 -123 228 -123q98 0 160.5 61.5t62.5 146.5t-54.5 127t-150.5 42t-178 -80l-64 26l97 432h507l-16 -77h-416l-65 -297q78 67 182 67t178 -60t74 -176z" glyph-name="uni2075" horiz-adv-x="786" unicode="⁵"/><glyph d="M821 1144q0 -114 -84 -205t-227 -91t-217 80t-74 213q0 223 116 388t288 165q82 0 151.5 -28t102.5 -75l-60 -63q-53 88 -196 88q-94 0 -168 -76t-105 -155.5t-31 -131.5v-10q113 133 248 133q109 0 182.5 -59t73.5 -173zM727 1136q0 81 -53 122.5t-142 41.5 q-115 0 -221 -131q-4 -10 -4 -45q0 -92 55.5 -145t150.5 -53t154.5 64.5t59.5 145.5z" glyph-name="uni2076" horiz-adv-x="786" unicode="⁶"/><glyph d="M872 1618l-522 -756h-102l516 742h-467l16 77h574z" glyph-name="uni2077" horiz-adv-x="735" unicode="⁷"/><glyph d="M801 1079q0 -100 -86 -165.5t-216 -65.5t-216 57.5t-86 151.5t74.5 158.5t189.5 76.5q-160 58 -160 170t86 172t200 60t202 -52.5t88 -142.5t-61.5 -149.5t-182.5 -75.5q72 -27 120 -77t48 -118zM784 1473q0 74 -55 109.5t-139 35.5t-141.5 -42t-57.5 -106t56.5 -103.5 t109.5 -51.5q86 6 156.5 45t70.5 113zM709 1074q0 62 -46.5 106.5t-121.5 68.5q-115 -8 -183.5 -57.5t-68.5 -117.5t61.5 -110t145.5 -42t148.5 45t64.5 107z" glyph-name="uni2078" horiz-adv-x="786" unicode="⁸"/><glyph d="M270 1400q0 114 84 205t227.5 91t216 -80t72.5 -215q0 -221 -114.5 -386t-290.5 -165t-252 102l61 64q53 -88 195 -88q94 0 168 75.5t104.5 156.5t30.5 132v8q-113 -133 -248 -133q-109 0 -181.5 59.5t-72.5 173.5zM362 1408q0 -81 54.5 -123t142.5 -42q113 0 219 131 q4 10 4 45q0 92 -54 145.5t-150 53.5t-156 -64.5t-60 -145.5z" glyph-name="uni2079" horiz-adv-x="786" unicode="⁹"/><glyph d="M201 1079q0 399 319 736l45 -25q-274 -381 -274 -741q0 -164 47 -295l-57 -25q-80 152 -80 350z" glyph-name="uni207D" horiz-adv-x="303" unicode="⁽"/><glyph d="M471 1464q0 -401 -317 -735l-48 25q274 381 275 741q0 164 -47 295l59 25q78 -152 78 -351z" glyph-name="uni207E" horiz-adv-x="303" unicode="⁾"/><glyph d="M717 1139q0 55 -37 84.5t-100 29.5q-106 0 -224 -112l-102 -473h-88l141 643h88l-20 -97q104 113 235 113q94 0 145.5 -45t51.5 -123q0 -27 -6 -57l-96 -434h-89l95 424q6 31 6 47z" glyph-name="uni207F" horiz-adv-x="802" unicode="ⁿ"/><glyph d="M234 -313q-118 0 -190.5 87.5t-72.5 237.5t64.5 279t144.5 185t198 56t190.5 -86t72.5 -238t-64.5 -280.5t-144.5 -184.5t-198 -56zM547 217q0 238 -187 238q-78 0 -139 -47.5t-108 -155.5t-47 -250q0 -238 186 -238q78 0 139.5 47.5t108.5 157t47 248.5z" glyph-name="uni2080" horiz-adv-x="786" unicode="₀"/><glyph d="M139 -299h-94l152 690l-158 -135l-45 61l244 203h81z" glyph-name="uni2081" horiz-adv-x="438" unicode="₁"/><glyph d="M543 324q0 60 -55.5 95.5t-131.5 35.5q-145 0 -231 -97l-47 62q109 113 278 112q113 0 197 -53t84 -162q0 -160 -192 -300t-359 -238h436l-16 -78h-576l19 80q387 234 490.5 337.5t103.5 205.5z" glyph-name="uni2082" horiz-adv-x="786" unicode="₂"/><glyph d="M561 -63q0 -98 -81 -174t-212 -76q-225 0 -311 147l66 51q78 -121 243 -121q92 0 146.5 52t54.5 122t-59.5 108t-129.5 38t-81 -2l16 80q61 -4 137 -4t132.5 42t56.5 110t-58.5 106.5t-142.5 38.5q-121 0 -223 -90l-41 59q121 108 256 108t218 -53t83 -148t-64.5 -152.5 t-165.5 -65.5q63 -12 111.5 -60t48.5 -116z" glyph-name="uni2083" horiz-adv-x="786" unicode="₃"/><glyph d="M575 -80h-122l-50 -219h-90l47 219h-401l14 72l486 528h125l-117 -524h123zM377 -4l96 432l-401 -432h305z" glyph-name="uni2084" horiz-adv-x="786" unicode="₄"/><glyph d="M477 -28q-1 168 -205 169q-96 0 -178 -80l-63 27l96 432h508l-17 -78h-415l-66 -297q79 68 183 68t177.5 -59.5t73.5 -175.5t-90 -203.5t-227 -87.5q-217 0 -295 149l68 51q74 -123 227 -123q98 0 160.5 61t62.5 147z" glyph-name="uni2085" horiz-adv-x="786" unicode="₅"/><glyph d="M584 -16q0 -114 -84 -205.5t-227.5 -91.5t-217 79.5t-73.5 213.5q0 223 115.5 387.5t287.5 164.5q82 0 151.5 -27.5t102.5 -74.5l-59 -63q-53 88 -197 88q-94 0 -168 -76t-104.5 -156t-30.5 -131v-10q113 133 248 133q109 0 182.5 -58.5t73.5 -172.5zM489 -25 q0 81 -53 122.5t-141 41.5q-115 0 -221 -131q-4 -10 -4 -45q0 -92 55 -145.5t150 -53.5t154.5 65t59.5 146z" glyph-name="uni2086" horiz-adv-x="786" unicode="₆"/><glyph d="M635 457l-522 -756h-103l516 741h-467l17 78h573z" glyph-name="uni2087" horiz-adv-x="735" unicode="₇"/><glyph d="M563 -82q0 -100 -86 -165.5t-216 -65.5t-216 57.5t-86 151.5t75 158.5t189 76.5q-160 59 -160 171t86.5 171t200.5 59t201.5 -52t87.5 -142t-61.5 -149.5t-182.5 -75.5q72 -27 120 -77t48 -118zM547 311q0 74 -55.5 110t-139.5 36t-141 -42.5t-57 -106.5t56 -103t109 -51 q86 6 157 44.5t71 112.5zM471 -86q0 62 -46 105.5t-122 68.5q-115 -8 -183.5 -57t-68.5 -117t61.5 -111t145.5 -43t148.5 46t64.5 108z" glyph-name="uni2088" horiz-adv-x="786" unicode="₈"/><glyph d="M33 238q0 114 84 205.5t227 91.5t216 -80t73 -215q0 -221 -115 -386t-291 -165t-252 102l62 64q53 -88 194 -88q94 0 168 75.5t105 156.5t31 132v8q-113 -133 -248 -133q-109 0 -181.5 59t-72.5 173zM125 247q0 -81 54 -123t143 -42q113 0 219 131q4 10 4 45 q0 92 -54.5 145.5t-150.5 53.5t-155.5 -64.5t-59.5 -145.5z" glyph-name="uni2089" horiz-adv-x="786" unicode="₉"/><glyph d="M-55 -82q0 399 319 735l45 -24q-274 -381 -274 -742q0 -164 47 -295l-57 -24q-80 150 -80 350z" glyph-name="uni208D" horiz-adv-x="303" unicode="₍"/><glyph d="M215 303q0 -401 -317 -735l-48 24q274 381 275 742q0 164 -47 295l59 24q78 -152 78 -350z" glyph-name="uni208E" horiz-adv-x="303" unicode="₎"/><glyph d="M758 -25q-39 0 -109 9l-106 -189h-86l112 205q-76 16 -151 61l-150 -266h-88l174 309q-211 166 -211 463q0 180 64.5 337t171 261.5t243 164t279.5 59.5q80 0 158 -17l112 201h89l-125 -223q78 -27 145 -76l166 299h88l-195 -348q55 -51 99 -129l-113 -52q-29 49 -47 70 l-571 -1030q18 -2 57 -2q209 0 385 156l84 -70q-201 -193 -475 -193zM270 571q0 -227 142 -362l592 1063q-43 10 -111 10q-246 0 -434.5 -199t-188.5 -512zM471 160q66 -41 154 -64l598 1075q-63 51 -144 80z" glyph-name="colonmonetary" horiz-adv-x="1380" unicode="₡"/><glyph d="M199 0h-117l68 305h-173l19 78h170l217 983h866l-22 -106h-750l-110 -506h733l-25 -107h-733l-59 -264h454l-18 -78h-453z" glyph-name="franc" horiz-adv-x="1132" unicode="₣"/><glyph d="M682 1386q137 0 251 -65.5t144 -165.5l-108 -49q-20 78 -99 128t-184 50q-147 0 -252.5 -94t-105.5 -248q0 -96 63 -197h393l-18 -79h-326q47 -80 47 -158h244l-16 -78h-240q-25 -82 -90.5 -156.5t-136.5 -119.5q56 16 112 16t162.5 -45t165.5 -45q109 0 197 84l33 -96 q-116 -96 -222 -96t-224 48t-210 48t-235 -82l-25 98q137 53 237.5 147.5t127.5 198.5h-344l16 78h336q-4 72 -58 158h-243l18 79h174q-66 109 -65 201q0 172 141 306t340 134z" glyph-name="lira" horiz-adv-x="1034" unicode="₤"/><glyph d="M1174 0h-115l-252 504h-498l-110 -504h-117l111 504h-170l18 78h168l49 217h-168l14 78h170l109 489h119l248 -489h497l111 489h117l-109 -489h166l-14 -78h-168l-50 -217h168l-18 -78h-166zM788 799l109 -217h285l49 217h-443zM375 799l-47 -217h440l-109 217h-284z M463 1192l-70 -315h228zM938 504l158 -311l69 311h-227z" glyph-name="uni20A6" horiz-adv-x="1478" unicode="₦"/><glyph d="M872 1366q147 0 248 -101.5t101 -240.5v-16h157l-18 -82h-150q-33 -154 -156.5 -256.5t-338.5 -102.5h-389l-125 -567h-119l203 926h-168l18 82h168l80 358h489zM727 674q145 0 237.5 69.5t118.5 182.5h-680l-55 -252h379zM1096 1008v8q0 98 -73 171t-179 73h-367 l-55 -252h674z" glyph-name="peseta" horiz-adv-x="1277" unicode="₧"/><glyph d="M1511 -25q-272 0 -397 175l76 73q41 -66 127.5 -111.5t200.5 -45.5t186 60t72 130t-54.5 115t-132.5 74.5t-155.5 61.5t-132 86t-54.5 128q0 125 97.5 209t263.5 84q121 0 219 -47t141 -115l-70 -70q-33 59 -117.5 100.5t-188.5 41.5t-170 -51t-66 -117t54 -107 t132 -69.5t156 -61.5t132 -90t54 -135q0 -131 -100.5 -224.5t-272.5 -93.5zM829 1366q147 0 259 -94t112 -250q0 -193 -128 -318.5t-339 -134.5l268 -569h-133l-258 565h-309l-125 -565h-117l301 1366h469zM707 672q172 0 269 99t97 245q0 104 -77.5 174t-180.5 70h-360 l-129 -588h381z" glyph-name="uni20A8" horiz-adv-x="2039" unicode="₨"/><glyph d="M1237 0h-131l-31 504h-373l-251 -504h-132l-32 504h-238l17 78h215l-15 217h-151l16 78h131l-33 489h129l25 -489h393l246 489h106l29 -489h393l242 489h135l-248 -489h125l-14 -78h-150l-110 -217h211l-19 -78h-231zM1161 799l13 -217h231l106 217h-350zM387 799 l10 -217h232l108 217h-350zM850 799l-109 -217h330l-12 217h-209zM1178 504l20 -340l168 340h-188zM401 504l19 -340l170 340h-189zM1036 1174l-147 -297h164z" glyph-name="uni20A9" horiz-adv-x="1775" unicode="₩"/><glyph d="M1006 0h-547l178 805h106l-155 -707h424q150 0 236.5 82t121.5 254l154 692h108l-155 -696q-49 -221 -155.5 -325.5t-315.5 -104.5zM723 1126q176 0 296 -84t120 -260q0 -51 -17 -129l-71 -334h-109l76 343q12 49 12 100q0 131 -86 198.5t-223 67.5h-332l-227 -1028h-107 l248 1126h420z" glyph-name="afii57636" horiz-adv-x="1658" unicode="₪"/><glyph d="M807 -268h-741l16 75h741zM612 1014q117 0 210 -52.5t147 -140.5l61 281h-362l14 76h365l40 188h109l-43 -188h113l-15 -76h-114l-244 -1102h-109l35 150q-137 -174 -325 -174t-295 108.5t-107 296.5q0 258 145.5 445.5t374.5 187.5zM621 918q-180 0 -296 -157t-116 -362 q0 -152 81.5 -239.5t199.5 -87.5t209.5 54t144.5 136l104 475q-39 78 -125.5 129.5t-201.5 51.5z" glyph-name="dong" horiz-adv-x="1175" unicode="₫"/><glyph d="M810 -25q-263 0 -431 142.5t-191 378.5h-118l18 84h96q0 102 27 208h-76l19 84h82q86 236 282.5 376.5t423.5 140.5q180 0 319.5 -76t217.5 -217l-113 -52q-131 238 -432 238q-176 0 -333 -110.5t-234 -299.5h692l-21 -84h-700q-27 -106 -27 -208h682l-18 -84h-660 q23 -190 154 -302t338 -112t383 156l84 -70q-201 -193 -464 -193z" glyph-name="Euro" horiz-adv-x="1413" unicode="€"/><glyph d="M895 1162q0 56 -63.5 99.5t-159.5 43.5t-173 -66.5t-106 -189.5l-71 -326l362 211q74 43 108.5 66.5t68.5 64.5t34 97zM201 150q0 -32 25.5 -57t81.5 -25t100 38l20 -83q-59 -47 -144 -47t-139.5 39.5t-54.5 111.5q0 33 6 66l193 864q33 158 135 243.5t248 85.5 t236.5 -64.5t90.5 -164.5t-84.5 -168t-205.5 -139l-412 -242l-90 -401q-6 -25 -6 -57z" glyph-name="afii61289" horiz-adv-x="929" unicode="ℓ"/><glyph d="M1926 717q-144 0 -225 79.5t-81 223.5t107 258.5t251 114.5t225 -79.5t81 -223.5t-107 -258.5t-251 -114.5zM1932 793q106 0 183.5 93.5t77.5 201.5t-58.5 167.5t-164.5 59.5t-182 -91.5t-76 -201.5t57 -169.5t163 -59.5zM1151 0h-115l-596 1192l-264 -1192h-117 l301 1366h119l594 -1173l262 1173h117z" glyph-name="afii61352" horiz-adv-x="2260" unicode="№"/><glyph d="M1544 684q0 -291 -208 -499t-500 -208t-498.5 207t-206.5 500t207 500t499 207t499.5 -208t207.5 -499zM1487 684q0 266 -191.5 457.5t-458.5 191.5t-458 -190.5t-191 -458.5t190 -458.5t458 -190.5t459.5 191.5t191.5 457.5zM1206 880q0 -104 -84 -177.5t-209 -73.5 h-251l-78 -361h-68l182 830h263q106 0 175.5 -57t69.5 -161zM1139 877q0 76 -52.5 115.5t-136.5 39.5h-198l-74 -338h248q96 0 154.5 53.5t58.5 129.5z" glyph-name="uni2117" horiz-adv-x="1593" unicode="℗"/><glyph d="M991 915h-57l82 373l-236 -373h-16l-72 373l-82 -373h-57l98 451h86l60 -328l202 328h91zM506 1036q0 -56 -47 -96.5t-127 -40.5q-141 0 -197 82l45 39q47 -68 148 -68q49 0 77.5 22.5t28.5 56.5t-37 57.5t-80 38t-79.5 43t-36.5 78.5t48 90t124 40q129 0 176 -71 l-47 -35q-41 57 -133 57q-45 0 -72 -22.5t-27 -53t37 -53t81 -35t81 -43t37 -86.5z" glyph-name="uni2120" horiz-adv-x="974" unicode="℠"/><glyph d="M950 915h-57l82 373l-236 -373h-16l-72 373l-82 -373h-57l98 451h88l60 -328l203 328h88zM526 1313h-127l-88 -398h-57l88 398h-127l10 53h312z" glyph-name="trademark" horiz-adv-x="929" unicode="™"/><glyph d="M145 592q0 207 92.5 388t267.5 295t390 114q274 0 441 -160t167 -421t-127 -435t-319 -267h264l-21 -106h-466l22 106q219 45 369.5 235.5t150.5 431.5t-133 374t-350 133q-270 0 -449.5 -208t-179.5 -501q0 -166 76 -283.5t195 -181.5l-23 -106h-465l23 106h321 q-246 180 -246 486z" glyph-name="uni2126" horiz-adv-x="1564" unicode="Ω"/><glyph d="M403 664q-8 0 -8 -11v-389q0 -31 19 -47q200 -211 500 -211t503 236h117q-111 -129 -276.5 -204t-356.5 -75q-330 0 -564.5 211t-234.5 508t234.5 508t564.5 211t564.5 -211t234.5 -508l-2 -18h-1295zM1407 715v391q0 29 -21 49q-199 203 -483.5 203t-486.5 -209 q-20 -20 -21 -49v-385q0 -12 11 -13h993q8 1 8 13z" glyph-name="estimated" horiz-adv-x="1724" unicode="℮"/><glyph d="M326 547h-95l152 690l-158 -135l-45 61l244 203h82zM1354 1366l-1176 -1366h-92l1174 1366h94zM1440 236q0 -98 -81 -174t-212 -76q-225 0 -311 147l65 51q78 -121 244 -121q92 0 146.5 52.5t54.5 122.5t-59 107.5t-129 37.5t-83 -2l17 80q60 -4 136 -4t132.5 42 t56.5 110t-58.5 106.5t-141.5 38.5q-121 0 -224 -90l-41 59q120 109 256 109t218.5 -53.5t82.5 -148.5t-64.5 -152.5t-164.5 -65.5q63 -12 111.5 -60t48.5 -116z" glyph-name="onethird" horiz-adv-x="1599" unicode="⅓"/><glyph d="M729 1170q0 60 -55.5 95t-130.5 35q-145 0 -232 -96l-47 62q109 113 279 112q113 0 196.5 -53t83.5 -162q0 -160 -189.5 -298.5t-361.5 -239.5h437l-17 -78h-575l18 80q393 238 493.5 339.5t100.5 203.5zM1593 1366l-1175 -1366h-92l1173 1366h94zM1679 236 q0 -98 -80.5 -174t-212.5 -76q-225 0 -311 147l66 51q78 -121 243 -121q92 0 146.5 52.5t54.5 122.5t-59.5 107.5t-129.5 37.5t-81 -2l16 80q61 -4 137 -4t132.5 42t56.5 110t-58.5 106.5t-142.5 38.5q-121 0 -223 -90l-41 59q121 109 256 109t218 -53.5t83 -148.5 t-64.5 -152.5t-164.5 -65.5q63 -12 111 -60t48 -116z" glyph-name="twothirds" horiz-adv-x="1839" unicode="⅔"/></font>
</defs>
</svg>
