<?xml version="1.0" standalone="no"?>
<!DOCTYPE svg PUBLIC "-//W3C//DTD SVG 1.1//EN" "http://www.w3.org/Graphics/SVG/1.1/DTD/svg11.dtd">
<svg xmlns="http://www.w3.org/2000/svg"><metadata>This SVG WebFont was generated by YouWorkForThem.
Copyright (c) Mark Simonson, 2005. All rights reserved.</metadata><defs><font horiz-adv-x="1185" id="ywftsvg"><font-face ascent="1618" bbox="-463 -578 2370 1841" cap-height="1366" descent="-430" font-family="" font-stretch="normal" font-weight="700" panose-1="2 0 5 6 3 0 0 2 0 4" underline-position="0" underline-thickness="0" unicode-range="U+000D-FB04" units-per-em="2048" x-height="989"/><missing-glyph d="M895 -184h-719v1724h719v-1724zM829 -123v1602h-589v-1602h589z" horiz-adv-x="989"/><glyph d="M1340 1386q138 0 225 -55l-90 -176q-35 27 -95 27q-113 0 -143 -140l-12 -53h202l-51 -227h-200l-168 -762h-263l170 762h-163l49 227h164l12 53q37 162 131 253t232 91zM1220 -401q-173 0 -264 84l109 186q45 -57 129 -57q121 0 158 161l227 1016h260l-227 -1016 q-39 -180 -129 -277t-263 -97zM1750 1096q-62 0 -102 39t-40 107t54 115.5t118 47.5t103.5 -38.5t39.5 -106.5t-55.5 -116t-117.5 -48zM692 1386q162 0 256 -96l-129 -151q-43 43 -110 43q-111 0 -142 -142l-12 -51h203l-51 -225h-201l-168 -764h-260l168 764h-164l51 225 h162l12 55q35 154 129 248t256 94z" glyph-name="uniE004" horiz-adv-x="1857" unicode="ffj"/><glyph d="M670 1386q138 0 225 -55l-90 -176q-35 27 -94 27q-113 0 -144 -140l-12 -53h203l-51 -227h-201l-168 -762h-262l170 762h-164l49 227h164l12 53q37 162 131 253t232 91zM548 -401q-173 0 -263 84l108 186q45 -57 129 -57q121 0 158 161l227 1016h260l-227 -1016 q-39 -180 -129 -277t-263 -97zM1078 1096q-62 0 -102 39t-40 107t54 115.5t118 47.5t103.5 -38.5t39.5 -106.5t-55.5 -116t-117.5 -48z" glyph-name="uniE005" horiz-adv-x="1187" unicode="fj"/><glyph d="M692 1386q162 0 256 -96l-129 -151q-43 43 -110 43q-111 0 -142 -142l-12 -51h203l-51 -225h-201l-168 -764h-260l168 764h-164l51 225h162l12 55q35 154 129 248t256 94zM1362 1386q162 0 256 -96l-129 -151q-43 43 -111 43q-111 0 -141 -142l-12 -51h202l-51 -225h-200 l-168 -764h-260l167 764h-163l51 225h162l12 55q35 154 129 248t256 94z" glyph-name="uniFB00" horiz-adv-x="1341" unicode="ff"/><glyph d="M670 1386q138 0 225 -55l-90 -176q-35 27 -94 27q-113 0 -144 -140l-12 -53h203l-51 -227h-201l-168 -762h-262l170 762h-164l49 227h164l12 53q37 162 131 253t232 91zM1078 1096q-62 0 -102 39t-40 107t54 115.5t118 47.5t103.5 -38.5t39.5 -106.5t-55.5 -116 t-117.5 -48zM948 0h-260l219 989h260z" glyph-name="uniFB01" horiz-adv-x="1187" unicode="fi"/><glyph d="M670 1386q138 0 225 -55l-90 -176q-35 27 -94 27q-113 0 -144 -140l-12 -53h203l-51 -227h-201l-168 -762h-262l170 762h-164l49 227h164l12 53q37 162 131 253t232 91zM948 0h-260l301 1366h260z" glyph-name="uniFB02" horiz-adv-x="1187" unicode="fl"/><glyph d="M1340 1386q138 0 225 -55l-90 -176q-35 27 -95 27q-113 0 -143 -140l-12 -53h202l-51 -227h-200l-168 -762h-263l170 762h-163l49 227h164l12 53q37 162 131 253t232 91zM1750 1096q-62 0 -102 39t-40 107t54 115.5t118 47.5t103.5 -38.5t39.5 -106.5t-55.5 -116 t-117.5 -48zM1620 0h-260l219 989h260zM692 1386q162 0 256 -96l-129 -151q-43 43 -110 43q-111 0 -142 -142l-12 -51h203l-51 -225h-201l-168 -764h-260l168 764h-164l51 225h162l12 55q35 154 129 248t256 94z" glyph-name="uniFB03" horiz-adv-x="1857" unicode="ffi"/><glyph d="M1340 1386q138 0 225 -55l-90 -176q-35 27 -95 27q-113 0 -143 -140l-12 -53h202l-51 -227h-200l-168 -762h-263l170 762h-163l49 227h164l12 53q37 162 131 253t232 91zM1620 0h-260l301 1366h260zM692 1386q162 0 256 -96l-129 -151q-43 43 -110 43q-111 0 -142 -142 l-12 -51h203l-51 -225h-201l-168 -764h-260l168 764h-164l51 225h162l12 55q35 154 129 248t256 94z" glyph-name="uniFB04" horiz-adv-x="1857" unicode="ffl"/><glyph d="M670 1386q138 0 225 -55l-90 -176q-35 27 -94 27q-113 0 -144 -140l-12 -53h203l-51 -227h-201l-168 -762h-262l170 762h-164l49 227h164l12 53q37 162 131 253t232 91zM1292 -25q-211 0 -315 156l-29 -131h-260l301 1366h260l-110 -500q127 148 298 148t273 -108 t102 -282t-58 -315t-180 -237.5t-282 -96.5zM1249 207q127 0 209 101.5t82 223.5t-61.5 186t-157.5 64q-131 0 -227 -118l-76 -345q73 -112 231 -112z" glyph-name="f_b.liga" horiz-adv-x="1867" unicode="fb"/><glyph d="M670 1386q138 0 225 -55l-90 -176q-35 27 -94 27q-113 0 -144 -140l-12 -53h203l-51 -227h-201l-168 -762h-262l170 762h-164l49 227h164l12 53q37 162 131 253t232 91zM1497 655q0 127 -170 127q-115 0 -231 -116l-148 -666h-260l301 1366h260l-110 -506 q158 154 329 154q141 0 225.5 -68.5t84.5 -183.5q0 -31 -11 -82l-149 -680h-260l129 594q10 41 10 61z" glyph-name="f_h.liga" horiz-adv-x="1857" unicode="fh"/><glyph d="M670 1386q138 0 225 -55l-90 -176q-35 27 -94 27q-113 0 -144 -140l-12 -53h203l-51 -227h-201l-168 -762h-262l170 762h-164l49 227h164l12 53q37 162 131 253t232 91zM1655 0h-316l-182 387l-153 -133l-56 -254h-260l301 1366h260l-178 -801l459 424h332l-492 -448z " glyph-name="f_k.liga" horiz-adv-x="1767" unicode="fk"/><glyph d="M895 -184h-719v1724h719v-1724zM829 -123v1602h-589v-1602h589z" glyph-name=".notdef" horiz-adv-x="989"/><glyph glyph-name="glyph1" horiz-adv-x="0"/><glyph glyph-name="glyph1" horiz-adv-x="0"/><glyph glyph-name="glyph2" horiz-adv-x="681"/><glyph glyph-name="space" horiz-adv-x="524" unicode=" "/><glyph d="M362 444h-229l162 922h313zM174 -25q-68 0 -113 45.5t-45 113.5t55 121.5t123 53.5t111 -45.5t43 -113.5t-53 -121.5t-121 -53.5z" glyph-name="exclam" horiz-adv-x="524" unicode="!"/><glyph d="M404 1386q60 0 96.5 -36.5t36.5 -92.5q0 -18 -15 -61l-176 -428h-115q16 412 19 453q0 70 47 117.5t107 47.5zM776 1386q59 0 96 -37t37 -81t-14 -72l-176 -428h-115q16 412 19 453q2 72 48 118.5t105 46.5z" glyph-name="quotedbl" horiz-adv-x="831" unicode="&quot;"/><glyph d="M584 0h-195l195 346h-195l-192 -346h-193l195 346h-199l90 166h199l188 340h-198l86 164h204l193 350h192l-192 -350h192l193 350h194l-196 -350h201l-86 -164h-205l-189 -340h207l-88 -166h-211zM674 512l188 340h-192l-187 -340h191z" glyph-name="numbersign" horiz-adv-x="1265" unicode="#"/><glyph d="M733 1386h8l41 187h195l-47 -209q217 -51 346 -199l-180 -204q-84 96 -224 143l-65 -291q156 -60 231.5 -117t105.5 -117.5t30 -136.5q0 -197 -146.5 -332t-392.5 -135h-14l-39 -180h-195l45 201q-283 57 -416 233l181 213q104 -139 292 -190l72 321q-146 57 -254 136 t-108 245t146.5 299t387.5 133zM862 385q0 66 -125 121l-59 -277q90 6 137 52.5t47 103.5zM506 993q0 -57 123 -112l55 254q-76 -2 -127 -43.5t-51 -98.5z" glyph-name="dollar" horiz-adv-x="1257" unicode="$"/><glyph d="M309 0h-153l1173 1366h156zM1094 -25q-146 0 -242 79t-96 206q0 174 112 285.5t258 111.5t242 -78.5t96 -205.5q0 -174 -112 -286t-258 -112zM1098 135q70 0 125 61.5t55 159.5q0 59 -42 99.5t-113 40.5t-125 -61.5t-54 -140.5t42 -119t112 -40zM506 707 q-146 0 -242 77.5t-96 204.5q0 174 111 285.5t257 111.5t241 -77.5t95 -204.5q0 -174 -110 -285.5t-256 -111.5zM508 866q72 0 126 61t54 139t-42 118.5t-114 40.5t-126 -61.5t-54 -139.5t42 -118t114 -40z" glyph-name="percent" horiz-adv-x="1550" unicode="%"/><glyph d="M10 336q0 180 104.5 282.5t286.5 169.5q-35 115 -34 216q0 162 120.5 272t282.5 110t265.5 -73.5t103.5 -203.5t-83 -217t-341 -177q81 -160 170 -305q113 123 184 249l186 -116q-131 -186 -260 -310q72 -110 164 -233h-309l-57 76q-171 -100 -355 -100t-306 90t-122 270 zM295 367q0 -90 57.5 -138.5t143.5 -48.5t184 60q-127 184 -213 376q-172 -94 -172 -249zM905 1073q0 125 -119 125q-56 0 -106.5 -51t-50.5 -127t22 -150q125 43 189.5 90.5t64.5 112.5z" glyph-name="ampersand" horiz-adv-x="1323" unicode="&amp;"/><glyph d="M404 1386q60 0 96.5 -36.5t36.5 -92.5q0 -18 -15 -61l-176 -428h-115q16 412 19 453q0 70 47 117.5t107 47.5z" glyph-name="quotesingle" horiz-adv-x="460" unicode="'"/><glyph d="M47 219q0 319 149.5 633.5t409.5 550.5l137 -139q-422 -508 -421 -1117q-1 -213 77 -446l-188 -109q-164 244 -164 627z" glyph-name="parenleft" horiz-adv-x="608" unicode="("/><glyph d="M559 776q0 -319 -150.5 -633.5t-410.5 -550.5l-135 140q422 508 422 1114q0 215 -78 448l188 109q164 -250 164 -627z" glyph-name="parenright" horiz-adv-x="608" unicode=")"/><glyph d="M479 750h-133l64 233l-217 -98l-37 116l219 78l-174 123l88 103l162 -140l38 221h132l-64 -231l217 98l37 -118l-217 -80l174 -121l-92 -103l-160 140z" glyph-name="asterisk" horiz-adv-x="718" unicode="*"/><glyph d="M997 610h-368l-92 -415h-177l93 415h-369l35 162h368l88 399h179l-88 -399h368z" glyph-name="plus" horiz-adv-x="1032" unicode="+"/><glyph d="M356 124q0 -98 -86 -214.5t-215 -177.5l-92 96q61 27 119.5 74t81.5 98h-23q-53 0 -89 35t-36 103t55.5 119.5t124.5 51.5t114.5 -43.5t45.5 -141.5z" glyph-name="comma" horiz-adv-x="524" unicode=","/><glyph d="M526 385h-491l49 221h491z" glyph-name="hyphen" horiz-adv-x="614" unicode="-"/><glyph d="M174 -25q-68 0 -113 45.5t-45 113.5t55 121.5t123 53.5t111 -45.5t43 -113.5t-53 -121.5t-121 -53.5z" glyph-name="period" horiz-adv-x="524" unicode="."/><glyph d="M72 -41h-195l805 1448h197z" glyph-name="slash" horiz-adv-x="673" unicode="/"/><glyph d="M567 -25q-210 0 -344.5 145.5t-134.5 385.5t84 437.5t242.5 320t368.5 122.5t342 -144t132 -386t-82.5 -437.5t-240 -319.5t-367.5 -124zM604 233q110 0 195.5 100.5t125.5 240t40 272.5t-55.5 207.5t-170.5 74.5q-158 0 -257 -197.5t-99 -418.5q0 -129 55.5 -204 t165.5 -75z" glyph-name="zero" horiz-adv-x="1269" unicode="0"/><glyph d="M596 0h-291l217 991l-276 -231l-129 174l526 432h254z" glyph-name="one" horiz-adv-x="841" unicode="1"/><glyph d="M922 979q0 66 -69 108.5t-177 42.5q-195 0 -340 -122l-123 209q90 78 219 123.5t264 45.5q223 0 377 -105t154 -295t-183.5 -367t-531.5 -363h557l-55 -256h-1028l59 270q598 339 737.5 467t139.5 242z" glyph-name="two" horiz-adv-x="1228" unicode="2"/><glyph d="M585 -25q-207 0 -371.5 76t-240.5 209l195 176q61 -96 174.5 -149.5t227.5 -53.5t177.5 52.5t63.5 136.5q0 143 -250 143q-121 0 -166 -4l60 262q23 -2 190 -2q266 0 266 158q0 68 -70.5 108.5t-197.5 40.5q-190 0 -332 -110l-104 199q185 169 449 169t410 -94t146 -262 q0 -131 -112.5 -225t-255.5 -113q254 -63 254 -299q0 -180 -153 -299t-360 -119z" glyph-name="three" horiz-adv-x="1202" unicode="3"/><glyph d="M885 0h-291l61 283h-653l57 254l709 829h418l-182 -827h174l-56 -256h-176zM711 539l127 569l-496 -569h369z" glyph-name="four" horiz-adv-x="1222" unicode="4"/><glyph d="M606 -25q-391 0 -569 263l207 184q117 -188 366 -189q117 0 187.5 63.5t70.5 155.5t-70.5 139.5t-199.5 47.5t-238 -82l-188 76l162 733h938l-55 -256h-650l-69 -322q112 88 278 88t282 -103t116 -284q0 -215 -160 -364.5t-408 -149.5z" glyph-name="five" horiz-adv-x="1245" unicode="5"/><glyph d="M606 -25q-242 0 -384 139.5t-142 377.5t83 436t254 328t396 130q289 0 459 -186l-180 -205q-102 133 -295 133q-139 0 -239.5 -98t-143.5 -237q-6 -12 -19 -54q57 59 154.5 101.5t200.5 42.5q186 0 309 -102.5t123 -274.5q0 -219 -167 -375t-409 -156zM616.5 233 q110.5 0 186.5 69t76 159t-76 139t-201 49t-235 -104q-2 -14 -2 -70q0 -111 70.5 -176.5t181 -65.5z" glyph-name="six" horiz-adv-x="1245" unicode="6"/><glyph d="M461 0h-334l729 1110h-672l56 256h1026l-45 -203z" glyph-name="seven" horiz-adv-x="1116" unicode="7"/><glyph d="M582 -25q-231 0 -392 93.5t-161 273.5q0 135 100 240.5t279 150.5q-88 39 -146.5 112t-58.5 163q0 127 118.5 252.5t417.5 125.5q215 0 374 -91t159 -259q0 -133 -97.5 -230t-256.5 -128q102 -53 164.5 -134t62.5 -175q0 -180 -166 -287t-397 -107zM958 980 q0 68 -68.5 111.5t-165.5 43.5t-163.5 -43.5t-66.5 -105.5t60 -107.5t136 -61.5q121 8 194.5 51.5t73.5 111.5zM588 225q110 0 186 48.5t76 116.5t-64.5 116.5t-150.5 68.5q-127 -6 -212 -57t-85 -130t70 -121t180 -42z" glyph-name="eight" horiz-adv-x="1241" unicode="8"/><glyph d="M718 1389q242 0 383.5 -139.5t141.5 -389.5q0 -345 -139 -538t-281.5 -269t-314.5 -76q-287 0 -455 185l178 207q96 -133 297 -133q139 0 245 104.5t155 284.5q-59 -61 -155.5 -103.5t-199.5 -42.5q-186 0 -310 103.5t-124 275.5q0 217 168.5 374t410.5 157zM706.5 1130 q-110.5 0 -186.5 -68.5t-76 -158.5t75 -139t202 -49t235 102q2 14 2 70q0 111 -70.5 177t-181 66z" glyph-name="nine" horiz-adv-x="1245" unicode="9"/><glyph d="M174 -25q-68 0 -113 45.5t-45 113.5t55 121.5t123 53.5t111 -45.5t43 -113.5t-53 -121.5t-121 -53.5zM324 672q-68 0 -111 45t-43 113t53 121t121 53t113 -45t45 -113t-55 -121t-123 -53z" glyph-name="colon" horiz-adv-x="524" unicode=":"/><glyph d="M356 124q0 -98 -86 -214.5t-215 -177.5l-92 96q61 27 119.5 74t81.5 98h-23q-53 0 -89 35t-36 103t55.5 119.5t124.5 51.5t114.5 -43.5t45.5 -141.5zM324 672q-68 0 -111 45t-43 113t53 121t121 53t113 -45t45 -113t-55 -121t-123 -53z" glyph-name="semicolon" horiz-adv-x="524" unicode=";"/><glyph d="M901 184l-823 408l43 186l1003 410l-45 -201l-794 -311l657 -307z" glyph-name="less" horiz-adv-x="1032" unicode="&lt;"/><glyph d="M1038 795h-913l35 163h913zM954 412h-915l37 159h913z" glyph-name="equal" horiz-adv-x="1032" unicode="="/><glyph d="M993 592l-1005 -408l45 201l796 307l-659 312l41 184l823 -410z" glyph-name="greater" horiz-adv-x="1032" unicode=">"/><glyph d="M311 572q0 91 62.5 164t199 135.5t136.5 150.5q0 109 -166 108q-141 0 -250 -98l-123 201q182 154 416 153q184 0 308 -81.5t124 -221.5q0 -100 -47 -173.5t-113.5 -114.5t-134.5 -76t-115 -78t-47 -89t23 -69l-238 -65q-35 63 -35 154zM374 -25q-68 0 -112.5 45.5 t-44.5 113.5t54.5 121.5t122.5 53.5t111.5 -45.5t43.5 -113.5t-53.5 -121.5t-121.5 -53.5z" glyph-name="question" horiz-adv-x="933" unicode="?"/><glyph d="M762 -143q-279 0 -464 185t-185 458q0 213 113.5 400t302 297t397.5 110q287 0 466 -182.5t179 -432.5t-127 -384t-279 -134q-86 0 -136.5 43.5t-63.5 120.5q-53 -76 -133 -120t-162 -44q-145 0 -231.5 96.5t-86.5 247.5q0 203 141.5 352.5t321.5 149.5q88 0 154.5 -38 t101.5 -99l23 108h231l-104 -499q-6 -37 -7 -50q0 -92 74 -92t134.5 85t60.5 245q0 244 -154.5 395.5t-410.5 151.5q-291 0 -508 -218t-217 -505q0 -242 164.5 -406t412.5 -164q197 0 375 113l43 -61q-201 -129 -426 -129zM760 358q129 0 227 134l51 239q-51 105 -168 105 t-198.5 -90.5t-81.5 -206.5q0 -80 46 -130.5t124 -50.5z" glyph-name="at" horiz-adv-x="1603" unicode="@"/><glyph d="M1298 0h-315l-35 231h-586l-137 -231h-346l830 1366h364zM924 487l-82 588l-342 -588h424z" glyph-name="A" horiz-adv-x="1400" unicode="A"/><glyph d="M770 0h-745l301 1366h663q172 0 271.5 -95t99.5 -232.5t-92 -241t-219 -115.5q92 -25 144 -103.5t52 -172.5q0 -162 -118.5 -284t-356.5 -122zM864 819q96 0 140.5 50.5t44.5 111.5t-40 98t-100 37h-346l-65 -297h366zM748 252q94 0 150 51t56 119t-41 107.5t-108 39.5 h-365l-69 -317h377z" glyph-name="B" horiz-adv-x="1357" unicode="B"/><glyph d="M762 -25q-289 0 -480.5 169t-191.5 444q0 352 233.5 576.5t561.5 224.5q236 0 388 -109t218 -279l-281 -94q-39 106 -130 164.5t-210 58.5q-197 0 -337 -151.5t-140 -372.5q0 -162 105.5 -267.5t279.5 -105.5q88 0 176 43t146 115l223 -151q-109 -139 -259 -202t-302 -63 z" glyph-name="C" horiz-adv-x="1406" unicode="C"/><glyph d="M561 0h-536l301 1366h528q238 0 415 -166t177 -412t-137.5 -451.5t-349.5 -271t-398 -65.5zM614 256q240 0 384.5 146.5t144.5 357.5q0 150 -96.5 250t-247.5 100h-238l-188 -854h241z" glyph-name="D" horiz-adv-x="1470" unicode="D"/><glyph d="M991 0h-966l301 1366h966l-57 -256h-674l-63 -289h659l-57 -256h-660l-67 -309h674z" glyph-name="E" horiz-adv-x="1193" unicode="E"/><glyph d="M315 0h-290l301 1366h966l-57 -256h-674l-63 -289h659l-57 -256h-660z" glyph-name="F" horiz-adv-x="1169" unicode="F"/><glyph d="M762 -25q-287 0 -479.5 168t-192.5 445q0 346 233.5 573.5t587.5 227.5q205 0 350.5 -96.5t213.5 -241.5l-269 -115q-35 86 -128 140t-208 54q-195 0 -336 -151.5t-141 -372.5q0 -160 104.5 -266.5t267.5 -106.5t286 105l36 164h-362l57 256h654l-119 -533 q-211 -250 -555 -250z" glyph-name="G" horiz-adv-x="1474" unicode="G"/><glyph d="M1253 0h-292l126 573h-645l-127 -573h-290l301 1366h290l-116 -537h643l119 537h292z" glyph-name="H" horiz-adv-x="1497" unicode="H"/><glyph d="M315 0h-290l301 1366h290z" glyph-name="I" horiz-adv-x="561" unicode="I"/><glyph d="M338 -25q-121 0 -227.5 39t-169.5 115l157 217q74 -113 219 -113q190 0 242 220l201 913h291l-201 -917q-53 -244 -177 -359t-335 -115z" glyph-name="J" horiz-adv-x="995" unicode="J"/><glyph d="M1194 0h-342l-301 559l-141 -139l-95 -420h-290l301 1366h290l-129 -586l596 586h375l-684 -641z" glyph-name="K" horiz-adv-x="1302" unicode="K"/><glyph d="M893 0h-868l301 1366h290l-243 -1110h575z" glyph-name="L" horiz-adv-x="1071" unicode="L"/><glyph d="M1505 0h-293l218 985l-603 -985h-127l-168 985l-217 -985h-290l301 1366h397l141 -854l522 854h420z" glyph-name="M" horiz-adv-x="1751" unicode="M"/><glyph d="M1247 0h-280l-447 922l-205 -922h-290l301 1366h299l434 -889l198 889h291z" glyph-name="N" horiz-adv-x="1492" unicode="N"/><glyph d="M762 -25q-291 0 -481.5 168t-190.5 445q0 336 229.5 568.5t565.5 232.5q289 0 479 -168t190 -443q0 -336 -228 -569.5t-564 -233.5zM792 233q182 0 320.5 153t138.5 372q0 170 -108.5 271t-292.5 101t-320.5 -152.5t-136.5 -371.5q0 -170 108.5 -271.5t290.5 -101.5z" glyph-name="O" horiz-adv-x="1566" unicode="O"/><glyph d="M926 1366q184 0 294.5 -109.5t110.5 -276.5t-91 -281.5t-206.5 -164t-267.5 -49.5h-342l-109 -485h-290l301 1366h600zM784 741q106 0 174 61.5t68 141.5t-47 123t-123 43h-295l-82 -369h305z" glyph-name="P" horiz-adv-x="1277" unicode="P"/><glyph d="M762 -25q-291 0 -481.5 168t-190.5 445q0 336 229.5 568.5t565.5 232.5q289 0 479 -168t190 -443q0 -195 -81.5 -361.5t-225.5 -277.5l72 -110l-234 -113l-65 100q-123 -41 -258 -41zM778 233q47 0 99 11l-117 188l231 113l109 -172q152 156 151 385q0 170 -108.5 271 t-292.5 101t-320.5 -152.5t-136.5 -371.5q0 -170 108.5 -271.5t276.5 -101.5z" glyph-name="Q" horiz-adv-x="1566" unicode="Q"/><glyph d="M909 1366q172 0 297 -106.5t125 -283.5t-109.5 -308t-279.5 -162l188 -506h-321l-162 485h-225l-107 -485h-290l301 1366h583zM784 741q113 0 177.5 58.5t64.5 139.5t-51 126t-121 45h-293l-82 -369h305z" glyph-name="R" horiz-adv-x="1316" unicode="R"/><glyph d="M616 -25q-199 0 -364.5 70t-253.5 184l180 213q72 -96 197 -154.5t245 -58.5t172 48.5t52 103.5t-68.5 95t-166 75t-195 78t-166 122.5t-68.5 190.5q0 178 146.5 311t388.5 133q164 0 308 -58t234 -163l-180 -204q-74 84 -185.5 129t-205.5 45t-146.5 -41.5t-52.5 -93.5 t69 -91t167 -72.5t196.5 -77.5t167 -125t68.5 -192q0 -197 -146.5 -332t-392.5 -135z" glyph-name="S" horiz-adv-x="1228" unicode="S"/><glyph d="M633 0h-293l244 1110h-400l58 256h1089l-55 -256h-399z" glyph-name="T" horiz-adv-x="1191" unicode="T"/><glyph d="M727 -25q-287 0 -439.5 129t-152.5 349q0 41 10 92l181 821h295l-179 -813q-8 -25 -8 -68q2 -109 79 -181.5t216 -72.5q283 0 352 322l181 813h297l-183 -819q-59 -272 -210.5 -422t-438.5 -150z" glyph-name="U" horiz-adv-x="1501" unicode="U"/><glyph d="M772 0h-364l-228 1366h318l147 -1051l608 1051h346z" glyph-name="V" horiz-adv-x="1400" unicode="V"/><glyph d="M1378 0h-309l-33 938l-444 -938h-309l-90 1366h319l20 -987l478 987h227l41 -987l457 987h333z" glyph-name="W" horiz-adv-x="1880" unicode="W"/><glyph d="M1264 0h-330l-248 485l-438 -485h-365l658 719l-326 647h330l223 -453l399 453h367l-621 -682z" glyph-name="X" horiz-adv-x="1368" unicode="X"/><glyph d="M696 0h-290l122 559l-348 807h316l219 -549l456 549h349l-701 -807z" glyph-name="Y" horiz-adv-x="1320" unicode="Y"/><glyph d="M1016 0h-1041l52 236l821 874h-627l55 256h1027l-50 -233l-825 -877h645z" glyph-name="Z" horiz-adv-x="1212" unicode="Z"/><glyph d="M340 -389h-442l395 1778h442l-39 -175h-254l-317 -1429h254z" glyph-name="bracketleft" horiz-adv-x="573" unicode="["/><glyph d="M365 -41l-164 1448h188l164 -1448h-188z" glyph-name="backslash" horiz-adv-x="673" unicode="\"/><glyph d="M279 -389h-441l39 174h254l318 1429h-254l36 175h443z" glyph-name="bracketright" horiz-adv-x="573" unicode="]"/><glyph d="M903 682h-182l-109 506l-331 -506h-203l471 684h190z" glyph-name="asciicircum" horiz-adv-x="903" unicode="^"/><glyph d="M991 -256h-1165l41 174h1165z" glyph-name="underscore" horiz-adv-x="1155" unicode="_"/><glyph d="M655 1139h-182l-266 295h239z" glyph-name="grave" horiz-adv-x="514" unicode="`"/><glyph d="M575 1014q98 0 182.5 -41t133.5 -115l27 131h262l-219 -989h-263l29 123q-125 -147 -297 -147.5t-274.5 108.5t-102.5 283t58.5 314t180 236.5t283.5 96.5zM616 782q-125 0 -207.5 -102t-82.5 -224t61.5 -185.5t157.5 -63.5q135 0 227 117l76 344q-76 114 -232 114z" glyph-name="a" horiz-adv-x="1200" unicode="a"/><glyph d="M623 -25q-211 0 -316 156l-28 -131h-261l301 1366h261l-111 -500q125 148 297 148t274.5 -108t102.5 -282t-58.5 -315t-180 -237.5t-281.5 -96.5zM580 207q127 0 208.5 101.5t81.5 223.5t-61 186t-158 64q-131 0 -227 -118l-76 -345q74 -112 232 -112z" glyph-name="b" horiz-adv-x="1200" unicode="b"/><glyph d="M546 -25q-224 0 -356.5 124t-132.5 327q0 246 166 417t410 171q285 0 401 -195l-194 -149q-66 112 -205 112t-226 -100t-87 -226t71 -187.5t185 -61.5t198 98l142 -174q-148 -156 -372 -156z" glyph-name="c" horiz-adv-x="1021" unicode="c"/><glyph d="M575 1014q98 0 182.5 -41t133.5 -115l110 508h263l-303 -1366h-263l29 123q-125 -147 -297 -147.5t-274.5 108.5t-102.5 283t58.5 314t180 236.5t283.5 96.5zM616 782q-125 0 -207.5 -102t-82.5 -224t61.5 -185.5t157.5 -63.5q135 0 227 117l76 344q-76 114 -232 114z " glyph-name="d" horiz-adv-x="1200" unicode="d"/><glyph d="M552 -25q-218 0 -356.5 119t-138.5 326q0 246 164 420t408 174q195 0 319.5 -120t124.5 -323q0 -94 -20 -159h-736v-25q0 -74 72.5 -139.5t212.5 -65.5t236 74l82 -178q-150 -103 -368 -103zM840 588v20q0 82 -58 140.5t-164 58.5t-181 -66.5t-93 -152.5h496z" glyph-name="e" horiz-adv-x="1132" unicode="e"/><glyph d="M692 1386q162 0 256 -96l-129 -151q-43 43 -110 43q-111 0 -142 -142l-12 -51h203l-51 -225h-201l-168 -764h-260l168 764h-164l51 225h162l12 55q35 154 129 248t256 94z" glyph-name="f" horiz-adv-x="669" unicode="f"/><glyph d="M434 -401q-319 0 -477 172l152 174q47 -63 134 -98t187 -35q223 0 281 256l20 90q-123 -150 -294 -150t-276.5 99t-105.5 321t141.5 404t370.5 182q90 0 178.5 -42t141.5 -114l28 131h263l-205 -921q-79 -366 -266 -417.5t-273 -51.5zM564 240q116 0 210 112l70 307 q-74 123 -242 123q-121 0 -198.5 -93t-77.5 -211t61 -178t177 -60z" glyph-name="g" horiz-adv-x="1198" unicode="g"/><glyph d="M827 655q0 127 -170 127q-115 0 -231 -116l-147 -666h-261l301 1366h261l-111 -506q158 154 330 154q141 0 225 -68.5t84 -183.5q0 -31 -10 -82l-150 -680h-260l129 594q10 41 10 61z" glyph-name="h" horiz-adv-x="1187" unicode="h"/><glyph d="M410 1096q-62 0 -103 39t-41 107t54.5 115.5t117.5 47.5t103.5 -38.5t40.5 -106.5t-55 -116t-117 -48zM279 0h-261l220 989h260z" glyph-name="i" horiz-adv-x="518" unicode="i"/><glyph d="M-122 -401q-173 0 -263 84l109 186q45 -57 129 -57q121 0 157 161l228 1016h260l-228 -1016q-39 -180 -129 -277t-263 -97zM410 1096q-62 0 -103 39t-41 107t54.5 115.5t117.5 47.5t103.5 -38.5t40.5 -106.5t-55 -116t-117 -48z" glyph-name="j" horiz-adv-x="518" unicode="j"/><glyph d="M985 0h-315l-183 387l-153 -133l-55 -254h-261l301 1366h261l-179 -801l459 424h332l-492 -448z" glyph-name="k" horiz-adv-x="1095" unicode="k"/><glyph d="M279 0h-261l301 1366h261z" glyph-name="l" horiz-adv-x="518" unicode="l"/><glyph d="M1386 664q0 55 -40.5 86.5t-100.5 31.5q-104 0 -207 -114l-145 -668h-262l133 598q10 51 9 86t-39 66.5t-105 31.5q-100 0 -203 -114l-147 -668h-261l220 989h260l-29 -129q143 154 301 154q68 0 124 -22.5t102 -70t46 -85.5v-5q147 182 342 183q119 0 201 -67.5 t82 -184.5q0 -41 -10 -82l-150 -680h-262l133 598q8 49 8 66z" glyph-name="m" horiz-adv-x="1744" unicode="m"/><glyph d="M827 655q0 66 -43 96.5t-108 30.5q-131 0 -250 -114l-147 -668h-261l220 989h260l-29 -129q158 154 330 154q141 0 225 -68.5t84 -183.5q0 -31 -10 -82l-152 -680h-260l131 590q10 45 10 65z" glyph-name="n" unicode="n"/><glyph d="M552 -25q-238 0 -367.5 125t-129.5 324q0 238 163.5 414t401.5 176t368 -126t130 -325q0 -238 -164 -413t-402 -175zM324 452q0 -245 240 -245q118 0 201 102.5t83 226.5q0 246 -240 246q-117 0 -200.5 -103.5t-83.5 -226.5z" glyph-name="o" horiz-adv-x="1175" unicode="o"/><glyph d="M623 -25q-211 0 -316 156l-112 -508h-261l304 1366h260l-29 -123q125 148 297 148t274.5 -108t102.5 -282t-58.5 -315t-180 -237.5t-281.5 -96.5zM580 207q127 0 208.5 101.5t81.5 223.5t-61 186t-158 64q-131 0 -227 -118l-76 -345q74 -112 232 -112z" glyph-name="p" horiz-adv-x="1193" unicode="p"/><glyph d="M575 1014q98 0 182.5 -41t133.5 -115l27 131h262l-303 -1366h-263l113 500q-125 -147 -297 -147.5t-274.5 108.5t-102.5 283t58.5 314t180 236.5t283.5 96.5zM616 782q-125 0 -207.5 -102t-82.5 -224t61.5 -185.5t157.5 -63.5q135 0 227 117l76 344q-76 114 -232 114z " glyph-name="q" horiz-adv-x="1193" unicode="q"/><glyph d="M668 768q-141 0 -246 -119l-143 -649h-261l220 989h260l-31 -129q143 154 352 154l-57 -258q-49 12 -94 12z" glyph-name="r" horiz-adv-x="737" unicode="r"/><glyph d="M449 -25q-137 0 -261.5 46.5t-205.5 132.5l145 174q47 -57 146 -106.5t181 -49.5t122 32t40 76t-78.5 79.5t-172 61t-172 92.5t-78.5 167q0 137 109.5 235.5t297.5 98.5q125 0 236.5 -44t183.5 -118l-133 -166q-39 49 -122 89t-159 40t-114.5 -27.5t-38.5 -62.5t37 -58.5 t93 -39t120.5 -41t121 -55t93.5 -84t37 -125.5q0 -147 -115.5 -247t-312.5 -100z" glyph-name="s" horiz-adv-x="976" unicode="s"/><glyph d="M398 -25q-118 0 -197.5 54.5t-79.5 160.5q0 35 8 68l111 506h-164l51 225h164l59 271h262l-59 -271h201l-54 -225h-200l-94 -430q-4 -25 -5 -41q0 -86 97 -86q47 0 71 20l11 -209q-64 -43 -182 -43z" glyph-name="t" horiz-adv-x="692" unicode="t"/><glyph d="M522 207q115 0 236 117l147 665h260l-219 -989h-260l29 129q-163 -154 -317 -154t-238 70t-84 184q0 33 10 80l150 680h262l-133 -596q-8 -37 -9 -59q0 -63 46.5 -95t119.5 -32z" glyph-name="u" unicode="u"/><glyph d="M555 0h-281l-178 989h271l104 -688l414 688h286z" glyph-name="v" horiz-adv-x="1050" unicode="v"/><glyph d="M1163 0h-276l-62 674l-356 -674h-279l-81 989h260l39 -665l364 665h232l67 -665l334 665h278z" glyph-name="w" horiz-adv-x="1574" unicode="w"/><glyph d="M922 0h-283l-152 334l-301 -334h-297l461 508l-221 481h281l137 -305l272 305h299l-440 -481z" glyph-name="x" horiz-adv-x="1032" unicode="x"/><glyph d="M94 -168q70 0 117 70l61 92l-176 995h271l104 -688l414 688h286l-720 -1151q-80 -131 -168.5 -185.5t-198.5 -54.5t-182 25l86 225q36 -16 106 -16z" glyph-name="y" horiz-adv-x="1050" unicode="y"/><glyph d="M782 0h-807l43 195l564 567h-437l50 227h798l-41 -188l-571 -574h450z" glyph-name="z" horiz-adv-x="980" unicode="z"/><glyph d="M264 -389q-117 0 -200.5 73.5t-83.5 188.5q0 37 8 64l80 352q4 25 4 53t-22.5 56t-59.5 28l33 147q109 0 137 138l78 350q37 164 138 246t251 82h125l-39 -175h-123q-129 0 -164 -151l-88 -399q-37 -152 -135 -183q59 -35 59 -114q0 -37 -8 -70l-78 -358q-4 -25 -4 -39 q0 -51 32 -83t81 -32h112l-41 -174h-92z" glyph-name="braceleft" horiz-adv-x="589" unicode="{"/><glyph d="M350 -41h-174v1448h174v-1448z" glyph-name="bar" horiz-adv-x="442" unicode="|"/><glyph d="M324 1389q117 0 200.5 -74t83.5 -189q0 -39 -8 -63l-78 -352q-4 -25 -4 -53t21.5 -56.5t58.5 -28.5l-33 -147q-109 0 -137 -137l-78 -350q-37 -164 -138 -246t-251 -82h-125l39 174h123q129 0 164 152l90 399q33 152 133 184q-59 31 -59 113q0 37 8 69l78 359q4 25 4 39 q0 51 -32 82.5t-81 31.5h-113l41 175h93z" glyph-name="braceright" horiz-adv-x="589" unicode="}"/><glyph d="M791 844q-100 0 -149.5 56t-57 180t-74.5 124q-59 0 -116.5 -107.5t-86.5 -252.5l-174 20q102 500 387 500q82 0 130 -37t61.5 -90t19.5 -107.5t21.5 -91.5t50.5 -37q59 0 116.5 110t86.5 255l172 -20q-109 -502 -387 -502z" glyph-name="asciitilde" horiz-adv-x="1044" unicode="~"/><glyph glyph-name="uni00A0" horiz-adv-x="524" unicode=" "/><glyph d="M156 543h229l-160 -920h-315zM346 1014q68 0 112 -45t44 -114t-55 -122t-123 -53t-111 45t-43 114t54 122t122 53z" glyph-name="exclamdown" horiz-adv-x="524" unicode="¡"/><glyph d="M57 426q0 238 157 408t390 180l33 143h190l-36 -164q164 -43 243 -174l-194 -149q-41 63 -103 90l-123 -549q92 14 162 94l142 -174q-139 -147 -353 -156l-41 -180h-190l45 201q-152 41 -237 154.5t-85 275.5zM322 429q0 -130 110 -189l119 532q-104 -29 -166.5 -121 t-62.5 -222z" glyph-name="cent" horiz-adv-x="1021" unicode="¢"/><glyph d="M186 942q0 184 158 314t379 130q178 0 310 -72.5t173 -201.5l-264 -108q-14 68 -70.5 106.5t-144.5 38.5t-155.5 -66.5t-67.5 -171.5q0 -53 13 -86.5t26.5 -62.5t19.5 -45h291l-39 -166h-231q-14 -84 -71.5 -159t-119.5 -107q43 14 97 14t144.5 -34t143.5 -34 q94 0 166 76l64 -231q-98 -102 -252 -103q-94 0 -242.5 45t-226.5 45t-209 -77l-55 198q125 55 205.5 148.5t80.5 193.5q0 16 -2 25h-250l37 166h160q-68 139 -68 225z" glyph-name="sterling" horiz-adv-x="1126" unicode="£"/><glyph d="M883 231q-143 -65 -295 -49t-248 78l-201 -162l-135 170l189 152q-74 143 -37 305t135 270l-115 152l174 139l121 -158q141 68 295 52t256 -82l195 157l135 -161l-189 -156q74 -139 37 -303t-137 -273l115 -141l-174 -139zM618.5 413.5q120.5 -12.5 207.5 56t112 182.5 t-28.5 198t-173.5 97t-207 -55.5t-109 -180.5q-27 -115 25.5 -200t173 -97.5z" glyph-name="currency" horiz-adv-x="1275" unicode="¤"/><glyph d="M698 0h-290l51 236h-471l35 159h471l36 164h-469l35 162h365l-279 645h316l219 -549l457 549h348l-561 -645h364l-37 -162h-467l-37 -164h467l-37 -159h-464z" glyph-name="yen" horiz-adv-x="1320" unicode="¥"/><glyph d="M350 -41h-174v647h174v-647zM350 760h-174v647h174v-647z" glyph-name="brokenbar" horiz-adv-x="442" unicode="¦"/><glyph d="M954 673q0 -93 -64.5 -175t-170.5 -119q123 -68 123 -209t-117 -238.5t-301 -97.5q-315 0 -490 170l146 156q57 -66 150.5 -106t178.5 -40t129 36t44 84t-51.5 80t-123 56.5t-144.5 55t-124 90t-51 152.5t66.5 169t195.5 111q-150 66 -150 211t114 236t292 91 q283 0 436 -149l-135 -143q-47 51 -127 80.5t-160 29.5t-121.5 -31.5t-41.5 -76.5t51 -75t124 -53.5t146.5 -53t124.5 -89t51 -152.5zM686 623q0 90 -141 139q-96 -12 -145.5 -55t-49.5 -97t46 -87.5t132 -61.5q80 23 119 67t39 95z" glyph-name="section" horiz-adv-x="991" unicode="§"/><glyph d="M823 1263q0 -56 -47 -103.5t-104 -47.5t-92 36t-35 92t47 102.5t104 46.5t92 -35t35 -91zM391 1263q0 -56 -47 -103.5t-103 -47.5t-92 36t-36 92t47 102.5t104 46.5t92 -35t35 -91z" glyph-name="dieresis" horiz-adv-x="604" unicode="¨"/><glyph d="M1544 684q0 -293 -208 -500t-500 -207t-498.5 207t-206.5 500t206 500t498.5 207t500.5 -207t208 -500zM1470 684q0 260 -186 446.5t-447 186.5t-446.5 -186.5t-185.5 -446.5t185 -446.5t445.5 -186.5t447.5 186.5t187 446.5zM412 629q0 205 144 346t333 141 q227 0 328 -164l-78 -55q-76 137 -254 137q-145 0 -262 -116.5t-117 -286.5q0 -123 82 -210t215 -87t235 98l49 -70q-133 -110 -297 -110t-271 106.5t-107 270.5z" glyph-name="copyright" horiz-adv-x="1593" unicode="©"/><glyph d="M557 1178q-90 0 -146.5 -69t-56.5 -152q0 -156 140 -156q78 0 143 69l55 250q-45 58 -135 58zM158 922q0 170 100 287.5t244 117.5t215 -96l16 80h191l-144 -643h-190l16 80q-82 -96 -192 -96t-183 70.5t-73 199.5z" glyph-name="ordfeminine" horiz-adv-x="847" unicode="ª"/><glyph d="M537 129h-232l-246 369l410 362h248l-418 -373zM926 129h-232l-245 369l409 362h248l-418 -373z" glyph-name="guillemotleft" horiz-adv-x="1079" unicode="«"/><glyph d="M1073 958l-119 -546h-168l86 383h-747l35 163h913z" glyph-name="logicalnot" horiz-adv-x="1054" unicode="¬"/><glyph d="M526 385h-491l49 221h491z" glyph-name="uni00AD" horiz-adv-x="614" unicode="­"/><glyph d="M1040 953q0 -181 -128 -308t-308 -127t-306 127t-126 307.5t127 307t307 126.5t307 -126t127 -307zM975 953q0 153 -108.5 260.5t-262 107.5t-260 -107.5t-106.5 -261t107 -261t259 -107.5t261.5 108t109.5 261zM682 1200q63 0 105 -37t42 -101t-51 -112.5t-112 -48.5 l90 -199h-82l-86 197h-90l-43 -197h-70l109 498h188zM756 1063q0 76 -88 76h-117l-41 -176h133q49 0 81 28.5t32 71.5z" glyph-name="registered" horiz-adv-x="1011" unicode="®"/><glyph d="M885 1151h-742l33 147h742z" glyph-name="macron" horiz-adv-x="743" unicode="¯"/><glyph d="M729 1108q0 -115 -82 -194.5t-196.5 -79.5t-194.5 79.5t-80 194.5t81 196.5t195 81.5t195.5 -81.5t81.5 -196.5zM588 1109q0 56 -40 96t-96 40t-94.5 -40t-38.5 -96t37.5 -95t93.5 -39t97 39t41 95z" glyph-name="degree" horiz-adv-x="636" unicode="°"/><glyph d="M1010 668h-369l-92 -418h-178l92 418h-369l37 159h369l90 404h176l-90 -404h368zM862 0h-913l35 160h913z" glyph-name="plusminus" horiz-adv-x="1032" unicode="±"/><glyph d="M739 1438q0 47 -38.5 72.5t-98.5 25.5q-141 0 -229 -88l-82 131q127 115 317 115q145 0 239.5 -63.5t94.5 -173.5t-108.5 -210t-335.5 -227h354l-35 -158h-643l35 152q317 184 423.5 267t106.5 157z" glyph-name="uni00B2" horiz-adv-x="813" unicode="²"/><glyph d="M877 1079q0 -83 -88.5 -157t-224.5 -74t-233.5 40t-144.5 109l123 121q80 -113 234 -112q68 0 102.5 30.5t34.5 74.5t-49 67.5t-119 23.5t-82 -2l33 156q45 -4 133 -4q147 0 147 96q0 43 -47 65.5t-116 22.5q-123 0 -211 -74l-68 123q129 109 291 109t256 -58.5 t94 -149.5t-60.5 -150.5t-164.5 -67.5q70 -14 115 -60t45 -129z" glyph-name="uni00B3" horiz-adv-x="813" unicode="³"/><glyph d="M721 1434l-397 -295h-187l340 295h244z" glyph-name="acute" horiz-adv-x="514" unicode="´"/><glyph d="M506 205q133 0 248 114l147 670h262l-153 -692q-18 -90 63 -90q16 0 41 4l-33 -221q-61 -14 -125 -15q-215 0 -225 177q-143 -176 -317 -177q-100 1 -131 56l-93 -408h-262l312 1366h260l-135 -598q-20 -92 19.5 -139t121.5 -47z" glyph-name="uni00B5" horiz-adv-x="1210" unicode="µ"/><glyph d="M162 988q0 144 115.5 261t281.5 117h457l-348 -1571h-129l321 1444h-162l-319 -1444h-129l192 867q-117 0 -198.5 91t-81.5 235z" glyph-name="paragraph" horiz-adv-x="919" unicode="¶"/><glyph d="M252 336q-68 0 -112 45t-44 113t54 121t122 53t112 -45t44 -113t-54 -121t-122 -53z" glyph-name="periodcentered" horiz-adv-x="524" unicode="·"/><glyph d="M61 -401q-160 0 -243 84l71 98q76 -72 175 -72t100 72q0 49 -62 49q-35 0 -59 -29l-82 54l98 168h129l-79 -127q29 20 73 20t77.5 -34t33.5 -106t-66 -124.5t-166 -52.5z" glyph-name="cedilla" horiz-adv-x="452" unicode="¸"/><glyph d="M543 862h-199l123 559l-166 -135l-88 121l340 274h170z" glyph-name="uni00B9" horiz-adv-x="585" unicode="¹"/><glyph d="M491 651q-154 0 -244.5 82.5t-90.5 228.5t116.5 255.5t270.5 109.5t244 -83.5t90 -229.5t-116 -254.5t-270 -108.5zM350 955q0 -152 155 -152q77 0 127 68.5t50 146.5q0 153 -152 153q-76 0 -128 -69.5t-52 -146.5z" glyph-name="ordmasculine" horiz-adv-x="829" unicode="º"/><glyph d="M158 860h231l246 -368l-410 -363h-248l418 373zM547 860h231l246 -368l-410 -363h-247l417 373z" glyph-name="guillemotright" horiz-adv-x="1079" unicode="»"/><glyph d="M473 547h-199l123 559l-166 -135l-88 121l340 274h170zM1583 176h-108l-39 -176h-195l39 176h-403l30 133l436 510h273l-107 -489h107zM1313 330l69 315l-274 -315h205zM1503 1366l-1175 -1366h-156l1174 1366h157z" glyph-name="onequarter" horiz-adv-x="1705" unicode="¼"/><glyph d="M473 547h-199l123 559l-166 -135l-88 121l340 274h170zM1509 575q0 47 -38.5 73t-98.5 26q-141 0 -229 -88l-82 131q127 115 317 114q145 0 239.5 -63t94.5 -173t-108.5 -210t-335.5 -227h354l-35 -158h-643l35 152q317 184 423.5 267t106.5 156zM1503 1366l-1175 -1366 h-156l1174 1366h157z" glyph-name="onehalf" horiz-adv-x="1775" unicode="½"/><glyph d="M1763 176h-108l-39 -176h-195l39 176h-403l30 133l437 510h272l-106 -489h106zM1493 330l70 315l-275 -315h205zM1681 1366l-1175 -1366h-156l1174 1366h157zM807 763q0 -83 -88.5 -157t-224.5 -74t-233 40t-144 110l123 121q80 -113 233 -113q68 0 102.5 31t34.5 75 t-49 67.5t-119 23.5t-82 -2l33 155q45 -4 133 -4q147 0 148 97q0 43 -47 65.5t-117 22.5q-123 0 -211 -74l-68 123q129 108 291 108t256 -58t94 -150t-60 -150.5t-165 -67.5q70 -14 115 -60t45 -129z" glyph-name="threequarters" horiz-adv-x="1886" unicode="¾"/><glyph d="M221 -35q0 -109 168 -108q143 0 248 98l123 -201q-182 -154 -416 -153q-184 0 -308 81.5t-124 221.5q0 100 47 174t113.5 114.5t134 75.5t115 78t47.5 89t-23 71l240 63q32 -59 32 -152t-62 -166t-198.5 -135t-136.5 -151zM558 1012q68 0 111.5 -45t43.5 -114t-53.5 -122 t-121.5 -53t-112.5 45t-44.5 113t54.5 122t122.5 54z" glyph-name="questiondown" horiz-adv-x="815" unicode="¿"/><glyph d="M1298 0h-315l-35 231h-586l-137 -231h-346l830 1366h364zM924 487l-82 588l-342 -588h424zM1047 1481h-183l-266 295h240z" glyph-name="Agrave" horiz-adv-x="1400" unicode="À"/><glyph d="M1298 0h-315l-35 231h-586l-137 -231h-346l830 1366h364zM924 487l-82 588l-342 -588h424zM1366 1776l-397 -295h-187l340 295h244z" glyph-name="Aacute" horiz-adv-x="1400" unicode="Á"/><glyph d="M1223 1481h-156l-111 182l-184 -182h-164l254 295h234zM1298 0h-315l-35 231h-586l-137 -231h-346l830 1366h364zM924 487l-82 588l-342 -588h424z" glyph-name="Acircumflex" horiz-adv-x="1400" unicode="Â"/><glyph d="M1298 0h-315l-35 231h-586l-137 -231h-346l830 1366h364zM924 487l-82 588l-342 -588h424zM1059 1477q-61 0 -102.5 34.5t-74 69.5t-71.5 35q-63 0 -90 -127h-139q27 137 85 205.5t162 68.5q49 0 86 -21.5t73 -68.5t89 -47q61 0 92 125h140q-31 -137 -89.5 -205.5 t-160.5 -68.5z" glyph-name="Atilde" horiz-adv-x="1400" unicode="Ã"/><glyph d="M1296 1605q0 -56 -47 -103.5t-103 -47.5t-92 35t-36 92t47 103.5t105 46.5t92 -35t34 -91zM864 1605q0 -56 -47 -103.5t-104 -47.5t-92 35t-35 92t47 103.5t104 46.5t92 -35t35 -91zM1298 0h-315l-35 231h-586l-137 -231h-346l830 1366h364zM924 487l-82 588l-342 -588 h424z" glyph-name="Adieresis" horiz-adv-x="1400" unicode="Ä"/><glyph d="M1298 0h-315l-35 231h-586l-137 -231h-346l830 1366h364zM924 487l-82 588l-342 -588h424zM931 1409q-91 0 -145.5 54.5t-54.5 145.5t70.5 161.5t162.5 70.5t144.5 -54t52.5 -146t-69.5 -162t-160.5 -70zM939 1530q40 0 70.5 30.5t30.5 70.5t-22.5 64.5t-62.5 24.5 t-71.5 -30.5t-31.5 -70.5t23.5 -64.5t63.5 -24.5z" glyph-name="Aring" horiz-adv-x="1400" unicode="Å"/><glyph d="M1786 0h-967l51 231h-473l-186 -231h-340l1133 1366h1083l-57 -256h-674l-64 -289h662l-58 -256h-659l-70 -309h674zM928 487l125 574l-459 -574h334z" glyph-name="AE" horiz-adv-x="1982" unicode="Æ"/><glyph d="M621 -401q-160 0 -244 84l72 98q76 -72 175 -72t99 72q0 49 -61 49q-35 0 -60 -29l-82 54l80 137q-227 43 -368.5 202.5t-141.5 393.5q0 352 233.5 576.5t561.5 224.5q236 0 388 -109t218 -279l-281 -94q-39 106 -130 164.5t-210 58.5q-197 0 -337 -151.5t-140 -372.5 q0 -162 105.5 -267.5t279.5 -105.5q88 0 176 43t146 115l223 -151q-109 -139 -259.5 -202t-301.5 -63q-29 0 -43 2l-51 -81q30 20 72 20t77 -34t35 -106t-65.5 -124.5t-165.5 -52.5z" glyph-name="Ccedilla" horiz-adv-x="1406" unicode="Ç"/><glyph d="M991 0h-966l301 1366h966l-57 -256h-674l-63 -289h659l-57 -256h-660l-67 -309h674zM967 1481h-183l-266 295h240z" glyph-name="Egrave" horiz-adv-x="1193" unicode="È"/><glyph d="M1284 1776l-397 -295h-187l340 295h244zM991 0h-966l301 1366h966l-57 -256h-674l-63 -289h659l-57 -256h-660l-67 -309h674z" glyph-name="Eacute" horiz-adv-x="1193" unicode="É"/><glyph d="M1141 1481h-156l-111 182l-184 -182h-164l254 295h234zM991 0h-966l301 1366h966l-57 -256h-674l-63 -289h659l-57 -256h-660l-67 -309h674z" glyph-name="Ecircumflex" horiz-adv-x="1193" unicode="Ê"/><glyph d="M1214 1605q0 -56 -47 -103.5t-103 -47.5t-92 35t-36 92t47 103.5t105 46.5t92 -35t34 -91zM782 1605q0 -56 -47 -103.5t-104 -47.5t-92 35t-35 92t47 103.5t104 46.5t92 -35t35 -91zM991 0h-966l301 1366h966l-57 -256h-674l-63 -289h659l-57 -256h-660l-67 -309h674z " glyph-name="Edieresis" horiz-adv-x="1193" unicode="Ë"/><glyph d="M315 0h-290l301 1366h290zM629 1481h-183l-266 295h240z" glyph-name="Igrave" horiz-adv-x="561" unicode="Ì"/><glyph d="M315 0h-290l301 1366h290zM946 1776l-397 -295h-187l340 295h244z" glyph-name="Iacute" horiz-adv-x="561" unicode="Í"/><glyph d="M803 1481h-156l-110 182l-185 -182h-164l254 295h234zM315 0h-290l301 1366h290z" glyph-name="Icircumflex" horiz-adv-x="561" unicode="Î"/><glyph d="M877 1605q0 -56 -47.5 -103.5t-104.5 -47.5t-92 35t-35 92t47 103.5t105 46.5t92.5 -35t34.5 -91zM444 1605q0 -56 -47 -103.5t-103 -47.5t-92 35t-36 92t47 103.5t105 46.5t92 -35t34 -91zM315 0h-290l301 1366h290z" glyph-name="Idieresis" horiz-adv-x="561" unicode="Ï"/><glyph d="M612 0h-536l125 565h-170l53 236h168l125 565h528q238 0 415 -166t177 -413t-98.5 -393t-197.5 -223t-251 -124t-338 -47zM1194 760q0 150 -96.5 250t-247.5 100h-238l-67 -309h301l-51 -236h-303l-68 -309h246q238 2 381 147.5t143 356.5z" glyph-name="Eth" horiz-adv-x="1519" unicode="Ð"/><glyph d="M1106 1477q-61 0 -102 34.5t-74 69.5t-72 35q-63 0 -90 -127h-139q27 137 85 205.5t155 68.5t149.5 -68.5t105.5 -68.5q61 0 93 125h139q-31 -137 -89.5 -205.5t-160.5 -68.5zM1247 0h-280l-447 922l-205 -922h-290l301 1366h299l434 -889l198 889h291z" glyph-name="Ntilde" horiz-adv-x="1492" unicode="Ñ"/><glyph d="M1135 1481h-183l-266 295h240zM762 -25q-291 0 -481.5 168t-190.5 445q0 336 229.5 568.5t565.5 232.5q289 0 479 -168t190 -443q0 -336 -228 -569.5t-564 -233.5zM792 233q182 0 320.5 153t138.5 372q0 170 -108.5 271t-292.5 101t-320.5 -152.5t-136.5 -371.5 q0 -170 108.5 -271.5t290.5 -101.5z" glyph-name="Ograve" horiz-adv-x="1566" unicode="Ò"/><glyph d="M1450 1776l-397 -295h-187l340 295h244zM762 -25q-291 0 -481.5 168t-190.5 445q0 336 229.5 568.5t565.5 232.5q289 0 479 -168t190 -443q0 -336 -228 -569.5t-564 -233.5zM792 233q182 0 320.5 153t138.5 372q0 170 -108.5 271t-292.5 101t-320.5 -152.5t-136.5 -371.5 q0 -170 108.5 -271.5t290.5 -101.5z" glyph-name="Oacute" horiz-adv-x="1566" unicode="Ó"/><glyph d="M1309 1481h-156l-111 182l-184 -182h-164l254 295h234zM762 -25q-291 0 -481.5 168t-190.5 445q0 336 229.5 568.5t565.5 232.5q289 0 479 -168t190 -443q0 -336 -228 -569.5t-564 -233.5zM792 233q182 0 320.5 153t138.5 372q0 170 -108.5 271t-292.5 101t-320.5 -152.5 t-136.5 -371.5q0 -170 108.5 -271.5t290.5 -101.5z" glyph-name="Ocircumflex" horiz-adv-x="1566" unicode="Ô"/><glyph d="M762 -25q-291 0 -481.5 168t-190.5 445q0 336 229.5 568.5t565.5 232.5q289 0 479 -168t190 -443q0 -336 -228 -569.5t-564 -233.5zM792 233q182 0 320.5 153t138.5 372q0 170 -108.5 271t-292.5 101t-320.5 -152.5t-136.5 -371.5q0 -170 108.5 -271.5t290.5 -101.5z M1145 1477q-61 0 -102.5 34.5t-74 69.5t-71.5 35q-63 0 -90 -127h-139q27 137 85 205.5t162 68.5q49 0 86 -21.5t73 -68.5t89 -47q61 0 92 125h140q-31 -137 -89.5 -205.5t-160.5 -68.5z" glyph-name="Otilde" horiz-adv-x="1566" unicode="Õ"/><glyph d="M1380 1605q0 -56 -47 -103.5t-104 -47.5t-92 35t-35 92t47 103.5t104 46.5t92 -35t35 -91zM948 1605q0 -56 -47 -103.5t-103 -47.5t-92 35t-36 92t47 103.5t104 46.5t92 -35t35 -91zM762 -25q-291 0 -481.5 168t-190.5 445q0 336 229.5 568.5t565.5 232.5q289 0 479 -168 t190 -443q0 -336 -228 -569.5t-564 -233.5zM792 233q182 0 320.5 153t138.5 372q0 170 -108.5 271t-292.5 101t-320.5 -152.5t-136.5 -371.5q0 -170 108.5 -271.5t290.5 -101.5z" glyph-name="Odieresis" horiz-adv-x="1566" unicode="Ö"/><glyph d="M762 287l-221 282l-357 -293l-100 123l360 295l-221 283l129 106l217 -284l361 293l100 -123l-360 -297l219 -283z" glyph-name="multiply" horiz-adv-x="1032" unicode="×"/><glyph d="M762 -25q-250 0 -426 123l-96 -98h-209l194 199q-135 158 -135 389q0 336 229.5 568.5t565.5 232.5q229 0 403 -111l86 88h209l-180 -184q152 -164 151 -404q0 -336 -228 -569.5t-564 -233.5zM778 233q197 0 335 153t138 372q0 119 -59 211l-653 -666q98 -70 239 -70z M393 606q0 -106 45 -190l647 655q-94 59 -219 59q-199 0 -336 -152.5t-137 -371.5z" glyph-name="Oslash" horiz-adv-x="1566" unicode="Ø"/><glyph d="M727 -25q-287 0 -439.5 129t-152.5 349q0 41 10 92l181 821h295l-179 -813q-8 -25 -8 -68q2 -109 79 -181.5t216 -72.5q283 0 352 322l181 813h297l-183 -819q-59 -272 -210.5 -422t-438.5 -150zM1098 1481h-183l-266 295h240z" glyph-name="Ugrave" horiz-adv-x="1501" unicode="Ù"/><glyph d="M1415 1776l-397 -295h-187l340 295h244zM727 -25q-287 0 -439.5 129t-152.5 349q0 41 10 92l181 821h295l-179 -813q-8 -25 -8 -68q2 -109 79 -181.5t216 -72.5q283 0 352 322l181 813h297l-183 -819q-59 -272 -210.5 -422t-438.5 -150z" glyph-name="Uacute" horiz-adv-x="1501" unicode="Ú"/><glyph d="M1272 1481h-156l-110 182l-185 -182h-164l254 295h234zM727 -25q-287 0 -439.5 129t-152.5 349q0 41 10 92l181 821h295l-179 -813q-8 -25 -8 -68q2 -109 79 -181.5t216 -72.5q283 0 352 322l181 813h297l-183 -819q-59 -272 -210.5 -422t-438.5 -150z" glyph-name="Ucircumflex" horiz-adv-x="1501" unicode="Û"/><glyph d="M1346 1605q0 -56 -47.5 -103.5t-103.5 -47.5t-92 35t-36 92t46.5 103.5t104.5 46.5t93 -35t35 -91zM913 1605q0 -56 -47 -103.5t-104 -47.5t-92 35t-35 92t46.5 103.5t104.5 46.5t92.5 -35t34.5 -91zM727 -25q-287 0 -439.5 129t-152.5 349q0 41 10 92l181 821h295 l-179 -813q-8 -25 -8 -68q2 -109 79 -181.5t216 -72.5q283 0 352 322l181 813h297l-183 -819q-59 -272 -210.5 -422t-438.5 -150z" glyph-name="Udieresis" horiz-adv-x="1501" unicode="Ü"/><glyph d="M696 0h-290l122 559l-348 807h316l219 -549l456 549h349l-701 -807zM1327 1776l-397 -295h-187l340 295h244z" glyph-name="Yacute" horiz-adv-x="1320" unicode="Ý"/><glyph d="M901 1145q164 0 272.5 -110.5t108.5 -281.5t-95 -283t-208 -158t-260 -46h-344l-60 -266h-290l301 1366h290l-47 -221h332zM735 522q113 0 178.5 62.5t65.5 140.5t-48 121t-122 43h-297l-80 -367h303z" glyph-name="Thorn" horiz-adv-x="1277" unicode="Þ"/><glyph d="M1249 319q0 -141 -117.5 -242.5t-300.5 -101.5q-276 0 -438 181l144 163q117 -141 301 -141q68 0 108.5 33t40.5 73t-46 64.5t-111.5 45t-131 47t-111.5 80.5t-46 125t24.5 125t83.5 102t144.5 90.5t85.5 92.5t-47.5 79.5t-125.5 29.5t-135 -52t-77 -140l-215 -973h-261 l215 973q41 182 166 297.5t313 115.5t316.5 -79.5t128.5 -206.5q0 -76 -37 -133.5t-89 -91t-141 -79.5t-89 -104q0 -31 46 -54.5t111.5 -44t132 -50t112.5 -87t46 -137.5z" glyph-name="germandbls" horiz-adv-x="1316" unicode="ß"/><glyph d="M575 1014q98 0 182.5 -41t133.5 -115l27 131h262l-219 -989h-263l29 123q-125 -147 -297 -147.5t-274.5 108.5t-102.5 283t58.5 314t180 236.5t283.5 96.5zM616 782q-125 0 -207.5 -102t-82.5 -224t61.5 -185.5t157.5 -63.5q135 0 227 117l76 344q-76 114 -232 114z M862 1139h-182l-266 295h239z" glyph-name="agrave" horiz-adv-x="1200" unicode="à"/><glyph d="M575 1014q98 0 182.5 -41t133.5 -115l27 131h262l-219 -989h-263l29 123q-125 -147 -297 -147.5t-274.5 108.5t-102.5 283t58.5 314t180 236.5t283.5 96.5zM616 782q-125 0 -207.5 -102t-82.5 -224t61.5 -185.5t157.5 -63.5q135 0 227 117l76 344q-76 114 -232 114z M1180 1434l-398 -295h-186l340 295h244z" glyph-name="aacute" horiz-adv-x="1200" unicode="á"/><glyph d="M575 1014q98 0 182.5 -41t133.5 -115l27 131h262l-219 -989h-263l29 123q-125 -147 -297 -147.5t-274.5 108.5t-102.5 283t58.5 314t180 236.5t283.5 96.5zM616 782q-125 0 -207.5 -102t-82.5 -224t61.5 -185.5t157.5 -63.5q135 0 227 117l76 344q-76 114 -232 114z M1038 1139h-155l-111 182l-184 -182h-164l254 295h233z" glyph-name="acircumflex" horiz-adv-x="1200" unicode="â"/><glyph d="M575 1014q98 0 182.5 -41t133.5 -115l27 131h262l-219 -989h-263l29 123q-125 -147 -297 -147.5t-274.5 108.5t-102.5 283t58.5 314t180 236.5t283.5 96.5zM616 782q-125 0 -207.5 -102t-82.5 -224t61.5 -185.5t157.5 -63.5q135 0 227 117l76 344q-76 114 -232 114z M877 1135q-61 0 -102.5 34.5t-74 69.5t-71.5 35q-63 0 -90 -127h-140q27 137 85.5 205.5t162.5 68.5q61 0 103.5 -34.5t74 -68.5t70.5 -34q61 0 92 125h139q-31 -137 -89 -205.5t-160 -68.5z" glyph-name="atilde" horiz-adv-x="1200" unicode="ã"/><glyph d="M575 1014q98 0 182.5 -41t133.5 -115l27 131h262l-219 -989h-263l29 123q-125 -147 -297 -147.5t-274.5 108.5t-102.5 283t58.5 314t180 236.5t283.5 96.5zM616 782q-125 0 -207.5 -102t-82.5 -224t61.5 -185.5t157.5 -63.5q135 0 227 117l76 344q-76 114 -232 114z M1110 1263q0 -56 -47 -103.5t-105 -47.5t-92.5 36t-34.5 92t47.5 102.5t104.5 46.5t92 -35t35 -91zM678 1263q0 -56 -47 -103.5t-103 -47.5t-92.5 36t-36.5 92t47.5 102.5t104.5 46.5t92 -35t35 -91z" glyph-name="adieresis" horiz-adv-x="1200" unicode="ä"/><glyph d="M575 1014q98 0 182.5 -41t133.5 -115l27 131h262l-219 -989h-263l29 123q-125 -147 -297 -147.5t-274.5 108.5t-102.5 283t58.5 314t180 236.5t283.5 96.5zM616 782q-125 0 -207.5 -102t-82.5 -224t61.5 -185.5t157.5 -63.5q135 0 227 117l76 344q-76 114 -232 114z M753 1083q-91 0 -145.5 54.5t-54.5 145.5t70.5 162t161.5 71t144.5 -54.5t53.5 -146.5t-69.5 -162t-160.5 -70zM761 1204q40 0 70.5 31t30.5 71t-22.5 64.5t-62.5 24.5t-71.5 -31t-31.5 -71t23.5 -64.5t63.5 -24.5z" glyph-name="aring" horiz-adv-x="1200" unicode="å"/><glyph d="M616 782q-125 0 -207.5 -102t-82.5 -224t61.5 -185.5t157.5 -63.5q135 0 227 117l76 344q-76 114 -232 114zM53 367q0 174 58.5 314t180.5 236.5t283 96.5q98 0 182.5 -41t133.5 -115l27 131h262l-27 -121q131 146 303 146t266.5 -108.5t94.5 -315.5q0 -106 -23 -178 h-731q-2 -4 -2 -25q0 -72 73.5 -135.5t212.5 -63.5t230 74l82 -184q-156 -102 -313 -103q-261 0 -349 193l-36 -168h-263l29 123q-125 -147 -297 -147.5t-274.5 108.5t-102.5 283zM1581 608q0 82 -57.5 140.5t-161.5 58.5t-179 -66.5t-93 -152.5h489q2 4 2 20z" glyph-name="ae" horiz-adv-x="1871" unicode="æ"/><glyph d="M432 -401q-160 0 -244 84l72 98q76 -72 175 -72t100 72q0 49 -62 49q-35 0 -59 -29l-82 54l78 135q-164 35 -258.5 150.5t-94.5 285.5q0 246 166 417t410 171q285 0 401 -195l-194 -149q-66 112 -205 112t-226 -100t-87 -226t71 -187.5t185 -61.5t198 98l142 -174 q-147 -156 -375 -156h-15l-49 -79q29 20 72 20t78 -34t35 -106t-66 -124.5t-166 -52.5z" glyph-name="ccedilla" horiz-adv-x="1021" unicode="ç"/><glyph d="M552 -25q-218 0 -356.5 119t-138.5 326q0 246 164 420t408 174q195 0 319.5 -120t124.5 -323q0 -94 -20 -159h-736v-25q0 -74 72.5 -139.5t212.5 -65.5t236 74l82 -178q-150 -103 -368 -103zM840 588v20q0 82 -58 140.5t-164 58.5t-181 -66.5t-93 -152.5h496zM858 1139 h-182l-266 295h239z" glyph-name="egrave" horiz-adv-x="1132" unicode="è"/><glyph d="M1178 1434l-398 -295h-186l340 295h244zM552 -25q-218 0 -356.5 119t-138.5 326q0 246 164 420t408 174q195 0 319.5 -120t124.5 -323q0 -94 -20 -159h-736v-25q0 -74 72.5 -139.5t212.5 -65.5t236 74l82 -178q-150 -103 -368 -103zM840 588v20q0 82 -58 140.5t-164 58.5 t-181 -66.5t-93 -152.5h496z" glyph-name="eacute" horiz-adv-x="1132" unicode="é"/><glyph d="M1032 1139h-155l-111 182l-184 -182h-164l254 295h233zM552 -25q-218 0 -356.5 119t-138.5 326q0 246 164 420t408 174q195 0 319.5 -120t124.5 -323q0 -94 -20 -159h-736v-25q0 -74 72.5 -139.5t212.5 -65.5t236 74l82 -178q-150 -103 -368 -103zM840 588v20 q0 82 -58 140.5t-164 58.5t-181 -66.5t-93 -152.5h496z" glyph-name="ecircumflex" horiz-adv-x="1132" unicode="ê"/><glyph d="M1108 1263q0 -56 -47 -103.5t-103 -47.5t-92.5 36t-36.5 92t47.5 102.5t104.5 46.5t92 -35t35 -91zM676 1263q0 -56 -47 -103.5t-105 -47.5t-92.5 36t-34.5 92t47.5 102.5t104.5 46.5t92 -35t35 -91zM552 -25q-218 0 -356.5 119t-138.5 326q0 246 164 420t408 174 q195 0 319.5 -120t124.5 -323q0 -94 -20 -159h-736v-25q0 -74 72.5 -139.5t212.5 -65.5t236 74l82 -178q-150 -103 -368 -103zM840 588v20q0 82 -58 140.5t-164 58.5t-181 -66.5t-93 -152.5h496z" glyph-name="edieresis" horiz-adv-x="1132" unicode="ë"/><glyph d="M279 0h-261l220 989h260zM532 1139h-182l-266 295h240z" glyph-name="igrave" horiz-adv-x="518" unicode="ì"/><glyph d="M848 1434l-397 -295h-187l340 295h244zM279 0h-261l220 989h260z" glyph-name="iacute" horiz-adv-x="518" unicode="í"/><glyph d="M707 1139h-156l-111 182l-184 -182h-164l254 295h234zM279 0h-261l220 989h260z" glyph-name="icircumflex" horiz-adv-x="518" unicode="î"/><glyph d="M782 1263q0 -56 -47 -103.5t-104 -47.5t-92 36t-35 92t47 102.5t104 46.5t92 -35t35 -91zM350 1263q0 -56 -47 -103.5t-103 -47.5t-92 36t-36 92t47 102.5t104 46.5t92 -35t35 -91zM279 0h-261l220 989h260z" glyph-name="idieresis" horiz-adv-x="518" unicode="ï"/><glyph d="M551 -25q-225 0 -362.5 118t-137.5 328t144.5 365.5t353.5 155.5q244 0 336 -223q-39 168 -242 371l-330 -97l-30 119l254 76q-37 31 -111 88l184 190q133 -104 217 -192l224 65l30 -118l-163 -50q210 -260 210 -539t-158.5 -468t-418.5 -189zM319 432q0 -224 240 -225 q117 0 197 85t80 212q0 86 -62.5 146.5t-179.5 60.5t-196 -83.5t-79 -195.5z" glyph-name="eth" horiz-adv-x="1175" unicode="ð"/><glyph d="M827 655q0 66 -43 96.5t-108 30.5q-131 0 -250 -114l-147 -668h-261l220 989h260l-29 -129q158 154 330 154q141 0 225 -68.5t84 -183.5q0 -31 -10 -82l-152 -680h-260l131 590q10 45 10 65zM877 1135q-61 0 -102.5 34.5t-74 69.5t-71.5 35q-63 0 -90 -127h-140 q27 137 85.5 205.5t162.5 68.5q61 0 103.5 -34.5t74 -68.5t70.5 -34q61 0 92 125h139q-31 -137 -89 -205.5t-160 -68.5z" glyph-name="ntilde" unicode="ñ"/><glyph d="M552 -25q-238 0 -367.5 125t-129.5 324q0 238 163.5 414t401.5 176t368 -126t130 -325q0 -238 -164 -413t-402 -175zM324 452q0 -245 240 -245q118 0 201 102.5t83 226.5q0 246 -240 246q-117 0 -200.5 -103.5t-83.5 -226.5zM862 1139h-182l-266 295h239z" glyph-name="ograve" horiz-adv-x="1175" unicode="ò"/><glyph d="M1176 1434l-398 -295h-186l340 295h244zM552 -25q-238 0 -367.5 125t-129.5 324q0 238 163.5 414t401.5 176t368 -126t130 -325q0 -238 -164 -413t-402 -175zM324 452q0 -245 240 -245q118 0 201 102.5t83 226.5q0 246 -240 246q-117 0 -200.5 -103.5t-83.5 -226.5z" glyph-name="oacute" horiz-adv-x="1175" unicode="ó"/><glyph d="M1036 1139h-155l-111 182l-184 -182h-164l254 295h233zM552 -25q-238 0 -367.5 125t-129.5 324q0 238 163.5 414t401.5 176t368 -126t130 -325q0 -238 -164 -413t-402 -175zM324 452q0 -245 240 -245q118 0 201 102.5t83 226.5q0 246 -240 246q-117 0 -200.5 -103.5 t-83.5 -226.5z" glyph-name="ocircumflex" horiz-adv-x="1175" unicode="ô"/><glyph d="M552 -25q-238 0 -367.5 125t-129.5 324q0 238 163.5 414t401.5 176t368 -126t130 -325q0 -238 -164 -413t-402 -175zM324 452q0 -245 240 -245q118 0 201 102.5t83 226.5q0 246 -240 246q-117 0 -200.5 -103.5t-83.5 -226.5zM877 1135q-61 0 -102.5 34.5t-74 69.5 t-71.5 35q-63 0 -90 -127h-140q27 137 85.5 205.5t162.5 68.5q61 0 103.5 -34.5t74 -68.5t70.5 -34q61 0 92 125h139q-31 -137 -89 -205.5t-160 -68.5z" glyph-name="otilde" horiz-adv-x="1175" unicode="õ"/><glyph d="M1110 1263q0 -56 -47 -103.5t-105 -47.5t-92.5 36t-34.5 92t47.5 102.5t104.5 46.5t92 -35t35 -91zM678 1263q0 -56 -47 -103.5t-103 -47.5t-92.5 36t-36.5 92t47.5 102.5t104.5 46.5t92 -35t35 -91zM552 -25q-238 0 -367.5 125t-129.5 324q0 238 163.5 414t401.5 176 t368 -126t130 -325q0 -238 -164 -413t-402 -175zM324 452q0 -245 240 -245q118 0 201 102.5t83 226.5q0 246 -240 246q-117 0 -200.5 -103.5t-83.5 -226.5z" glyph-name="odieresis" horiz-adv-x="1175" unicode="ö"/><glyph d="M1012 610h-928l35 162h928zM475 197q-51 0 -84 33.5t-33 84.5t40 91t92 40t85 -33.5t33 -84.5t-41 -91t-92 -40zM637 930q-51 0 -84 33.5t-33 84.5t40 91.5t91 40.5t84 -34t33 -86t-40 -91t-91 -39z" glyph-name="divide" horiz-adv-x="1046" unicode="÷"/><glyph d="M55 424q0 238 164 414t408 176q199 0 323 -96l76 71h172l-164 -153q84 -113 84 -273q0 -238 -163.5 -413t-409.5 -175q-203 0 -330 99l-78 -74h-170l168 156q-80 111 -80 268zM555 207q127 0 210 102.5t83 241.5q0 51 -17 96l-425 -397q55 -43 149 -43zM324 438 q0 -55 14 -92l424 395q-57 41 -144 41q-127 0 -210.5 -103.5t-83.5 -240.5z" glyph-name="oslash" horiz-adv-x="1175" unicode="ø"/><glyph d="M522 207q115 0 236 117l147 665h260l-219 -989h-260l29 129q-163 -154 -317 -154t-238 70t-84 184q0 33 10 80l150 680h262l-133 -596q-8 -37 -9 -59q0 -63 46.5 -95t119.5 -32zM866 1139h-182l-266 295h239z" glyph-name="ugrave" unicode="ù"/><glyph d="M1182 1434l-398 -295h-186l340 295h244zM522 207q115 0 236 117l147 665h260l-219 -989h-260l29 129q-163 -154 -317 -154t-238 70t-84 184q0 33 10 80l150 680h262l-133 -596q-8 -37 -9 -59q0 -63 46.5 -95t119.5 -32z" glyph-name="uacute" unicode="ú"/><glyph d="M1040 1139h-155l-111 182l-184 -182h-164l254 295h233zM522 207q115 0 236 117l147 665h260l-219 -989h-260l29 129q-163 -154 -317 -154t-238 70t-84 184q0 33 10 80l150 680h262l-133 -596q-8 -37 -9 -59q0 -63 46.5 -95t119.5 -32z" glyph-name="ucircumflex" unicode="û"/><glyph d="M1116 1263q0 -56 -47 -103.5t-103 -47.5t-92 36t-36 92t47 102.5t104 46.5t92 -35t35 -91zM684 1263q0 -56 -47 -103.5t-105 -47.5t-92 36t-34 92t47 102.5t104 46.5t92 -35t35 -91zM522 207q115 0 236 117l147 665h260l-219 -989h-260l29 129q-163 -154 -317 -154 t-238 70t-84 184q0 33 10 80l150 680h262l-133 -596q-8 -37 -9 -59q0 -63 46.5 -95t119.5 -32z" glyph-name="udieresis" unicode="ü"/><glyph d="M94 -168q70 0 117 70l61 92l-176 995h271l104 -688l414 688h286l-720 -1151q-80 -131 -168.5 -185.5t-198.5 -54.5t-182 25l86 225q36 -16 106 -16zM1108 1434l-397 -295h-187l340 295h244z" glyph-name="yacute" horiz-adv-x="1050" unicode="ý"/><glyph d="M623 -25q-211 0 -316 156l-112 -508h-261l385 1743h261l-111 -500q125 148 297 148t274.5 -108t102.5 -282t-58.5 -315t-180 -237.5t-281.5 -96.5zM580 207q127 0 208.5 101.5t81.5 223.5t-61 186t-158 64q-131 0 -227 -118l-76 -345q74 -112 232 -112z" glyph-name="thorn" horiz-adv-x="1193" unicode="þ"/><glyph d="M94 -168q70 0 117 70l61 92l-176 995h271l104 -688l414 688h286l-720 -1151q-80 -131 -168.5 -185.5t-198.5 -54.5t-182 25l86 225q36 -16 106 -16zM1040 1263q0 -56 -47 -103.5t-104 -47.5t-92 36t-35 92t47 102.5t105 46.5t92 -35t34 -91zM608 1263q0 -56 -47 -103.5 t-103 -47.5t-92 36t-36 92t47 102.5t104 46.5t92 -35t35 -91z" glyph-name="ydieresis" horiz-adv-x="1050" unicode="ÿ"/><glyph d="M1298 0h-315l-35 231h-586l-137 -231h-346l830 1366h364zM924 487l-82 588l-342 -588h424zM1290 1493h-741l33 147h741z" glyph-name="Amacron" horiz-adv-x="1400" unicode="Ā"/><glyph d="M575 1014q98 0 182.5 -41t133.5 -115l27 131h262l-219 -989h-263l29 123q-125 -147 -297 -147.5t-274.5 108.5t-102.5 283t58.5 314t180 236.5t283.5 96.5zM616 782q-125 0 -207.5 -102t-82.5 -224t61.5 -185.5t157.5 -63.5q135 0 227 117l76 344q-76 114 -232 114z M1106 1151h-741l32 147h742z" glyph-name="amacron" horiz-adv-x="1200" unicode="ā"/><glyph d="M1298 0h-315l-35 231h-586l-137 -231h-346l830 1366h364zM924 487l-82 588l-342 -588h424zM897 1430q-109 0 -192.5 48t-129.5 132l134 96q59 -127 213 -127t274 127l98 -96q-174 -180 -397 -180z" glyph-name="Abreve" horiz-adv-x="1400" unicode="Ă"/><glyph d="M575 1014q98 0 182.5 -41t133.5 -115l27 131h262l-219 -989h-263l29 123q-125 -147 -297 -147.5t-274.5 108.5t-102.5 283t58.5 314t180 236.5t283.5 96.5zM616 782q-125 0 -207.5 -102t-82.5 -224t61.5 -185.5t157.5 -63.5q135 0 227 117l76 344q-76 114 -232 114z M737 1237q154 0 275 127l98 -96q-174 -180 -397 -181q-109 0 -193 48.5t-129 132.5l133 96q59 -127 213 -127z" glyph-name="abreve" horiz-adv-x="1200" unicode="ă"/><glyph d="M979 -225q0 133 123 225h-119l-35 231h-586l-137 -231h-346l830 1366h364l225 -1366q-190 -88 -190 -205q0 -68 72 -67q55 -1 96 69l88 -73q-80 -104 -195 -105q-80 0 -135 41t-55 115zM924 487l-82 588l-342 -588h424z" glyph-name="Aogonek" horiz-adv-x="1400" unicode="Ą"/><glyph d="M641 -225q0 133 123 225h-66l29 123q-125 -147 -297 -147.5t-274.5 108.5t-102.5 283t58.5 314t180.5 236.5t283 96.5q98 0 182.5 -41t133.5 -115l27 131h262l-219 -989q-190 -88 -191 -205q0 -68 72 -67q55 -1 96 69l88 -73q-80 -104 -195 -105q-80 0 -135 41t-55 115z M616 782q-125 0 -207.5 -102t-82.5 -224t61.5 -185.5t157.5 -63.5q135 0 227 117l76 344q-76 114 -232 114z" glyph-name="aogonek" horiz-adv-x="1200" unicode="ą"/><glyph d="M1454 1786l-397 -295h-187l340 295h244zM762 -25q-289 0 -480.5 169t-191.5 444q0 352 233.5 576.5t561.5 224.5q236 0 388 -109t218 -279l-281 -94q-39 106 -130 164.5t-210 58.5q-197 0 -337 -151.5t-140 -372.5q0 -162 105.5 -267.5t279.5 -105.5q88 0 176 43t146 115 l223 -151q-109 -139 -259 -202t-302 -63z" glyph-name="Cacute" horiz-adv-x="1406" unicode="Ć"/><glyph d="M1188 1434l-397 -295h-187l340 295h244zM546 -25q-224 0 -356.5 124t-132.5 327q0 246 166 417t410 171q285 0 401 -195l-194 -149q-66 112 -205 112t-226 -100t-87 -226t71 -187.5t185 -61.5t198 98l142 -174q-148 -156 -372 -156z" glyph-name="cacute" horiz-adv-x="1021" unicode="ć"/><glyph d="M1309 1481h-156l-111 182l-184 -182h-164l254 295h234zM762 -25q-289 0 -480.5 169t-191.5 444q0 352 233.5 576.5t561.5 224.5q236 0 388 -109t218 -279l-281 -94q-39 106 -130 164.5t-210 58.5q-197 0 -337 -151.5t-140 -372.5q0 -162 105.5 -267.5t279.5 -105.5 q88 0 176 43t146 115l223 -151q-109 -139 -259 -202t-302 -63z" glyph-name="Ccircumflex" horiz-adv-x="1406" unicode="Ĉ"/><glyph d="M1044 1139h-155l-111 182l-184 -182h-164l254 295h234zM546 -25q-224 0 -356.5 124t-132.5 327q0 246 166 417t410 171q285 0 401 -195l-194 -149q-66 112 -205 112t-226 -100t-87 -226t71 -187.5t185 -61.5t198 98l142 -174q-148 -156 -372 -156z" glyph-name="ccircumflex" horiz-adv-x="1021" unicode="ĉ"/><glyph d="M762 -25q-289 0 -480.5 169t-191.5 444q0 352 233.5 576.5t561.5 224.5q236 0 388 -109t218 -279l-281 -94q-39 106 -130 164.5t-210 58.5q-197 0 -337 -151.5t-140 -372.5q0 -162 105.5 -267.5t279.5 -105.5q88 0 176 43t146 115l223 -151q-109 -139 -259 -202t-302 -63 zM1165 1604q0 -57 -48 -103.5t-105 -46.5t-92 35t-35 92t48 104.5t104 47.5t92 -36t36 -93z" glyph-name="Cdotaccent" horiz-adv-x="1406" unicode="Ċ"/><glyph d="M546 -25q-224 0 -356.5 124t-132.5 327q0 246 166 417t410 171q285 0 401 -195l-194 -149q-66 112 -205 112t-226 -100t-87 -226t71 -187.5t185 -61.5t198 98l142 -174q-148 -156 -372 -156zM903 1262q0 -57 -47.5 -103.5t-105.5 -46.5t-92.5 35t-34.5 92t48 104.5 t104 47.5t92 -36t36 -93z" glyph-name="cdotaccent" horiz-adv-x="1021" unicode="ċ"/><glyph d="M1124 1481h-233l-129 295h156l108 -185l186 185h164zM762 -25q-289 0 -480.5 169t-191.5 444q0 352 233.5 576.5t561.5 224.5q236 0 388 -109t218 -279l-281 -94q-39 106 -130 164.5t-210 58.5q-197 0 -337 -151.5t-140 -372.5q0 -162 105.5 -267.5t279.5 -105.5 q88 0 176 43t146 115l223 -151q-109 -139 -259 -202t-302 -63z" glyph-name="Ccaron" horiz-adv-x="1406" unicode="Č"/><glyph d="M860 1139h-233l-129 295h155l109 -185l186 185h164zM546 -25q-224 0 -356.5 124t-132.5 327q0 246 166 417t410 171q285 0 401 -195l-194 -149q-66 112 -205 112t-226 -100t-87 -226t71 -187.5t185 -61.5t198 98l142 -174q-148 -156 -372 -156z" glyph-name="ccaron" horiz-adv-x="1021" unicode="č"/><glyph d="M1079 1481h-233l-129 295h155l109 -185l186 185h164zM561 0h-536l301 1366h528q238 0 415 -166t177 -412t-137.5 -451.5t-349.5 -271t-398 -65.5zM614 256q240 0 384.5 146.5t144.5 357.5q0 150 -96.5 250t-247.5 100h-238l-188 -854h241z" glyph-name="Dcaron" horiz-adv-x="1470" unicode="Ď"/><glyph d="M1583 1244q0 -76 -69.5 -170.5t-172.5 -143.5l-73 76q53 25 100 63.5t64 79.5h-17q-43 0 -71.5 27.5t-28.5 79.5t44 94.5t97 42.5t90 -36.5t37 -112.5zM575 1014q98 0 182.5 -41t133.5 -115l110 508h263l-303 -1366h-263l29 123q-125 -147 -297 -147.5t-274.5 108.5 t-102.5 283t58.5 314t180 236.5t283.5 96.5zM616 782q-125 0 -207.5 -102t-82.5 -224t61.5 -185.5t157.5 -63.5q135 0 227 117l76 344q-76 114 -232 114z" glyph-name="dcaron" horiz-adv-x="1413" unicode="ď"/><glyph d="M612 0h-536l125 565h-170l53 236h168l125 565h528q238 0 415 -166t177 -413t-98.5 -393t-197.5 -223t-251 -124t-338 -47zM1194 760q0 150 -96.5 250t-247.5 100h-238l-67 -309h301l-51 -236h-303l-68 -309h246q238 2 381 147.5t143 356.5z" glyph-name="Dcroat" horiz-adv-x="1519" unicode="Đ"/><glyph d="M575 1014q98 0 182.5 -41t133.5 -115l47 223h-307l28 148h312l30 137h263l-31 -137h104l-30 -148h-107l-239 -1081h-263l29 123q-125 -147 -297 -147.5t-274.5 108.5t-102.5 283t58.5 314t180 236.5t283.5 96.5zM616 782q-125 0 -207.5 -102t-82.5 -224t61.5 -185.5 t157.5 -63.5q135 0 227 117l76 344q-76 114 -232 114z" glyph-name="dcroat" horiz-adv-x="1208" unicode="đ"/><glyph d="M991 0h-966l301 1366h966l-57 -256h-674l-63 -289h659l-57 -256h-660l-67 -309h674zM1206 1493h-741l33 147h741z" glyph-name="Emacron" horiz-adv-x="1193" unicode="Ē"/><glyph d="M552 -25q-218 0 -356.5 119t-138.5 326q0 246 164 420t408 174q195 0 319.5 -120t124.5 -323q0 -94 -20 -159h-736v-25q0 -74 72.5 -139.5t212.5 -65.5t236 74l82 -178q-150 -103 -368 -103zM840 588v20q0 82 -58 140.5t-164 58.5t-181 -66.5t-93 -152.5h496zM1102 1151 h-742l33 147h742z" glyph-name="emacron" horiz-adv-x="1132" unicode="ē"/><glyph d="M991 0h-966l301 1366h966l-57 -256h-674l-63 -289h659l-57 -256h-660l-67 -309h674zM815 1430q-109 0 -192.5 48t-128.5 132l133 96q59 -127 213 -127t274 127l98 -96q-174 -180 -397 -180z" glyph-name="Ebreve" horiz-adv-x="1193" unicode="Ĕ"/><glyph d="M552 -25q-218 0 -356.5 119t-138.5 326q0 246 164 420t408 174q195 0 319.5 -120t124.5 -323q0 -94 -20 -159h-736v-25q0 -74 72.5 -139.5t212.5 -65.5t236 74l82 -178q-150 -103 -368 -103zM840 588v20q0 82 -58 140.5t-164 58.5t-181 -66.5t-93 -152.5h496zM733 1237 q154 0 275 127l98 -96q-174 -180 -397 -181q-109 0 -193 48.5t-129 132.5l133 96q59 -127 213 -127z" glyph-name="ebreve" horiz-adv-x="1132" unicode="ĕ"/><glyph d="M991 0h-966l301 1366h966l-57 -256h-674l-63 -289h659l-57 -256h-660l-67 -309h674zM1004 1616q0 -57 -48.5 -103.5t-105.5 -46.5t-92 35t-35 92t48.5 104.5t104.5 47.5t92 -36t36 -93z" glyph-name="Edotaccent" horiz-adv-x="1193" unicode="Ė"/><glyph d="M552 -25q-218 0 -356.5 119t-138.5 326q0 246 164 420t408 174q195 0 319.5 -120t124.5 -323q0 -94 -20 -159h-736v-25q0 -74 72.5 -139.5t212.5 -65.5t236 74l82 -178q-150 -103 -368 -103zM840 588v20q0 82 -58 140.5t-164 58.5t-181 -66.5t-93 -152.5h496zM893 1262 q0 -57 -47.5 -103.5t-105.5 -46.5t-93 35t-35 92t48.5 104.5t104.5 47.5t92 -36t36 -93z" glyph-name="edotaccent" horiz-adv-x="1132" unicode="ė"/><glyph d="M799 -205q0 -68 71 -67q55 0 97 69l88 -73q-80 -104 -195 -105q-80 0 -135 41t-55 115q0 133 123 225h-768l301 1366h966l-57 -256h-674l-63 -289h659l-57 -256h-660l-67 -309h674l-56 -256h-2q-190 -88 -190 -205z" glyph-name="Eogonek" horiz-adv-x="1193" unicode="Ę"/><glyph d="M428 -225q0 113 96 202q-217 10 -342 128t-125 315q0 246 164 420t408 174q195 0 319.5 -120t124.5 -323q0 -94 -20 -159h-736v-25q0 -74 72.5 -139.5t212.5 -65.5t236 74l82 -178q-78 -53 -172 -78q-190 -88 -191 -205q0 -68 72 -67q55 -1 96 69l88 -73 q-80 -104 -195 -105q-80 0 -135 41t-55 115zM840 588v20q0 82 -58 140.5t-164 58.5t-181 -66.5t-93 -152.5h496z" glyph-name="eogonek" horiz-adv-x="1132" unicode="ę"/><glyph d="M954 1481h-233l-129 295h156l108 -185l186 185h164zM991 0h-966l301 1366h966l-57 -256h-674l-63 -289h659l-57 -256h-660l-67 -309h674z" glyph-name="Ecaron" horiz-adv-x="1193" unicode="Ě"/><glyph d="M850 1139h-234l-129 295h156l109 -185l186 185h164zM552 -25q-218 0 -356.5 119t-138.5 326q0 246 164 420t408 174q195 0 319.5 -120t124.5 -323q0 -94 -20 -159h-736v-25q0 -74 72.5 -139.5t212.5 -65.5t236 74l82 -178q-150 -103 -368 -103zM840 588v20 q0 82 -58 140.5t-164 58.5t-181 -66.5t-93 -152.5h496z" glyph-name="ecaron" horiz-adv-x="1132" unicode="ě"/><glyph d="M1323 1481h-156l-110 182l-185 -182h-163l254 295h233zM762 -25q-287 0 -479.5 168t-192.5 445q0 346 233.5 573.5t587.5 227.5q205 0 350.5 -96.5t213.5 -241.5l-269 -115q-35 86 -128 140t-208 54q-195 0 -336 -151.5t-141 -372.5q0 -160 104.5 -266.5t267.5 -106.5 t286 105l36 164h-362l57 256h654l-119 -533q-211 -250 -555 -250z" glyph-name="Gcircumflex" horiz-adv-x="1474" unicode="Ĝ"/><glyph d="M1024 1120h-156l-110 183l-185 -183h-163l254 295h233zM434 -401q-319 0 -477 172l152 174q47 -63 134 -98t187 -35q223 0 281 256l20 90q-123 -150 -294 -150t-276.5 99t-105.5 321t141.5 404t370.5 182q90 0 178.5 -42t141.5 -114l28 131h263l-205 -921 q-79 -366 -266 -417.5t-273 -51.5zM564 240q116 0 210 112l70 307q-74 123 -242 123q-121 0 -198.5 -93t-77.5 -211t61 -178t177 -60z" glyph-name="gcircumflex" horiz-adv-x="1198" unicode="ĝ"/><glyph d="M762 -25q-287 0 -479.5 168t-192.5 445q0 346 233.5 573.5t587.5 227.5q205 0 350.5 -96.5t213.5 -241.5l-269 -115q-35 86 -128 140t-208 54q-195 0 -336 -151.5t-141 -372.5q0 -160 104.5 -266.5t267.5 -106.5t286 105l36 164h-362l57 256h654l-119 -533 q-211 -250 -555 -250zM999 1430q-109 0 -192.5 48t-128.5 132l133 96q59 -127 213 -127t274 127l99 -96q-174 -180 -398 -180z" glyph-name="Gbreve" horiz-adv-x="1474" unicode="Ğ"/><glyph d="M434 -401q-319 0 -477 172l152 174q47 -63 134 -98t187 -35q223 0 281 256l20 90q-123 -150 -294 -150t-276.5 99t-105.5 321t141.5 404t370.5 182q90 0 178.5 -42t141.5 -114l28 131h263l-205 -921q-79 -366 -266 -417.5t-273 -51.5zM564 240q116 0 210 112l70 307 q-74 123 -242 123q-121 0 -198.5 -93t-77.5 -211t61 -178t177 -60zM727 1237q154 0 274 127l99 -96q-174 -180 -398 -181q-109 0 -192.5 48.5t-128.5 132.5l133 96q59 -127 213 -127z" glyph-name="gbreve" horiz-adv-x="1198" unicode="ğ"/><glyph d="M762 -25q-287 0 -479.5 168t-192.5 445q0 346 233.5 573.5t587.5 227.5q205 0 350.5 -96.5t213.5 -241.5l-269 -115q-35 86 -128 140t-208 54q-195 0 -336 -151.5t-141 -372.5q0 -160 104.5 -266.5t267.5 -106.5t286 105l36 164h-362l57 256h654l-119 -533 q-211 -250 -555 -250zM1182 1604q0 -57 -48.5 -103.5t-105.5 -46.5t-92 35t-35 92t48.5 104.5t104.5 47.5t92 -36t36 -93z" glyph-name="Gdotaccent" horiz-adv-x="1474" unicode="Ġ"/><glyph d="M434 -401q-319 0 -477 172l152 174q47 -63 134 -98t187 -35q223 0 281 256l20 90q-123 -150 -294 -150t-276.5 99t-105.5 321t141.5 404t370.5 182q90 0 178.5 -42t141.5 -114l28 131h263l-205 -921q-79 -366 -266 -417.5t-273 -51.5zM564 240q116 0 210 112l70 307 q-74 123 -242 123q-121 0 -198.5 -93t-77.5 -211t61 -178t177 -60zM887 1262q0 -57 -47.5 -103.5t-105.5 -46.5t-93 35t-35 92t48 104.5t104 47.5t92.5 -36t36.5 -93z" glyph-name="gdotaccent" horiz-adv-x="1198" unicode="ġ"/><glyph d="M764 -264q0 -76 -69.5 -170t-172.5 -144l-73 76q53 25 100 64t63 80h-16q-43 0 -71.5 27.5t-28.5 79.5t44 94t97 42t90 -36.5t37 -112.5zM762 -25q-287 0 -479.5 168t-192.5 445q0 346 233.5 573.5t587.5 227.5q205 0 350.5 -96.5t213.5 -241.5l-269 -115 q-35 86 -128 140t-208 54q-195 0 -336 -151.5t-141 -372.5q0 -160 104.5 -266.5t267.5 -106.5t286 105l36 164h-362l57 256h654l-119 -533q-211 -250 -555 -250z" glyph-name="Gcommaaccent" horiz-adv-x="1474" unicode="Ģ"/><glyph d="M616 1260q0 78 70 174t174 147l74 -78q-129 -59 -166 -145h18q43 0 72 -28t29 -82t-42.5 -95t-98.5 -41t-93 35t-37 113zM434 -401q-319 0 -477 172l152 174q47 -63 134 -98t187 -35q223 0 281 256l20 90q-123 -150 -294 -150t-276.5 99t-105.5 321t141.5 404t370.5 182 q90 0 178.5 -42t141.5 -114l28 131h263l-205 -921q-79 -366 -266 -417.5t-273 -51.5zM564 240q116 0 210 112l70 307q-74 123 -242 123q-121 0 -198.5 -93t-77.5 -211t61 -178t177 -60z" glyph-name="gcommaaccent" horiz-adv-x="1198" unicode="ģ"/><glyph d="M1272 1481h-156l-110 182l-185 -182h-164l254 295h234zM1253 0h-292l126 573h-645l-127 -573h-290l301 1366h290l-116 -537h643l119 537h292z" glyph-name="Hcircumflex" horiz-adv-x="1497" unicode="Ĥ"/><glyph d="M1120 1481h-155l-111 182l-184 -182h-164l254 295h233zM827 655q0 127 -170 127q-115 0 -231 -116l-147 -666h-261l301 1366h261l-111 -506q158 154 330 154q141 0 225 -68.5t84 -183.5q0 -31 -10 -82l-150 -680h-260l129 594q10 41 10 61z" glyph-name="hcircumflex" horiz-adv-x="1187" unicode="ĥ"/><glyph d="M1266 0h-293l127 573h-645l-127 -573h-291l225 1026h-133l33 150h133l43 190h291l-41 -190h643l43 190h293l-43 -190h131l-33 -150h-131zM512 829h643l43 197h-643z" glyph-name="Hbar" horiz-adv-x="1523" unicode="Ħ"/><glyph d="M831 655q0 127 -169 127q-115 0 -232 -116l-147 -666h-260l237 1081h-119l35 150h117l31 135h260l-31 -135h299l-33 -150h-299l-47 -221q158 154 330 154q141 0 225 -68.5t84 -183.5q0 -31 -10 -82l-150 -680h-260l129 594q10 41 10 61z" glyph-name="hbar" horiz-adv-x="1191" unicode="ħ"/><glyph d="M315 0h-290l301 1366h290zM643 1477q-61 0 -102 34.5t-74 69.5t-72 35q-63 0 -90 -127h-139q27 137 85 205.5t163 68.5q49 0 86 -21.5t72 -68.5t90 -47q61 0 92 125h139q-31 -137 -89.5 -205.5t-160.5 -68.5z" glyph-name="Itilde" horiz-adv-x="561" unicode="Ĩ"/><glyph d="M279 0h-261l220 989h260zM547 1135q-61 0 -102.5 34.5t-74 69.5t-71.5 35q-63 0 -90 -127h-139q27 137 85 205.5t162 68.5q49 0 86 -21.5t73 -68.5t89 -47q61 0 92 125h140q-31 -137 -89.5 -205.5t-160.5 -68.5z" glyph-name="itilde" horiz-adv-x="518" unicode="ĩ"/><glyph d="M315 0h-290l301 1366h290zM870 1493h-741l33 147h741z" glyph-name="Imacron" horiz-adv-x="561" unicode="Ī"/><glyph d="M279 0h-261l220 989h260zM774 1151h-741l33 147h741z" glyph-name="imacron" horiz-adv-x="518" unicode="ī"/><glyph d="M315 0h-290l301 1366h290zM477 1430q-109 0 -192.5 48t-128.5 132l133 96q59 -127 213 -127t274 127l98 -96q-174 -180 -397 -180z" glyph-name="Ibreve" horiz-adv-x="561" unicode="Ĭ"/><glyph d="M279 0h-261l220 989h260zM410 1237q154 0 274 127l98 -96q-174 -180 -397 -181q-109 0 -192.5 48.5t-129.5 132.5l134 96q59 -127 213 -127z" glyph-name="ibreve" horiz-adv-x="518" unicode="ĭ"/><glyph d="M315 0h-290l301 1366h290zM-4 -219q0 80 60.5 156.5t170.5 123.5l88 -61q-190 -88 -190 -205q0 -68 72 -67q55 -1 96 69l88 -73q-80 -104 -195 -105q-80 0 -135 41t-55 121z" glyph-name="Iogonek" horiz-adv-x="561" unicode="Į"/><glyph d="M-41 -225q0 133 123 225h-64l220 989h260l-219 -989q-190 -88 -191 -205q0 -68 72 -67q55 -1 96 69l88 -73q-80 -104 -194 -105q-80 0 -135.5 41t-55.5 115zM410 1096q-62 0 -103 39t-41 107t54.5 115.5t117.5 47.5t103.5 -38.5t40.5 -106.5t-55 -116t-117 -48z" glyph-name="iogonek" horiz-adv-x="518" unicode="į"/><glyph d="M315 0h-290l301 1366h290zM664 1604q0 -57 -48.5 -103.5t-105.5 -46.5t-92 35t-35 92t48.5 104.5t104.5 47.5t92 -36t36 -93z" glyph-name="Idotaccent" horiz-adv-x="561" unicode="İ"/><glyph d="M279 0h-261l220 989h260z" glyph-name="dotlessi" horiz-adv-x="518" unicode="ı"/><glyph d="M315 0h-290l301 1366h290zM899 -25q-121 0 -227.5 39t-169.5 115l157 217q74 -113 220 -113q190 0 241 220l201 913h291l-201 -917q-53 -244 -177 -359t-335 -115z" glyph-name="IJ" horiz-adv-x="1556" unicode="Ĳ"/><glyph d="M410 1096q-62 0 -103 39t-41 107t54.5 115.5t117.5 47.5t103.5 -38.5t40.5 -106.5t-55 -116t-117 -48zM279 0h-261l220 989h260zM397 -401q-173 0 -264 84l109 186q45 -57 129 -57q121 0 157 161l228 1016h260l-228 -1016q-39 -180 -128.5 -277t-262.5 -97zM928 1096 q-62 0 -103 39t-41 107t54.5 115.5t117.5 47.5t103.5 -38.5t40.5 -106.5t-55 -116t-117 -48z" glyph-name="ij" horiz-adv-x="1034" unicode="ĳ"/><glyph d="M1241 1481h-156l-110 182l-184 -182h-164l254 295h233zM338 -25q-121 0 -227.5 39t-169.5 115l157 217q74 -113 219 -113q190 0 242 220l201 913h291l-201 -917q-53 -244 -177 -359t-335 -115z" glyph-name="Jcircumflex" horiz-adv-x="995" unicode="Ĵ"/><glyph d="M711 1139h-156l-111 182l-184 -182h-164l254 295h234zM-122 -401q-173 0 -263 84l109 186q45 -57 129 -57q121 0 157 161l228 1016h260l-228 -1016q-39 -180 -129 -277t-263 -97z" glyph-name="jcircumflex" horiz-adv-x="518" unicode="ĵ"/><glyph d="M641 -264q0 -76 -69.5 -170t-172.5 -144l-73 76q53 25 100 64t63 80h-16q-43 0 -71.5 27.5t-28.5 79.5t44 94t97 42t90 -36.5t37 -112.5zM1194 0h-342l-301 559l-141 -139l-95 -420h-290l301 1366h290l-129 -586l596 586h375l-684 -641z" glyph-name="Kcommaaccent" horiz-adv-x="1302" unicode="Ķ"/><glyph d="M530 -264q0 -76 -69.5 -170t-171.5 -144l-74 76q53 25 100 64t64 80h-17q-43 0 -71.5 27.5t-28.5 79.5t44 94t98 42t90 -36.5t36 -112.5zM985 0h-315l-183 387l-153 -133l-55 -254h-261l301 1366h261l-179 -801l459 424h332l-492 -448z" glyph-name="kcommaaccent" horiz-adv-x="1095" unicode="ķ"/><glyph d="M985 0h-315l-183 387l-153 -133l-55 -254h-261l220 989h260l-97 -424l459 424h332l-492 -448z" glyph-name="kgreenlandic" horiz-adv-x="1095" unicode="ĸ"/><glyph d="M1231 1776l-397 -295h-187l340 295h244zM893 0h-868l301 1366h290l-243 -1110h575z" glyph-name="Lacute" horiz-adv-x="1071" unicode="Ĺ"/><glyph d="M926 1776l-398 -295h-186l340 295h244zM279 0h-261l301 1366h261z" glyph-name="lacute" horiz-adv-x="518" unicode="ĺ"/><glyph d="M526 -264q0 -76 -69.5 -170t-171.5 -144l-74 76q53 25 100 64t64 80h-17q-43 0 -71.5 27.5t-28.5 79.5t44 94t97 42t90 -36.5t37 -112.5zM893 0h-868l301 1366h290l-243 -1110h575z" glyph-name="Lcommaaccent" horiz-adv-x="1071" unicode="Ļ"/><glyph d="M223 -264q0 -76 -69.5 -170t-171.5 -144l-74 76q53 25 100 64t64 80h-17q-43 0 -71.5 27.5t-28.5 79.5t44 94t97 42t90 -36.5t37 -112.5zM279 0h-261l301 1366h261z" glyph-name="lcommaaccent" horiz-adv-x="518" unicode="ļ"/><glyph d="M1022 1246q0 -76 -69.5 -170.5t-172.5 -143.5l-73 76q53 25 100 63.5t63 79.5h-16q-43 0 -71.5 27.5t-28.5 79.5t44 94.5t97 42.5t90 -36.5t37 -112.5zM893 0h-868l301 1366h290l-243 -1110h575z" glyph-name="Lcaron" horiz-adv-x="1071" unicode="Ľ"/><glyph d="M924 1246q0 -76 -70 -170.5t-172 -143.5l-74 76q53 25 100.5 63.5t63.5 79.5h-16q-43 0 -72 27.5t-29 79.5t43.5 94.5t97.5 42.5t91 -36.5t37 -112.5zM279 0h-261l301 1366h261z" glyph-name="lcaron" horiz-adv-x="724" unicode="ľ"/><glyph d="M893 0h-868l301 1366h290l-243 -1110h575zM868 535q-68 0 -111.5 45.5t-43.5 113.5t53.5 120t121.5 52t112 -45t44 -113t-54 -120.5t-122 -52.5z" glyph-name="Ldot" horiz-adv-x="1110" unicode="Ŀ"/><glyph d="M279 0h-261l301 1366h261zM642 336q-68 0 -112.5 45t-44.5 113t53.5 121t121.5 53t112.5 -45t44.5 -113t-53.5 -121t-121.5 -53z" glyph-name="ldot" horiz-adv-x="786" unicode="ŀ"/><glyph d="M4 393l53 238l166 84l144 651h290l-106 -483l176 90l-51 -238l-178 -90l-84 -389h575l-55 -256h-868l104 477z" glyph-name="Lslash" horiz-adv-x="1110" unicode="Ł"/><glyph d="M-2 418l43 190l190 97l146 661h260l-113 -512l189 96l-43 -190l-189 -96l-145 -664h-260l112 514z" glyph-name="lslash" horiz-adv-x="630" unicode="ł"/><glyph d="M1413 1776l-397 -295h-187l340 295h244zM1247 0h-280l-447 922l-205 -922h-290l301 1366h299l434 -889l198 889h291z" glyph-name="Nacute" horiz-adv-x="1492" unicode="Ń"/><glyph d="M1178 1434l-398 -295h-186l340 295h244zM827 655q0 66 -43 96.5t-108 30.5q-131 0 -250 -114l-147 -668h-261l220 989h260l-29 -129q158 154 330 154q141 0 225 -68.5t84 -183.5q0 -31 -10 -82l-152 -680h-260l131 590q10 45 10 65z" glyph-name="nacute" unicode="ń"/><glyph d="M713 -264q0 -76 -70 -170t-172 -144l-74 76q53 25 100.5 64t63.5 80h-16q-43 0 -72 27.5t-29 79.5t44 94t98 42t90.5 -36.5t36.5 -112.5zM1247 0h-280l-447 922l-205 -922h-290l301 1366h299l434 -889l198 889h291z" glyph-name="Ncommaaccent" horiz-adv-x="1492" unicode="Ņ"/><glyph d="M553 -264q0 -76 -69.5 -170t-172.5 -144l-73 76q53 25 100 64t63 80h-16q-43 0 -71.5 27.5t-28.5 79.5t44 94t97 42t90 -36.5t37 -112.5zM827 655q0 66 -43 96.5t-108 30.5q-131 0 -250 -114l-147 -668h-261l220 989h260l-29 -129q158 154 330 154q141 0 225 -68.5 t84 -183.5q0 -31 -10 -82l-152 -680h-260l131 590q10 45 10 65z" glyph-name="ncommaaccent" unicode="ņ"/><glyph d="M1085 1481h-233l-129 295h156l108 -185l187 185h163zM1247 0h-280l-447 922l-205 -922h-290l301 1366h299l434 -889l198 889h291z" glyph-name="Ncaron" horiz-adv-x="1492" unicode="Ň"/><glyph d="M852 1139h-234l-129 295h156l109 -185l186 185h164zM827 655q0 66 -43 96.5t-108 30.5q-131 0 -250 -114l-147 -668h-261l220 989h260l-29 -129q158 154 330 154q141 0 225 -68.5t84 -183.5q0 -31 -10 -82l-152 -680h-260l131 590q10 45 10 65z" glyph-name="ncaron" unicode="ň"/><glyph d="M557 1418q0 -76 -69.5 -170.5t-172.5 -143.5l-73 76q53 25 100 63.5t64 79.5h-17q-43 0 -71.5 27.5t-28.5 79.5t44 94.5t97 42.5t90 -36.5t37 -112.5zM827 655q0 66 -43 96.5t-108 30.5q-131 0 -250 -114l-147 -668h-261l220 989h260l-29 -129q158 154 330 154 q141 0 225 -68.5t84 -183.5q0 -31 -10 -82l-152 -680h-260l131 590q10 45 10 65z" glyph-name="napostrophe" unicode="ŉ"/><glyph d="M506 -55q74 -115 227 -115q78 0 137.5 49t85.5 139l-436 904l-205 -922h-290l301 1366h299l434 -889l198 889h291l-286 -1296q-55 -244 -181 -357.5t-331 -113.5q-123 0 -228.5 39.5t-169.5 113.5z" glyph-name="Eng" horiz-adv-x="1492" unicode="Ŋ"/><glyph d="M546 -401q-175 0 -261 84l114 202q49 -55 125 -55q121 0 156 143l139 627q8 41 8 55q0 63 -42 95t-103 32q-137 0 -256 -114l-147 -668h-261l220 989h260l-29 -129q158 154 330 154q137 0 223 -66.5t86 -185.5q0 -35 -10 -82l-158 -707q-39 -178 -129 -276t-265 -98z" glyph-name="eng" unicode="ŋ"/><glyph d="M1374 1493h-741l33 147h741zM762 -25q-291 0 -481.5 168t-190.5 445q0 336 229.5 568.5t565.5 232.5q289 0 479 -168t190 -443q0 -336 -228 -569.5t-564 -233.5zM792 233q182 0 320.5 153t138.5 372q0 170 -108.5 271t-292.5 101t-320.5 -152.5t-136.5 -371.5 q0 -170 108.5 -271.5t290.5 -101.5z" glyph-name="Omacron" horiz-adv-x="1566" unicode="Ō"/><glyph d="M1102 1151h-742l33 147h742zM552 -25q-238 0 -367.5 125t-129.5 324q0 238 163.5 414t401.5 176t368 -126t130 -325q0 -238 -164 -413t-402 -175zM324 452q0 -245 240 -245q118 0 201 102.5t83 226.5q0 246 -240 246q-117 0 -200.5 -103.5t-83.5 -226.5z" glyph-name="omacron" horiz-adv-x="1175" unicode="ō"/><glyph d="M762 -25q-291 0 -481.5 168t-190.5 445q0 336 229.5 568.5t565.5 232.5q289 0 479 -168t190 -443q0 -336 -228 -569.5t-564 -233.5zM792 233q182 0 320.5 153t138.5 372q0 170 -108.5 271t-292.5 101t-320.5 -152.5t-136.5 -371.5q0 -170 108.5 -271.5t290.5 -101.5z M983 1430q-109 0 -192.5 48t-128.5 132l133 96q59 -127 213 -127t274 127l98 -96q-174 -180 -397 -180z" glyph-name="Obreve" horiz-adv-x="1566" unicode="Ŏ"/><glyph d="M552 -25q-238 0 -367.5 125t-129.5 324q0 238 163.5 414t401.5 176t368 -126t130 -325q0 -238 -164 -413t-402 -175zM324 452q0 -245 240 -245q118 0 201 102.5t83 226.5q0 246 -240 246q-117 0 -200.5 -103.5t-83.5 -226.5zM735 1237q154 0 275 127l98 -96 q-174 -180 -397 -181q-109 0 -193 48.5t-129 132.5l133 96q59 -127 213 -127z" glyph-name="obreve" horiz-adv-x="1175" unicode="ŏ"/><glyph d="M1190 1776l-301 -295h-156l244 295h213zM1495 1776l-301 -295h-156l244 295h213zM762 -25q-291 0 -481.5 168t-190.5 445q0 336 229.5 568.5t565.5 232.5q289 0 479 -168t190 -443q0 -336 -228 -569.5t-564 -233.5zM792 233q182 0 320.5 153t138.5 372q0 170 -108.5 271 t-292.5 101t-320.5 -152.5t-136.5 -371.5q0 -170 108.5 -271.5t290.5 -101.5z" glyph-name="Ohungarumlaut" horiz-adv-x="1566" unicode="Ő"/><glyph d="M920 1434l-302 -295h-155l244 295h213zM1225 1434l-301 -295h-156l244 295h213zM552 -25q-238 0 -367.5 125t-129.5 324q0 238 163.5 414t401.5 176t368 -126t130 -325q0 -238 -164 -413t-402 -175zM324 452q0 -245 240 -245q118 0 201 102.5t83 226.5q0 246 -240 246 q-117 0 -200.5 -103.5t-83.5 -226.5z" glyph-name="ohungarumlaut" horiz-adv-x="1175" unicode="ő"/><glyph d="M90 569q0 250 107.5 435.5t283.5 283.5t383 98q319 0 447 -235l45 215h966l-55 -256h-674l-63 -289h659l-57 -256h-659l-68 -309h674l-58 -256h-966l35 156q-160 -180 -415 -180t-420 171.5t-165 421.5zM883 1128q-211 0 -350.5 -152.5t-139.5 -369.5 q0 -168 103.5 -270.5t267.5 -102.5q117 0 221 58t170 158l90 411q-33 127 -130 197.5t-232 70.5z" glyph-name="OE" horiz-adv-x="2220" unicode="Œ"/><glyph d="M1386 182q136 0 232 74l80 -178q-144 -102 -320 -102t-284.5 67.5t-147.5 151.5q-61 -68 -100 -104t-124 -76t-181 -40q-219 0 -352.5 120t-133.5 341t160 399.5t408 178.5q141 0 241.5 -68.5t141.5 -152.5q55 63 99 103t128 79t178 39q188 0 314 -117t126 -326 q0 -71 -18 -159h-727l-2 -25q0 -78 73 -141.5t209 -63.5zM1620 608q0 82 -57.5 140.5t-162.5 58.5t-180.5 -69.5t-89.5 -149.5h488q2 6 2 20zM324 456q0 -248 235 -249q115 0 198 101.5t83 229.5t-63.5 186t-173.5 58t-194.5 -100t-84.5 -226z" glyph-name="oe" horiz-adv-x="1906" unicode="œ"/><glyph d="M1331 1776l-397 -295h-186l339 295h244zM909 1366q172 0 297 -106.5t125 -283.5t-109.5 -308t-279.5 -162l188 -506h-321l-162 485h-225l-107 -485h-290l301 1366h583zM784 741q113 0 177.5 58.5t64.5 139.5t-51 126t-121 45h-293l-82 -369h305z" glyph-name="Racute" horiz-adv-x="1316" unicode="Ŕ"/><glyph d="M1022 1434l-397 -295h-187l340 295h244zM668 768q-141 0 -246 -119l-143 -649h-261l220 989h260l-31 -129q143 154 352 154l-57 -258q-49 12 -94 12z" glyph-name="racute" horiz-adv-x="737" unicode="ŕ"/><glyph d="M629 -264q0 -76 -70 -170t-172 -144l-74 76q53 25 100.5 64t63.5 80h-16q-43 0 -72 27.5t-29 79.5t44.5 94t97.5 42t90 -36.5t37 -112.5zM909 1366q172 0 297 -106.5t125 -283.5t-109.5 -308t-279.5 -162l188 -506h-321l-162 485h-225l-107 -485h-290l301 1366h583z M784 741q113 0 177.5 58.5t64.5 139.5t-51 126t-121 45h-293l-82 -369h305z" glyph-name="Rcommaaccent" horiz-adv-x="1316" unicode="Ŗ"/><glyph d="M399 -264q0 -76 -69.5 -170t-171.5 -144l-74 76q53 25 100 64t64 80h-17q-43 0 -71.5 27.5t-28.5 79.5t44 94t97 42t90 -36.5t37 -112.5zM668 768q-141 0 -246 -119l-143 -649h-261l220 989h260l-31 -129q143 154 352 154l-57 -258q-49 12 -94 12z" glyph-name="rcommaaccent" horiz-adv-x="737" unicode="ŗ"/><glyph d="M1004 1481h-234l-129 295h156l108 -185l187 185h163zM909 1366q172 0 297 -106.5t125 -283.5t-109.5 -308t-279.5 -162l188 -506h-321l-162 485h-225l-107 -485h-290l301 1366h583zM784 741q113 0 177.5 58.5t64.5 139.5t-51 126t-121 45h-293l-82 -369h305z" glyph-name="Rcaron" horiz-adv-x="1316" unicode="Ř"/><glyph d="M694 1139h-233l-129 295h155l109 -185l186 185h164zM668 768q-141 0 -246 -119l-143 -649h-261l220 989h260l-31 -129q143 154 352 154l-57 -258q-49 12 -94 12z" glyph-name="rcaron" horiz-adv-x="737" unicode="ř"/><glyph d="M1288 1776l-397 -295h-186l339 295h244zM616 -25q-199 0 -364.5 70t-253.5 184l180 213q72 -96 197 -154.5t245 -58.5t172 48.5t52 103.5t-68.5 95t-166 75t-195 78t-166 122.5t-68.5 190.5q0 178 146.5 311t388.5 133q164 0 308 -58t234 -163l-180 -204 q-74 84 -185.5 129t-205.5 45t-146.5 -41.5t-52.5 -93.5t69 -91t167 -72.5t196.5 -77.5t167 -125t68.5 -192q0 -197 -146.5 -332t-392.5 -135z" glyph-name="Sacute" horiz-adv-x="1228" unicode="Ś"/><glyph d="M1087 1434l-397 -295h-186l340 295h243zM449 -25q-137 0 -261.5 46.5t-205.5 132.5l145 174q47 -57 146 -106.5t181 -49.5t122 32t40 76t-78.5 79.5t-172 61t-172 92.5t-78.5 167q0 137 109.5 235.5t297.5 98.5q125 0 236.5 -44t183.5 -118l-133 -166q-39 49 -122 89 t-159 40t-114.5 -27.5t-38.5 -62.5t37 -58.5t93 -39t120.5 -41t121 -55t93.5 -84t37 -125.5q0 -147 -115.5 -247t-312.5 -100z" glyph-name="sacute" horiz-adv-x="976" unicode="ś"/><glyph d="M1147 1481h-156l-110 182l-185 -182h-164l254 295h234zM616 -25q-199 0 -364.5 70t-253.5 184l180 213q72 -96 197 -154.5t245 -58.5t172 48.5t52 103.5t-68.5 95t-166 75t-195 78t-166 122.5t-68.5 190.5q0 178 146.5 311t388.5 133q164 0 308 -58t234 -163l-180 -204 q-74 84 -185.5 129t-205.5 45t-146.5 -41.5t-52.5 -93.5t69 -91t167 -72.5t196.5 -77.5t167 -125t68.5 -192q0 -197 -146.5 -332t-392.5 -135z" glyph-name="Scircumflex" horiz-adv-x="1228" unicode="Ŝ"/><glyph d="M944 1139h-156l-110 182l-184 -182h-164l254 295h233zM449 -25q-137 0 -261.5 46.5t-205.5 132.5l145 174q47 -57 146 -106.5t181 -49.5t122 32t40 76t-78.5 79.5t-172 61t-172 92.5t-78.5 167q0 137 109.5 235.5t297.5 98.5q125 0 236.5 -44t183.5 -118l-133 -166 q-39 49 -122 89t-159 40t-114.5 -27.5t-38.5 -62.5t37 -58.5t93 -39t120.5 -41t121 -55t93.5 -84t37 -125.5q0 -147 -115.5 -247t-312.5 -100z" glyph-name="scircumflex" horiz-adv-x="976" unicode="ŝ"/><glyph d="M572 -84q42 0 77 -34t35 -106t-65.5 -124.5t-165.5 -52.5q-160 0 -244 84l72 98q76 -72 175 -72t99 72q0 49 -61 49q-35 0 -60 -29l-82 54l80 137q-293 53 -434 237l180 213q72 -96 197 -154.5t245 -58.5t172 48.5t52 103.5t-68.5 95t-166 75t-195 78t-166 122.5 t-68.5 190.5q0 178 146.5 311t388.5 133q164 0 308 -58t234 -163l-180 -204q-74 84 -185.5 129t-205.5 45t-146.5 -41.5t-52.5 -93.5t69 -91t167 -72.5t196.5 -77.5t167 -125t68.5 -192q0 -197 -146.5 -332t-392.5 -135l-65 2l-51 -81q30 20 72 20z" glyph-name="Scedilla" horiz-adv-x="1228" unicode="Ş"/><glyph d="M328 -401q-160 0 -244 84l72 98q76 -72 175 -72t99 72q0 49 -61 49q-35 0 -60 -29l-82 54l78 133q-203 37 -323 166l145 174q47 -57 146 -106.5t181 -49.5t122 32t40 76t-78.5 79.5t-172 61t-172 92.5t-78.5 167q0 137 109.5 235.5t297.5 98.5q125 0 236.5 -44 t183.5 -118l-133 -166q-39 49 -122 89t-159 40t-114.5 -27.5t-38.5 -62.5t37 -58.5t93 -39t120.5 -41t121 -55t93.5 -84t37 -125.5q0 -147 -116 -247t-312 -100h-25l-49 -79q29 20 73 20t77.5 -34t33.5 -106t-65.5 -124.5t-165.5 -52.5z" glyph-name="scedilla" horiz-adv-x="976" unicode="ş"/><glyph d="M963 1481h-234l-129 295h156l108 -185l187 185h163zM616 -25q-199 0 -364.5 70t-253.5 184l180 213q72 -96 197 -154.5t245 -58.5t172 48.5t52 103.5t-68.5 95t-166 75t-195 78t-166 122.5t-68.5 190.5q0 178 146.5 311t388.5 133q164 0 308 -58t234 -163l-180 -204 q-74 84 -185.5 129t-205.5 45t-146.5 -41.5t-52.5 -93.5t69 -91t167 -72.5t196.5 -77.5t167 -125t68.5 -192q0 -197 -146.5 -332t-392.5 -135z" glyph-name="Scaron" horiz-adv-x="1228" unicode="Š"/><glyph d="M760 1139h-234l-129 295h156l109 -185l186 185h164zM449 -25q-137 0 -261.5 46.5t-205.5 132.5l145 174q47 -57 146 -106.5t181 -49.5t122 32t40 76t-78.5 79.5t-172 61t-172 92.5t-78.5 167q0 137 109.5 235.5t297.5 98.5q125 0 236.5 -44t183.5 -118l-133 -166 q-39 49 -122 89t-159 40t-114.5 -27.5t-38.5 -62.5t37 -58.5t93 -39t120.5 -41t121 -55t93.5 -84t37 -125.5q0 -147 -115.5 -247t-312.5 -100z" glyph-name="scaron" horiz-adv-x="976" unicode="š"/><glyph d="M565 -264q0 -76 -69.5 -170t-171.5 -144l-74 76q53 25 100 64t64 80h-17q-43 0 -71.5 27.5t-28.5 79.5t44 94t97 42t90 -36.5t37 -112.5zM633 0h-293l244 1110h-400l58 256h1089l-55 -256h-399z" glyph-name="Tcommaaccent" horiz-adv-x="1191" unicode="Ţ"/><glyph d="M297 -264q0 -76 -69.5 -170t-172.5 -144l-73 76q53 25 100 64t63 80h-16q-43 0 -71.5 27.5t-28.5 79.5t44 94t97 42t90 -36.5t37 -112.5zM398 -25q-118 0 -197.5 54.5t-79.5 160.5q0 35 8 68l111 506h-164l51 225h164l59 271h262l-59 -271h201l-54 -225h-200l-94 -430 q-4 -25 -5 -41q0 -86 97 -86q47 0 71 20l11 -209q-64 -43 -182 -43z" glyph-name="tcommaaccent" horiz-adv-x="692" unicode="ţ"/><glyph d="M922 1481h-234l-129 295h156l108 -185l187 185h164zM633 0h-293l244 1110h-400l58 256h1089l-55 -256h-399z" glyph-name="Tcaron" horiz-adv-x="1191" unicode="Ť"/><glyph d="M1004 1418q0 -76 -70 -170.5t-172 -143.5l-74 76q53 25 100.5 63.5t63.5 79.5h-16q-43 0 -72 27.5t-29 79.5t43.5 94.5t97.5 42.5t91 -36.5t37 -112.5zM398 -25q-118 0 -197.5 54.5t-79.5 160.5q0 35 8 68l111 506h-164l51 225h164l59 271h262l-59 -271h201l-54 -225 h-200l-94 -430q-4 -25 -5 -41q0 -86 97 -86q47 0 71 20l11 -209q-64 -43 -182 -43z" glyph-name="tcaron" horiz-adv-x="755" unicode="ť"/><glyph d="M633 0h-293l117 539h-271l33 147h270l95 424h-400l58 256h1089l-55 -256h-399l-95 -424h275l-35 -147h-272z" glyph-name="Tbar" horiz-adv-x="1191" unicode="Ŧ"/><glyph d="M398 -25q-118 0 -197.5 54.5t-79.5 160.5q0 35 8 68l37 170h-164l33 150h164l41 186h-164l51 225h164l59 271h262l-59 -271h201l-54 -225h-200l-41 -186h139l-33 -150h-139l-20 -94q-4 -25 -5 -41q0 -86 97 -86q47 0 71 20l11 -209q-64 -43 -182 -43z" glyph-name="tbar" horiz-adv-x="692" unicode="ŧ"/><glyph d="M727 -25q-287 0 -439.5 129t-152.5 349q0 41 10 92l181 821h295l-179 -813q-8 -25 -8 -68q2 -109 79 -181.5t216 -72.5q283 0 352 322l181 813h297l-183 -819q-59 -272 -210.5 -422t-438.5 -150zM1112 1477q-61 0 -102 34.5t-74 69.5t-72 35q-63 0 -90 -127h-139 q27 137 85 205.5t163 68.5q49 0 86 -21.5t72 -68.5t89 -47q61 0 93 125h139q-31 -137 -89.5 -205.5t-160.5 -68.5z" glyph-name="Utilde" horiz-adv-x="1501" unicode="Ũ"/><glyph d="M522 207q115 0 236 117l147 665h260l-219 -989h-260l29 129q-163 -154 -317 -154t-238 70t-84 184q0 33 10 80l150 680h262l-133 -596q-8 -37 -9 -59q0 -63 46.5 -95t119.5 -32zM879 1135q-61 0 -102.5 34.5t-74 69.5t-71.5 35q-63 0 -90 -127h-140q27 137 85.5 205.5 t162.5 68.5q49 0 86 -21.5t73 -68.5t89 -47q61 0 92 125h139q-31 -137 -89 -205.5t-160 -68.5z" glyph-name="utilde" unicode="ũ"/><glyph d="M727 -25q-287 0 -439.5 129t-152.5 349q0 41 10 92l181 821h295l-179 -813q-8 -25 -8 -68q2 -109 79 -181.5t216 -72.5q283 0 352 322l181 813h297l-183 -819q-59 -272 -210.5 -422t-438.5 -150zM1339 1493h-741l33 147h741z" glyph-name="Umacron" horiz-adv-x="1501" unicode="Ū"/><glyph d="M522 207q115 0 236 117l147 665h260l-219 -989h-260l29 129q-163 -154 -317 -154t-238 70t-84 184q0 33 10 80l150 680h262l-133 -596q-8 -37 -9 -59q0 -63 46.5 -95t119.5 -32zM1106 1151h-741l32 147h742z" glyph-name="umacron" unicode="ū"/><glyph d="M727 -25q-287 0 -439.5 129t-152.5 349q0 41 10 92l181 821h295l-179 -813q-8 -25 -8 -68q2 -109 79 -181.5t216 -72.5q283 0 352 322l181 813h297l-183 -819q-59 -272 -210.5 -422t-438.5 -150zM948 1430q-109 0 -192.5 48t-128.5 132l133 96q59 -127 213 -127t274 127 l99 -96q-174 -180 -398 -180z" glyph-name="Ubreve" horiz-adv-x="1501" unicode="Ŭ"/><glyph d="M522 207q115 0 236 117l147 665h260l-219 -989h-260l29 129q-163 -154 -317 -154t-238 70t-84 184q0 33 10 80l150 680h262l-133 -596q-8 -37 -9 -59q0 -63 46.5 -95t119.5 -32zM739 1237q154 0 275 127l98 -96q-174 -180 -397 -181q-109 0 -193 48.5t-129 132.5l133 96 q59 -127 213 -127z" glyph-name="ubreve" unicode="ŭ"/><glyph d="M982 1409q-91 0 -145.5 54.5t-54.5 145.5t71 161.5t162 70.5t144 -54t53 -146t-69.5 -162t-160.5 -70zM990 1530q40 0 71 30.5t31 70.5t-22.5 64.5t-62.5 24.5t-72 -30.5t-32 -70.5t23.5 -64.5t63.5 -24.5zM727 -25q-287 0 -439.5 129t-152.5 349q0 41 10 92l181 821h295 l-179 -813q-8 -25 -8 -68q2 -109 79 -181.5t216 -72.5q283 0 352 322l181 813h297l-183 -819q-59 -272 -210.5 -422t-438.5 -150z" glyph-name="Uring" horiz-adv-x="1501" unicode="Ů"/><glyph d="M755 1087q-91 0 -145.5 54.5t-54.5 145.5t70.5 162t162.5 71t144.5 -54.5t52.5 -146.5t-69.5 -162t-160.5 -70zM763 1208q40 0 70.5 31t30.5 71t-22.5 64.5t-62.5 24.5t-71.5 -31t-31.5 -71t23.5 -64.5t63.5 -24.5zM522 207q115 0 236 117l147 665h260l-219 -989h-260 l29 129q-163 -154 -317 -154t-238 70t-84 184q0 33 10 80l150 680h262l-133 -596q-8 -37 -9 -59q0 -63 46.5 -95t119.5 -32z" glyph-name="uring" unicode="ů"/><glyph d="M727 -25q-287 0 -439.5 129t-152.5 349q0 41 10 92l181 821h295l-179 -813q-8 -25 -8 -68q2 -109 79 -181.5t216 -72.5q283 0 352 322l181 813h297l-183 -819q-59 -272 -210.5 -422t-438.5 -150zM1159 1776l-301 -295h-156l244 295h213zM1464 1776l-301 -295h-155 l243 295h213z" glyph-name="Uhungarumlaut" horiz-adv-x="1501" unicode="Ű"/><glyph d="M522 207q115 0 236 117l147 665h260l-219 -989h-260l29 129q-163 -154 -317 -154t-238 70t-84 184q0 33 10 80l150 680h262l-133 -596q-8 -37 -9 -59q0 -63 46.5 -95t119.5 -32zM924 1434l-301 -295h-156l244 295h213zM1229 1434l-301 -295h-156l244 295h213z" glyph-name="uhungarumlaut" unicode="ű"/><glyph d="M610 -225q0 115 95 200q-276 6 -423 134.5t-147 343.5q0 41 10 92l181 821h295l-179 -813q-8 -25 -8 -68q2 -109 79 -181.5t216 -72.5q283 0 352 322l181 813h297l-183 -819q-104 -463 -450 -549q-186 -86 -187 -203q0 -68 72 -67q55 -1 96 69l88 -73q-80 -104 -194 -105 q-80 0 -135.5 41t-55.5 115z" glyph-name="Uogonek" horiz-adv-x="1501" unicode="Ų"/><glyph d="M522 207q115 0 236 117l147 665h260l-219 -989q-190 -88 -190 -205q0 -68 71 -67q55 0 97 69l88 -73q-80 -104 -195 -105q-80 0 -135 41t-55 115q0 133 123 225h-64l29 129q-163 -154 -317 -154t-238 70t-84 184q0 33 10 80l150 680h262l-133 -596q-8 -37 -9 -59 q0 -63 46.5 -95t119.5 -32z" glyph-name="uogonek" unicode="ų"/><glyph d="M1458 1481h-155l-111 182l-184 -182h-164l254 295h233zM1378 0h-309l-33 938l-444 -938h-309l-90 1366h319l20 -987l478 987h227l41 -987l457 987h333z" glyph-name="Wcircumflex" horiz-adv-x="1880" unicode="Ŵ"/><glyph d="M1231 1139h-156l-110 182l-185 -182h-164l254 295h234zM1163 0h-276l-62 674l-356 -674h-279l-81 989h260l39 -665l364 665h232l67 -665l334 665h278z" glyph-name="wcircumflex" horiz-adv-x="1574" unicode="ŵ"/><glyph d="M1188 1481h-156l-110 182l-185 -182h-164l254 295h234zM696 0h-290l122 559l-348 807h316l219 -549l456 549h349l-701 -807z" glyph-name="Ycircumflex" horiz-adv-x="1320" unicode="Ŷ"/><glyph d="M94 -168q70 0 117 70l61 92l-176 995h271l104 -688l414 688h286l-720 -1151q-80 -131 -168.5 -185.5t-198.5 -54.5t-182 25l86 225q36 -16 106 -16zM967 1139h-156l-111 182l-184 -182h-164l254 295h234z" glyph-name="ycircumflex" horiz-adv-x="1050" unicode="ŷ"/><glyph d="M1260 1605q0 -56 -47.5 -103.5t-103.5 -47.5t-92 35t-36 92t46.5 103.5t104.5 46.5t93 -35t35 -91zM827 1605q0 -56 -47 -103.5t-104 -47.5t-92 35t-35 92t46.5 103.5t104.5 46.5t92.5 -35t34.5 -91zM696 0h-290l122 559l-348 807h316l219 -549l456 549h349l-701 -807z " glyph-name="Ydieresis" horiz-adv-x="1320" unicode="Ÿ"/><glyph d="M1262 1776l-398 -295h-186l340 295h244zM1016 0h-1041l52 236l821 874h-627l55 256h1027l-50 -233l-825 -877h645z" glyph-name="Zacute" horiz-adv-x="1212" unicode="Ź"/><glyph d="M1071 1434l-397 -295h-187l340 295h244zM782 0h-807l43 195l564 567h-437l50 227h798l-41 -188l-571 -574h450z" glyph-name="zacute" horiz-adv-x="980" unicode="ź"/><glyph d="M1016 0h-1041l52 236l821 874h-627l55 256h1027l-50 -233l-825 -877h645zM979 1604q0 -57 -47.5 -103.5t-105.5 -46.5t-93 35t-35 92t48.5 104.5t104.5 47.5t92 -36t36 -93z" glyph-name="Zdotaccent" horiz-adv-x="1212" unicode="Ż"/><glyph d="M782 0h-807l43 195l564 567h-437l50 227h798l-41 -188l-571 -574h450zM791 1262q0 -57 -48.5 -103.5t-105.5 -46.5t-92 35t-35 92t48 104.5t104 47.5t92.5 -36t36.5 -93z" glyph-name="zdotaccent" horiz-adv-x="980" unicode="ż"/><glyph d="M938 1481h-233l-130 295h156l109 -185l186 185h164zM1016 0h-1041l52 236l821 874h-627l55 256h1027l-50 -233l-825 -877h645z" glyph-name="Zcaron" horiz-adv-x="1212" unicode="Ž"/><glyph d="M745 1139h-233l-129 295h156l108 -185l187 185h163zM782 0h-807l43 195l564 567h-437l50 227h798l-41 -188l-571 -574h450z" glyph-name="zcaron" horiz-adv-x="980" unicode="ž"/><glyph d="M692 1386q162 0 256 -96l-129 -151q-43 43 -110 43q-109 0 -142 -140l-229 -1042h-260l168 764h-164l51 225h162l12 53q35 156 129 250t256 94z" glyph-name="longs" horiz-adv-x="669" unicode="ſ"/><glyph d="M-25 487v230h160l76 340q33 154 125 241.5t254 87.5t266 -98l-108 -205q-39 47 -107 47q-113 0 -145 -137l-62 -276h232v-230h-283l-180 -817h-299l182 817h-111z" glyph-name="florin" horiz-adv-x="929" unicode="ƒ"/><glyph d="M762 -25q-291 0 -481.5 168t-190.5 445q0 336 229.5 568.5t564.5 232.5t527 -215q98 55 127 122h-14q-37 0 -62.5 25t-25.5 72t38 83.5t86 36.5t80.5 -31.5t32.5 -99.5t-58.5 -151.5t-148.5 -130.5q88 -143 88 -322q0 -336 -228 -569.5t-564 -233.5zM792 233 q182 0 320.5 153t138.5 372q0 170 -108.5 271t-292.5 101t-320.5 -152.5t-136.5 -371.5q0 -170 108.5 -271.5t290.5 -101.5z" glyph-name="Ohorn" horiz-adv-x="1566" unicode="Ơ"/><glyph d="M1229 1110q0 -68 -54.5 -148.5t-140.5 -127.5q84 -113 84 -271q0 -238 -164 -413t-402 -175t-367.5 125t-129.5 324q0 238 163.5 414t391.5 176t361 -113q94 57 123 123q-2 -2 -27 -2t-51.5 25.5t-26.5 72.5t39 84t87 37t81 -31.5t33 -99.5zM324 452q0 -245 240 -245 q118 0 201 102.5t83 226.5q0 246 -240 246q-117 0 -200.5 -103.5t-83.5 -226.5z" glyph-name="ohorn" horiz-adv-x="1175" unicode="ơ"/><glyph d="M1806 1520q0 -104 -82 -194.5t-206 -139.5l-142 -639q-59 -272 -210.5 -422t-438.5 -150t-439.5 129t-152.5 349q0 41 10 92l181 821h295l-179 -813q-8 -25 -8 -68q2 -109 79 -181.5t216 -72.5q283 0 352 322l181 813h297l-17 -70q102 57 129 125q-3 -2 -27 -2 t-50.5 25.5t-26.5 73.5t39 84t87 36t80.5 -31.5t32.5 -86.5z" glyph-name="Uhorn" horiz-adv-x="1501" unicode="Ư"/><glyph d="M1366 1147q0 -94 -64.5 -175t-171.5 -134l-184 -838h-260l29 127q-161 -152 -317 -152t-240 69t-84 183q0 41 12 82l150 680h260l-131 -598q-8 -37 -9 -57q0 -63 46.5 -95t121.5 -32q115 0 232 117l149 665h260l-6 -28q53 41 72 88h-14q-37 0 -64 25.5t-27 71.5t39 84 t87 38t81 -33t33 -88z" glyph-name="uhorn" unicode="ư"/><glyph d="M1745 1776l-397 -295h-187l340 295h244zM1786 0h-967l51 231h-473l-186 -231h-340l1133 1366h1083l-57 -256h-674l-64 -289h662l-58 -256h-659l-70 -309h674zM928 487l125 574l-459 -574h334z" glyph-name="AEacute" horiz-adv-x="1982" unicode="Ǽ"/><glyph d="M1534 1434l-397 -295h-187l340 295h244zM616 782q-125 0 -207.5 -102t-82.5 -224t61.5 -185.5t157.5 -63.5q135 0 227 117l76 344q-76 114 -232 114zM53 367q0 174 58.5 314t180.5 236.5t283 96.5q98 0 182.5 -41t133.5 -115l27 131h262l-27 -121q131 146 303 146 t266.5 -108.5t94.5 -315.5q0 -106 -23 -178h-731q-2 -4 -2 -25q0 -72 73.5 -135.5t212.5 -63.5t230 74l82 -184q-156 -102 -313 -103q-261 0 -349 193l-36 -168h-263l29 123q-125 -147 -297 -147.5t-274.5 108.5t-102.5 283zM1581 608q0 82 -57.5 140.5t-161.5 58.5 t-179 -66.5t-93 -152.5h489q2 4 2 20z" glyph-name="aeacute" horiz-adv-x="1871" unicode="ǽ"/><glyph d="M1450 1776l-397 -295h-187l340 295h244zM762 -25q-250 0 -426 123l-96 -98h-209l194 199q-135 158 -135 389q0 336 229.5 568.5t565.5 232.5q229 0 403 -111l86 88h209l-180 -184q152 -164 151 -404q0 -336 -228 -569.5t-564 -233.5zM778 233q197 0 335 153t138 372 q0 119 -59 211l-653 -666q98 -70 239 -70zM393 606q0 -106 45 -190l647 655q-94 59 -219 59q-199 0 -336 -152.5t-137 -371.5z" glyph-name="Oslashacute" horiz-adv-x="1566" unicode="Ǿ"/><glyph d="M1178 1434l-398 -295h-186l340 295h244zM55 424q0 238 164 414t408 176q199 0 323 -96l76 71h172l-164 -153q84 -113 84 -273q0 -238 -163.5 -413t-409.5 -175q-203 0 -330 99l-78 -74h-170l168 156q-80 111 -80 268zM555 207q127 0 210 102.5t83 241.5q0 51 -17 96 l-425 -397q55 -43 149 -43zM324 438q0 -55 14 -92l424 395q-57 41 -144 41q-127 0 -210.5 -103.5t-83.5 -240.5z" glyph-name="oslashacute" horiz-adv-x="1175" unicode="ǿ"/><glyph d="M578 -264q0 -76 -70 -170t-172 -144l-74 76q53 25 100.5 64t63.5 80h-16q-43 0 -72 27.5t-29 79.5t43.5 94t97.5 42t91 -36.5t37 -112.5zM616 -25q-199 0 -364.5 70t-253.5 184l180 213q72 -96 197 -154.5t245 -58.5t172 48.5t52 103.5t-68.5 95t-166 75t-195 78 t-166 122.5t-68.5 190.5q0 178 146.5 311t388.5 133q164 0 308 -58t234 -163l-180 -204q-74 84 -185.5 129t-205.5 45t-146.5 -41.5t-52.5 -93.5t69 -91t167 -72.5t196.5 -77.5t167 -125t68.5 -192q0 -197 -146.5 -332t-392.5 -135z" glyph-name="Scommaaccent" horiz-adv-x="1228" unicode="Ș"/><glyph d="M463 -264q0 -76 -69.5 -170t-172.5 -144l-74 76q53 25 100.5 64t63.5 80h-16q-43 0 -71.5 27.5t-28.5 79.5t44 94t97 42t90 -36.5t37 -112.5zM449 -25q-137 0 -261.5 46.5t-205.5 132.5l145 174q47 -57 146 -106.5t181 -49.5t122 32t40 76t-78.5 79.5t-172 61t-172 92.5 t-78.5 167q0 137 109.5 235.5t297.5 98.5q125 0 236.5 -44t183.5 -118l-133 -166q-39 49 -122 89t-159 40t-114.5 -27.5t-38.5 -62.5t37 -58.5t93 -39t120.5 -41t121 -55t93.5 -84t37 -125.5q0 -147 -115.5 -247t-312.5 -100z" glyph-name="scommaaccent" horiz-adv-x="976" unicode="ș"/><glyph d="M565 -264q0 -76 -69.5 -170t-171.5 -144l-74 76q53 25 100 64t64 80h-17q-43 0 -71.5 27.5t-28.5 79.5t44 94t97 42t90 -36.5t37 -112.5zM633 0h-293l244 1110h-400l58 256h1089l-55 -256h-399z" glyph-name="uni021A" horiz-adv-x="1191" unicode="Ț"/><glyph d="M289 -264q0 -76 -69.5 -170t-172.5 -144l-74 76q53 25 100.5 64t63.5 80h-16q-43 0 -72 27.5t-29 79.5t44.5 94t97.5 42t90 -36.5t37 -112.5zM398 -25q-118 0 -197.5 54.5t-79.5 160.5q0 35 8 68l111 506h-164l51 225h164l59 271h262l-59 -271h201l-54 -225h-200 l-94 -430q-4 -25 -5 -41q0 -86 97 -86q47 0 71 20l11 -209q-64 -43 -182 -43z" glyph-name="uni021B" horiz-adv-x="692" unicode="ț"/><glyph d="M-122 -401q-173 0 -263 84l109 186q45 -57 129 -57q121 0 157 161l228 1016h260l-228 -1016q-39 -180 -129 -277t-263 -97z" glyph-name="uni0237" horiz-adv-x="518" unicode="ȷ"/><glyph d="M668 1085q0 82 -105 82q-74 0 -149 -75l-95 -424h-188l197 888h188l-72 -327q98 98 206 98t165 -45t57 -125q0 -12 -8 -61l-96 -428h-188l84 381q4 25 4 36z" glyph-name="uni02B0" horiz-adv-x="841" unicode="ʰ"/><glyph d="M596 1219q0 -115 -86 -231t-215 -179l-94 96q61 27 119.5 74t80.5 98h-20q-53 0 -90 34.5t-37 102.5t56 120t124 52t115 -44.5t47 -122.5z" glyph-name="afii57929" horiz-adv-x="522" unicode="ʼ"/><glyph d="M756 1139h-156l-111 182l-184 -182h-164l254 295h234z" glyph-name="circumflex" horiz-adv-x="614" unicode="ˆ"/><glyph d="M569 1139h-233l-129 295h155l109 -185l186 185h164z" glyph-name="caron" horiz-adv-x="614" unicode="ˇ"/><glyph d="M899 1210h-741l30 150h742z" glyph-name="uni02C9" horiz-adv-x="743" unicode="ˉ"/><glyph d="M655 1139h-182l-266 295h239z" glyph-name="uni02CB" horiz-adv-x="514" unicode="ˋ"/><glyph d="M512 1237q154 0 274 127l99 -96q-174 -180 -398 -181q-109 0 -192.5 48.5t-128.5 132.5l133 96q59 -127 213 -127z" glyph-name="breve" horiz-adv-x="718" unicode="˘"/><glyph d="M485 1262q0 -57 -48 -103.5t-105 -46.5t-92 35t-35 92t48 104.5t104 47.5t92 -36t36 -93z" glyph-name="dotaccent" horiz-adv-x="356" unicode="˙"/><glyph d="M374 1087q-91 0 -145.5 54.5t-54.5 145.5t70 162t162 71t145 -54.5t53 -146.5t-69.5 -162t-160.5 -70zM382 1208q40 0 70.5 31t30.5 71t-22.5 64.5t-62.5 24.5t-71.5 -31t-31.5 -71t23.5 -64.5t63.5 -24.5z" glyph-name="ring" horiz-adv-x="428" unicode="˚"/><glyph d="M-158 -219q0 80 60.5 156.5t171.5 123.5l88 -61q-190 -88 -191 -205q0 -68 72 -67q55 -1 96 69l88 -73q-80 -104 -194 -105q-80 0 -135.5 41t-55.5 121z" glyph-name="ogonek" horiz-adv-x="397" unicode="˛"/><glyph d="M621 1135q-61 0 -102.5 34.5t-74 69.5t-71.5 35q-63 0 -90 -127h-140q27 137 85.5 205.5t162.5 68.5q49 0 86 -21.5t73 -68.5t89 -47q61 0 92 125h139q-31 -137 -89 -205.5t-160 -68.5z" glyph-name="tilde" horiz-adv-x="669" unicode="˜"/><glyph d="M594 1434l-301 -295h-156l244 295h213zM899 1434l-301 -295h-156l244 295h213z" glyph-name="hungarumlaut" horiz-adv-x="692" unicode="˝"/><glyph d="M586 1477q0 53 -66 53q-34 0 -63 -49l-82 41q51 96 166 96q59 0 105 -34t46 -98t-49 -120h-117q59 53 60 111z" glyph-name="hookabovecomb" horiz-adv-x="397" unicode="̉"/><glyph d="M356 124q0 -98 -86 -214.5t-215 -177.5l-92 96q61 27 119.5 74t81.5 98h-23q-53 0 -89 35t-36 103t55.5 119.5t124.5 51.5t114.5 -43.5t45.5 -141.5zM324 672q-68 0 -111 45t-43 113t53 121t121 53t113 -45t45 -113t-55 -121t-123 -53z" glyph-name="uni037E" horiz-adv-x="524" unicode=";"/><glyph d="M483 1133h-114l141 434h215z" glyph-name="tonos" unicode="΄"/><glyph d="M760 1133h-117l141 434h217zM1212 1263q0 -56 -49 -103.5t-104 -47.5t-91 36t-36 92t47 102.5t104 46.5t93 -35t36 -91zM598 1263q0 -56 -48 -103.5t-104 -47.5t-92.5 35t-36.5 92t48.5 103.5t105.5 46.5t92 -35t35 -91z" glyph-name="dieresistonos" unicode="΅"/><glyph d="M387 1133h-115l142 434h215zM1298 0h-315l-35 231h-586l-137 -231h-346l830 1366h364zM924 487l-82 588l-342 -588h424z" glyph-name="Alphatonos" horiz-adv-x="1400" unicode="Ά"/><glyph d="M223 1133h-114l141 434h215zM1065 0h-967l301 1366h967l-57 -256h-674l-64 -289h660l-57 -256h-660l-68 -309h674z" glyph-name="Epsilontonos" horiz-adv-x="1267" unicode="Έ"/><glyph d="M223 1133h-114l141 434h215zM1327 0h-293l127 573h-645l-127 -573h-291l301 1366h291l-117 -537h644l118 537h293z" glyph-name="Etatonos" horiz-adv-x="1572" unicode="Ή"/><glyph d="M223 1133h-114l141 434h215zM389 0h-291l301 1366h291z" glyph-name="Iotatonos" horiz-adv-x="636" unicode="Ί"/><glyph d="M256 1133h-115l142 434h215zM762 -25q-291 0 -481.5 168t-190.5 445q0 336 229.5 568.5t565.5 232.5q289 0 479 -168t190 -443q0 -336 -228 -569.5t-564 -233.5zM792 233q182 0 320.5 153t138.5 372q0 170 -108.5 271t-292.5 101t-320.5 -152.5t-136.5 -371.5 q0 -170 108.5 -271.5t290.5 -101.5z" glyph-name="Omicrontonos" horiz-adv-x="1566" unicode="Ό"/><glyph d="M223 1133h-114l141 434h215zM868 0h-290l122 559l-348 807h316l219 -549l456 549h349l-701 -807z" glyph-name="Upsilontonos" horiz-adv-x="1495" unicode="Ύ"/><glyph d="M256 1133h-115l142 434h215zM133 691q0 134 50 255t144.5 220.5t244 161t329.5 61.5q295 0 487.5 -154t192.5 -416q0 -199 -110.5 -343t-260.5 -220h215l-55 -256h-553l57 256q176 39 284 179.5t108 316.5t-100.5 276t-276.5 100q-209 0 -341 -154.5t-132 -363.5 q0 -246 205 -354l-56 -256h-551l58 256h278q-94 74 -155.5 187.5t-61.5 247.5z" glyph-name="Omegatonos" horiz-adv-x="1585" unicode="Ώ"/><glyph d="M446 1133h-116l141 434h217zM899 1263q0 -56 -49.5 -103.5t-105.5 -47.5t-91 36t-35 92t47.5 102.5t104.5 46.5t93 -35t36 -91zM285 1263q0 -56 -48.5 -103.5t-104.5 -47.5t-92 35t-36 92t48 103.5t106 46.5t92.5 -35t34.5 -91zM289 -25q-279 0 -219 271l170 743h262 l-160 -692q-18 -90 64 -90q16 0 40 4l-32 -221q-62 -15 -125 -15z" glyph-name="iotadieresistonos" horiz-adv-x="542" unicode="ΐ"/><glyph d="M1298 0h-315l-35 231h-586l-137 -231h-346l830 1366h364zM924 487l-82 588l-342 -588h424z" glyph-name="Alpha" horiz-adv-x="1400" unicode="Α"/><glyph d="M770 0h-745l301 1366h663q172 0 271.5 -95t99.5 -232.5t-92 -241t-219 -115.5q92 -25 144 -103.5t52 -172.5q0 -162 -118.5 -284t-356.5 -122zM864 819q96 0 140.5 50.5t44.5 111.5t-40 98t-100 37h-346l-65 -297h366zM748 252q94 0 150 51t56 119t-41 107.5t-108 39.5 h-365l-69 -317h377z" glyph-name="Beta" horiz-adv-x="1357" unicode="Β"/><glyph d="M315 0h-290l301 1366h966l-57 -256h-674z" glyph-name="Gamma" horiz-adv-x="1169" unicode="Γ"/><glyph d="M1298 0h-1419l830 1366h364zM958 256l-116 819l-480 -819h596z" glyph-name="Delta" horiz-adv-x="1400" unicode="Δ"/><glyph d="M991 0h-966l301 1366h966l-57 -256h-674l-63 -289h659l-57 -256h-660l-67 -309h674z" glyph-name="Epsilon" horiz-adv-x="1193" unicode="Ε"/><glyph d="M1016 0h-1041l52 236l821 874h-627l55 256h1027l-50 -233l-825 -877h645z" glyph-name="Zeta" horiz-adv-x="1212" unicode="Ζ"/><glyph d="M1253 0h-292l126 573h-645l-127 -573h-290l301 1366h290l-116 -537h643l119 537h292z" glyph-name="Eta" horiz-adv-x="1497" unicode="Η"/><glyph d="M1100 565h-619l56 256h620zM762 -25q-291 0 -481.5 168t-190.5 445q0 336 229.5 568.5t565.5 232.5q289 0 479 -168t190 -443q0 -336 -228 -569.5t-564 -233.5zM792 233q182 0 320.5 153t138.5 372q0 170 -108.5 271t-292.5 101t-320.5 -152.5t-136.5 -371.5 q0 -170 108.5 -271.5t290.5 -101.5z" glyph-name="Theta" horiz-adv-x="1566" unicode="Θ"/><glyph d="M315 0h-290l301 1366h290z" glyph-name="Iota" horiz-adv-x="561" unicode="Ι"/><glyph d="M1194 0h-342l-301 559l-141 -139l-95 -420h-290l301 1366h290l-129 -586l596 586h375l-684 -641z" glyph-name="Kappa" horiz-adv-x="1302" unicode="Κ"/><glyph d="M1298 0h-315l-141 1075l-617 -1075h-346l830 1366h364z" glyph-name="Lambda" horiz-adv-x="1400" unicode="Λ"/><glyph d="M1505 0h-293l218 985l-603 -985h-127l-168 985l-217 -985h-290l301 1366h397l141 -854l522 854h420z" glyph-name="Mu" horiz-adv-x="1751" unicode="Μ"/><glyph d="M1247 0h-280l-447 922l-205 -922h-290l301 1366h299l434 -889l198 889h291z" glyph-name="Nu" horiz-adv-x="1492" unicode="Ν"/><glyph d="M1323 1110h-1090l56 256h1089zM1079 0h-1089l55 256h1092zM1190 565h-1065l57 256h1065z" glyph-name="Xi" horiz-adv-x="1282" unicode="Ξ"/><glyph d="M762 -25q-291 0 -481.5 168t-190.5 445q0 336 229.5 568.5t565.5 232.5q289 0 479 -168t190 -443q0 -336 -228 -569.5t-564 -233.5zM792 233q182 0 320.5 153t138.5 372q0 170 -108.5 271t-292.5 101t-320.5 -152.5t-136.5 -371.5q0 -170 108.5 -271.5t290.5 -101.5z" glyph-name="Omicron" horiz-adv-x="1566" unicode="Ο"/><glyph d="M1253 0h-292l243 1110h-643l-246 -1110h-290l301 1366h1228z" glyph-name="Pi" horiz-adv-x="1497" unicode="Π"/><glyph d="M926 1366q184 0 294.5 -109.5t110.5 -276.5t-91 -281.5t-206.5 -164t-267.5 -49.5h-342l-109 -485h-290l301 1366h600zM784 741q106 0 174 61.5t68 141.5t-47 123t-123 43h-295l-82 -369h305z" glyph-name="Rho" horiz-adv-x="1277" unicode="Ρ"/><glyph d="M608 1110l326 -424l-510 -430h606l-55 -256h-969l62 283l512 440l-320 414l49 229h967l-57 -256h-611z" glyph-name="Sigma" horiz-adv-x="1169" unicode="Σ"/><glyph d="M633 0h-293l244 1110h-400l58 256h1089l-55 -256h-399z" glyph-name="Tau" horiz-adv-x="1191" unicode="Τ"/><glyph d="M696 0h-290l122 559l-348 807h316l219 -549l456 549h349l-701 -807z" glyph-name="Upsilon" horiz-adv-x="1320" unicode="Υ"/><glyph d="M100 633q0 250 222.5 413.5t576.5 182.5l31 137h291l-33 -143q551 -61 551 -494q0 -248 -223.5 -411.5t-575.5 -184.5l-31 -133h-291l33 141q-551 61 -551 492zM1434 731q0 195 -306 236l-129 -572q209 23 322 111t113 225zM406 633q0 -195 303 -236l129 570 q-207 -23 -319.5 -111t-112.5 -223z" glyph-name="Phi" horiz-adv-x="1751" unicode="Φ"/><glyph d="M1264 0h-330l-248 485l-438 -485h-365l658 719l-326 647h330l223 -453l399 453h367l-621 -682z" glyph-name="Chi" horiz-adv-x="1368" unicode="Χ"/><glyph d="M203 709q0 84 20 163l113 494h295l-121 -532q-10 -37 -10 -82q0 -186 250 -230l192 844h293l-193 -844q322 53 379 312l121 532h297l-133 -590q-47 -211 -240.5 -355.5t-484.5 -164.5l-57 -256h-293l59 264q-487 61 -487 445z" glyph-name="Psi" horiz-adv-x="1773" unicode="Ψ"/><glyph d="M115 691q0 134 50 255t144 220.5t243.5 161t330.5 61.5q295 0 487.5 -154t192.5 -416q0 -199 -111 -343t-260 -220h215l-55 -256h-553l57 256q176 39 283.5 179.5t107.5 316.5t-100 276t-277 100q-209 0 -341 -154.5t-132 -363.5q0 -246 205 -354l-55 -256h-551l57 256 h279q-94 74 -155.5 187.5t-61.5 247.5z" glyph-name="Omega" horiz-adv-x="1566" unicode="Ω"/><glyph d="M315 0h-290l301 1366h290zM885 1639q0 -56 -46.5 -103t-104.5 -47t-93 36t-35 92t47 102t105 46t92.5 -35t34.5 -91zM453 1639q0 -56 -47.5 -103t-103.5 -47t-92 36t-36 92t47 102t105 46t92.5 -35t34.5 -91z" glyph-name="Iotadieresis" horiz-adv-x="561" unicode="Ϊ"/><glyph d="M696 0h-290l122 559l-348 807h316l219 -549l456 549h349l-701 -807zM1266 1639q0 -56 -47.5 -103t-104.5 -47t-92 36t-35 92t46.5 102t104.5 46t93 -35t35 -91zM834 1639q0 -56 -47.5 -103t-103.5 -47t-92 36t-36 92t46.5 102t104.5 46t93 -35t35 -91z" glyph-name="Upsilondieresis" horiz-adv-x="1320" unicode="Ϋ"/><glyph d="M793 1133h-115l141 434h215zM53 367q0 174 58.5 314t180.5 236.5t283 96.5q98 0 182.5 -41t133.5 -115l29 131h260l-154 -692q-18 -90 64 -90q15 0 40 4l-32 -221q-61 -14 -125 -15q-213 0 -223 177q-147 -176 -319.5 -176.5t-275 108.5t-102.5 283zM545 207 q133 0 227 117l76 344q-76 115 -232 114q-125 0 -207.5 -102t-82.5 -224t61.5 -185.5t157.5 -63.5z" glyph-name="alphatonos" horiz-adv-x="1228" unicode="ά"/><glyph d="M709 1133h-115l141 434h215zM451 -25q-223 0 -332 71t-109 190t111.5 191.5t226.5 80.5q-94 16 -152.5 69.5t-58.5 129.5q0 135 145.5 221t368.5 86q272 0 420 -166l-158 -148q-94 106 -266 107q-109 0 -176.5 -33t-67.5 -84q0 -90 181 -90h204l-47 -201h-202 q-248 0 -248 -123q-1 -94 195 -94t354 113l88 -166q-205 -154 -477 -154z" glyph-name="epsilontonos" horiz-adv-x="1032" unicode="έ"/><glyph d="M784 1133h-114l141 434h215zM827 655q0 127 -170 127q-113 0 -231 -114l-147 -668h-261l220 989h260l-29 -129q158 154 330 154q141 0 225 -68.5t84 -183.5q0 -31 -10 -82l-238 -1057h-260l219 977q8 37 8 55z" glyph-name="etatonos" unicode="ή"/><glyph d="M459 1133h-115l141 434h215zM289 -25q-279 0 -219 271l170 743h262l-160 -692q-18 -90 64 -90q16 0 40 4l-32 -221q-62 -15 -125 -15z" glyph-name="iotatonos" horiz-adv-x="542" unicode="ί"/><glyph d="M793 1133h-117l141 434h217zM1245 1263q0 -56 -48.5 -103.5t-104.5 -47.5t-91.5 36t-35.5 92t47 102.5t104 46.5t93 -35t36 -91zM631 1263q0 -56 -48.5 -103.5t-104.5 -47.5t-92 35t-36 92t48 103.5t106 46.5t92.5 -35t34.5 -91zM543 -25q-259 0 -364 137.5t-56 356.5 l121 520h260l-123 -538q-25 -113 16 -178.5t146 -65.5q147 0 243.5 135t96.5 305t-52 277l252 90q63 -121 64 -324q0 -303 -172.5 -509t-431.5 -206z" glyph-name="upsilondieresistonos" horiz-adv-x="1181" unicode="ΰ"/><glyph d="M53 367q0 174 58.5 314t180.5 236.5t283 96.5q98 0 182.5 -41t133.5 -115l29 131h260l-154 -692q-18 -90 64 -90q15 0 40 4l-32 -221q-61 -14 -125 -15q-213 0 -223 177q-147 -176 -319.5 -176.5t-275 108.5t-102.5 283zM545 207q133 0 227 117l76 344q-76 115 -232 114 q-125 0 -207.5 -102t-82.5 -224t61.5 -185.5t157.5 -63.5z" glyph-name="alpha" horiz-adv-x="1228" unicode="α"/><glyph d="M631 -25q-219 0 -324 150l-114 -502h-261l293 1295q37 162 176.5 315t411.5 153q199 0 309.5 -83t110.5 -229t-111.5 -246.5t-257.5 -122.5q104 -20 176 -89t72 -198q0 -188 -148.5 -315.5t-332.5 -127.5zM575 207q123 0 199 63.5t76 146.5t-54.5 122t-146.5 39h-80 l52 231h71q117 0 187.5 56.5t70.5 135.5q0 152 -180 152q-98 0 -178 -63t-105 -172l-137 -605q63 -106 225 -106z" glyph-name="beta" horiz-adv-x="1200" unicode="β"/><glyph d="M459 -377h-262l51 219q72 344 23.5 644t-189.5 503h295q80 -125 121 -326.5t20 -361.5q104 119 205.5 316.5t140.5 371.5h262q-55 -240 -218 -511t-361 -468z" glyph-name="gamma" horiz-adv-x="1050" unicode="γ"/><glyph d="M539 -25q-247 0 -368.5 119t-121.5 289t98.5 297t247.5 192q-86 70 -86 195t131.5 224.5t355.5 99.5t363 -136l-145 -176q-94 104 -269 105q-78 0 -128 -32t-50 -72t57.5 -67.5t138.5 -57t162 -72.5t138 -132t57 -216q0 -217 -167 -388.5t-414 -171.5zM326 433 q0 -99 59 -162.5t180 -63.5t209 90t88 205t-75 169t-185 97q-131 -49 -203.5 -142.5t-72.5 -192.5z" glyph-name="delta" horiz-adv-x="1175" unicode="δ"/><glyph d="M451 -25q-223 0 -332 71t-109 190t111.5 191.5t226.5 80.5q-94 16 -152.5 69.5t-58.5 129.5q0 135 145.5 221t368.5 86q272 0 420 -166l-158 -148q-94 106 -266 107q-109 0 -176.5 -33t-67.5 -84q0 -90 181 -90h204l-47 -201h-202q-248 0 -248 -123q-1 -94 195 -94 t354 113l88 -166q-205 -154 -477 -154z" glyph-name="epsilon" horiz-adv-x="1032" unicode="ε"/><glyph d="M543 -61q0 37 -60 36q-209 0 -326.5 97.5t-117.5 267.5q0 229 186.5 439t499.5 360h-479l53 227h817l-43 -188q-324 -156 -540 -365t-216 -416q0 -190 257 -190t257 -164q0 -131 -188 -365h-287q72 68 129.5 146t57.5 115z" glyph-name="zeta" horiz-adv-x="995" unicode="ζ"/><glyph d="M827 655q0 127 -170 127q-113 0 -231 -114l-147 -668h-261l220 989h260l-29 -129q158 154 330 154q141 0 225 -68.5t84 -183.5q0 -31 -10 -82l-238 -1057h-260l219 977q8 37 8 55z" glyph-name="eta" unicode="η"/><glyph d="M532 -25q-198 0 -323 145.5t-125 387.5t80 438.5t229 320.5t347 124t322 -145.5t124 -387.5t-79 -438.5t-228 -320.5t-347 -124zM556 207q104 0 184.5 103.5t129.5 260.5h-520q-4 -31 -4 -86q0 -127 53 -202.5t157 -75.5zM712 1159q-104 0 -183.5 -101.5t-131.5 -256.5 h518q4 53 5 78q0 129 -52 204.5t-156 75.5z" glyph-name="theta" horiz-adv-x="1175" unicode="θ"/><glyph d="M289 -25q-279 0 -219 271l170 743h262l-160 -692q-18 -90 64 -90q16 0 40 4l-32 -221q-62 -15 -125 -15z" glyph-name="iota" horiz-adv-x="542" unicode="ι"/><glyph d="M985 0h-315l-183 387l-153 -133l-55 -254h-261l220 989h260l-97 -424l459 424h332l-492 -448z" glyph-name="kappa" horiz-adv-x="1095" unicode="κ"/><glyph d="M367 1159q-47 0 -84 -18l14 233q55 16 131 17q139 -4 219 -56.5t103 -183.5l202 -1151h-270l-104 688l-414 -688h-287l629 1001l-17 84q-16 74 -122 74z" glyph-name="lambda" horiz-adv-x="1050" unicode="λ"/><glyph d="M506 205q133 0 248 114l147 670h262l-153 -692q-18 -90 63 -90q16 0 41 4l-33 -221q-61 -14 -125 -15q-215 0 -225 177q-143 -176 -317 -177q-100 1 -131 56l-93 -408h-262l312 1366h260l-135 -598q-20 -92 19.5 -139t121.5 -47z" glyph-name="mu" horiz-adv-x="1210" unicode="μ"/><glyph d="M537 0h-263l-172 989h279l104 -729q133 150 235.5 348.5t143.5 380.5h262q-55 -244 -220.5 -518t-368.5 -471z" glyph-name="nu" horiz-adv-x="1050" unicode="ν"/><glyph d="M489 -25q-231 0 -348.5 82.5t-117.5 228.5t94 237t233 128q-76 14 -127 64.5t-51 136.5t76 168t182 119h-176l55 227h799l-53 -227h-389q-86 -23 -145.5 -79t-59.5 -120t57 -99.5t154 -35.5h299l-51 -223h-295q-145 0 -230.5 -57.5t-85.5 -164.5q0 -74 67.5 -113.5 t192.5 -39.5q262 0 262 -164q0 -131 -188 -365h-276q63 68 119.5 146t56.5 117q-1 34 -54 34z" glyph-name="xi" horiz-adv-x="995" unicode="ξ"/><glyph d="M552 -25q-238 0 -367.5 125t-129.5 324q0 238 163.5 414t401.5 176t368 -126t130 -325q0 -238 -164 -413t-402 -175zM324 452q0 -245 240 -245q118 0 201 102.5t83 226.5q0 246 -240 246q-117 0 -200.5 -103.5t-83.5 -226.5z" glyph-name="omicron" horiz-adv-x="1175" unicode="ο"/><glyph d="M1001 0h-262l174 762h-409l-172 -762h-262l174 762h-164l51 227h1260l-54 -227h-163z" glyph-name="pi" horiz-adv-x="1292" unicode="π"/><glyph d="M636 -25q-108 0 -194 41t-135 115l-114 -508h-261l197 873q51 238 204 378t367 140t328.5 -121t114.5 -326t-98.5 -343t-199.5 -193.5t-209 -55.5zM580 207q127 0 208.5 101.5t81.5 221.5t-53 186t-153 66t-174 -79.5t-103 -206.5l-39 -177q74 -112 232 -112z" glyph-name="rho" horiz-adv-x="1193" unicode="ρ"/><glyph d="M502 -25q-184 0 -314.5 124t-130.5 327q0 246 166 417t410 171q285 0 401 -195l-194 -149q-66 112 -205 112t-226 -100t-87 -244q0 -231 294 -231q106 0 167 -43t61 -127q0 -123 -187 -359h-282q68 63 127 143.5t59 119.5q0 34 -59 34z" glyph-name="sigma1" horiz-adv-x="1007" unicode="ς"/><glyph d="M1094 532q0 -221 -156 -389t-390 -168t-363.5 125t-129.5 324q0 238 180.5 401.5t454.5 163.5h559l-51 -231h-184q80 -85 80 -226zM326 449q0 -242 238 -242q118 0 201 101.5t83 245.5t-88 204h-98q-152 0 -244 -94.5t-92 -214.5z" glyph-name="sigma" horiz-adv-x="1175" unicode="σ"/><glyph d="M564 -25q-134 0 -208.5 70t-44.5 207l113 510h-320l54 227h901l-51 -227h-322l-100 -453q-10 -49 15.5 -75.5t74.5 -26.5t78 24l10 -204q-66 -52 -200 -52z" glyph-name="tau" horiz-adv-x="987" unicode="τ"/><glyph d="M543 -25q-259 0 -364 137.5t-56 356.5l121 520h260l-123 -538q-25 -113 16 -178.5t146 -65.5q147 0 243.5 135t96.5 305t-52 277l252 90q63 -121 64 -324q0 -303 -172.5 -509t-431.5 -206z" glyph-name="upsilon" horiz-adv-x="1181" unicode="υ"/><glyph d="M1579 544q0 -230 -198.5 -390t-553.5 -177l-79 -354h-261l82 363q-252 29 -382 147.5t-130 314.5t135.5 337t372.5 229l64 -203q-141 -51 -219 -142t-78 -202q0 -219 289 -254l182 801h129q311 0 479 -120t168 -350zM1303 530q0 116 -77 178t-216 68l-129 -563 q215 23 318.5 112t103.5 205z" glyph-name="phi" horiz-adv-x="1628" unicode="φ"/><glyph d="M836 -377h-279l-125 459l-334 -459h-295l510 703l-178 663h279l110 -420l303 420h297l-483 -663z" glyph-name="chi" horiz-adv-x="1032" unicode="χ"/><glyph d="M383 422q0 -170 240 -207l262 1151h260l-262 -1151q303 47 358 277l113 497h260l-121 -532q-47 -205 -219 -334t-447 -146l-79 -354h-261l82 363q-451 53 -450 397q0 61 16 139l109 467h260l-113 -497q-8 -27 -8 -70z" glyph-name="psi" horiz-adv-x="1628" unicode="ψ"/><glyph d="M1704 631q0 -254 -157.5 -455t-383.5 -201q-287 0 -334 281q-82 -137 -176.5 -209t-250.5 -72t-254.5 116t-98.5 291t97.5 346t250.5 286l172 -156q-252 -197 -252 -446q0 -90 41 -147.5t129 -57.5t159 82t97 207l56 249h262l-55 -249q-29 -123 7 -206t136 -83 q129 0 210 126.5t81 284.5t-78 263l223 133q119 -129 119 -383z" glyph-name="omega" horiz-adv-x="1744" unicode="ω"/><glyph d="M786 1263q0 -56 -47 -103.5t-104 -47.5t-92 36t-35 92t47 102.5t105 46.5t92 -35t34 -91zM354 1263q0 -56 -47 -103.5t-103 -47.5t-92 36t-36 92t47 102.5t104 46.5t92 -35t35 -91zM289 -25q-279 0 -219 271l170 743h262l-160 -692q-18 -90 64 -90q16 0 40 4l-32 -221 q-62 -15 -125 -15z" glyph-name="iotadieresis" horiz-adv-x="542" unicode="ϊ"/><glyph d="M1133 1263q0 -56 -47.5 -103.5t-103.5 -47.5t-92 36t-36 92t47 102.5t105 46.5t92.5 -35t34.5 -91zM700 1263q0 -56 -47 -103.5t-104 -47.5t-92 36t-35 92t47 102.5t105 46.5t92 -35t34 -91zM543 -25q-259 0 -364 137.5t-56 356.5l121 520h260l-123 -538 q-25 -113 16 -178.5t146 -65.5q147 0 243.5 135t96.5 305t-52 277l252 90q63 -121 64 -324q0 -303 -172.5 -509t-431.5 -206z" glyph-name="upsilondieresis" horiz-adv-x="1181" unicode="ϋ"/><glyph d="M778 1133h-114l141 434h215zM552 -25q-238 0 -367.5 125t-129.5 324q0 238 163.5 414t401.5 176t368 -126t130 -325q0 -238 -164 -413t-402 -175zM324 452q0 -245 240 -245q118 0 201 102.5t83 226.5q0 246 -240 246q-117 0 -200.5 -103.5t-83.5 -226.5z" glyph-name="omicrontonos" horiz-adv-x="1175" unicode="ό"/><glyph d="M799 1133h-115l141 434h215zM543 -25q-259 0 -364 137.5t-56 356.5l121 520h260l-123 -538q-25 -113 16 -178.5t146 -65.5q147 0 243.5 135t96.5 305t-52 277l252 90q63 -121 64 -324q0 -303 -172.5 -509t-431.5 -206z" glyph-name="upsilontonos" horiz-adv-x="1181" unicode="ύ"/><glyph d="M1065 1133h-115l142 434h215zM1704 631q0 -254 -157.5 -455t-383.5 -201q-287 0 -334 281q-82 -137 -176.5 -209t-250.5 -72t-254.5 116t-98.5 291t97.5 346t250.5 286l172 -156q-252 -197 -252 -446q0 -90 41 -147.5t129 -57.5t159 82t97 207l56 249h262l-55 -249 q-29 -123 7 -206t136 -83q129 0 210 126.5t81 284.5t-78 263l223 133q119 -129 119 -383z" glyph-name="omegatonos" horiz-adv-x="1744" unicode="ώ"/><glyph d="M1219 1605q0 -56 -47.5 -103.5t-103.5 -47.5t-92 35t-36 92t47 103.5t105 46.5t92.5 -35t34.5 -91zM786 1605q0 -56 -47 -103.5t-104 -47.5t-92 35t-35 92t47 103.5t105 46.5t92 -35t34 -91zM991 0h-966l301 1366h966l-57 -256h-674l-63 -289h659l-57 -256h-660l-67 -309 h674z" glyph-name="afii10023" horiz-adv-x="1193" unicode="Ё"/><glyph d="M1016 610q-129 0 -260 -45l-123 -565h-293l244 1110h-400l56 256h1089l-55 -256h-397l-66 -289q160 45 305 45q248 0 351.5 -128.5t54.5 -336.5q-41 -201 -205 -313.5t-381 -112.5l55 252q92 0 160.5 50.5t79.5 140.5q20 92 -33 142t-182 50z" glyph-name="afii10051" horiz-adv-x="1589" unicode="Ђ"/><glyph d="M1296 1776l-397 -295h-186l340 295h243zM315 0h-290l301 1366h966l-57 -256h-674z" glyph-name="afii10052" horiz-adv-x="1169" unicode="Ѓ"/><glyph d="M762 -25q-289 0 -480.5 169t-191.5 444q0 352 233.5 576.5t561.5 224.5q236 0 388 -109t218 -279l-281 -94q-39 106 -130 164.5t-222 58.5t-250 -84.5t-174 -224.5h668l-58 -256h-649q14 -147 116.5 -239.5t266.5 -92.5q88 0 176 43t146 115l223 -151 q-109 -139 -259 -202t-302 -63z" glyph-name="afii10053" horiz-adv-x="1406" unicode="Є"/><glyph d="M616 -25q-199 0 -364.5 70t-253.5 184l180 213q72 -96 197 -154.5t245 -58.5t172 48.5t52 103.5t-68.5 95t-166 75t-195 78t-166 122.5t-68.5 190.5q0 178 146.5 311t388.5 133q164 0 308 -58t234 -163l-180 -204q-74 84 -185.5 129t-205.5 45t-146.5 -41.5t-52.5 -93.5 t69 -91t167 -72.5t196.5 -77.5t167 -125t68.5 -192q0 -197 -146.5 -332t-392.5 -135z" glyph-name="afii10054" horiz-adv-x="1228" unicode="Ѕ"/><glyph d="M315 0h-290l301 1366h290z" glyph-name="afii10055" horiz-adv-x="561" unicode="І"/><glyph d="M877 1605q0 -56 -47.5 -103.5t-104.5 -47.5t-92 35t-35 92t47 103.5t105 46.5t92.5 -35t34.5 -91zM444 1605q0 -56 -47 -103.5t-103 -47.5t-92 35t-36 92t47 103.5t105 46.5t92 -35t34 -91zM315 0h-290l301 1366h290z" glyph-name="afii10056" horiz-adv-x="561" unicode="Ї"/><glyph d="M338 -25q-121 0 -227.5 39t-169.5 115l157 217q74 -113 219 -113q190 0 242 220l201 913h291l-201 -917q-53 -244 -177 -359t-335 -115z" glyph-name="afii10057" horiz-adv-x="995" unicode="Ј"/><glyph d="M1755 881q184 0 294 -109.5t110 -274.5t-90.5 -282t-206 -166t-267.5 -49h-634l243 1110h-416l-155 -463q-139 -412 -273.5 -515t-221 -130t-201.5 -27l55 258q113 0 190.5 88.5t165.5 346.5l234 698h970l-108 -485h311zM1686 625h-297l-82 -369h301q111 0 179 61.5 t68 140.5t-46.5 123t-122.5 44z" glyph-name="afii10058" horiz-adv-x="2213" unicode="Љ"/><glyph d="M1612 0h-651l126 590h-643l-129 -590h-290l299 1366h290l-114 -520h645l115 520h292l-114 -520h327q178 0 283.5 -104.5t105.5 -266.5t-87 -271.5t-197.5 -156.5t-257.5 -47zM1698 590h-318l-73 -334h323q100 0 161.5 56t61.5 128t-42.5 111t-112.5 39z" glyph-name="afii10059" horiz-adv-x="2213" unicode="Њ"/><glyph d="M1024 610q-137 0 -268 -45l-123 -565h-293l244 1110h-400l56 256h1089l-55 -256h-397l-66 -289q160 45 305 45q252 0 350.5 -135t46.5 -369l-77 -362h-295l78 362q57 248 -195 248z" glyph-name="afii10060" horiz-adv-x="1652" unicode="Ћ"/><glyph d="M1339 1776l-397 -295h-186l340 295h243zM1194 0h-342l-301 559l-141 -139l-95 -420h-290l301 1366h290l-129 -586l596 586h375l-684 -641z" glyph-name="afii10061" horiz-adv-x="1302" unicode="Ќ"/><glyph d="M203 -25q-92 0 -171 28t-116 71l160 233q74 -74 153 -74t125.5 33t108.5 117l-283 983h320l180 -723l498 723h340l-805 -1104q-100 -139 -220 -213t-290 -74zM846 1430q-109 0 -193 48t-129 132l133 96q59 -127 213 -127t275 127l98 -96q-174 -180 -397 -180z" glyph-name="afii10062" horiz-adv-x="1320" unicode="Ў"/><glyph d="M434 -260l55 260h-464l299 1366h290l-243 -1110h645l244 1110h292l-299 -1366h-471l-57 -260h-291z" glyph-name="afii10145" horiz-adv-x="1497" unicode="Џ"/><glyph d="M1298 0h-315l-35 231h-586l-137 -231h-346l830 1366h364zM924 487l-82 588l-342 -588h424z" glyph-name="afii10017" horiz-adv-x="1400" unicode="А"/><glyph d="M797 868q199 0 312.5 -107.5t113.5 -272.5t-90.5 -278.5t-205 -161.5t-265.5 -48h-637l299 1366h997l-55 -256h-707l-53 -242h291zM758 612h-307l-80 -356h311q109 0 173.5 60t64.5 136t-45 118t-117 42z" glyph-name="afii10018" horiz-adv-x="1277" unicode="Б"/><glyph d="M770 0h-745l301 1366h663q172 0 271.5 -95t99.5 -232.5t-92 -241t-219 -115.5q92 -25 144 -103.5t52 -172.5q0 -162 -118.5 -284t-356.5 -122zM864 819q96 0 140.5 50.5t44.5 111.5t-40 98t-100 37h-346l-65 -297h366zM748 252q94 0 150 51t56 119t-41 107.5t-108 39.5 h-365l-69 -317h377z" glyph-name="afii10019" horiz-adv-x="1357" unicode="В"/><glyph d="M315 0h-290l301 1366h966l-57 -256h-674z" glyph-name="afii10020" horiz-adv-x="1169" unicode="Г"/><glyph d="M-113 -252l105 485q119 16 194.5 99.5t161.5 335.5l234 698h970l-245 -1110h125l-113 -508h-291l55 252h-852l-55 -252h-289zM788 1110l-155 -463q-88 -262 -252 -391h635l188 854h-416z" glyph-name="afii10021" horiz-adv-x="1521" unicode="Д"/><glyph d="M991 0h-966l301 1366h966l-57 -256h-674l-63 -289h659l-57 -256h-660l-67 -309h674z" glyph-name="afii10022" horiz-adv-x="1193" unicode="Е"/><glyph d="M266 0h-377l736 725l-402 641h338l328 -575l127 575h293l-115 -522l526 522h381l-684 -641l420 -725h-336l-301 561l-86 -82l-104 -479h-293l104 477l-35 58z" glyph-name="afii10024" horiz-adv-x="1947" unicode="Ж"/><glyph d="M618 -25q-211 0 -379.5 76t-242.5 209l192 176q63 -96 179 -149.5t236 -53.5t188.5 53.5t68.5 125.5q0 152 -264 153h-272l57 256h299q281 0 281 158q0 68 -77 108.5t-206 40.5q-207 0 -344 -110l-105 199q84 78 212 123.5t266 45.5q250 0 402.5 -95t152.5 -261 q0 -131 -113 -225t-256 -113q115 -29 184.5 -102.5t69.5 -196.5q0 -178 -159 -298t-370 -120z" glyph-name="afii10025" horiz-adv-x="1249" unicode="З"/><glyph d="M305 0h-280l301 1366h290l-194 -889l827 889h299l-301 -1366h-293l205 922z" glyph-name="afii10026" horiz-adv-x="1492" unicode="И"/><glyph d="M305 0h-280l301 1366h290l-194 -889l827 889h299l-301 -1366h-293l205 922zM944 1430q-109 0 -192.5 48t-128.5 132l133 96q59 -127 213 -127t274 127l98 -96q-174 -180 -397 -180z" glyph-name="afii10027" horiz-adv-x="1492" unicode="Й"/><glyph d="M1194 0h-342l-301 559l-141 -139l-95 -420h-290l301 1366h290l-129 -586l596 586h375l-684 -641z" glyph-name="afii10028" horiz-adv-x="1302" unicode="К"/><glyph d="M-63 -25l55 258q113 0 190.5 88.5t165.5 346.5l234 698h970l-299 -1366h-292l243 1110h-416l-155 -463q-139 -412 -273.5 -515t-221 -130t-201.5 -27z" glyph-name="afii10029" horiz-adv-x="1497" unicode="Л"/><glyph d="M1505 0h-293l218 985l-603 -985h-127l-168 985l-217 -985h-290l301 1366h397l141 -854l522 854h420z" glyph-name="afii10030" horiz-adv-x="1751" unicode="М"/><glyph d="M1253 0h-292l126 573h-645l-127 -573h-290l301 1366h290l-116 -537h643l119 537h292z" glyph-name="afii10031" horiz-adv-x="1497" unicode="Н"/><glyph d="M762 -25q-291 0 -481.5 168t-190.5 445q0 336 229.5 568.5t565.5 232.5q289 0 479 -168t190 -443q0 -336 -228 -569.5t-564 -233.5zM792 233q182 0 320.5 153t138.5 372q0 170 -108.5 271t-292.5 101t-320.5 -152.5t-136.5 -371.5q0 -170 108.5 -271.5t290.5 -101.5z" glyph-name="afii10032" horiz-adv-x="1566" unicode="О"/><glyph d="M1253 0h-292l243 1110h-643l-246 -1110h-290l301 1366h1228z" glyph-name="afii10033" horiz-adv-x="1497" unicode="П"/><glyph d="M926 1366q184 0 294.5 -109.5t110.5 -276.5t-91 -281.5t-206.5 -164t-267.5 -49.5h-342l-109 -485h-290l301 1366h600zM784 741q106 0 174 61.5t68 141.5t-47 123t-123 43h-295l-82 -369h305z" glyph-name="afii10034" horiz-adv-x="1277" unicode="Р"/><glyph d="M762 -25q-289 0 -480.5 169t-191.5 444q0 352 233.5 576.5t561.5 224.5q236 0 388 -109t218 -279l-281 -94q-39 106 -130 164.5t-210 58.5q-197 0 -337 -151.5t-140 -372.5q0 -162 105.5 -267.5t279.5 -105.5q88 0 176 43t146 115l223 -151q-109 -139 -259 -202t-302 -63 z" glyph-name="afii10035" horiz-adv-x="1406" unicode="С"/><glyph d="M633 0h-293l244 1110h-400l58 256h1089l-55 -256h-399z" glyph-name="afii10036" horiz-adv-x="1191" unicode="Т"/><glyph d="M203 -25q-92 0 -171 28t-116 71l160 233q74 -74 153 -74t125.5 33t108.5 117l-283 983h320l180 -723l498 723h340l-805 -1104q-100 -139 -220 -213t-290 -74z" glyph-name="afii10037" horiz-adv-x="1320" unicode="У"/><glyph d="M100 633q0 250 222.5 413.5t576.5 182.5l31 137h291l-33 -143q551 -61 551 -494q0 -248 -223.5 -411.5t-575.5 -184.5l-31 -133h-291l33 141q-551 61 -551 492zM1434 731q0 195 -306 236l-129 -572q209 23 322 111t113 225zM406 633q0 -195 303 -236l129 570 q-207 -23 -319.5 -111t-112.5 -223z" glyph-name="afii10038" horiz-adv-x="1751" unicode="Ф"/><glyph d="M1264 0h-330l-248 485l-438 -485h-365l658 719l-326 647h330l223 -453l399 453h367l-621 -682z" glyph-name="afii10039" horiz-adv-x="1368" unicode="Х"/><glyph d="M1028 -252l55 252h-1058l299 1366h290l-243 -1110h645l244 1110h292l-245 -1110h125l-113 -508h-291z" glyph-name="afii10040" horiz-adv-x="1521" unicode="Ц"/><glyph d="M705 735q134 0 258 45l129 586h290l-299 -1366h-290l112 524q-156 -45 -303 -45q-254 0 -352 134.5t-45 369.5l84 383h293l-84 -383q-29 -129 22 -188.5t185 -59.5z" glyph-name="afii10041" horiz-adv-x="1329" unicode="Ч"/><glyph d="M1774 1366h292l-299 -1366h-1742l299 1366h290l-243 -1110h434l244 1110h292l-245 -1110h434z" glyph-name="afii10042" horiz-adv-x="2013" unicode="Ш"/><glyph d="M1774 1366h292l-243 -1110h123l-111 -508h-293l55 252h-1572l299 1366h290l-243 -1110h434l244 1110h292l-245 -1110h434z" glyph-name="afii10043" horiz-adv-x="2035" unicode="Щ"/><glyph d="M975 0h-635l244 1110h-400l56 256h692l-109 -485h312q184 0 293.5 -109.5t109.5 -275.5t-90 -282t-205.5 -165t-267.5 -49zM1065 625h-297l-82 -369h301q111 0 179.5 61.5t68.5 140.5t-47 123t-123 44z" glyph-name="afii10044" horiz-adv-x="1593" unicode="Ъ"/><glyph d="M1530 0h-293l299 1366h293zM819 881q184 0 294 -109.5t110 -274.5t-90.5 -282t-206 -166t-267.5 -49h-634l299 1366h290l-106 -485h311zM750 625h-297l-82 -369h301q111 0 179.5 61.5t68.5 140.5t-47 123t-123 44z" glyph-name="afii10045" horiz-adv-x="1775" unicode="Ы"/><glyph d="M819 881q184 0 294 -109.5t110 -274.5t-90.5 -282t-206 -166t-267.5 -49h-634l299 1366h290l-106 -485h311zM750 625h-297l-82 -369h301q111 0 179.5 61.5t68.5 140.5t-47 123t-123 44z" glyph-name="afii10046" horiz-adv-x="1277" unicode="Ь"/><glyph d="M723 1389q289 0 479.5 -169t190.5 -444q0 -352 -232.5 -576.5t-560.5 -224.5q-236 0 -389.5 109t-218.5 278l280 95q39 -106 130.5 -165t225.5 -59t255 91.5t174 240.5h-670l57 256h641q-20 137 -121.5 223t-256.5 86q-88 0 -176.5 -43t-145.5 -112l-225 151 q109 137 260 200t303 63z" glyph-name="afii10047" horiz-adv-x="1406" unicode="Э"/><glyph d="M1329 -25q-287 0 -476 164t-196 434h-217l-125 -573h-290l299 1366h290l-116 -537h194q76 248 283 404t487 156t470 -168t190 -443q0 -336 -228.5 -569.5t-564.5 -233.5zM1360 233q184 0 321.5 153t137.5 372q0 170 -108.5 271t-292.5 101t-320.5 -152.5t-136.5 -371.5 q0 -170 107.5 -271.5t291.5 -101.5z" glyph-name="afii10048" horiz-adv-x="2136" unicode="Ю"/><glyph d="M174 844q0 104 29.5 186t91 161t176.5 127t268 48h633l-301 -1366h-291l107 485h-180l-375 -485h-367l428 522q-90 39 -154.5 128.5t-64.5 193.5zM647 741h297l80 369h-303q-109 0 -176.5 -61.5t-67.5 -140.5t47 -123t123 -44z" glyph-name="afii10049" horiz-adv-x="1316" unicode="Я"/><glyph d="M575 1014q98 0 182.5 -41t133.5 -115l27 131h262l-219 -989h-263l29 123q-125 -147 -297 -147.5t-274.5 108.5t-102.5 283t58.5 314t180 236.5t283.5 96.5zM616 782q-125 0 -207.5 -102t-82.5 -224t61.5 -185.5t157.5 -63.5q135 0 227 117l76 344q-76 114 -232 114z" glyph-name="afii10065" horiz-adv-x="1200" unicode="а"/><glyph d="M324 452q0 -245 240 -245q118 0 201 102.5t83 226.5q0 246 -240 246q-117 0 -200.5 -103.5t-83.5 -226.5zM552 -25q-238 0 -365.5 127t-127.5 340q0 96 33 214t76 198q104 190 248.5 294.5t367.5 137.5q197 33 207 80h271q-47 -213 -471 -266q-313 -41 -410 -248 q147 158 339 158t295 -124t103 -323q0 -238 -164 -413t-402 -175z" glyph-name="afii10066" horiz-adv-x="1181" unicode="б"/><glyph d="M700 0h-682l218 989h602q127 0 199.5 -60.5t72.5 -159.5t-62.5 -173t-160.5 -94q139 -58 139 -192t-89.5 -222t-236.5 -88zM657 213q49 0 81 30.5t32 70.5t-26.5 61.5t-71.5 21.5h-305l-41 -184h331zM733 610q45 0 74 28t29 64t-24 55t-64 19h-302l-34 -166h321z" glyph-name="afii10067" horiz-adv-x="1200" unicode="в"/><glyph d="M999 989l-51 -227h-504l-165 -762h-261l218 989h763z" glyph-name="afii10068" horiz-adv-x="929" unicode="г"/><glyph d="M-127 -252l100 469q68 14 117 70.5t107 222.5l168 479h800l-168 -762h109l-105 -479h-262l56 252h-609l-55 -252h-258zM541 762l-90 -268q-57 -176 -172 -267h458l115 535h-311z" glyph-name="afii10069" horiz-adv-x="1202" unicode="д"/><glyph d="M552 -25q-218 0 -356.5 119t-138.5 326q0 246 164 420t408 174q195 0 319.5 -120t124.5 -323q0 -94 -20 -159h-736v-25q0 -74 72.5 -139.5t212.5 -65.5t236 74l82 -178q-150 -103 -368 -103zM840 588v20q0 82 -58 140.5t-164 58.5t-181 -66.5t-93 -152.5h496z" glyph-name="afii10070" horiz-adv-x="1132" unicode="е"/><glyph d="M231 0h-340l521 541l-291 448h303l235 -377l84 377h263l-74 -338l360 338h336l-489 -448l284 -541h-307l-186 391l-70 -61l-72 -330h-262l72 328l-31 43z" glyph-name="afii10072" horiz-adv-x="1536" unicode="ж"/><glyph d="M592 1014q430 0 430 -256q0 -117 -107.5 -189.5t-220.5 -81.5q96 -16 157.5 -69t61.5 -129q0 -135 -142 -224.5t-351 -89.5q-147 0 -265 46.5t-184 119.5l156 152q109 -111 289 -111q100 0 165.5 35t65.5 88q0 94 -170 94h-223l47 201h203q242 0 241 119q0 88 -182 88 t-352 -111l-96 164q205 154 477 154z" glyph-name="afii10073" horiz-adv-x="1032" unicode="з"/><glyph d="M268 0h-250l218 989h260l-134 -598l541 598h262l-217 -989h-260l135 621z" glyph-name="afii10074" horiz-adv-x="1187" unicode="и"/><glyph d="M268 0h-250l218 989h260l-134 -598l541 598h262l-217 -989h-260l135 621zM739 1237q154 0 275 127l98 -96q-174 -180 -397 -181q-109 0 -193 48.5t-129 132.5l133 96q59 -127 213 -127z" glyph-name="afii10075" horiz-adv-x="1187" unicode="й"/><glyph d="M985 0h-315l-183 387l-153 -133l-55 -254h-261l220 989h260l-97 -424l459 424h332l-492 -448z" glyph-name="afii10076" horiz-adv-x="1095" unicode="к"/><glyph d="M-80 -25l47 213q61 0 114.5 73t115.5 249l168 479h800l-217 -989h-260l164 762h-311l-95 -283q-86 -258 -213 -381t-313 -123z" glyph-name="afii10077" horiz-adv-x="1187" unicode="л"/><glyph d="M1188 0h-260l139 643l-403 -643h-119l-127 643l-139 -643h-261l218 989h331l113 -590l371 590h354z" glyph-name="afii10078" horiz-adv-x="1427" unicode="м"/><glyph d="M279 0h-261l226 989h260l-82 -358h409l82 358h261l-226 -989h-260l90 401h-407z" glyph-name="afii10079" unicode="н"/><glyph d="M552 -25q-238 0 -367.5 125t-129.5 324q0 238 163.5 414t401.5 176t368 -126t130 -325q0 -238 -164 -413t-402 -175zM324 452q0 -245 240 -245q118 0 201 102.5t83 226.5q0 246 -240 246q-117 0 -200.5 -103.5t-83.5 -226.5z" glyph-name="afii10080" horiz-adv-x="1175" unicode="о"/><glyph d="M948 0h-260l172 762h-407l-174 -762h-261l226 989h930z" glyph-name="afii10081" unicode="п"/><glyph d="M623 -25q-211 0 -316 156l-112 -508h-261l304 1366h260l-29 -123q125 148 297 148t274.5 -108t102.5 -282t-58.5 -315t-180 -237.5t-281.5 -96.5zM580 207q127 0 208.5 101.5t81.5 223.5t-61 186t-158 64q-131 0 -227 -118l-76 -345q74 -112 232 -112z" glyph-name="afii10082" horiz-adv-x="1193" unicode="р"/><glyph d="M546 -25q-224 0 -356.5 124t-132.5 327q0 246 166 417t410 171q285 0 401 -195l-194 -149q-66 112 -205 112t-226 -100t-87 -226t71 -187.5t185 -61.5t198 98l142 -174q-148 -156 -372 -156z" glyph-name="afii10083" horiz-adv-x="1021" unicode="с"/><glyph d="M463 0h-262l166 762h-277l51 227h815l-51 -227h-276z" glyph-name="afii10084" horiz-adv-x="884" unicode="т"/><glyph d="M94 -168q70 0 117 70l61 92l-176 995h271l104 -688l414 688h286l-720 -1151q-80 -131 -168.5 -185.5t-198.5 -54.5t-182 25l86 225q36 -16 106 -16z" glyph-name="afii10085" horiz-adv-x="1050" unicode="у"/><glyph d="M528 1014q84 0 161 -40t118 -112l113 504h260l-111 -502q113 150 269 150t235.5 -113t79.5 -272.5t-55.5 -307t-165 -247t-246.5 -99.5q-84 0 -161 40t-118 112l-110 -504h-260l110 504q-106 -152 -266 -152t-240 113t-80 272.5t55.5 307t165 247t246.5 99.5zM586 782 q-109 0 -180.5 -115.5t-71.5 -254.5q0 -88 42 -146.5t118 -58.5q106 0 196 112l76 351q-20 49 -69.5 80.5t-110.5 31.5zM1130 207q106 0 179 115.5t73 255.5q0 90 -42 147t-119 57q-104 0 -193 -112l-78 -351q18 -47 68.5 -79.5t111.5 -32.5z" glyph-name="afii10086" horiz-adv-x="1722" unicode="ф"/><glyph d="M922 0h-283l-152 334l-301 -334h-297l461 508l-221 481h281l137 -305l272 305h299l-440 -481z" glyph-name="afii10087" horiz-adv-x="1032" unicode="х"/><glyph d="M739 -252l56 252h-777l218 989h260l-168 -762h409l168 762h260l-168 -762h109l-105 -479h-262z" glyph-name="afii10088" horiz-adv-x="1202" unicode="ц"/><glyph d="M580 537q114 0 202 38l90 414h263l-217 -989h-263l80 367q-127 -61 -315 -61t-259 82.5t-36 242.5l80 358h260l-59 -268q-23 -100 18.5 -142t155.5 -42z" glyph-name="afii10089" horiz-adv-x="1155" unicode="ч"/><glyph d="M1401 989h262l-217 -989h-1428l218 989h260l-168 -762h323l168 762h260l-168 -762h324z" glyph-name="afii10090" horiz-adv-x="1685" unicode="ш"/><glyph d="M1401 989h262l-168 -762h109l-105 -479h-262l55 252h-1274l218 989h260l-168 -762h323l168 762h260l-168 -762h324z" glyph-name="afii10091" horiz-adv-x="1712" unicode="щ"/><glyph d="M831 0h-630l166 762h-277l51 227h539l-76 -340h277q156 0 246 -78.5t90 -215.5t-106 -246t-280 -109zM838 432h-281l-47 -213h309q57 0 94 35t37 86q1 92 -112 92z" glyph-name="afii10092" horiz-adv-x="1316" unicode="ъ"/><glyph d="M1352 0h-262l217 989h262zM696 649q156 0 246 -78.5t90 -215.5t-104.5 -246t-278.5 -109h-631l218 989h260l-76 -340h276zM653 432h-280l-47 -213h309q59 0 95 35t36 86q0 92 -113 92z" glyph-name="afii10093" horiz-adv-x="1589" unicode="ы"/><glyph d="M696 649q156 0 246 -78.5t90 -215.5t-104.5 -246t-278.5 -109h-631l218 989h260l-76 -340h276zM653 432h-280l-47 -213h309q59 0 95 35t36 86q0 92 -113 92z" glyph-name="afii10094" horiz-adv-x="1132" unicode="ь"/><glyph d="M168 309q68 -112 230 -112q83 0 159 55t113 145h-410l45 201h385q-14 90 -79.5 141.5t-157.5 51.5q-131 0 -220 -95l-133 162q148 156 372 156t357.5 -124t133.5 -327q0 -246 -167 -417t-409 -171q-287 0 -403 195z" glyph-name="afii10095" horiz-adv-x="1021" unicode="э"/><glyph d="M1038 -25q-232 0 -362.5 116t-140.5 304h-170l-86 -395h-261l218 989h260l-80 -366h151q61 172 206 281.5t333 109.5q231 0 361 -126t130 -325q0 -238 -163.5 -413t-395.5 -175zM1327 536q1 246 -239 246q-116 0 -200.5 -103t-84.5 -225t61 -184.5t179 -62.5t201 102.5 t83 226.5z" glyph-name="afii10096" horiz-adv-x="1656" unicode="ю"/><glyph d="M139 625q0 147 105.5 255.5t279.5 108.5h631l-217 -989h-260l74 340h-193l-268 -340h-305l319 373q-74 29 -120 94t-46 158zM518 557h281l47 213h-309q-57 0 -94 -35t-37 -86q-1 -92 112 -92z" glyph-name="afii10097" horiz-adv-x="1173" unicode="я"/><glyph d="M1106 1263q0 -56 -47 -103.5t-105 -47.5t-92.5 36t-34.5 92t47.5 102.5t104.5 46.5t92 -35t35 -91zM674 1263q0 -56 -47 -103.5t-103 -47.5t-92.5 36t-36.5 92t46.5 102.5t104.5 46.5t93 -35t35 -91zM552 -25q-218 0 -356.5 119t-138.5 326q0 246 164 420t408 174 q195 0 319.5 -120t124.5 -323q0 -94 -20 -159h-736v-25q0 -74 72.5 -139.5t212.5 -65.5t236 74l82 -178q-150 -103 -368 -103zM840 588v20q0 82 -58 140.5t-164 58.5t-181 -66.5t-93 -152.5h496z" glyph-name="afii10071" horiz-adv-x="1132" unicode="ё"/><glyph d="M856 1014q160 0 222.5 -82t31.5 -230l-162 -729q-37 -174 -148.5 -274t-285.5 -100q-90 0 -136 15t-95 54l114 195q47 -51 121 -51q133 0 170 161l137 629q23 98 -15 139t-128 41q-137 0 -250 -116l-145 -666h-262l237 1081h-119l31 150h119l33 135h260l-31 -135h295 l-29 -150h-299l-47 -221q162 154 381 154z" glyph-name="afii10099" horiz-adv-x="1196" unicode="ђ"/><glyph d="M1116 1434l-397 -295h-187l340 295h244zM999 989l-51 -227h-504l-165 -762h-261l218 989h763z" glyph-name="afii10100" horiz-adv-x="929" unicode="ѓ"/><glyph d="M546 -25q-224 0 -356.5 124t-132.5 327q0 246 166 417t410 171q285 0 401 -195l-182 -139q-72 113 -217 113q-96 0 -171 -53.5t-112 -141.5h408l-43 -201h-391q14 -94 80.5 -146t160.5 -52q133 0 217 94l134 -162q-148 -156 -372 -156z" glyph-name="afii10101" horiz-adv-x="1021" unicode="є"/><glyph d="M449 -25q-137 0 -261.5 46.5t-205.5 132.5l145 174q47 -57 146 -106.5t181 -49.5t122 32t40 76t-78.5 79.5t-172 61t-172 92.5t-78.5 167q0 137 109.5 235.5t297.5 98.5q125 0 236.5 -44t183.5 -118l-133 -166q-39 49 -122 89t-159 40t-114.5 -27.5t-38.5 -62.5t37 -58.5 t93 -39t120.5 -41t121 -55t93.5 -84t37 -125.5q0 -147 -115.5 -247t-312.5 -100z" glyph-name="afii10102" horiz-adv-x="976" unicode="ѕ"/><glyph d="M410 1096q-62 0 -103 39t-41 107t54.5 115.5t117.5 47.5t103.5 -38.5t40.5 -106.5t-55 -116t-117 -48zM279 0h-261l220 989h260z" glyph-name="afii10103" horiz-adv-x="518" unicode="і"/><glyph d="M780 1263q0 -56 -47 -103.5t-103 -47.5t-92 36t-36 92t47 102.5t104 46.5t92 -35t35 -91zM348 1263q0 -56 -47 -103.5t-104 -47.5t-92 36t-35 92t47 102.5t104 46.5t92 -35t35 -91zM279 0h-261l220 989h260z" glyph-name="afii10104" horiz-adv-x="518" unicode="ї"/><glyph d="M-122 -401q-173 0 -263 84l109 186q45 -57 129 -57q121 0 157 161l228 1016h260l-228 -1016q-39 -180 -129 -277t-263 -97zM410 1096q-62 0 -103 39t-41 107t54.5 115.5t117.5 47.5t103.5 -38.5t40.5 -106.5t-55 -116t-117 -48z" glyph-name="afii10105" horiz-adv-x="518" unicode="ј"/><glyph d="M1366 649q156 0 246 -78.5t90 -215.5t-104.5 -246t-278.5 -109h-631l164 762h-311l-95 -283q-86 -258 -213 -381t-313 -123l47 213q61 0 114.5 73t115.5 249l168 479h800l-75 -340h276zM1323 432h-281l-47 -213h310q59 0 95 35t36 86q0 92 -113 92z" glyph-name="afii10106" horiz-adv-x="1802" unicode="љ"/><glyph d="M1376 629q150 0 238 -76t88 -209t-101.5 -238.5t-271.5 -105.5h-641l86 401h-407l-88 -401h-261l218 989h260l-80 -360h409l80 360h260l-80 -360h291zM1331 410h-293l-43 -191h320q53 0 86 31t33 78q-1 82 -103 82z" glyph-name="afii10107" horiz-adv-x="1802" unicode="њ"/><glyph d="M831 655q0 127 -169 127q-115 0 -232 -116l-147 -666h-260l237 1081h-119l35 150h117l31 135h260l-31 -135h299l-33 -150h-299l-47 -221q158 154 330 154q141 0 225 -68.5t84 -183.5q0 -31 -10 -82l-150 -680h-260l129 594q10 41 10 61z" glyph-name="afii10108" horiz-adv-x="1196" unicode="ћ"/><glyph d="M1157 1434l-397 -295h-187l340 295h244zM985 0h-315l-183 387l-153 -133l-55 -254h-261l220 989h260l-97 -424l459 424h332l-492 -448z" glyph-name="afii10109" horiz-adv-x="1095" unicode="ќ"/><glyph d="M94 -168q70 0 117 70l61 92l-176 995h271l104 -688l414 688h286l-720 -1151q-80 -131 -168.5 -185.5t-198.5 -54.5t-182 25l86 225q36 -16 106 -16zM666 1237q154 0 274 127l98 -96q-174 -180 -397 -181q-109 0 -192.5 48.5t-129.5 132.5l134 96q59 -127 213 -127z" glyph-name="afii10110" horiz-adv-x="1050" unicode="ў"/><glyph d="M295 -258l57 258h-334l218 989h260l-168 -762h409l168 762h260l-217 -989h-336l-55 -258h-262z" glyph-name="afii10193" horiz-adv-x="1187" unicode="џ"/><glyph d="M315 0h-290l299 1366h673l56 252h293l-111 -508h-676z" glyph-name="afii10050" horiz-adv-x="1169" unicode="Ґ"/><glyph d="M444 762l-165 -762h-261l218 989h503l58 258h260l-109 -485h-504z" glyph-name="afii10098" horiz-adv-x="929" unicode="ґ"/><glyph d="M770 0h-745l301 1366h663q172 0 271.5 -95t99.5 -232.5t-92 -241t-219 -115.5q92 -25 144 -103.5t52 -172.5q0 -162 -118.5 -284t-356.5 -122zM864 819q96 0 140.5 50.5t44.5 111.5t-40 98t-100 37h-346l-65 -297h366zM748 252q94 0 150 51t56 119t-41 107.5t-108 39.5 h-365l-69 -317h377zM1055 1604q0 -57 -48.5 -103.5t-105.5 -46.5t-92 35t-35 92t48 104.5t104 47.5t92.5 -36t36.5 -93z" glyph-name="uni1E02" horiz-adv-x="1357" unicode="Ḃ"/><glyph d="M623 -25q-211 0 -316 156l-28 -131h-261l301 1366h261l-111 -500q125 148 297 148t274.5 -108t102.5 -282t-58.5 -315t-180 -237.5t-281.5 -96.5zM580 207q127 0 208.5 101.5t81.5 223.5t-61 186t-158 64q-131 0 -227 -118l-76 -345q74 -112 232 -112zM999 1604 q0 -57 -48 -103.5t-105 -46.5t-92 35t-35 92t48.5 104.5t104.5 47.5t91.5 -36t35.5 -93z" glyph-name="uni1E03" horiz-adv-x="1200" unicode="ḃ"/><glyph d="M561 0h-536l301 1366h528q238 0 415 -166t177 -412t-137.5 -451.5t-349.5 -271t-398 -65.5zM614 256q240 0 384.5 146.5t144.5 357.5q0 150 -96.5 250t-247.5 100h-238l-188 -854h241zM1124 1604q0 -57 -48 -103.5t-105 -46.5t-92 35t-35 92t48 104.5t104 47.5t92 -36 t36 -93z" glyph-name="uni1E0A" horiz-adv-x="1470" unicode="Ḋ"/><glyph d="M575 1014q98 0 182.5 -41t133.5 -115l110 508h263l-303 -1366h-263l29 123q-125 -147 -297 -147.5t-274.5 108.5t-102.5 283t58.5 314t180 236.5t283.5 96.5zM616 782q-125 0 -207.5 -102t-82.5 -224t61.5 -185.5t157.5 -63.5q135 0 227 117l76 344q-76 114 -232 114z M969 1604q0 -57 -48.5 -103.5t-105.5 -46.5t-92 35t-35 92t48 104.5t104 47.5t92.5 -36t36.5 -93z" glyph-name="uni1E0B" horiz-adv-x="1200" unicode="ḋ"/><glyph d="M999 1604q0 -57 -48 -103.5t-105 -46.5t-92 35t-35 92t48.5 104.5t104.5 47.5t91.5 -36t35.5 -93zM315 0h-290l301 1366h966l-57 -256h-674l-63 -289h659l-57 -256h-660z" glyph-name="uni1E1E" horiz-adv-x="1169" unicode="Ḟ"/><glyph d="M866 1604q0 -57 -48 -103.5t-105 -46.5t-92 35t-35 92t48 104.5t104 47.5t92 -36t36 -93zM692 1386q162 0 256 -96l-129 -151q-43 43 -110 43q-111 0 -142 -142l-12 -51h203l-51 -225h-201l-168 -764h-260l168 764h-164l51 225h162l12 55q35 154 129 248t256 94z" glyph-name="uni1E1F" horiz-adv-x="669" unicode="ḟ"/><glyph d="M1253 0h-292l126 573h-645l-127 -573h-290l301 1366h290l-116 -537h643l119 537h292zM1128 1604q0 -57 -48 -103.5t-105 -46.5t-92 35t-35 92t48 104.5t104 47.5t92 -36t36 -93z" glyph-name="uni1E22" horiz-adv-x="1497" unicode="Ḣ"/><glyph d="M827 655q0 127 -170 127q-115 0 -231 -116l-147 -666h-261l301 1366h261l-111 -506q158 154 330 154q141 0 225 -68.5t84 -183.5q0 -31 -10 -82l-150 -680h-260l129 594q10 41 10 61zM979 1604q0 -57 -47.5 -103.5t-105.5 -46.5t-93 35t-35 92t48.5 104.5t104.5 47.5 t92 -36t36 -93z" glyph-name="uni1E23" horiz-adv-x="1187" unicode="ḣ"/><glyph d="M926 1366q184 0 294.5 -109.5t110.5 -276.5t-91 -281.5t-206.5 -164t-267.5 -49.5h-342l-109 -485h-290l301 1366h600zM784 741q106 0 174 61.5t68 141.5t-47 123t-123 43h-295l-82 -369h305zM1047 1604q0 -57 -48.5 -103.5t-105.5 -46.5t-92 35t-35 92t48 104.5 t104 47.5t92.5 -36t36.5 -93z" glyph-name="uni1E56" horiz-adv-x="1277" unicode="Ṗ"/><glyph d="M623 -25q-211 0 -316 156l-112 -508h-261l304 1366h260l-29 -123q125 148 297 148t274.5 -108t102.5 -282t-58.5 -315t-180 -237.5t-281.5 -96.5zM580 207q127 0 208.5 101.5t81.5 223.5t-61 186t-158 64q-131 0 -227 -118l-76 -345q74 -112 232 -112zM924 1262 q0 -57 -48.5 -103.5t-105.5 -46.5t-92 35t-35 92t48.5 104.5t104.5 47.5t92 -36t36 -93z" glyph-name="uni1E57" horiz-adv-x="1193" unicode="ṗ"/><glyph d="M616 -25q-199 0 -364.5 70t-253.5 184l180 213q72 -96 197 -154.5t245 -58.5t172 48.5t52 103.5t-68.5 95t-166 75t-195 78t-166 122.5t-68.5 190.5q0 178 146.5 311t388.5 133q164 0 308 -58t234 -163l-180 -204q-74 84 -185.5 129t-205.5 45t-146.5 -41.5t-52.5 -93.5 t69 -91t167 -72.5t196.5 -77.5t167 -125t68.5 -192q0 -197 -146.5 -332t-392.5 -135zM1008 1604q0 -57 -48.5 -103.5t-105.5 -46.5t-92 35t-35 92t48.5 104.5t104.5 47.5t92 -36t36 -93z" glyph-name="uni1E60" horiz-adv-x="1228" unicode="Ṡ"/><glyph d="M449 -25q-137 0 -261.5 46.5t-205.5 132.5l145 174q47 -57 146 -106.5t181 -49.5t122 32t40 76t-78.5 79.5t-172 61t-172 92.5t-78.5 167q0 137 109.5 235.5t297.5 98.5q125 0 236.5 -44t183.5 -118l-133 -166q-39 49 -122 89t-159 40t-114.5 -27.5t-38.5 -62.5t37 -58.5 t93 -39t120.5 -41t121 -55t93.5 -84t37 -125.5q0 -147 -115.5 -247t-312.5 -100zM803 1262q0 -57 -47.5 -103.5t-105.5 -46.5t-93 35t-35 92t48 104.5t104 47.5t92.5 -36t36.5 -93z" glyph-name="uni1E61" horiz-adv-x="976" unicode="ṡ"/><glyph d="M633 0h-293l244 1110h-400l58 256h1089l-55 -256h-399zM979 1604q0 -57 -47.5 -103.5t-105.5 -46.5t-93 35t-35 92t48.5 104.5t104.5 47.5t92 -36t36 -93z" glyph-name="uni1E6A" horiz-adv-x="1191" unicode="Ṫ"/><glyph d="M398 -25q-118 0 -197.5 54.5t-79.5 160.5q0 35 8 68l111 506h-164l51 225h164l59 271h262l-59 -271h201l-54 -225h-200l-94 -430q-4 -25 -5 -41q0 -86 97 -86q47 0 71 20l11 -209q-64 -43 -182 -43zM698 1604q0 -57 -48 -103.5t-105 -46.5t-92 35t-35 92t48 104.5 t104 47.5t92 -36t36 -93z" glyph-name="uni1E6B" horiz-adv-x="692" unicode="ṫ"/><glyph d="M1378 0h-309l-33 938l-444 -938h-309l-90 1366h319l20 -987l478 987h227l41 -987l457 987h333zM1280 1481h-182l-267 295h240z" glyph-name="Wgrave" horiz-adv-x="1880" unicode="Ẁ"/><glyph d="M1163 0h-276l-62 674l-356 -674h-279l-81 989h260l39 -665l364 665h232l67 -665l334 665h278zM1055 1139h-183l-266 295h240z" glyph-name="wgrave" horiz-adv-x="1574" unicode="ẁ"/><glyph d="M1593 1776l-397 -295h-186l340 295h243zM1378 0h-309l-33 938l-444 -938h-309l-90 1366h319l20 -987l478 987h227l41 -987l457 987h333z" glyph-name="Wacute" horiz-adv-x="1880" unicode="Ẃ"/><glyph d="M1372 1434l-397 -295h-187l340 295h244zM1163 0h-276l-62 674l-356 -674h-279l-81 989h260l39 -665l364 665h232l67 -665l334 665h278z" glyph-name="wacute" horiz-adv-x="1574" unicode="ẃ"/><glyph d="M1528 1605q0 -56 -47 -103.5t-105 -47.5t-92.5 35t-34.5 92t46.5 103.5t104.5 46.5t93 -35t35 -91zM1096 1605q0 -56 -47.5 -103.5t-103.5 -47.5t-92 35t-36 92t46.5 103.5t104.5 46.5t93 -35t35 -91zM1378 0h-309l-33 938l-444 -938h-309l-90 1366h319l20 -987l478 987 h227l41 -987l457 987h333z" glyph-name="Wdieresis" horiz-adv-x="1880" unicode="Ẅ"/><glyph d="M1305 1263q0 -56 -47.5 -103.5t-103.5 -47.5t-92 36t-36 92t47 102.5t105 46.5t92.5 -35t34.5 -91zM872 1263q0 -56 -47 -103.5t-104 -47.5t-92 36t-35 92t47 102.5t105 46.5t92 -35t34 -91zM1163 0h-276l-62 674l-356 -674h-279l-81 989h260l39 -665l364 665h232 l67 -665l334 665h278z" glyph-name="wdieresis" horiz-adv-x="1574" unicode="ẅ"/><glyph d="M1298 0h-315l-35 231h-586l-137 -231h-346l830 1366h364zM924 487l-82 588l-342 -588h424zM672 -252q0 -57 -48.5 -103t-105.5 -46t-92 34.5t-35 91.5t48.5 104.5t104.5 47.5t92 -36t36 -93z" glyph-name="uni1EA0" horiz-adv-x="1400" unicode="Ạ"/><glyph d="M575 1014q98 0 182.5 -41t133.5 -115l27 131h262l-219 -989h-263l29 123q-125 -147 -297 -147.5t-274.5 108.5t-102.5 283t58.5 314t180 236.5t283.5 96.5zM616 782q-125 0 -207.5 -102t-82.5 -224t61.5 -185.5t157.5 -63.5q135 0 227 117l76 344q-76 114 -232 114z M559 -252q0 -57 -47.5 -103t-105.5 -46t-92.5 34.5t-34.5 91.5t48 104.5t104 47.5t92 -36t36 -93z" glyph-name="uni1EA1" horiz-adv-x="1200" unicode="ạ"/><glyph d="M1298 0h-315l-35 231h-586l-137 -231h-346l830 1366h364zM924 487l-82 588l-342 -588h424zM940 1679q59 0 105.5 -33.5t46.5 -98.5t-50 -120h-116q59 53 59 111q0 25 -15.5 39t-39.5 14q-45 0 -74 -49l-82 41q51 96 166 96z" glyph-name="uni1EA2" horiz-adv-x="1400" unicode="Ả"/><glyph d="M575 1014q98 0 182.5 -41t133.5 -115l27 131h262l-219 -989h-263l29 123q-125 -147 -297 -147.5t-274.5 108.5t-102.5 283t58.5 314t180 236.5t283.5 96.5zM616 782q-125 0 -207.5 -102t-82.5 -224t61.5 -185.5t157.5 -63.5q135 0 227 117l76 344q-76 114 -232 114z M799 1190q1 53 -65 53q-34 0 -64 -49l-82 41q51 96 166 96q59 0 105 -33.5t46 -98.5t-49 -120h-117q59 53 60 111z" glyph-name="uni1EA3" horiz-adv-x="1200" unicode="ả"/><glyph d="M1194 1397h-156l-110 137l-185 -137h-163l254 221h233zM1298 0h-315l-35 231h-586l-137 -231h-346l830 1366h364zM924 487l-82 588l-342 -588h424zM1729 1729l-398 -222h-186l340 222h244z" glyph-name="uni1EA4" horiz-adv-x="1400" unicode="Ấ"/><glyph d="M575 1014q98 0 182.5 -41t133.5 -115l27 131h262l-219 -989h-263l29 123q-125 -147 -297 -147.5t-274.5 108.5t-102.5 283t58.5 314t180 236.5t283.5 96.5zM616 782q-125 0 -207.5 -102t-82.5 -224t61.5 -185.5t157.5 -63.5q135 0 227 117l76 344q-76 114 -232 114z M1038 1139h-155l-111 182l-184 -182h-164l254 295h233zM1573 1577l-397 -295h-187l340 295h244z" glyph-name="uni1EA5" horiz-adv-x="1200" unicode="ấ"/><glyph d="M1196 1397h-156l-110 137l-185 -137h-163l254 221h233zM1298 0h-315l-35 231h-586l-137 -231h-346l830 1366h364zM924 487l-82 588l-342 -588h424zM690 1507h-182l-266 222h239z" glyph-name="uni1EA6" horiz-adv-x="1400" unicode="Ầ"/><glyph d="M575 1014q98 0 182.5 -41t133.5 -115l27 131h262l-219 -989h-263l29 123q-125 -147 -297 -147.5t-274.5 108.5t-102.5 283t58.5 314t180 236.5t283.5 96.5zM616 782q-125 0 -207.5 -102t-82.5 -224t61.5 -185.5t157.5 -63.5q135 0 227 117l76 344q-76 114 -232 114z M1038 1139h-155l-111 182l-184 -182h-164l254 295h233zM537 1282h-183l-266 295h240z" glyph-name="uni1EA7" horiz-adv-x="1200" unicode="ầ"/><glyph d="M1194 1397h-156l-110 137l-185 -137h-163l254 221h233zM1298 0h-315l-35 231h-586l-137 -231h-346l830 1366h364zM924 487l-82 588l-342 -588h424zM1174 1737q61 0 106 -24.5t45 -72.5t-49 -92h-117q59 41 60 84q0 39 -50 39t-79 -37l-82 31q49 72 166 72z" glyph-name="uni1EA8" horiz-adv-x="1400" unicode="Ẩ"/><glyph d="M575 1014q98 0 182.5 -41t133.5 -115l27 131h262l-219 -989h-263l29 123q-125 -147 -297 -147.5t-274.5 108.5t-102.5 283t58.5 314t180 236.5t283.5 96.5zM616 782q-125 0 -207.5 -102t-82.5 -224t61.5 -185.5t157.5 -63.5q135 0 227 117l76 344q-76 114 -232 114z M1038 1139h-155l-111 182l-184 -182h-164l254 295h233zM1038 1477q0 53 -65 53q-35 0 -64 -49l-82 41q51 96 166 96q59 0 105.5 -34t46.5 -98t-49 -120h-117q59 53 59 111z" glyph-name="uni1EA9" horiz-adv-x="1200" unicode="ẩ"/><glyph d="M1192 1389h-156l-110 90l-185 -90h-163l253 147h234zM1298 0h-315l-35 231h-586l-137 -231h-346l830 1366h364zM924 487l-82 588l-342 -588h424zM807 1620q-53 0 -80 -64h-139q55 137 248 138q78 0 142 -35t115 -35t83 64h139q-61 -138 -237 -138q-91 0 -154.5 35 t-116.5 35z" glyph-name="uni1EAA" horiz-adv-x="1400" unicode="Ẫ"/><glyph d="M575 1014q98 0 182.5 -41t133.5 -115l27 131h262l-219 -989h-263l29 123q-125 -147 -297 -147.5t-274.5 108.5t-102.5 283t58.5 314t180 236.5t283.5 96.5zM616 782q-125 0 -207.5 -102t-82.5 -224t61.5 -185.5t157.5 -63.5q135 0 227 117l76 344q-76 114 -232 114z M1022 1071h-156l-110 182l-185 -182h-163l254 295h233zM936 1397q-61 0 -102 34.5t-74 69.5t-72 35q-63 0 -90 -127h-139q27 137 85 205.5t155 68.5t149.5 -68.5t105.5 -68.5q61 0 93 125h139q-31 -137 -89.5 -205.5t-160.5 -68.5z" glyph-name="uni1EAB" horiz-adv-x="1200" unicode="ẫ"/><glyph d="M1298 0h-315l-35 231h-586l-137 -231h-346l830 1366h364zM924 487l-82 588l-342 -588h424zM1221 1481h-156l-111 182l-184 -182h-164l254 295h234zM670 -252q0 -57 -48.5 -103t-105.5 -46t-92 34.5t-35 91.5t48.5 104.5t104.5 47.5t92 -36t36 -93z" glyph-name="uni1EAC" horiz-adv-x="1400" unicode="Ậ"/><glyph d="M575 1014q98 0 182.5 -41t133.5 -115l27 131h262l-219 -989h-263l29 123q-125 -147 -297 -147.5t-274.5 108.5t-102.5 283t58.5 314t180 236.5t283.5 96.5zM616 782q-125 0 -207.5 -102t-82.5 -224t61.5 -185.5t157.5 -63.5q135 0 227 117l76 344q-76 114 -232 114z M1038 1139h-155l-111 182l-184 -182h-164l254 295h233zM559 -252q0 -57 -47.5 -103t-105.5 -46t-92.5 34.5t-34.5 91.5t48 104.5t104 47.5t92 -36t36 -93z" glyph-name="uni1EAD" horiz-adv-x="1200" unicode="ậ"/><glyph d="M1298 0h-315l-35 231h-586l-137 -231h-346l830 1366h364zM924 487l-82 588l-342 -588h424zM1354 1708l-398 -172h-186l340 172h244zM900 1491q155 0 274 86l98 -66q-172 -123 -397.5 -122.5t-321.5 122.5l133 66q59 -86 214 -86z" glyph-name="uni1EAE" horiz-adv-x="1400" unicode="Ắ"/><glyph d="M575 1014q98 0 182.5 -41t133.5 -115l27 131h262l-219 -989h-263l29 123q-125 -147 -297 -147.5t-274.5 108.5t-102.5 283t58.5 314t180 236.5t283.5 96.5zM616 782q-125 0 -207.5 -102t-82.5 -224t61.5 -185.5t157.5 -63.5q135 0 227 117l76 344q-76 114 -232 114z M1186 1593l-398 -295h-186l340 295h244zM705 1053q-109 0 -193 48t-129 132l133 96q59 -127 213 -127t275 127l98 -96q-174 -180 -397 -180z" glyph-name="uni1EAF" horiz-adv-x="1200" unicode="ắ"/><glyph d="M1298 0h-315l-35 231h-586l-137 -231h-346l830 1366h364zM924 487l-82 588l-342 -588h424zM1090 1544h-183l-266 172h240zM910 1491q155 0 274 86l98 -66q-172 -123 -397.5 -122.5t-321.5 122.5l133 66q59 -86 214 -86z" glyph-name="uni1EB0" horiz-adv-x="1400" unicode="Ằ"/><glyph d="M575 1014q98 0 182.5 -41t133.5 -115l27 131h262l-219 -989h-263l29 123q-125 -147 -297 -147.5t-274.5 108.5t-102.5 283t58.5 314t180 236.5t283.5 96.5zM616 782q-125 0 -207.5 -102t-82.5 -224t61.5 -185.5t157.5 -63.5q135 0 227 117l76 344q-76 114 -232 114z M920 1303h-183l-266 294h240zM707 1061q-109 0 -193 48t-129 132l133 96q59 -127 213 -127t275 127l98 -96q-174 -180 -397 -180z" glyph-name="uni1EB1" horiz-adv-x="1200" unicode="ằ"/><glyph d="M1298 0h-315l-35 231h-586l-137 -231h-346l830 1366h364zM924 487l-82 588l-342 -588h424zM954 1681q61 0 106.5 -19.5t45.5 -57.5t-49 -70h-117q59 32 59 64t-50 32t-79 -28l-82 24q51 55 166 55zM908 1491q155 0 274 86l98 -66q-172 -123 -397.5 -122.5t-321.5 122.5 l133 66q59 -86 214 -86z" glyph-name="uni1EB2" horiz-adv-x="1400" unicode="Ẳ"/><glyph d="M575 1014q98 0 182.5 -41t133.5 -115l27 131h262l-219 -989h-263l29 123q-125 -147 -297 -147.5t-274.5 108.5t-102.5 283t58.5 314t180 236.5t283.5 96.5zM616 782q-125 0 -207.5 -102t-82.5 -224t61.5 -185.5t157.5 -63.5q135 0 227 117l76 344q-76 114 -232 114z M836 1430q0 53 -66 53q-34 0 -63 -49l-82 41q51 96 166 96q59 0 105 -34.5t46 -98.5t-49 -119h-117q59 53 60 111zM707 1061q-109 0 -193 48t-129 132l133 96q59 -127 213 -127t275 127l98 -96q-174 -180 -397 -180z" glyph-name="uni1EB3" horiz-adv-x="1200" unicode="ẳ"/><glyph d="M1298 0h-315l-35 231h-586l-137 -231h-346l830 1366h364zM924 487l-82 588l-342 -588h424zM876 1389q-224 0 -321 100l133 53q59 -70 212 -70t276 70l98 -53q-174 -100 -398 -100zM807 1626q-53 0 -80 -63h-139q55 137 248 137q78 0 142 -35t115 -35t83 64h139 q-61 -138 -237 -138q-91 0 -154.5 35t-116.5 35z" glyph-name="uni1EB4" horiz-adv-x="1400" unicode="Ẵ"/><glyph d="M575 1014q98 0 182.5 -41t133.5 -115l27 131h262l-219 -989h-263l29 123q-125 -147 -297 -147.5t-274.5 108.5t-102.5 283t58.5 314t180 236.5t283.5 96.5zM616 782q-125 0 -207.5 -102t-82.5 -224t61.5 -185.5t157.5 -63.5q135 0 227 117l76 344q-76 114 -232 114z M707 1061q-109 0 -193 48t-129 132l133 96q59 -127 213 -127t275 127l98 -96q-174 -180 -397 -180zM934 1386q-61 0 -102 35t-74 70t-72 35q-63 0 -90 -127h-139q27 137 85 205.5t155 68.5t149.5 -68.5t105.5 -68.5q61 0 92 125h140q-31 -137 -89.5 -206t-160.5 -69z" glyph-name="uni1EB5" horiz-adv-x="1200" unicode="ẵ"/><glyph d="M1298 0h-315l-35 231h-586l-137 -231h-346l830 1366h364zM924 487l-82 588l-342 -588h424zM672 -252q0 -57 -48.5 -103t-105.5 -46t-92 34.5t-35 91.5t48.5 104.5t104.5 47.5t92 -36t36 -93zM895 1430q-109 0 -193 48t-129 132l134 96q59 -127 213 -127t274 127l98 -96 q-174 -180 -397 -180z" glyph-name="uni1EB6" horiz-adv-x="1400" unicode="Ặ"/><glyph d="M575 1014q98 0 182.5 -41t133.5 -115l27 131h262l-219 -989h-263l29 123q-125 -147 -297 -147.5t-274.5 108.5t-102.5 283t58.5 314t180 236.5t283.5 96.5zM616 782q-125 0 -207.5 -102t-82.5 -224t61.5 -185.5t157.5 -63.5q135 0 227 117l76 344q-76 114 -232 114z M561 -252q0 -57 -47.5 -103t-105.5 -46t-92.5 34.5t-34.5 91.5t48 104.5t104 47.5t92 -36t36 -93zM737 1237q154 0 275 127l98 -96q-174 -180 -397 -181q-109 0 -193 48.5t-129 132.5l133 96q59 -127 213 -127z" glyph-name="uni1EB7" horiz-adv-x="1200" unicode="ặ"/><glyph d="M991 0h-966l301 1366h966l-57 -256h-674l-63 -289h659l-57 -256h-660l-67 -309h674zM588 -252q0 -57 -48 -103t-106 -46t-92.5 34.5t-34.5 91.5t48.5 104.5t104.5 47.5t92 -36t36 -93z" glyph-name="uni1EB8" horiz-adv-x="1193" unicode="Ẹ"/><glyph d="M552 -25q-218 0 -356.5 119t-138.5 326q0 246 164 420t408 174q195 0 319.5 -120t124.5 -323q0 -94 -20 -159h-736v-25q0 -74 72.5 -139.5t212.5 -65.5t236 74l82 -178q-150 -103 -368 -103zM840 588v20q0 82 -58 140.5t-164 58.5t-181 -66.5t-93 -152.5h496zM557 -252 q0 -57 -47.5 -103t-105.5 -46t-93 34.5t-35 91.5t48.5 104.5t104.5 47.5t92 -36t36 -93z" glyph-name="uni1EB9" horiz-adv-x="1132" unicode="ẹ"/><glyph d="M991 0h-966l301 1366h966l-57 -256h-674l-63 -289h659l-57 -256h-660l-67 -309h674zM858 1679q59 0 105.5 -33.5t46.5 -98.5t-49 -120h-117q59 53 59 111q0 25 -15.5 39t-39.5 14q-45 0 -74 -49l-82 41q51 96 166 96z" glyph-name="uni1EBA" horiz-adv-x="1193" unicode="Ẻ"/><glyph d="M552 -25q-218 0 -356.5 119t-138.5 326q0 246 164 420t408 174q195 0 319.5 -120t124.5 -323q0 -94 -20 -159h-736v-25q0 -74 72.5 -139.5t212.5 -65.5t236 74l82 -178q-150 -103 -368 -103zM840 588v20q0 82 -58 140.5t-164 58.5t-181 -66.5t-93 -152.5h496zM797 1190 q1 53 -65 53q-34 0 -64 -49l-82 41q51 96 166 96q59 0 105 -33.5t46 -98.5t-49 -120h-117q59 53 60 111z" glyph-name="uni1EBB" horiz-adv-x="1132" unicode="ẻ"/><glyph d="M991 0h-966l301 1366h966l-57 -256h-674l-63 -289h659l-57 -256h-660l-67 -309h674zM981 1477q-61 0 -102 34.5t-74 69.5t-72 35q-63 0 -90 -127h-139q27 137 85 205.5t155 68.5t149.5 -68.5t105.5 -68.5q61 0 93 125h139q-31 -137 -89.5 -205.5t-160.5 -68.5z" glyph-name="uni1EBC" horiz-adv-x="1193" unicode="Ẽ"/><glyph d="M552 -25q-218 0 -356.5 119t-138.5 326q0 246 164 420t408 174q195 0 319.5 -120t124.5 -323q0 -94 -20 -159h-736v-25q0 -74 72.5 -139.5t212.5 -65.5t236 74l82 -178q-150 -103 -368 -103zM840 588v20q0 82 -58 140.5t-164 58.5t-181 -66.5t-93 -152.5h496zM872 1135 q-61 0 -102 34.5t-73.5 69.5t-71.5 35q-63 0 -90 -127h-140q27 137 85.5 205.5t162.5 68.5q61 0 103 -34.5t74 -68.5t71 -34q61 0 92 125h139q-31 -137 -89.5 -205.5t-160.5 -68.5z" glyph-name="uni1EBD" horiz-adv-x="1132" unicode="ẽ"/><glyph d="M1112 1397h-156l-110 137l-184 -137h-164l254 221h233zM1647 1729l-398 -222h-186l340 222h244zM991 0h-966l301 1366h966l-57 -256h-674l-63 -289h659l-57 -256h-660l-67 -309h674z" glyph-name="uni1EBE" horiz-adv-x="1193" unicode="Ế"/><glyph d="M1032 1139h-155l-111 182l-184 -182h-164l254 295h233zM1565 1577l-398 -295h-186l340 295h244zM552 -25q-218 0 -356.5 119t-138.5 326q0 246 164 420t408 174q195 0 319.5 -120t124.5 -323q0 -94 -20 -159h-736v-25q0 -74 72.5 -139.5t212.5 -65.5t236 74l82 -178 q-150 -103 -368 -103zM840 588v20q0 82 -58 140.5t-164 58.5t-181 -66.5t-93 -152.5h496z" glyph-name="uni1EBF" horiz-adv-x="1132" unicode="ế"/><glyph d="M1112 1397h-156l-110 137l-184 -137h-164l254 221h233zM991 0h-966l301 1366h966l-57 -256h-674l-63 -289h659l-57 -256h-660l-67 -309h674zM604 1507h-182l-266 222h239z" glyph-name="uni1EC0" horiz-adv-x="1193" unicode="Ề"/><glyph d="M1036 1139h-155l-111 182l-184 -182h-164l254 295h233zM552 -25q-218 0 -356.5 119t-138.5 326q0 246 164 420t408 174q195 0 319.5 -120t124.5 -323q0 -94 -20 -159h-736v-25q0 -74 72.5 -139.5t212.5 -65.5t236 74l82 -178q-150 -103 -368 -103zM840 588v20 q0 82 -58 140.5t-164 58.5t-181 -66.5t-93 -152.5h496zM532 1282h-182l-266 295h240z" glyph-name="uni1EC1" horiz-adv-x="1132" unicode="ề"/><glyph d="M1110 1397h-156l-110 137l-185 -137h-163l254 221h233zM991 0h-966l301 1366h966l-57 -256h-674l-63 -289h659l-57 -256h-660l-67 -309h674zM1087 1737q61 0 106.5 -24.5t45.5 -72.5t-49 -92h-117q59 41 60 84q0 39 -50 39t-79 -37l-82 31q49 72 165 72z" glyph-name="uni1EC2" horiz-adv-x="1193" unicode="Ể"/><glyph d="M1034 1139h-155l-111 182l-184 -182h-164l254 295h233zM552 -25q-218 0 -356.5 119t-138.5 326q0 246 164 420t408 174q195 0 319.5 -120t124.5 -323q0 -94 -20 -159h-736v-25q0 -74 72.5 -139.5t212.5 -65.5t236 74l82 -178q-150 -103 -368 -103zM840 588v20 q0 82 -58 140.5t-164 58.5t-181 -66.5t-93 -152.5h496zM1034 1477q0 53 -65 53q-35 0 -64 -49l-82 41q51 96 166 96q59 0 105.5 -34t46.5 -98t-49 -120h-117q59 53 59 111z" glyph-name="uni1EC3" horiz-adv-x="1132" unicode="ể"/><glyph d="M1114 1389h-156l-110 90l-184 -90h-164l254 147h233zM991 0h-966l301 1366h966l-57 -256h-674l-63 -289h659l-57 -256h-660l-67 -309h674zM723 1620q-53 0 -80 -64h-139q55 137 248 138q78 0 142 -35t115 -35t83 64h139q-61 -138 -237 -138q-91 0 -154.5 35t-116.5 35z " glyph-name="uni1EC4" horiz-adv-x="1193" unicode="Ễ"/><glyph d="M1022 1071h-156l-110 182l-185 -182h-163l254 295h233zM552 -25q-218 0 -356.5 119t-138.5 326q0 246 164 420t408 174q195 0 319.5 -120t124.5 -323q0 -94 -20 -159h-736v-25q0 -74 72.5 -139.5t212.5 -65.5t236 74l82 -178q-150 -103 -368 -103zM840 588v20 q0 82 -58 140.5t-164 58.5t-181 -66.5t-93 -152.5h496zM932 1397q-61 0 -102.5 34.5t-74 69.5t-71.5 35q-63 0 -90 -127h-139q27 137 85 205.5t162 68.5q49 0 86 -21.5t73 -68.5t89 -47q61 0 92 125h140q-31 -137 -89.5 -205.5t-160.5 -68.5z" glyph-name="uni1EC5" horiz-adv-x="1132" unicode="ễ"/><glyph d="M1141 1481h-156l-111 182l-184 -182h-164l254 295h234zM991 0h-966l301 1366h966l-57 -256h-674l-63 -289h659l-57 -256h-660l-67 -309h674zM588 -252q0 -57 -48 -103t-106 -46t-92.5 34.5t-34.5 91.5t48.5 104.5t104.5 47.5t92 -36t36 -93z" glyph-name="uni1EC6" horiz-adv-x="1193" unicode="Ệ"/><glyph d="M1036 1139h-155l-111 182l-184 -182h-164l254 295h233zM552 -25q-218 0 -356.5 119t-138.5 326q0 246 164 420t408 174q195 0 319.5 -120t124.5 -323q0 -94 -20 -159h-736v-25q0 -74 72.5 -139.5t212.5 -65.5t236 74l82 -178q-150 -103 -368 -103zM840 588v20 q0 82 -58 140.5t-164 58.5t-181 -66.5t-93 -152.5h496zM557 -252q0 -57 -47.5 -103t-105.5 -46t-93 34.5t-35 91.5t48.5 104.5t104.5 47.5t92 -36t36 -93z" glyph-name="uni1EC7" horiz-adv-x="1132" unicode="ệ"/><glyph d="M315 0h-290l301 1366h290zM565 1538q0 53 -65 53q-35 0 -64 -49l-82 41q51 96 166 96q59 0 105.5 -33.5t46.5 -98.5t-49 -120h-117q59 53 59 111z" glyph-name="uni1EC8" horiz-adv-x="561" unicode="Ỉ"/><glyph d="M279 0h-261l220 989h260zM424 1331q59 0 105 -33.5t46 -98.5t-49 -120h-116q59 53 59 111q0 25 -15.5 39t-39.5 14q-45 0 -74 -49l-82 41q51 96 166 96z" glyph-name="uni1EC9" horiz-adv-x="518" unicode="ỉ"/><glyph d="M315 0h-290l301 1366h290zM250 -252q0 -57 -48 -103t-106 -46t-92.5 34.5t-34.5 91.5t48.5 104.5t104.5 47.5t92 -36t36 -93z" glyph-name="uni1ECA" horiz-adv-x="561" unicode="Ị"/><glyph d="M410 1096q-62 0 -103 39t-41 107t54.5 115.5t117.5 47.5t103.5 -38.5t40.5 -106.5t-55 -116t-117 -48zM279 0h-261l220 989h260zM231 -252q0 -57 -48 -103t-105 -46t-92 34.5t-35 91.5t48.5 104.5t104.5 47.5t91.5 -36t35.5 -93z" glyph-name="uni1ECB" horiz-adv-x="518" unicode="ị"/><glyph d="M762 -25q-291 0 -481.5 168t-190.5 445q0 336 229.5 568.5t565.5 232.5q289 0 479 -168t190 -443q0 -336 -228 -569.5t-564 -233.5zM792 233q182 0 320.5 153t138.5 372q0 170 -108.5 271t-292.5 101t-320.5 -152.5t-136.5 -371.5q0 -170 108.5 -271.5t290.5 -101.5z M754 -252q0 -57 -48.5 -103t-105.5 -46t-92 34.5t-35 91.5t48.5 104.5t104.5 47.5t92 -36t36 -93z" glyph-name="uni1ECC" horiz-adv-x="1566" unicode="Ọ"/><glyph d="M552 -25q-238 0 -367.5 125t-129.5 324q0 238 163.5 414t401.5 176t368 -126t130 -325q0 -238 -164 -413t-402 -175zM324 452q0 -245 240 -245q118 0 201 102.5t83 226.5q0 246 -240 246q-117 0 -200.5 -103.5t-83.5 -226.5zM557 -252q0 -57 -47.5 -103t-105.5 -46 t-93 34.5t-35 91.5t48.5 104.5t104.5 47.5t92 -36t36 -93z" glyph-name="uni1ECD" horiz-adv-x="1175" unicode="ọ"/><glyph d="M762 -25q-291 0 -481.5 168t-190.5 445q0 336 229.5 568.5t565.5 232.5q289 0 479 -168t190 -443q0 -336 -228 -569.5t-564 -233.5zM792 233q182 0 320.5 153t138.5 372q0 170 -108.5 271t-292.5 101t-320.5 -152.5t-136.5 -371.5q0 -170 108.5 -271.5t290.5 -101.5z M1026 1679q59 0 105.5 -33.5t46.5 -98.5t-50 -120h-116q59 53 59 111q0 25 -15.5 39t-39.5 14q-45 0 -74 -49l-82 41q51 96 166 96z" glyph-name="uni1ECE" horiz-adv-x="1566" unicode="Ỏ"/><glyph d="M552 -25q-238 0 -367.5 125t-129.5 324q0 238 163.5 414t401.5 176t368 -126t130 -325q0 -238 -164 -413t-402 -175zM324 452q0 -245 240 -245q118 0 201 102.5t83 226.5q0 246 -240 246q-117 0 -200.5 -103.5t-83.5 -226.5zM797 1190q1 53 -65 53q-34 0 -64 -49l-82 41 q51 96 166 96q59 0 105 -33.5t46 -98.5t-49 -120h-117q59 53 60 111z" glyph-name="uni1ECF" horiz-adv-x="1175" unicode="ỏ"/><glyph d="M1278 1397h-156l-110 137l-185 -137h-163l254 221h233zM1812 1729l-397 -222h-186l340 222h243zM762 -25q-291 0 -481.5 168t-190.5 445q0 336 229.5 568.5t565.5 232.5q289 0 479 -168t190 -443q0 -336 -228 -569.5t-564 -233.5zM792 233q182 0 320.5 153t138.5 372 q0 170 -108.5 271t-292.5 101t-320.5 -152.5t-136.5 -371.5q0 -170 108.5 -271.5t290.5 -101.5z" glyph-name="uni1ED0" horiz-adv-x="1566" unicode="Ố"/><glyph d="M1034 1139h-155l-111 182l-184 -182h-164l254 295h233zM1569 1577l-398 -295h-186l340 295h244zM552 -25q-238 0 -367.5 125t-129.5 324q0 238 163.5 414t401.5 176t368 -126t130 -325q0 -238 -164 -413t-402 -175zM324 452q0 -245 240 -245q118 0 201 102.5t83 226.5 q0 246 -240 246q-117 0 -200.5 -103.5t-83.5 -226.5z" glyph-name="uni1ED1" horiz-adv-x="1175" unicode="ố"/><glyph d="M1278 1397h-156l-110 137l-185 -137h-163l254 221h233zM762 -25q-291 0 -481.5 168t-190.5 445q0 336 229.5 568.5t565.5 232.5q289 0 479 -168t190 -443q0 -336 -228 -569.5t-564 -233.5zM792 233q182 0 320.5 153t138.5 372q0 170 -108.5 271t-292.5 101t-320.5 -152.5 t-136.5 -371.5q0 -170 108.5 -271.5t290.5 -101.5zM770 1507h-182l-266 222h239z" glyph-name="uni1ED2" horiz-adv-x="1566" unicode="Ồ"/><glyph d="M1036 1139h-155l-111 182l-184 -182h-164l254 295h233zM552 -25q-238 0 -367.5 125t-129.5 324q0 238 163.5 414t401.5 176t368 -126t130 -325q0 -238 -164 -413t-402 -175zM324 452q0 -245 240 -245q118 0 201 102.5t83 226.5q0 246 -240 246q-117 0 -200.5 -103.5 t-83.5 -226.5zM532 1282h-182l-266 295h240z" glyph-name="uni1ED3" horiz-adv-x="1175" unicode="ồ"/><glyph d="M1276 1397h-156l-110 137l-185 -137h-163l253 221h234zM762 -25q-291 0 -481.5 168t-190.5 445q0 336 229.5 568.5t565.5 232.5q289 0 479 -168t190 -443q0 -336 -228 -569.5t-564 -233.5zM792 233q182 0 320.5 153t138.5 372q0 170 -108.5 271t-292.5 101t-320.5 -152.5 t-136.5 -371.5q0 -170 108.5 -271.5t290.5 -101.5zM1253 1737q61 0 106.5 -24.5t45.5 -72.5t-49 -92h-117q59 41 59 82t-50 41t-79 -37l-82 31q49 72 166 72z" glyph-name="uni1ED4" horiz-adv-x="1566" unicode="Ổ"/><glyph d="M1034 1139h-155l-111 182l-184 -182h-164l254 295h233zM552 -25q-238 0 -367.5 125t-129.5 324q0 238 163.5 414t401.5 176t368 -126t130 -325q0 -238 -164 -413t-402 -175zM324 452q0 -245 240 -245q118 0 201 102.5t83 226.5q0 246 -240 246q-117 0 -200.5 -103.5 t-83.5 -226.5zM1036 1477q0 53 -65 53q-35 0 -64 -49l-82 41q51 96 166 96q59 0 105.5 -34t46.5 -98t-49 -120h-117q59 53 59 111z" glyph-name="uni1ED5" horiz-adv-x="1175" unicode="ổ"/><glyph d="M1266 1389h-156l-111 90l-184 -90h-164l254 147h234zM762 -25q-291 0 -481.5 168t-190.5 445q0 336 229.5 568.5t565.5 232.5q289 0 479 -168t190 -443q0 -336 -228 -569.5t-564 -233.5zM792 233q182 0 320.5 153t138.5 372q0 170 -108.5 271t-292.5 101t-320.5 -152.5 t-136.5 -371.5q0 -170 108.5 -271.5t290.5 -101.5zM885 1620q-53 0 -80 -64h-139q55 137 247 138q78 0 142.5 -35t115.5 -35t82 64h140q-61 -138 -237 -138q-91 0 -154.5 35t-116.5 35z" glyph-name="uni1ED6" horiz-adv-x="1566" unicode="Ỗ"/><glyph d="M1022 1071h-156l-110 182l-185 -182h-163l254 295h233zM552 -25q-238 0 -367.5 125t-129.5 324q0 238 163.5 414t401.5 176t368 -126t130 -325q0 -238 -164 -413t-402 -175zM324 452q0 -245 240 -245q118 0 201 102.5t83 226.5q0 246 -240 246q-117 0 -200.5 -103.5 t-83.5 -226.5zM934 1397q-61 0 -102 34.5t-74 69.5t-72 35q-63 0 -90 -127h-139q27 137 85 205.5t163 68.5q61 0 103 -34.5t73.5 -68.5t70.5 -34q61 0 92 125h140q-31 -137 -89.5 -205.5t-160.5 -68.5z" glyph-name="uni1ED7" horiz-adv-x="1175" unicode="ỗ"/><glyph d="M1307 1481h-156l-111 182l-184 -182h-164l254 295h234zM762 -25q-291 0 -481.5 168t-190.5 445q0 336 229.5 568.5t565.5 232.5q289 0 479 -168t190 -443q0 -336 -228 -569.5t-564 -233.5zM792 233q182 0 320.5 153t138.5 372q0 170 -108.5 271t-292.5 101t-320.5 -152.5 t-136.5 -371.5q0 -170 108.5 -271.5t290.5 -101.5zM756 -252q0 -57 -48.5 -103t-105.5 -46t-92 34.5t-35 91.5t48.5 104.5t104.5 47.5t92 -36t36 -93z" glyph-name="uni1ED8" horiz-adv-x="1566" unicode="Ộ"/><glyph d="M1034 1139h-155l-111 182l-184 -182h-164l254 295h233zM552 -25q-238 0 -367.5 125t-129.5 324q0 238 163.5 414t401.5 176t368 -126t130 -325q0 -238 -164 -413t-402 -175zM324 452q0 -245 240 -245q118 0 201 102.5t83 226.5q0 246 -240 246q-117 0 -200.5 -103.5 t-83.5 -226.5zM557 -252q0 -57 -47.5 -103t-105.5 -46t-93 34.5t-35 91.5t48.5 104.5t104.5 47.5t92 -36t36 -93z" glyph-name="uni1ED9" horiz-adv-x="1175" unicode="ộ"/><glyph d="M1450 1776l-397 -295h-187l340 295h244zM762 -25q-291 0 -481.5 168t-190.5 445q0 336 229.5 568.5t564.5 232.5t527 -215q98 55 127 122h-14q-37 0 -62.5 25t-25.5 72t38 83.5t86 36.5t80.5 -31.5t32.5 -99.5t-58.5 -151.5t-148.5 -130.5q88 -143 88 -322 q0 -336 -228 -569.5t-564 -233.5zM792 233q182 0 320.5 153t138.5 372q0 170 -108.5 271t-292.5 101t-320.5 -152.5t-136.5 -371.5q0 -170 108.5 -271.5t290.5 -101.5z" glyph-name="uni1EDA" horiz-adv-x="1566" unicode="Ớ"/><glyph d="M1176 1434l-398 -295h-186l340 295h244zM1229 1110q0 -68 -54.5 -148.5t-140.5 -127.5q84 -113 84 -271q0 -238 -164 -413t-402 -175t-367.5 125t-129.5 324q0 238 163.5 414t391.5 176t361 -113q94 57 123 123q-2 -2 -27 -2t-51.5 25.5t-26.5 72.5t39 84t87 37t81 -31.5 t33 -99.5zM324 452q0 -245 240 -245q118 0 201 102.5t83 226.5q0 246 -240 246q-117 0 -200.5 -103.5t-83.5 -226.5z" glyph-name="uni1EDB" horiz-adv-x="1175" unicode="ớ"/><glyph d="M762 -25q-291 0 -481.5 168t-190.5 445q0 336 229.5 568.5t564.5 232.5t527 -215q98 55 127 122h-14q-37 0 -62.5 25t-25.5 72t38 83.5t86 36.5t80.5 -31.5t32.5 -99.5t-58.5 -151.5t-148.5 -130.5q88 -143 88 -322q0 -336 -228 -569.5t-564 -233.5zM792 233 q182 0 320.5 153t138.5 372q0 170 -108.5 271t-292.5 101t-320.5 -152.5t-136.5 -371.5q0 -170 108.5 -271.5t290.5 -101.5zM1135 1481h-183l-266 295h240z" glyph-name="uni1EDC" horiz-adv-x="1566" unicode="Ờ"/><glyph d="M1229 1110q0 -68 -54.5 -148.5t-140.5 -127.5q84 -113 84 -271q0 -238 -164 -413t-402 -175t-367.5 125t-129.5 324q0 238 163.5 414t391.5 176t361 -113q94 57 123 123q-2 -2 -27 -2t-51.5 25.5t-26.5 72.5t39 84t87 37t81 -31.5t33 -99.5zM324 452q0 -245 240 -245 q118 0 201 102.5t83 226.5q0 246 -240 246q-117 0 -200.5 -103.5t-83.5 -226.5zM862 1139h-182l-266 295h239z" glyph-name="uni1EDD" horiz-adv-x="1175" unicode="ờ"/><glyph d="M762 -25q-291 0 -481.5 168t-190.5 445q0 336 229.5 568.5t564.5 232.5t527 -215q98 55 127 122h-14q-37 0 -62.5 25t-25.5 72t38 83.5t86 36.5t80.5 -31.5t32.5 -99.5t-58.5 -151.5t-148.5 -130.5q88 -143 88 -322q0 -336 -228 -569.5t-564 -233.5zM792 233 q182 0 320.5 153t138.5 372q0 170 -108.5 271t-292.5 101t-320.5 -152.5t-136.5 -371.5q0 -170 108.5 -271.5t290.5 -101.5zM1026 1679q59 0 105.5 -33.5t46.5 -98.5t-50 -120h-116q59 53 59 111q0 25 -15.5 39t-39.5 14q-45 0 -74 -49l-82 41q51 96 166 96z" glyph-name="uni1EDE" horiz-adv-x="1566" unicode="Ở"/><glyph d="M1229 1110q0 -68 -54.5 -148.5t-140.5 -127.5q84 -113 84 -271q0 -238 -164 -413t-402 -175t-367.5 125t-129.5 324q0 238 163.5 414t391.5 176t361 -113q94 57 123 123q-2 -2 -27 -2t-51.5 25.5t-26.5 72.5t39 84t87 37t81 -31.5t33 -99.5zM324 452q0 -245 240 -245 q118 0 201 102.5t83 226.5q0 246 -240 246q-117 0 -200.5 -103.5t-83.5 -226.5zM797 1190q1 53 -65 53q-34 0 -64 -49l-82 41q51 96 166 96q59 0 105 -33.5t46 -98.5t-49 -120h-117q59 53 60 111z" glyph-name="uni1EDF" horiz-adv-x="1175" unicode="ở"/><glyph d="M762 -25q-291 0 -481.5 168t-190.5 445q0 336 229.5 568.5t564.5 232.5t527 -215q98 55 127 122h-14q-37 0 -62.5 25t-25.5 72t38 83.5t86 36.5t80.5 -31.5t32.5 -99.5t-58.5 -151.5t-148.5 -130.5q88 -143 88 -322q0 -336 -228 -569.5t-564 -233.5zM792 233 q182 0 320.5 153t138.5 372q0 170 -108.5 271t-292.5 101t-320.5 -152.5t-136.5 -371.5q0 -170 108.5 -271.5t290.5 -101.5zM1147 1477q-61 0 -102 34.5t-74 69.5t-72 35q-63 0 -90 -127h-139q27 137 85 205.5t155 68.5t149.5 -68.5t105.5 -68.5q61 0 92 125h140 q-31 -137 -89.5 -205.5t-160.5 -68.5z" glyph-name="uni1EE0" horiz-adv-x="1566" unicode="Ỡ"/><glyph d="M1229 1110q0 -68 -54.5 -148.5t-140.5 -127.5q84 -113 84 -271q0 -238 -164 -413t-402 -175t-367.5 125t-129.5 324q0 238 163.5 414t391.5 176t361 -113q94 57 123 123q-2 -2 -27 -2t-51.5 25.5t-26.5 72.5t39 84t87 37t81 -31.5t33 -99.5zM324 452q0 -245 240 -245 q118 0 201 102.5t83 226.5q0 246 -240 246q-117 0 -200.5 -103.5t-83.5 -226.5zM817 1135q-61 0 -102 34.5t-74 69.5t-72 35q-63 0 -90 -127h-139q27 137 85 205.5t163 68.5q49 0 86 -21.5t73 -68.5t89 -47q61 0 92 125h139q-31 -137 -89.5 -205.5t-160.5 -68.5z" glyph-name="uni1EE1" horiz-adv-x="1175" unicode="ỡ"/><glyph d="M762 -25q-291 0 -481.5 168t-190.5 445q0 336 229.5 568.5t564.5 232.5t527 -215q98 55 127 122h-14q-37 0 -62.5 25t-25.5 72t38 83.5t86 36.5t80.5 -31.5t32.5 -99.5t-58.5 -151.5t-148.5 -130.5q88 -143 88 -322q0 -336 -228 -569.5t-564 -233.5zM792 233 q182 0 320.5 153t138.5 372q0 170 -108.5 271t-292.5 101t-320.5 -152.5t-136.5 -371.5q0 -170 108.5 -271.5t290.5 -101.5zM754 -252q0 -57 -48.5 -103t-105.5 -46t-92 34.5t-35 91.5t48.5 104.5t104.5 47.5t92 -36t36 -93z" glyph-name="uni1EE2" horiz-adv-x="1566" unicode="Ợ"/><glyph d="M1229 1110q0 -68 -54.5 -148.5t-140.5 -127.5q84 -113 84 -271q0 -238 -164 -413t-402 -175t-367.5 125t-129.5 324q0 238 163.5 414t391.5 176t361 -113q94 57 123 123q-2 -2 -27 -2t-51.5 25.5t-26.5 72.5t39 84t87 37t81 -31.5t33 -99.5zM324 452q0 -245 240 -245 q118 0 201 102.5t83 226.5q0 246 -240 246q-117 0 -200.5 -103.5t-83.5 -226.5zM557 -252q0 -57 -47.5 -103t-105.5 -46t-93 34.5t-35 91.5t48.5 104.5t104.5 47.5t92 -36t36 -93z" glyph-name="uni1EE3" horiz-adv-x="1175" unicode="ợ"/><glyph d="M727 -25q-287 0 -439.5 129t-152.5 349q0 41 10 92l181 821h295l-179 -813q-8 -25 -8 -68q2 -109 79 -181.5t216 -72.5q283 0 352 322l181 813h297l-183 -819q-59 -272 -210.5 -422t-438.5 -150zM719 -252q0 -57 -47.5 -103t-105.5 -46t-93 34.5t-35 91.5t48.5 104.5 t104.5 47.5t92 -36t36 -93z" glyph-name="uni1EE4" horiz-adv-x="1501" unicode="Ụ"/><glyph d="M522 207q115 0 236 117l147 665h260l-219 -989h-260l29 129q-163 -154 -317 -154t-238 70t-84 184q0 33 10 80l150 680h262l-133 -596q-8 -37 -9 -59q0 -63 46.5 -95t119.5 -32zM561 -252q0 -57 -47.5 -103t-105.5 -46t-92.5 34.5t-34.5 91.5t48 104.5t104 47.5t92 -36 t36 -93z" glyph-name="uni1EE5" unicode="ụ"/><glyph d="M727 -25q-287 0 -439.5 129t-152.5 349q0 41 10 92l181 821h295l-179 -813q-8 -25 -8 -68q2 -109 79 -181.5t216 -72.5q283 0 352 322l181 813h297l-183 -819q-59 -272 -210.5 -422t-438.5 -150zM1036 1538q0 53 -65 53q-35 0 -64 -49l-82 41q51 96 166 96 q59 0 105.5 -33.5t46.5 -98.5t-49 -120h-117q59 53 59 111z" glyph-name="uni1EE6" horiz-adv-x="1501" unicode="Ủ"/><glyph d="M522 207q115 0 236 117l147 665h260l-219 -989h-260l29 129q-163 -154 -317 -154t-238 70t-84 184q0 33 10 80l150 680h262l-133 -596q-8 -37 -9 -59q0 -63 46.5 -95t119.5 -32zM801 1190q1 53 -65 53q-34 0 -64 -49l-82 41q51 96 166 96q59 0 105 -33.5t46 -98.5 t-49 -120h-117q59 53 60 111z" glyph-name="uni1EE7" unicode="ủ"/><glyph d="M1415 1776l-397 -295h-187l340 295h244zM1806 1520q0 -104 -82 -194.5t-206 -139.5l-142 -639q-59 -272 -210.5 -422t-438.5 -150t-439.5 129t-152.5 349q0 41 10 92l181 821h295l-179 -813q-8 -25 -8 -68q2 -109 79 -181.5t216 -72.5q283 0 352 322l181 813h297l-17 -70 q102 57 129 125q-3 -2 -27 -2t-50.5 25.5t-26.5 73.5t39 84t87 36t80.5 -31.5t32.5 -86.5z" glyph-name="uni1EE8" horiz-adv-x="1501" unicode="Ứ"/><glyph d="M1182 1434l-398 -295h-186l340 295h244zM1366 1147q0 -94 -64.5 -175t-171.5 -134l-184 -838h-260l29 127q-161 -152 -317 -152t-240 69t-84 183q0 41 12 82l150 680h260l-131 -598q-8 -37 -9 -57q0 -63 46.5 -95t121.5 -32q115 0 232 117l149 665h260l-6 -28 q53 41 72 88h-14q-37 0 -64 25.5t-27 71.5t39 84t87 38t81 -33t33 -88z" glyph-name="uni1EE9" unicode="ứ"/><glyph d="M1098 1481h-183l-266 295h240zM1806 1520q0 -104 -82 -194.5t-206 -139.5l-142 -639q-59 -272 -210.5 -422t-438.5 -150t-439.5 129t-152.5 349q0 41 10 92l181 821h295l-179 -813q-8 -25 -8 -68q2 -109 79 -181.5t216 -72.5q283 0 352 322l181 813h297l-17 -70 q102 57 129 125q-3 -2 -27 -2t-50.5 25.5t-26.5 73.5t39 84t87 36t80.5 -31.5t32.5 -86.5z" glyph-name="uni1EEA" horiz-adv-x="1501" unicode="Ừ"/><glyph d="M866 1139h-182l-266 295h239zM1366 1147q0 -94 -64.5 -175t-171.5 -134l-184 -838h-260l29 127q-161 -152 -317 -152t-240 69t-84 183q0 41 12 82l150 680h260l-131 -598q-8 -37 -9 -57q0 -63 46.5 -95t121.5 -32q115 0 232 117l149 665h260l-6 -28q53 41 72 88h-14 q-37 0 -64 25.5t-27 71.5t39 84t87 38t81 -33t33 -88z" glyph-name="uni1EEB" unicode="ừ"/><glyph d="M1036 1538q0 53 -65 53q-35 0 -64 -49l-82 41q51 96 166 96q59 0 105.5 -33.5t46.5 -98.5t-49 -120h-117q59 53 59 111zM1806 1520q0 -104 -82 -194.5t-206 -139.5l-142 -639q-59 -272 -210.5 -422t-438.5 -150t-439.5 129t-152.5 349q0 41 10 92l181 821h295l-179 -813 q-8 -25 -8 -68q2 -109 79 -181.5t216 -72.5q283 0 352 322l181 813h297l-17 -70q102 57 129 125q-3 -2 -27 -2t-50.5 25.5t-26.5 73.5t39 84t87 36t80.5 -31.5t32.5 -86.5z" glyph-name="uni1EEC" horiz-adv-x="1501" unicode="Ử"/><glyph d="M801 1190q1 53 -65 53q-34 0 -64 -49l-82 41q51 96 166 96q59 0 105 -33.5t46 -98.5t-49 -120h-117q59 53 60 111zM1366 1147q0 -94 -64.5 -175t-171.5 -134l-184 -838h-260l29 127q-161 -152 -317 -152t-240 69t-84 183q0 41 12 82l150 680h260l-131 -598q-8 -37 -9 -57 q0 -63 46.5 -95t121.5 -32q115 0 232 117l149 665h260l-6 -28q53 41 72 88h-14q-37 0 -64 25.5t-27 71.5t39 84t87 38t81 -33t33 -88z" glyph-name="uni1EED" unicode="ử"/><glyph d="M1806 1520q0 -104 -82 -194.5t-206 -139.5l-142 -639q-59 -272 -210.5 -422t-438.5 -150t-439.5 129t-152.5 349q0 41 10 92l181 821h295l-179 -813q-8 -25 -8 -68q2 -109 79 -181.5t216 -72.5q283 0 352 322l181 813h297l-17 -70q102 57 129 125q-3 -2 -27 -2 t-50.5 25.5t-26.5 73.5t39 84t87 36t80.5 -31.5t32.5 -86.5zM1112 1477q-61 0 -102 34.5t-74 69.5t-72 35q-63 0 -90 -127h-139q27 137 85 205.5t163 68.5q49 0 86 -21.5t72 -68.5t89 -47q61 0 93 125h139q-31 -137 -89.5 -205.5t-160.5 -68.5z" glyph-name="uni1EEE" horiz-adv-x="1501" unicode="Ữ"/><glyph d="M1366 1147q0 -94 -64.5 -175t-171.5 -134l-184 -838h-260l29 127q-161 -152 -317 -152t-240 69t-84 183q0 41 12 82l150 680h260l-131 -598q-8 -37 -9 -57q0 -63 46.5 -95t121.5 -32q115 0 232 117l149 665h260l-6 -28q53 41 72 88h-14q-37 0 -64 25.5t-27 71.5t39 84 t87 38t81 -33t33 -88zM879 1135q-61 0 -102.5 34.5t-74 69.5t-71.5 35q-63 0 -90 -127h-140q27 137 85.5 205.5t162.5 68.5q49 0 86 -21.5t73 -68.5t89 -47q61 0 92 125h139q-31 -137 -89 -205.5t-160 -68.5z" glyph-name="uni1EEF" unicode="ữ"/><glyph d="M719 -252q0 -57 -47.5 -103t-105.5 -46t-93 34.5t-35 91.5t48.5 104.5t104.5 47.5t92 -36t36 -93zM1806 1520q0 -104 -82 -194.5t-206 -139.5l-142 -639q-59 -272 -210.5 -422t-438.5 -150t-439.5 129t-152.5 349q0 41 10 92l181 821h295l-179 -813q-8 -25 -8 -68 q2 -109 79 -181.5t216 -72.5q283 0 352 322l181 813h297l-17 -70q102 57 129 125q-3 -2 -27 -2t-50.5 25.5t-26.5 73.5t39 84t87 36t80.5 -31.5t32.5 -86.5z" glyph-name="uni1EF0" horiz-adv-x="1501" unicode="Ự"/><glyph d="M561 -252q0 -57 -47.5 -103t-105.5 -46t-92.5 34.5t-34.5 91.5t48 104.5t104 47.5t92 -36t36 -93zM1366 1147q0 -94 -64.5 -175t-171.5 -134l-184 -838h-260l29 127q-161 -152 -317 -152t-240 69t-84 183q0 41 12 82l150 680h260l-131 -598q-8 -37 -9 -57q0 -63 46.5 -95 t121.5 -32q115 0 232 117l149 665h260l-6 -28q53 41 72 88h-14q-37 0 -64 25.5t-27 71.5t39 84t87 38t81 -33t33 -88z" glyph-name="uni1EF1" unicode="ự"/><glyph d="M696 0h-290l122 559l-348 807h316l219 -549l456 549h349l-701 -807zM1010 1481h-183l-266 295h240z" glyph-name="Ygrave" horiz-adv-x="1320" unicode="Ỳ"/><glyph d="M94 -168q70 0 117 70l61 92l-176 995h271l104 -688l414 688h286l-720 -1151q-80 -131 -168.5 -185.5t-198.5 -54.5t-182 25l86 225q36 -16 106 -16zM793 1139h-183l-266 295h240z" glyph-name="ygrave" horiz-adv-x="1050" unicode="ỳ"/><glyph glyph-name="uni2009" horiz-adv-x="104" unicode=" "/><glyph d="M1126 385h-1091l49 221h1092z" glyph-name="endash" horiz-adv-x="1214" unicode="–"/><glyph d="M1618 385h-1583l49 221h1583z" glyph-name="emdash" horiz-adv-x="1705" unicode="—"/><glyph d="M1126 385h-1091l49 221h1092z" glyph-name="afii00208" horiz-adv-x="1214" unicode="―"/><glyph d="M186 977q0 117 86 232.5t215 176.5l93 -96q-61 -27 -120 -74t-81 -98q6 2 20 2q53 0 90 -35.5t37 -102.5t-55 -119t-124 -52t-115 44t-46 122z" glyph-name="quoteleft" horiz-adv-x="522" unicode="‘"/><glyph d="M596 1219q0 -115 -86 -231t-215 -179l-94 96q61 27 119.5 74t80.5 98h-20q-53 0 -90 34.5t-37 102.5t56 120t124 52t115 -44.5t47 -122.5z" glyph-name="quoteright" horiz-adv-x="522" unicode="’"/><glyph d="M356 124q0 -98 -86 -214.5t-215 -177.5l-92 96q61 27 119.5 74t81.5 98h-23q-53 0 -89 35t-36 103t55.5 119.5t124.5 51.5t114.5 -43.5t45.5 -141.5z" glyph-name="quotesinglbase" horiz-adv-x="524" unicode="‚"/><glyph d="M246 1112q0 131 67.5 202.5t141.5 71.5t114.5 -41.5t40.5 -109.5t-50 -113t-102 -45t-77 13q2 -55 35 -118t82 -106l-113 -67q-139 139 -139 313z" glyph-name="quotereversed" horiz-adv-x="522" unicode="‛"/><glyph d="M606 977q0 117 85 232.5t214 176.5l94 -96q-61 -27 -119.5 -74t-80.5 -98q4 2 20 2q53 0 90 -35.5t37 -102.5t-55 -119t-124 -52t-115 44t-46 122zM188 977q0 117 86 232.5t215 176.5l95 -96q-61 -27 -119.5 -74t-81.5 -98q4 2 20 2q53 0 90 -35.5t37 -102.5t-55 -119 t-124 -52t-116 44t-47 122z" glyph-name="quotedblleft" horiz-adv-x="940" unicode="“"/><glyph d="M596 1219q0 -115 -86 -231t-215 -179l-94 96q61 27 119.5 74t80.5 98h-20q-53 0 -90 34.5t-37 102.5t56 120t124 52t115 -44.5t47 -122.5zM1012 1202q0 -98 -86 -214t-215 -179l-93 96q61 27 120 74t81 98h-22q-53 0 -89 34.5t-36 102.5t55 120t124 52t115 -43t46 -141z " glyph-name="quotedblright" horiz-adv-x="940" unicode="”"/><glyph d="M356 124q0 -98 -86 -214.5t-215 -177.5l-92 96q61 27 119.5 74t81.5 98h-23q-53 0 -89 35t-36 103t55.5 119.5t124.5 51.5t114.5 -43.5t45.5 -141.5zM772 124q0 -98 -86 -214.5t-215 -177.5l-92 96q61 27 119.5 74t81.5 98h-21q-53 0 -90 35t-37 103t56 119.5t124 51.5 t114 -43.5t46 -141.5z" glyph-name="quotedblbase" horiz-adv-x="940" unicode="„"/><glyph d="M651 1069l-180 8l-82 -407h-139l100 407l-184 -8l29 127l180 -6l35 196h139l-53 -196l184 6z" glyph-name="dagger" horiz-adv-x="567" unicode="†"/><glyph d="M680 1196l-29 -127l-180 8l-88 -397l184 8l-28 -127l-181 6l-36 -198h-140l54 198l-183 -6l29 127l178 -8l88 397l-182 -8l29 127l180 -6l35 196h139l-53 -196z" glyph-name="daggerdbl" horiz-adv-x="567" unicode="‡"/><glyph d="M612 512q0 -102 -81 -180t-183 -78t-164.5 62t-62.5 164t81 180.5t183 78.5t164.5 -62.5t62.5 -164.5z" glyph-name="bullet" horiz-adv-x="733" unicode="•"/><glyph d="M174 -25q-68 0 -113 45.5t-45 113.5t55 121.5t123 53.5t111 -45.5t43 -113.5t-53 -121.5t-121 -53.5zM698 -25q-68 0 -112.5 45.5t-44.5 113.5t54.5 121.5t122.5 53.5t111 -45.5t43 -113.5t-53 -121.5t-121 -53.5zM1222 -25q-68 0 -112.5 45.5t-44.5 113.5t54.5 121.5 t122.5 53.5t111.5 -45.5t43.5 -113.5t-53.5 -121.5t-121.5 -53.5z" glyph-name="ellipsis" horiz-adv-x="1572" unicode="…"/><glyph d="M309 0h-153l1173 1366h156zM1094 -25q-146 0 -242 79t-96 206q0 174 112 285.5t258 111.5t242 -78.5t96 -205.5q0 -174 -112 -286t-258 -112zM1098 135q70 0 125 61.5t55 159.5q0 59 -42 99.5t-113 40.5t-125 -61.5t-54 -140.5t42 -119t112 -40zM506 707 q-146 0 -242 77.5t-96 204.5q0 174 111 285.5t257 111.5t241 -77.5t95 -204.5q0 -174 -110 -285.5t-256 -111.5zM508 866q72 0 126 61t54 139t-42 118.5t-114 40.5t-126 -61.5t-54 -139.5t42 -118t114 -40zM1840 -25q-146 0 -242.5 79t-96.5 206q0 174 111.5 285.5 t257.5 111.5t243 -78.5t97 -205.5q0 -174 -112 -286t-258 -112zM1843 135q72 0 126 61.5t54 159.5q0 59 -42.5 99.5t-112.5 40.5t-124 -61.5t-54 -140.5t40.5 -119t112.5 -40z" glyph-name="perthousand" horiz-adv-x="2297" unicode="‰"/><glyph d="M537 129h-232l-246 369l410 362h248l-418 -373z" glyph-name="guilsinglleft" horiz-adv-x="690" unicode="‹"/><glyph d="M158 860h231l246 -368l-410 -363h-248l418 373z" glyph-name="guilsinglright" horiz-adv-x="690" unicode="›"/><glyph d="M885 1151h-742l33 147h742z" glyph-name="uni203E" horiz-adv-x="743" unicode="‾"/><glyph d="M868 1366l-1175 -1366h-156l1174 1366h157z" glyph-name="fraction" horiz-adv-x="325" unicode="⁄"/><glyph d="M508 848q-150 0 -234 91t-84 246t71 278.5t155 177t190 53.5q150 0 234 -91.5t84 -247.5t-71 -278.5t-155 -175.5t-190 -53zM598 1536q-70 0 -140.5 -94.5t-70.5 -265.5t129 -170q72 0 141.5 95t69.5 265t-129 170z" glyph-name="uni2070" horiz-adv-x="813" unicode="⁰"/><glyph d="M864 1038h-108l-39 -176h-195l39 176h-403l30 133l437 510h272l-106 -489h106zM594 1192l70 315l-275 -315h205z" glyph-name="uni2074" horiz-adv-x="813" unicode="⁴"/><glyph d="M670 1136q0 112 -159 113q-79 0 -149 -65l-126 43l100 454h594l-35 -157h-395l-43 -191q76 59 173 59t168.5 -61.5t71.5 -161.5q0 -137 -97 -229t-259 -92q-238 0 -348 141l125 117q80 -100 219 -100q76 0 118 37t42 93z" glyph-name="uni2075" horiz-adv-x="813" unicode="⁵"/><glyph d="M881 1152q0 -122 -94.5 -213t-254.5 -91t-249.5 85t-89.5 232q0 217 132 373t316 156t289 -97l-109 -131q-63 70 -175 70t-179.5 -83t-67.5 -148v-9q96 109 212 109t193 -65.5t77 -187.5zM680 1138.5q0 53.5 -41 83t-114 29.5t-138 -71q-4 -10 -4 -37q0 -61 41 -99 t106 -38t107.5 39.5t42.5 93z" glyph-name="uni2076" horiz-adv-x="813" unicode="⁶"/><glyph d="M909 1546l-452 -684h-219l450 662h-428l35 157h645z" glyph-name="uni2077" horiz-adv-x="759" unicode="⁷"/><glyph d="M862 1077q0 -100 -86 -164.5t-244 -64.5t-264 55t-106 166q0 84 68.5 150.5t177.5 78.5q-142 55 -142 168t94.5 170.5t227.5 57.5t241.5 -55.5t108.5 -159.5q0 -80 -58.5 -139.5t-166.5 -73.5q61 -25 105 -74t44 -115zM735 1450q0 43 -41 67.5t-101 24.5t-98 -25.5 t-38 -69.5t40 -70.5t78 -33.5q160 15 160 107zM672 1097q0 42 -39 73.5t-88 43.5q-76 -4 -129.5 -36.5t-53.5 -78.5t46 -74t112 -28t109 29t43 71z" glyph-name="uni2078" horiz-adv-x="813" unicode="⁸"/><glyph d="M240 1390q0 121 94 213.5t254 92.5t249 -85t89 -233q0 -217 -132 -372.5t-314 -155.5t-292 96l111 131q63 -69 173 -69t179.5 83t69.5 150v6q-96 -109 -212 -109t-192.5 65.5t-76.5 186.5zM438 1404q0 -54 43 -84t115 -30t135 74q4 10 4 37q0 61 -40.5 99t-106.5 38 t-108 -40t-42 -94z" glyph-name="uni2079" horiz-adv-x="813" unicode="⁹"/><glyph d="M387 1038q0 -145 45 -262l-127 -47q-109 147 -109 365t96.5 405t252.5 316l106 -48q-264 -348 -264 -729z" glyph-name="uni207D" horiz-adv-x="393" unicode="⁽"/><glyph d="M356 1505q0 145 -45 262l129 48q106 -153 106 -369t-96 -403t-249 -314l-109 47q264 348 264 729z" glyph-name="uni207E" horiz-adv-x="393" unicode="⁾"/><glyph d="M668 1085q0 82 -105 82q-74 0 -149 -75l-95 -424h-188l141 643h189l-17 -82q98 98 206 98t165 -45t57 -125q0 -12 -8 -61l-96 -428h-188l84 381q4 25 4 36z" glyph-name="uni207F" horiz-adv-x="841" unicode="ⁿ"/><glyph d="M270 -313q-150 0 -233.5 90.5t-83.5 246.5t70.5 279t154.5 176t191 53q150 0 233.5 -91t83.5 -247t-70.5 -278.5t-154.5 -175.5t-191 -53zM360 375q-70 0 -140 -94t-70 -266q0 -171 129 -171q72 0 141 95t69 266q0 170 -129 170z" glyph-name="uni2080" horiz-adv-x="813" unicode="₀"/><glyph d="M287 -299h-199l123 559l-166 -135l-88 121l340 274h170z" glyph-name="uni2081" horiz-adv-x="585" unicode="₁"/><glyph d="M483 276q0 47 -38.5 73t-98.5 26q-141 0 -229 -88l-82 131q127 115 317 114q145 0 239.5 -63t94.5 -173t-108.5 -210t-335.5 -227h354l-35 -158h-643l35 152q317 184 423.5 267t106.5 156z" glyph-name="uni2082" horiz-adv-x="813" unicode="₂"/><glyph d="M621 -83q0 -83 -88.5 -156.5t-224.5 -73.5t-233.5 40t-144.5 109l123 121q80 -113 234 -113q68 0 102.5 31t34.5 75t-49 67.5t-119 23.5t-82 -2l33 156q45 -4 133 -5q147 0 147 97q0 43 -47 65.5t-116 22.5q-123 0 -211 -74l-68 123q129 108 291 108t256 -58t94 -150 t-60.5 -150.5t-164.5 -67.5q70 -14 115 -60t45 -129z" glyph-name="uni2083" horiz-adv-x="813" unicode="₃"/><glyph d="M627 -123h-109l-39 -176h-194l39 176h-404l31 133l436 510h272l-106 -489h106zM356 31l70 315l-274 -315h204z" glyph-name="uni2084" horiz-adv-x="813" unicode="₄"/><glyph d="M432 -25q0 113 -158 113q-80 0 -149 -65l-127 43l100 454h594l-35 -158h-395l-43 -190q76 59 173 59t169 -61.5t72 -161.5q0 -137 -97.5 -229t-259.5 -92q-238 0 -348 141l125 117q80 -100 219 -101q76 0 118 38t42 93z" glyph-name="uni2085" horiz-adv-x="813" unicode="₅"/><glyph d="M643 -9q0 -122 -94 -213t-254 -91t-250 85t-90 232q0 217 132.5 372.5t316.5 155.5t288 -96l-108 -131q-63 70 -175 70t-179.5 -83t-67.5 -149v-8q96 109 212 109t192.5 -65.5t76.5 -187.5zM442 -22.5q0 53.5 -41 83t-113 29.5t-138 -72q-4 -10 -4 -54t40 -82t106 -38 t108 40t42 93.5z" glyph-name="uni2086" horiz-adv-x="813" unicode="₆"/><glyph d="M672 385l-453 -684h-219l451 661h-428l34 158h645z" glyph-name="uni2087" horiz-adv-x="759" unicode="₇"/><glyph d="M625 -84q0 -100 -86 -164.5t-244 -64.5t-264.5 55t-106.5 166q0 84 68.5 150.5t177.5 78.5q-141 55 -141 168t94 170t227 57t241.5 -55t108.5 -160q0 -80 -58 -139t-167 -74q61 -25 105.5 -73.5t44.5 -114.5zM498 289q0 43 -41 67.5t-101 24.5t-98.5 -25.5t-38.5 -69.5 t40 -71t79 -33q160 15 160 107zM434 -64q0 42 -39 73.5t-88 43.5q-76 -4 -129 -36.5t-53 -78.5t46 -74t112 -28t108.5 29t42.5 71z" glyph-name="uni2088" horiz-adv-x="813" unicode="₈"/><glyph d="M2 229q0 121 94 213.5t254 92.5t249 -85t89 -233q0 -217 -132 -372.5t-314 -155.5t-291 96l110 131q63 -70 174 -70t179.5 83t68.5 151v6q-96 -109 -212 -109t-192.5 65.5t-76.5 186.5zM201 243q0 -54 42.5 -84t114.5 -30t136 74q4 10 4 37q0 61 -40 99t-107 38 t-108.5 -40t-41.5 -94z" glyph-name="uni2089" horiz-adv-x="813" unicode="₉"/><glyph d="M131 -123q0 -145 45 -262l-127 -47q-109 148 -109 366t96.5 404t252.5 315l106 -47q-264 -348 -264 -729z" glyph-name="uni208D" horiz-adv-x="393" unicode="₍"/><glyph d="M100 344q0 145 -45 262l129 47q106 -152 106 -368t-96 -403t-249 -314l-109 47q264 348 264 729z" glyph-name="uni208E" horiz-adv-x="393" unicode="₎"/><glyph d="M780 -25q-49 0 -98 7l-102 -187h-154l117 213q-43 14 -109 45l-143 -258h-156l184 332q-211 172 -210 461q0 352 233 576.5t561 224.5q63 0 111 -9l106 193h154l-125 -223q61 -23 108 -50l152 273h156l-199 -356q92 -86 143 -216l-280 -94l-15 33l-393 -707 q84 6 163 48.5t134 109.5l223 -151q-109 -139 -259 -202t-302 -63zM412 606q0 -125 57 -209l405 733q-190 -6 -326 -156.5t-136 -367.5zM567 297q53 -33 107 -47l448 805q-45 37 -104 55z" glyph-name="colonmonetary" horiz-adv-x="1425" unicode="₡"/><glyph d="M332 0h-291l49 223h-135l33 150h135l219 993h967l-58 -256h-673l-64 -289h660l-58 -256h-659l-43 -192h315l-33 -150h-315z" glyph-name="franc" horiz-adv-x="1187" unicode="₣"/><glyph d="M490 299q54 0 144.5 -34t143.5 -34q94 0 166 76l64 -231q-98 -102 -252 -103q-94 0 -242.5 45t-226.5 45t-209 -77l-55 198q98 43 170.5 112t99.5 146h-260l30 133h242q-6 37 -35 107h-184l31 135h92q-23 57 -23 125q0 184 158 314t379 130q178 0 310 -72.5t173 -201.5 l-264 -108q-14 68 -70.5 106.5t-144.5 38.5t-155.5 -66.5t-67.5 -171.5q0 -49 16 -94h354l-28 -135h-271q12 -53 13 -88l-2 -19h235l-30 -133h-246q-61 -106 -152 -157q43 14 97 14z" glyph-name="lira" horiz-adv-x="1126" unicode="₤"/><glyph d="M1264 0h-281l-229 473h-318l-104 -473h-291l104 473h-135l35 148h133l29 135h-133l30 147h136l102 463h299l225 -463h303l105 463h291l-103 -463h131l-30 -147h-133l-29 -135h133l-35 -148h-131zM500 756l-31 -135h213l-66 135h-116zM938 756l68 -135h100l31 135h-199z " glyph-name="uni20A6" horiz-adv-x="1529" unicode="₦"/><glyph d="M938 1366q178 0 289.5 -106.5t115.5 -276.5h138l-33 -152h-121q-41 -168 -180 -275t-371 -107h-344l-98 -449h-293l182 831h-133l33 152h135l84 383h596zM793 705q158 0 221 126h-498l-29 -126h306zM868 1110h-290l-29 -127h485q-12 55 -56 91t-110 36z" glyph-name="peseta" horiz-adv-x="1386" unicode="₧"/><glyph d="M1665 -25q-137 0 -261 46.5t-206 132.5l145 174q47 -57 146.5 -106.5t181.5 -49.5t122 32t40 76t-79 79.5t-172 61t-172 92.5t-79 167q0 137 109.5 235.5t298.5 98.5q125 0 236.5 -44t183.5 -118l-134 -166q-39 49 -121.5 89t-158.5 40t-115 -27.5t-39 -62.5t37 -58.5 t93.5 -39t121 -41t120.5 -55t93 -84t37 -125.5q0 -147 -115.5 -247t-312.5 -100zM909 1366q172 0 297 -106.5t125 -283.5t-109.5 -308t-279.5 -162l188 -506h-321l-162 485h-225l-107 -485h-290l301 1366h583zM784 741q113 0 177.5 58.5t64.5 139.5t-51 126t-121 45h-293 l-82 -369h305z" glyph-name="uni20A8" horiz-adv-x="2195" unicode="₨"/><glyph d="M1378 0h-309l-16 473h-238l-223 -473h-309l-31 473h-234l33 148h191l-11 135h-149l33 147h108l-30 463h319l8 -463h266l224 463h227l18 -463h265l215 463h333l-233 -463h102l-32 -147h-146l-67 -135h184l-35 -148h-225zM1262 756l6 -135h123l61 135h-190zM524 756l2 -135 h123l66 135h-191zM950 756l-65 -135h162l-5 135h-92zM1274 473l4 -94l43 94h-47zM530 473l2 -94l46 94h-48zM1036 903v35l-16 -35h16z" glyph-name="uni20A9" horiz-adv-x="1880" unicode="₩"/><glyph d="M1110 0h-686l170 764h246l-119 -539h383q109 0 163 58.5t81 185.5l145 657h246l-150 -677q-51 -229 -154.5 -339t-324.5 -110zM770 1126q471 0 471 -348q0 -63 -18 -145l-60 -273h-248l62 275q12 53 12 84q0 182 -213 182h-313l-199 -901h-246l248 1126h504z" glyph-name="afii57636" horiz-adv-x="1730" unicode="₪"/><glyph d="M809 -350h-741l32 147h742zM575 1014q98 0 182.5 -41t133.5 -115l47 223h-307l28 148h312l30 137h263l-31 -137h104l-30 -148h-107l-239 -1081h-263l29 123q-125 -147 -297 -147.5t-274.5 108.5t-102.5 283t58.5 314t180 236.5t283.5 96.5zM616 782q-125 0 -207.5 -102 t-82.5 -224t61.5 -185.5t157.5 -63.5q135 0 227 117l76 344q-76 114 -232 114z" glyph-name="dong" horiz-adv-x="1208" unicode="₫"/><glyph d="M819 -25q-252 0 -433 132.5t-226 353.5h-125l35 160h77q4 72 15 127h-64l35 159h74q92 223 291.5 352.5t439.5 129.5t392.5 -109t217.5 -279l-280 -94q-39 106 -130 164.5t-210 58.5t-222.5 -59t-170.5 -164h524l-37 -159h-555q-16 -66 -16 -127h542l-35 -160h-483 q41 -104 135 -166t204 -62t198 43t145 115l223 -151q-109 -139 -259 -202t-302 -63z" glyph-name="Euro" horiz-adv-x="1452" unicode="€"/><glyph d="M907 1097q0 46 -45 77.5t-114 31.5q-203 0 -248 -209l-58 -256l273 156q72 41 104.5 62.5t60 56.5t27.5 81zM344 264q0 -26 26.5 -47.5t71.5 -21.5t72 22l10 -199q-55 -43 -179 -43t-200.5 55.5t-76.5 155.5q0 37 8 72l170 766q37 174 168.5 268t325.5 94t307.5 -76.5 t113.5 -193.5q0 -51 -31.5 -106.5t-93 -117t-274.5 -181.5l-373 -213l-41 -183q-4 -25 -4 -51z" glyph-name="afii61289" horiz-adv-x="1077" unicode="ℓ"/><glyph d="M1984 717q-154 0 -244.5 82.5t-90.5 228.5t116.5 255.5t270.5 109.5t244 -83.5t90 -229.5t-116 -254.5t-270 -108.5zM1843 1021q0 -153 155 -153q77 0 127 69t50 147q-1 153 -153 153q-76 0 -127.5 -69.5t-51.5 -146.5zM1247 0h-280l-447 922l-205 -922h-290l301 1366 h299l434 -889l198 889h291z" glyph-name="afii61352" horiz-adv-x="2322" unicode="№"/><glyph d="M1544 684q0 -291 -208 -499t-500 -208t-498.5 207t-206.5 500t207 500t499 207t499.5 -208t207.5 -499zM1470 684q0 260 -187 446.5t-447.5 186.5t-445.5 -186.5t-185 -446.5t185 -446.5t445.5 -186.5t447.5 186.5t187 446.5zM1219 872q0 -108 -86 -185t-215 -77h-248 l-74 -342h-94l182 830h281q106 0 180 -59t74 -167zM1122 866q0 68 -46 107t-124 39h-192l-70 -318h242q84 0 137 52t53 120z" glyph-name="uni2117" horiz-adv-x="1593" unicode="℗"/><glyph d="M991 915h-57l82 373l-236 -373h-16l-72 373l-82 -373h-57l98 451h86l60 -328l202 328h91zM506 1036q0 -56 -47 -96.5t-127 -40.5q-141 0 -197 82l45 39q47 -68 148 -68q49 0 77.5 22.5t28.5 56.5t-37 57.5t-80 38t-79.5 43t-36.5 78.5t48 90t124 40q129 0 176 -71 l-47 -35q-41 57 -133 57q-45 0 -72 -22.5t-27 -53t37 -53t81 -35t81 -43t37 -86.5z" glyph-name="uni2120" horiz-adv-x="974" unicode="℠"/><glyph d="M950 915h-57l82 373l-236 -373h-16l-72 373l-82 -373h-57l98 451h88l60 -328l203 328h88zM526 1313h-127l-88 -398h-57l88 398h-127l10 53h312z" glyph-name="trademark" horiz-adv-x="929" unicode="™"/><glyph d="M115 691q0 134 50 255t144 220.5t243.5 161t330.5 61.5q295 0 487.5 -154t192.5 -416q0 -199 -111 -343t-260 -220h215l-55 -256h-553l57 256q176 39 283.5 179.5t107.5 316.5t-100 276t-277 100q-209 0 -341 -154.5t-132 -363.5q0 -246 205 -354l-55 -256h-551l57 256 h279q-94 74 -155.5 187.5t-61.5 247.5z" glyph-name="uni2126" horiz-adv-x="1566" unicode="Ω"/><glyph d="M403 664q-8 0 -8 -11v-389q0 -31 19 -47q200 -211 500 -211t503 236h117q-111 -129 -276.5 -204t-356.5 -75q-330 0 -564.5 211t-234.5 508t234.5 508t564.5 211t564.5 -211t234.5 -508l-2 -18h-1295zM1407 715v391q0 29 -21 49q-199 203 -483.5 203t-486.5 -209 q-20 -20 -21 -49v-385q0 -12 11 -13h993q8 1 8 13z" glyph-name="estimated" horiz-adv-x="1724" unicode="℮"/><glyph d="M473 547h-199l123 559l-166 -135l-88 121l340 274h170zM1503 1366l-1175 -1366h-156l1174 1366h157zM1647 216q0 -83 -88.5 -156.5t-224.5 -73.5t-233 40t-145 109l123 121q80 -113 234 -113q68 0 102.5 31t34.5 75t-49 67.5t-119 23.5t-82 -2l33 156q45 -4 133 -5 q147 0 147 97q0 43 -47 65.5t-116 22.5q-123 0 -211 -74l-68 123q129 109 291 109t256 -58t94 -150t-60.5 -151t-164.5 -67q70 -14 115 -60.5t45 -129.5z" glyph-name="onethird" horiz-adv-x="1775" unicode="⅓"/><glyph d="M670 1122q0 47 -39 73t-99 26q-141 0 -229 -88l-82 131q127 115 318 114q145 0 239 -63t94 -173t-108.5 -210.5t-335.5 -226.5h354l-34 -158h-644l35 151q317 184 424 267.5t107 156.5zM1681 1366l-1175 -1366h-156l1174 1366h157zM1827 216q0 -83 -88.5 -156.5 t-224.5 -73.5t-233 40t-144 109l123 121q80 -113 233 -113q68 0 102.5 31t34.5 75t-49 67.5t-119 23.5t-82 -2l33 156q45 -4 133 -5q147 0 148 97q0 43 -47.5 65.5t-116.5 22.5q-123 0 -211 -74l-68 123q129 109 291 109t256 -58t94 -150t-60 -151t-165 -67 q70 -14 115 -60.5t45 -129.5z" glyph-name="twothirds" horiz-adv-x="1953" unicode="⅔"/><glyph d="M473 547h-199l123 559l-166 -135l-88 121l340 274h170zM1651 215q0 -100 -86 -164.5t-244 -64.5t-264.5 55t-106.5 166q0 84 68.5 150.5t177.5 78.5q-141 55 -141 168t94 170t227 57t241.5 -55t108.5 -160q0 -80 -58 -139t-167 -74q61 -25 105.5 -73.5t44.5 -114.5z M1524 588q0 43 -41 67.5t-101 24.5t-98.5 -25.5t-38.5 -69.5t40 -71t79 -33q160 15 160 107zM1460 235q0 42 -39 73.5t-88 43.5q-76 -4 -129 -37t-53 -79t46 -73.5t112 -27.5t108.5 29t42.5 71zM1503 1366l-1175 -1366h-156l1174 1366h157z" glyph-name="oneeighth" horiz-adv-x="1775" unicode="⅛"/><glyph d="M1831 215q0 -100 -86 -164.5t-244 -64.5t-264.5 55t-106.5 166q0 84 69 150.5t177 78.5q-141 55 -141 168t94 170t227 57t242 -55t109 -160q0 -80 -58.5 -139t-167.5 -74q61 -25 105.5 -73.5t44.5 -114.5zM1704 588q0 43 -41 67.5t-101 24.5t-98.5 -25.5t-38.5 -69.5 t40 -71t79 -33q160 15 160 107zM1640 235q0 42 -38.5 73.5t-88.5 43.5q-76 -4 -129 -37t-53 -79t46 -73.5t112 -27.5t108.5 29t42.5 71zM1681 1366l-1175 -1366h-156l1174 1366h157zM807 763q0 -83 -88.5 -157t-224.5 -74t-233 40t-144 110l123 121q80 -113 233 -113 q68 0 102.5 31t34.5 75t-49 67.5t-119 23.5t-82 -2l33 155q45 -4 133 -4q147 0 148 97q0 43 -47 65.5t-117 22.5q-123 0 -211 -74l-68 123q129 108 291 108t256 -58t94 -150t-60 -150.5t-165 -67.5q70 -14 115 -60t45 -129z" glyph-name="threeeighths" horiz-adv-x="1953" unicode="⅜"/><glyph d="M1817 215q0 -100 -86 -164.5t-244 -64.5t-264.5 55t-106.5 166q0 84 68.5 150.5t177.5 78.5q-141 55 -141 168t94 170t227 57t241.5 -55t108.5 -160q0 -80 -58 -139t-167 -74q61 -25 105.5 -73.5t44.5 -114.5zM1690 588q0 43 -41 67.5t-101 24.5t-98.5 -25.5t-38.5 -69.5 t40 -71t79 -33q160 15 160 107zM1626 235q0 42 -39 73.5t-88 43.5q-76 -4 -129 -37t-53 -79t46 -73.5t112 -27.5t108.5 29t42.5 71zM618 821q0 113 -157 113q-80 0 -150 -66l-127 43l101 455h594l-35 -158h-395l-43 -190q76 59 172 59t168.5 -61.5t72.5 -161.5 q0 -137 -97 -229.5t-259 -92.5q-238 0 -348 142l125 117q80 -100 219 -101q76 0 117.5 38t41.5 93zM1669 1366l-1175 -1366h-156l1173 1366h158z" glyph-name="fiveeighths" horiz-adv-x="1941" unicode="⅝"/><glyph d="M1663 215q0 -100 -86 -164.5t-244 -64.5t-264 55t-106 166q0 84 68.5 150.5t176.5 78.5q-141 55 -141 168t94 170t227 57t242 -55t109 -160q0 -80 -58.5 -139t-167.5 -74q61 -25 105.5 -73.5t44.5 -114.5zM1536 588q0 43 -41 67.5t-101 24.5t-98.5 -25.5t-38.5 -69.5 t40 -71t79 -33q160 15 160 107zM1473 235q0 42 -39 73.5t-88 43.5q-76 -4 -129.5 -37t-53.5 -79t46 -73.5t112 -27.5t109 29t43 71zM858 1231l-452 -684h-220l451 661h-428l35 158h645zM1516 1366l-1176 -1366h-156l1174 1366h158z" glyph-name="seveneighths" horiz-adv-x="1787" unicode="⅞"/><glyph d="M1143 432h-551l24 -266l-575 420l575 418l-24 -265h551v-307z" glyph-name="arrowleft" horiz-adv-x="1191" unicode="←"/><glyph d="M483 35v551l-266 -25l420 576l418 -576l-264 25v-551h-308z" glyph-name="arrowup" horiz-adv-x="1191" unicode="↑"/><glyph d="M137 432v307h549l-24 265l575 -418l-575 -420l24 266h-549z" glyph-name="arrowright" horiz-adv-x="1191" unicode="→"/><glyph d="M791 1137v-551l266 24l-420 -575l-418 575l264 -24v551h308z" glyph-name="arrowdown" horiz-adv-x="1191" unicode="↓"/><glyph d="M551 -25q-227 0 -367.5 119t-140.5 327t147.5 364.5t358.5 156.5q244 0 336 -223q-31 135 -160 283.5t-299 273.5l184 190q518 -397 518 -839q0 -274 -158.5 -463t-418.5 -189zM319 432q0 -224 240 -225q117 0 197 85t80 212q0 86 -62.5 146.5t-179.5 60.5t-196 -83.5 t-79 -195.5z" glyph-name="partialdiff" horiz-adv-x="1175" unicode="∂"/><glyph d="M1298 0h-1419l830 1366h364zM958 256l-116 819l-480 -819h596z" glyph-name="uni2206" horiz-adv-x="1400" unicode="∆"/><glyph d="M1198 -184h-293l285 1294h-498l-286 -1294h-293l286 1294h-215l58 256h1511l-57 -256h-213z" glyph-name="product" horiz-adv-x="1613" unicode="∏"/><glyph d="M584 1110l305 -516l-531 -522h654l-58 -256h-1013l55 256l534 532l-301 506l56 256h1011l-55 -256h-657z" glyph-name="summation" horiz-adv-x="1200" unicode="∑"/><glyph d="M997 610h-915l37 162h913z" glyph-name="minus" horiz-adv-x="1032" unicode="−"/><glyph d="M868 1366l-1175 -1366h-156l1174 1366h157z" glyph-name="uni2215" horiz-adv-x="325" unicode="∕"/></font>
</defs>
</svg>
